%TF.GenerationSoftware,KiCad,Pcbnew,(6.0.11)*%
%TF.CreationDate,2023-04-18T18:31:17+02:00*%
%TF.ProjectId,FarmSupply,4661726d-5375-4707-906c-792e6b696361,rev?*%
%TF.SameCoordinates,Original*%
%TF.FileFunction,Soldermask,Top*%
%TF.FilePolarity,Negative*%
%FSLAX46Y46*%
G04 Gerber Fmt 4.6, Leading zero omitted, Abs format (unit mm)*
G04 Created by KiCad (PCBNEW (6.0.11)) date 2023-04-18 18:31:17*
%MOMM*%
%LPD*%
G01*
G04 APERTURE LIST*
G04 Aperture macros list*
%AMRoundRect*
0 Rectangle with rounded corners*
0 $1 Rounding radius*
0 $2 $3 $4 $5 $6 $7 $8 $9 X,Y pos of 4 corners*
0 Add a 4 corners polygon primitive as box body*
4,1,4,$2,$3,$4,$5,$6,$7,$8,$9,$2,$3,0*
0 Add four circle primitives for the rounded corners*
1,1,$1+$1,$2,$3*
1,1,$1+$1,$4,$5*
1,1,$1+$1,$6,$7*
1,1,$1+$1,$8,$9*
0 Add four rect primitives between the rounded corners*
20,1,$1+$1,$2,$3,$4,$5,0*
20,1,$1+$1,$4,$5,$6,$7,0*
20,1,$1+$1,$6,$7,$8,$9,0*
20,1,$1+$1,$8,$9,$2,$3,0*%
G04 Aperture macros list end*
%ADD10C,0.650000*%
%ADD11R,0.300000X1.750000*%
%ADD12O,0.900000X2.100000*%
%ADD13O,1.000000X1.600000*%
%ADD14RoundRect,0.250000X0.262500X0.450000X-0.262500X0.450000X-0.262500X-0.450000X0.262500X-0.450000X0*%
%ADD15RoundRect,0.250000X-0.262500X-0.450000X0.262500X-0.450000X0.262500X0.450000X-0.262500X0.450000X0*%
%ADD16C,3.200000*%
%ADD17RoundRect,0.250000X0.450000X-0.262500X0.450000X0.262500X-0.450000X0.262500X-0.450000X-0.262500X0*%
%ADD18RoundRect,0.243750X0.456250X-0.243750X0.456250X0.243750X-0.456250X0.243750X-0.456250X-0.243750X0*%
G04 APERTURE END LIST*
D10*
%TO.C,P6*%
X86010000Y-85579200D03*
X91790000Y-85579200D03*
D11*
X92250000Y-86919200D03*
X91450000Y-86919200D03*
X90150000Y-86919200D03*
X89150000Y-86919200D03*
X88650000Y-86919200D03*
X87650000Y-86919200D03*
X86350000Y-86919200D03*
X85550000Y-86919200D03*
X85850000Y-86919200D03*
X86650000Y-86919200D03*
X87150000Y-86919200D03*
X88150000Y-86919200D03*
X89650000Y-86919200D03*
X90650000Y-86919200D03*
X91150000Y-86919200D03*
X91950000Y-86919200D03*
D12*
X84580000Y-86079200D03*
X93220000Y-86079200D03*
D13*
X84580000Y-81899200D03*
X93220000Y-81899200D03*
%TD*%
D10*
%TO.C,P5*%
X97440000Y-85630000D03*
X103220000Y-85630000D03*
D11*
X103680000Y-86970000D03*
X102880000Y-86970000D03*
X101580000Y-86970000D03*
X100580000Y-86970000D03*
X100080000Y-86970000D03*
X99080000Y-86970000D03*
X97780000Y-86970000D03*
X96980000Y-86970000D03*
X97280000Y-86970000D03*
X98080000Y-86970000D03*
X98580000Y-86970000D03*
X99580000Y-86970000D03*
X101080000Y-86970000D03*
X102080000Y-86970000D03*
X102580000Y-86970000D03*
X103380000Y-86970000D03*
D12*
X96010000Y-86130000D03*
X104650000Y-86130000D03*
D13*
X96010000Y-81950000D03*
X104650000Y-81950000D03*
%TD*%
D10*
%TO.C,P4*%
X108870000Y-85630000D03*
X114650000Y-85630000D03*
D11*
X115110000Y-86970000D03*
X114310000Y-86970000D03*
X113010000Y-86970000D03*
X112010000Y-86970000D03*
X111510000Y-86970000D03*
X110510000Y-86970000D03*
X109210000Y-86970000D03*
X108410000Y-86970000D03*
X108710000Y-86970000D03*
X109510000Y-86970000D03*
X110010000Y-86970000D03*
X111010000Y-86970000D03*
X112510000Y-86970000D03*
X113510000Y-86970000D03*
X114010000Y-86970000D03*
X114810000Y-86970000D03*
D12*
X107440000Y-86130000D03*
X116080000Y-86130000D03*
D13*
X107440000Y-81950000D03*
X116080000Y-81950000D03*
%TD*%
D10*
%TO.C,P3*%
X114650000Y-94710000D03*
X108870000Y-94710000D03*
D11*
X108410000Y-93370000D03*
X109210000Y-93370000D03*
X110510000Y-93370000D03*
X111510000Y-93370000D03*
X112010000Y-93370000D03*
X113010000Y-93370000D03*
X114310000Y-93370000D03*
X115110000Y-93370000D03*
X114810000Y-93370000D03*
X114010000Y-93370000D03*
X113510000Y-93370000D03*
X112510000Y-93370000D03*
X111010000Y-93370000D03*
X110010000Y-93370000D03*
X109510000Y-93370000D03*
X108710000Y-93370000D03*
D12*
X116080000Y-94210000D03*
X107440000Y-94210000D03*
D13*
X116080000Y-98390000D03*
X107440000Y-98390000D03*
%TD*%
D10*
%TO.C,P2*%
X103220000Y-94710000D03*
X97440000Y-94710000D03*
D11*
X96980000Y-93370000D03*
X97780000Y-93370000D03*
X99080000Y-93370000D03*
X100080000Y-93370000D03*
X100580000Y-93370000D03*
X101580000Y-93370000D03*
X102880000Y-93370000D03*
X103680000Y-93370000D03*
X103380000Y-93370000D03*
X102580000Y-93370000D03*
X102080000Y-93370000D03*
X101080000Y-93370000D03*
X99580000Y-93370000D03*
X98580000Y-93370000D03*
X98080000Y-93370000D03*
X97280000Y-93370000D03*
D12*
X104650000Y-94210000D03*
X96010000Y-94210000D03*
D13*
X104650000Y-98390000D03*
X96010000Y-98390000D03*
%TD*%
D10*
%TO.C,P1*%
X91790000Y-94710000D03*
X86010000Y-94710000D03*
D11*
X85550000Y-93370000D03*
X86350000Y-93370000D03*
X87650000Y-93370000D03*
X88650000Y-93370000D03*
X89150000Y-93370000D03*
X90150000Y-93370000D03*
X91450000Y-93370000D03*
X92250000Y-93370000D03*
X91950000Y-93370000D03*
X91150000Y-93370000D03*
X90650000Y-93370000D03*
X89650000Y-93370000D03*
X88150000Y-93370000D03*
X87150000Y-93370000D03*
X86650000Y-93370000D03*
X85850000Y-93370000D03*
D12*
X93220000Y-94210000D03*
X84580000Y-94210000D03*
D13*
X93220000Y-98390000D03*
X84580000Y-98390000D03*
%TD*%
D14*
%TO.C,R12*%
X117117500Y-90170000D03*
X115292500Y-90170000D03*
%TD*%
D15*
%TO.C,R11*%
X111562500Y-90170000D03*
X113387500Y-90170000D03*
%TD*%
%TO.C,R10*%
X107752500Y-90170000D03*
X109577500Y-90170000D03*
%TD*%
%TO.C,R9*%
X84535000Y-90170000D03*
X86360000Y-90170000D03*
%TD*%
%TO.C,R8*%
X88345000Y-90170000D03*
X90170000Y-90170000D03*
%TD*%
%TO.C,R6*%
X96242500Y-90170000D03*
X98067500Y-90170000D03*
%TD*%
D14*
%TO.C,R5*%
X101877500Y-90170000D03*
X100052500Y-90170000D03*
%TD*%
%TO.C,R4*%
X105687500Y-90170000D03*
X103862500Y-90170000D03*
%TD*%
%TO.C,R2*%
X93980000Y-90170000D03*
X92155000Y-90170000D03*
%TD*%
D16*
%TO.C,H2*%
X120650000Y-85090000D03*
%TD*%
%TO.C,H1*%
X79375000Y-85090000D03*
%TD*%
D17*
%TO.C,R1*%
X76200000Y-91440000D03*
X76200000Y-89615000D03*
%TD*%
D18*
%TO.C,D1*%
X82550000Y-91440000D03*
X82550000Y-89565000D03*
%TD*%
D16*
%TO.C,H3*%
X120650000Y-95250000D03*
%TD*%
%TO.C,H4*%
X79375000Y-95250000D03*
%TD*%
M02*
