M48
; DRILL file {KiCad (6.0.11)} date Tue Apr 18 18:31:20 2023
; FORMAT={-:-/ absolute / inch / decimal}
; #@! TF.CreationDate,2023-04-18T18:31:20+02:00
; #@! TF.GenerationSoftware,Kicad,Pcbnew,(6.0.11)
; #@! TF.FileFunction,Plated,1,2,PTH
FMAT,2
INCH
; #@! TA.AperFunction,Plated,PTH,ViaDrill
T1C0.0157
; #@! TA.AperFunction,Plated,PTH,ComponentDrill
T2C0.0197
; #@! TA.AperFunction,Plated,PTH,ComponentDrill
T3C0.0236
%
G90
G05
T1
X3.3199Y-3.6227
X3.4798Y-3.4894
X3.5201Y-3.7539
X3.9833Y-3.7414
X4.1347Y-3.6227
X4.3799Y-3.3461
X4.4202Y-3.6096
X4.5914Y-3.6227
T2
G00X3.3299Y-3.4126
M15
G01X3.3299Y-3.3653
M16
G05
G00X3.3299Y-3.6854
M15
G01X3.3299Y-3.7327
M16
G05
G00X3.6701Y-3.4126
M15
G01X3.6701Y-3.3653
M16
G05
G00X3.6701Y-3.6854
M15
G01X3.6701Y-3.7327
M16
G05
G00X3.7799Y-3.4146
M15
G01X3.7799Y-3.3673
M16
G05
G00X3.7799Y-3.6854
M15
G01X3.7799Y-3.7327
M16
G05
G00X4.1201Y-3.4146
M15
G01X4.1201Y-3.3673
M16
G05
G00X4.1201Y-3.6854
M15
G01X4.1201Y-3.7327
M16
G05
G00X4.2299Y-3.4146
M15
G01X4.2299Y-3.3673
M16
G05
G00X4.2299Y-3.6854
M15
G01X4.2299Y-3.7327
M16
G05
G00X4.5701Y-3.4146
M15
G01X4.5701Y-3.3673
M16
G05
G00X4.5701Y-3.6854
M15
G01X4.5701Y-3.7327
M16
G05
T3
G00X3.3299Y-3.2362
M15
G01X3.3299Y-3.2126
M16
G05
G00X3.3299Y-3.8618
M15
G01X3.3299Y-3.8854
M16
G05
G00X3.6701Y-3.2362
M15
G01X3.6701Y-3.2126
M16
G05
G00X3.6701Y-3.8618
M15
G01X3.6701Y-3.8854
M16
G05
G00X3.7799Y-3.2382
M15
G01X3.7799Y-3.2146
M16
G05
G00X3.7799Y-3.8618
M15
G01X3.7799Y-3.8854
M16
G05
G00X4.1201Y-3.2382
M15
G01X4.1201Y-3.2146
M16
G05
G00X4.1201Y-3.8618
M15
G01X4.1201Y-3.8854
M16
G05
G00X4.2299Y-3.2382
M15
G01X4.2299Y-3.2146
M16
G05
G00X4.2299Y-3.8618
M15
G01X4.2299Y-3.8854
M16
G05
G00X4.5701Y-3.2382
M15
G01X4.5701Y-3.2146
M16
G05
G00X4.5701Y-3.8618
M15
G01X4.5701Y-3.8854
M16
G05
T0
M30
