%TF.GenerationSoftware,KiCad,Pcbnew,(6.0.11)*%
%TF.CreationDate,2023-04-18T18:31:17+02:00*%
%TF.ProjectId,FarmSupply,4661726d-5375-4707-906c-792e6b696361,rev?*%
%TF.SameCoordinates,Original*%
%TF.FileFunction,Copper,L1,Top*%
%TF.FilePolarity,Positive*%
%FSLAX46Y46*%
G04 Gerber Fmt 4.6, Leading zero omitted, Abs format (unit mm)*
G04 Created by KiCad (PCBNEW (6.0.11)) date 2023-04-18 18:31:17*
%MOMM*%
%LPD*%
G01*
G04 APERTURE LIST*
G04 Aperture macros list*
%AMRoundRect*
0 Rectangle with rounded corners*
0 $1 Rounding radius*
0 $2 $3 $4 $5 $6 $7 $8 $9 X,Y pos of 4 corners*
0 Add a 4 corners polygon primitive as box body*
4,1,4,$2,$3,$4,$5,$6,$7,$8,$9,$2,$3,0*
0 Add four circle primitives for the rounded corners*
1,1,$1+$1,$2,$3*
1,1,$1+$1,$4,$5*
1,1,$1+$1,$6,$7*
1,1,$1+$1,$8,$9*
0 Add four rect primitives between the rounded corners*
20,1,$1+$1,$2,$3,$4,$5,0*
20,1,$1+$1,$4,$5,$6,$7,0*
20,1,$1+$1,$6,$7,$8,$9,0*
20,1,$1+$1,$8,$9,$2,$3,0*%
G04 Aperture macros list end*
%TA.AperFunction,SMDPad,CuDef*%
%ADD10R,0.300000X1.750000*%
%TD*%
%TA.AperFunction,ComponentPad*%
%ADD11O,0.900000X2.100000*%
%TD*%
%TA.AperFunction,ComponentPad*%
%ADD12O,1.000000X1.600000*%
%TD*%
%TA.AperFunction,SMDPad,CuDef*%
%ADD13RoundRect,0.250000X0.262500X0.450000X-0.262500X0.450000X-0.262500X-0.450000X0.262500X-0.450000X0*%
%TD*%
%TA.AperFunction,SMDPad,CuDef*%
%ADD14RoundRect,0.250000X-0.262500X-0.450000X0.262500X-0.450000X0.262500X0.450000X-0.262500X0.450000X0*%
%TD*%
%TA.AperFunction,SMDPad,CuDef*%
%ADD15RoundRect,0.250000X0.450000X-0.262500X0.450000X0.262500X-0.450000X0.262500X-0.450000X-0.262500X0*%
%TD*%
%TA.AperFunction,SMDPad,CuDef*%
%ADD16RoundRect,0.243750X0.456250X-0.243750X0.456250X0.243750X-0.456250X0.243750X-0.456250X-0.243750X0*%
%TD*%
%TA.AperFunction,ViaPad*%
%ADD17C,0.800000*%
%TD*%
%TA.AperFunction,Conductor*%
%ADD18C,0.250000*%
%TD*%
G04 APERTURE END LIST*
D10*
%TO.P,P6,A1,GND*%
%TO.N,GND*%
X92250000Y-86919200D03*
%TO.P,P6,A4,VBUS*%
%TO.N,+5V*%
X91450000Y-86919200D03*
%TO.P,P6,A5,CC1*%
%TO.N,Net-(P6-PadA5)*%
X90150000Y-86919200D03*
%TO.P,P6,A6,D+*%
%TO.N,unconnected-(P6-PadA6)*%
X89150000Y-86919200D03*
%TO.P,P6,A7,D-*%
%TO.N,unconnected-(P6-PadA7)*%
X88650000Y-86919200D03*
%TO.P,P6,A8,SBU1*%
%TO.N,unconnected-(P6-PadA8)*%
X87650000Y-86919200D03*
%TO.P,P6,A9,VBUS*%
%TO.N,+5V*%
X86350000Y-86919200D03*
%TO.P,P6,A12,GND*%
%TO.N,GND*%
X85550000Y-86919200D03*
%TO.P,P6,B1,GND*%
X85850000Y-86919200D03*
%TO.P,P6,B4,VBUS*%
%TO.N,+5V*%
X86650000Y-86919200D03*
%TO.P,P6,B5,CC2*%
%TO.N,Net-(P6-PadB5)*%
X87150000Y-86919200D03*
%TO.P,P6,B6,D+*%
%TO.N,unconnected-(P6-PadB6)*%
X88150000Y-86919200D03*
%TO.P,P6,B7,D-*%
%TO.N,unconnected-(P6-PadB7)*%
X89650000Y-86919200D03*
%TO.P,P6,B8,SBU2*%
%TO.N,unconnected-(P6-PadB8)*%
X90650000Y-86919200D03*
%TO.P,P6,B9,VBUS*%
%TO.N,+5V*%
X91150000Y-86919200D03*
%TO.P,P6,B12,GND*%
%TO.N,GND*%
X91950000Y-86919200D03*
D11*
%TO.P,P6,S1,SHIELD*%
X84580000Y-86079200D03*
X93220000Y-86079200D03*
D12*
X84580000Y-81899200D03*
X93220000Y-81899200D03*
%TD*%
D10*
%TO.P,P5,A1,GND*%
%TO.N,GND*%
X103680000Y-86970000D03*
%TO.P,P5,A4,VBUS*%
%TO.N,+5V*%
X102880000Y-86970000D03*
%TO.P,P5,A5,CC1*%
%TO.N,Net-(P5-PadA5)*%
X101580000Y-86970000D03*
%TO.P,P5,A6,D+*%
%TO.N,unconnected-(P5-PadA6)*%
X100580000Y-86970000D03*
%TO.P,P5,A7,D-*%
%TO.N,unconnected-(P5-PadA7)*%
X100080000Y-86970000D03*
%TO.P,P5,A8,SBU1*%
%TO.N,unconnected-(P5-PadA8)*%
X99080000Y-86970000D03*
%TO.P,P5,A9,VBUS*%
%TO.N,+5V*%
X97780000Y-86970000D03*
%TO.P,P5,A12,GND*%
%TO.N,GND*%
X96980000Y-86970000D03*
%TO.P,P5,B1,GND*%
X97280000Y-86970000D03*
%TO.P,P5,B4,VBUS*%
%TO.N,+5V*%
X98080000Y-86970000D03*
%TO.P,P5,B5,CC2*%
%TO.N,Net-(P5-PadB5)*%
X98580000Y-86970000D03*
%TO.P,P5,B6,D+*%
%TO.N,unconnected-(P5-PadB6)*%
X99580000Y-86970000D03*
%TO.P,P5,B7,D-*%
%TO.N,unconnected-(P5-PadB7)*%
X101080000Y-86970000D03*
%TO.P,P5,B8,SBU2*%
%TO.N,unconnected-(P5-PadB8)*%
X102080000Y-86970000D03*
%TO.P,P5,B9,VBUS*%
%TO.N,+5V*%
X102580000Y-86970000D03*
%TO.P,P5,B12,GND*%
%TO.N,GND*%
X103380000Y-86970000D03*
D11*
%TO.P,P5,S1,SHIELD*%
X96010000Y-86130000D03*
X104650000Y-86130000D03*
D12*
X96010000Y-81950000D03*
X104650000Y-81950000D03*
%TD*%
D10*
%TO.P,P4,A1,GND*%
%TO.N,GND*%
X115110000Y-86970000D03*
%TO.P,P4,A4,VBUS*%
%TO.N,+5V*%
X114310000Y-86970000D03*
%TO.P,P4,A5,CC1*%
%TO.N,Net-(P4-PadA5)*%
X113010000Y-86970000D03*
%TO.P,P4,A6,D+*%
%TO.N,unconnected-(P4-PadA6)*%
X112010000Y-86970000D03*
%TO.P,P4,A7,D-*%
%TO.N,unconnected-(P4-PadA7)*%
X111510000Y-86970000D03*
%TO.P,P4,A8,SBU1*%
%TO.N,unconnected-(P4-PadA8)*%
X110510000Y-86970000D03*
%TO.P,P4,A9,VBUS*%
%TO.N,+5V*%
X109210000Y-86970000D03*
%TO.P,P4,A12,GND*%
%TO.N,GND*%
X108410000Y-86970000D03*
%TO.P,P4,B1,GND*%
X108710000Y-86970000D03*
%TO.P,P4,B4,VBUS*%
%TO.N,+5V*%
X109510000Y-86970000D03*
%TO.P,P4,B5,CC2*%
%TO.N,Net-(P4-PadB5)*%
X110010000Y-86970000D03*
%TO.P,P4,B6,D+*%
%TO.N,unconnected-(P4-PadB6)*%
X111010000Y-86970000D03*
%TO.P,P4,B7,D-*%
%TO.N,unconnected-(P4-PadB7)*%
X112510000Y-86970000D03*
%TO.P,P4,B8,SBU2*%
%TO.N,unconnected-(P4-PadB8)*%
X113510000Y-86970000D03*
%TO.P,P4,B9,VBUS*%
%TO.N,+5V*%
X114010000Y-86970000D03*
%TO.P,P4,B12,GND*%
%TO.N,GND*%
X114810000Y-86970000D03*
D11*
%TO.P,P4,S1,SHIELD*%
X107440000Y-86130000D03*
X116080000Y-86130000D03*
D12*
X107440000Y-81950000D03*
X116080000Y-81950000D03*
%TD*%
D10*
%TO.P,P3,A1,GND*%
%TO.N,GND*%
X108410000Y-93370000D03*
%TO.P,P3,A4,VBUS*%
%TO.N,+5V*%
X109210000Y-93370000D03*
%TO.P,P3,A5,CC1*%
%TO.N,Net-(P3-PadA5)*%
X110510000Y-93370000D03*
%TO.P,P3,A6,D+*%
%TO.N,unconnected-(P3-PadA6)*%
X111510000Y-93370000D03*
%TO.P,P3,A7,D-*%
%TO.N,unconnected-(P3-PadA7)*%
X112010000Y-93370000D03*
%TO.P,P3,A8,SBU1*%
%TO.N,unconnected-(P3-PadA8)*%
X113010000Y-93370000D03*
%TO.P,P3,A9,VBUS*%
%TO.N,+5V*%
X114310000Y-93370000D03*
%TO.P,P3,A12,GND*%
%TO.N,GND*%
X115110000Y-93370000D03*
%TO.P,P3,B1,GND*%
X114810000Y-93370000D03*
%TO.P,P3,B4,VBUS*%
%TO.N,+5V*%
X114010000Y-93370000D03*
%TO.P,P3,B5,CC2*%
%TO.N,Net-(P3-PadB5)*%
X113510000Y-93370000D03*
%TO.P,P3,B6,D+*%
%TO.N,unconnected-(P3-PadB6)*%
X112510000Y-93370000D03*
%TO.P,P3,B7,D-*%
%TO.N,unconnected-(P3-PadB7)*%
X111010000Y-93370000D03*
%TO.P,P3,B8,SBU2*%
%TO.N,unconnected-(P3-PadB8)*%
X110010000Y-93370000D03*
%TO.P,P3,B9,VBUS*%
%TO.N,+5V*%
X109510000Y-93370000D03*
%TO.P,P3,B12,GND*%
%TO.N,GND*%
X108710000Y-93370000D03*
D11*
%TO.P,P3,S1,SHIELD*%
X116080000Y-94210000D03*
X107440000Y-94210000D03*
D12*
X116080000Y-98390000D03*
X107440000Y-98390000D03*
%TD*%
D10*
%TO.P,P2,A1,GND*%
%TO.N,GND*%
X96980000Y-93370000D03*
%TO.P,P2,A4,VBUS*%
%TO.N,+5V*%
X97780000Y-93370000D03*
%TO.P,P2,A5,CC1*%
%TO.N,Net-(P2-PadA5)*%
X99080000Y-93370000D03*
%TO.P,P2,A6,D+*%
%TO.N,unconnected-(P2-PadA6)*%
X100080000Y-93370000D03*
%TO.P,P2,A7,D-*%
%TO.N,unconnected-(P2-PadA7)*%
X100580000Y-93370000D03*
%TO.P,P2,A8,SBU1*%
%TO.N,unconnected-(P2-PadA8)*%
X101580000Y-93370000D03*
%TO.P,P2,A9,VBUS*%
%TO.N,+5V*%
X102880000Y-93370000D03*
%TO.P,P2,A12,GND*%
%TO.N,GND*%
X103680000Y-93370000D03*
%TO.P,P2,B1,GND*%
X103380000Y-93370000D03*
%TO.P,P2,B4,VBUS*%
%TO.N,+5V*%
X102580000Y-93370000D03*
%TO.P,P2,B5,CC2*%
%TO.N,Net-(P2-PadB5)*%
X102080000Y-93370000D03*
%TO.P,P2,B6,D+*%
%TO.N,unconnected-(P2-PadB6)*%
X101080000Y-93370000D03*
%TO.P,P2,B7,D-*%
%TO.N,unconnected-(P2-PadB7)*%
X99580000Y-93370000D03*
%TO.P,P2,B8,SBU2*%
%TO.N,unconnected-(P2-PadB8)*%
X98580000Y-93370000D03*
%TO.P,P2,B9,VBUS*%
%TO.N,+5V*%
X98080000Y-93370000D03*
%TO.P,P2,B12,GND*%
%TO.N,GND*%
X97280000Y-93370000D03*
D11*
%TO.P,P2,S1,SHIELD*%
X104650000Y-94210000D03*
X96010000Y-94210000D03*
D12*
X104650000Y-98390000D03*
X96010000Y-98390000D03*
%TD*%
D10*
%TO.P,P1,A1,GND*%
%TO.N,GND*%
X85550000Y-93370000D03*
%TO.P,P1,A4,VBUS*%
%TO.N,+5V*%
X86350000Y-93370000D03*
%TO.P,P1,A5,CC1*%
%TO.N,Net-(P1-PadA5)*%
X87650000Y-93370000D03*
%TO.P,P1,A6,D+*%
%TO.N,unconnected-(P1-PadA6)*%
X88650000Y-93370000D03*
%TO.P,P1,A7,D-*%
%TO.N,unconnected-(P1-PadA7)*%
X89150000Y-93370000D03*
%TO.P,P1,A8,SBU1*%
%TO.N,unconnected-(P1-PadA8)*%
X90150000Y-93370000D03*
%TO.P,P1,A9,VBUS*%
%TO.N,+5V*%
X91450000Y-93370000D03*
%TO.P,P1,A12,GND*%
%TO.N,GND*%
X92250000Y-93370000D03*
%TO.P,P1,B1,GND*%
X91950000Y-93370000D03*
%TO.P,P1,B4,VBUS*%
%TO.N,+5V*%
X91150000Y-93370000D03*
%TO.P,P1,B5,CC2*%
%TO.N,Net-(P1-PadB5)*%
X90650000Y-93370000D03*
%TO.P,P1,B6,D+*%
%TO.N,unconnected-(P1-PadB6)*%
X89650000Y-93370000D03*
%TO.P,P1,B7,D-*%
%TO.N,unconnected-(P1-PadB7)*%
X88150000Y-93370000D03*
%TO.P,P1,B8,SBU2*%
%TO.N,unconnected-(P1-PadB8)*%
X87150000Y-93370000D03*
%TO.P,P1,B9,VBUS*%
%TO.N,+5V*%
X86650000Y-93370000D03*
%TO.P,P1,B12,GND*%
%TO.N,GND*%
X85850000Y-93370000D03*
D11*
%TO.P,P1,S1,SHIELD*%
X93220000Y-94210000D03*
X84580000Y-94210000D03*
D12*
X93220000Y-98390000D03*
X84580000Y-98390000D03*
%TD*%
D13*
%TO.P,R12,1*%
%TO.N,GND*%
X117117500Y-90170000D03*
%TO.P,R12,2*%
%TO.N,Net-(P4-PadA5)*%
X115292500Y-90170000D03*
%TD*%
D14*
%TO.P,R11,1*%
%TO.N,GND*%
X111562500Y-90170000D03*
%TO.P,R11,2*%
%TO.N,Net-(P3-PadB5)*%
X113387500Y-90170000D03*
%TD*%
%TO.P,R10,1*%
%TO.N,GND*%
X107752500Y-90170000D03*
%TO.P,R10,2*%
%TO.N,Net-(P3-PadA5)*%
X109577500Y-90170000D03*
%TD*%
%TO.P,R9,1*%
%TO.N,GND*%
X84535000Y-90170000D03*
%TO.P,R9,2*%
%TO.N,Net-(P6-PadB5)*%
X86360000Y-90170000D03*
%TD*%
%TO.P,R8,1*%
%TO.N,GND*%
X88345000Y-90170000D03*
%TO.P,R8,2*%
%TO.N,Net-(P6-PadA5)*%
X90170000Y-90170000D03*
%TD*%
%TO.P,R6,1*%
%TO.N,GND*%
X96242500Y-90170000D03*
%TO.P,R6,2*%
%TO.N,Net-(P2-PadA5)*%
X98067500Y-90170000D03*
%TD*%
D13*
%TO.P,R5,1*%
%TO.N,GND*%
X101877500Y-90170000D03*
%TO.P,R5,2*%
%TO.N,Net-(P5-PadB5)*%
X100052500Y-90170000D03*
%TD*%
%TO.P,R4,1*%
%TO.N,GND*%
X105687500Y-90170000D03*
%TO.P,R4,2*%
%TO.N,Net-(P5-PadA5)*%
X103862500Y-90170000D03*
%TD*%
%TO.P,R2,1*%
%TO.N,GND*%
X93980000Y-90170000D03*
%TO.P,R2,2*%
%TO.N,Net-(P1-PadA5)*%
X92155000Y-90170000D03*
%TD*%
D15*
%TO.P,R1,1*%
%TO.N,+5V*%
X76200000Y-91440000D03*
%TO.P,R1,2*%
%TO.N,Net-(D1-Pad2)*%
X76200000Y-89615000D03*
%TD*%
D16*
%TO.P,D1,1,K*%
%TO.N,GND*%
X82550000Y-91440000D03*
%TO.P,D1,2,A*%
%TO.N,Net-(D1-Pad2)*%
X82550000Y-89565000D03*
%TD*%
D17*
%TO.N,Net-(P4-PadB5)*%
X111249000Y-84990500D03*
%TO.N,Net-(P2-PadB5)*%
X101176500Y-95032000D03*
%TO.N,Net-(P1-PadB5)*%
X89411200Y-95349500D03*
%TO.N,GND*%
X112272500Y-91683000D03*
X88387500Y-88631600D03*
X84325500Y-92015500D03*
X105022400Y-92015500D03*
X116622100Y-92015500D03*
%TD*%
D18*
%TO.N,+5V*%
X105994200Y-84694798D02*
X105963201Y-84663799D01*
X105994200Y-88392000D02*
X105994200Y-84694798D01*
X106451400Y-88849200D02*
X105994200Y-88392000D01*
X108915200Y-88849200D02*
X106451400Y-88849200D01*
X109510000Y-88254400D02*
X108915200Y-88849200D01*
X109510000Y-86970000D02*
X109510000Y-88254400D01*
X108655601Y-84663799D02*
X105963201Y-84663799D01*
X105963201Y-84663799D02*
X102342199Y-84663799D01*
X109448600Y-83870800D02*
X108655601Y-84663799D01*
X109448600Y-82804000D02*
X109448600Y-83870800D01*
X110261400Y-81991200D02*
X109448600Y-82804000D01*
X113207800Y-81991200D02*
X110261400Y-81991200D01*
X114325400Y-83108800D02*
X113207800Y-81991200D01*
X114325400Y-84886800D02*
X114325400Y-83108800D01*
X113949999Y-85262201D02*
X114325400Y-84886800D01*
X113949999Y-85919950D02*
X113949999Y-85262201D01*
X114310000Y-86279951D02*
X113949999Y-85919950D01*
X114310000Y-86970000D02*
X114310000Y-86279951D01*
X102342199Y-84855801D02*
X102519999Y-85033601D01*
X102519999Y-85033601D02*
X102519999Y-85919950D01*
X102342199Y-84601801D02*
X102342199Y-84855801D01*
X102342199Y-84601801D02*
X102077001Y-84601801D01*
X99187000Y-83489800D02*
X100965000Y-83489800D01*
X102077001Y-84601801D02*
X100965000Y-83489800D01*
X102880000Y-86279951D02*
X102880000Y-86970000D01*
X102519999Y-85919950D02*
X102880000Y-86279951D01*
X98145600Y-84531200D02*
X99187000Y-83489800D01*
X98145600Y-85914351D02*
X98145600Y-84531200D01*
X98080000Y-85979951D02*
X98145600Y-85914351D01*
X98080000Y-86970000D02*
X98080000Y-85979951D01*
X91218325Y-86850875D02*
X91150000Y-86919200D01*
X91218325Y-85997476D02*
X91218325Y-86850875D01*
X91089999Y-85869150D02*
X91218325Y-85997476D01*
X91089999Y-84282799D02*
X91089999Y-85869150D01*
X90017600Y-83210400D02*
X91089999Y-84282799D01*
X87147400Y-83210400D02*
X90017600Y-83210400D01*
X86690200Y-83667600D02*
X87147400Y-83210400D01*
X86710001Y-83687401D02*
X86690200Y-83667600D01*
X86710001Y-85869150D02*
X86710001Y-83687401D01*
X86350000Y-86229151D02*
X86710001Y-85869150D01*
X86350000Y-86919200D02*
X86350000Y-86229151D01*
X102580000Y-92663200D02*
X102580000Y-93370000D01*
X103073200Y-92170000D02*
X102580000Y-92663200D01*
X104031800Y-92170000D02*
X103073200Y-92170000D01*
X104602300Y-92740500D02*
X104031800Y-92170000D01*
X104932500Y-92740500D02*
X104602300Y-92740500D01*
X106349800Y-94157800D02*
X104932500Y-92740500D01*
X106349800Y-96520000D02*
X106349800Y-94157800D01*
X106349800Y-96520000D02*
X109855000Y-96520000D01*
X104140000Y-96520000D02*
X106349800Y-96520000D01*
X91150000Y-92644400D02*
X91150000Y-93370000D01*
X91624400Y-92170000D02*
X91150000Y-92644400D01*
X92876016Y-92170000D02*
X91624400Y-92170000D01*
X93995000Y-93288984D02*
X92876016Y-92170000D01*
X93995000Y-95131016D02*
X93995000Y-93288984D01*
X91742416Y-97383600D02*
X93995000Y-95131016D01*
X91516200Y-97383600D02*
X91742416Y-97383600D01*
X90779600Y-98120200D02*
X91516200Y-97383600D01*
X86410800Y-95580200D02*
X86410800Y-96901000D01*
X86410800Y-96901000D02*
X87630000Y-98120200D01*
X86710001Y-95280999D02*
X86410800Y-95580200D01*
X86710001Y-94420050D02*
X86710001Y-95280999D01*
X87630000Y-98120200D02*
X90779600Y-98120200D01*
X86650000Y-94360049D02*
X86710001Y-94420050D01*
X86650000Y-93370000D02*
X86650000Y-94360049D01*
X103771700Y-96888300D02*
X104140000Y-96520000D01*
X102235000Y-98425000D02*
X103771700Y-96888300D01*
X102880000Y-94060049D02*
X102530000Y-94410049D01*
X102530000Y-94410049D02*
X102530000Y-94589600D01*
X102880000Y-93370000D02*
X102880000Y-94060049D01*
X113030000Y-95885000D02*
X110490000Y-95885000D01*
X113949999Y-94965001D02*
X113030000Y-95885000D01*
X113949999Y-94420050D02*
X113949999Y-94965001D01*
X114010000Y-94360049D02*
X113949999Y-94420050D01*
X110490000Y-95885000D02*
X109855000Y-96520000D01*
X114010000Y-93370000D02*
X114010000Y-94360049D01*
X109570001Y-94420050D02*
X109570001Y-94615000D01*
X109510000Y-94360049D02*
X109570001Y-94420050D01*
X109510000Y-93370000D02*
X109510000Y-94360049D01*
X109570001Y-94965001D02*
X109570001Y-94570000D01*
X109855000Y-95250000D02*
X109570001Y-94965001D01*
X109855000Y-96520000D02*
X109855000Y-95250000D01*
X98425000Y-98425000D02*
X102235000Y-98425000D01*
X98425000Y-94705049D02*
X98425000Y-98425000D01*
X98080000Y-94360049D02*
X98425000Y-94705049D01*
X98080000Y-93370000D02*
X98080000Y-94360049D01*
%TO.N,Net-(P4-PadB5)*%
X110789200Y-84990500D02*
X110010000Y-85769700D01*
X111249000Y-84990500D02*
X110789200Y-84990500D01*
X110010000Y-86970000D02*
X110010000Y-85769700D01*
%TO.N,Net-(P4-PadA5)*%
X115009700Y-90170000D02*
X113010000Y-88170300D01*
X115292500Y-90170000D02*
X115009700Y-90170000D01*
X113010000Y-86970000D02*
X113010000Y-88170300D01*
%TO.N,Net-(P3-PadB5)*%
X113510000Y-90292500D02*
X113510000Y-93370000D01*
X113387500Y-90170000D02*
X113510000Y-90292500D01*
%TO.N,Net-(P3-PadA5)*%
X110510000Y-91102500D02*
X110510000Y-93370000D01*
X109577500Y-90170000D02*
X110510000Y-91102500D01*
%TO.N,Net-(P6-PadB5)*%
X87150000Y-89380000D02*
X87150000Y-86919200D01*
X86360000Y-90170000D02*
X87150000Y-89380000D01*
%TO.N,Net-(P6-PadA5)*%
X90150000Y-90150000D02*
X90150000Y-86919200D01*
X90170000Y-90170000D02*
X90150000Y-90150000D01*
%TO.N,Net-(P2-PadB5)*%
X101618300Y-95032000D02*
X102080000Y-94570300D01*
X101176500Y-95032000D02*
X101618300Y-95032000D01*
X102080000Y-93370000D02*
X102080000Y-94570300D01*
%TO.N,Net-(P2-PadA5)*%
X99080000Y-91182500D02*
X99080000Y-93370000D01*
X98067500Y-90170000D02*
X99080000Y-91182500D01*
%TO.N,Net-(P5-PadB5)*%
X98580000Y-88697500D02*
X98580000Y-86970000D01*
X100052500Y-90170000D02*
X98580000Y-88697500D01*
%TO.N,Net-(P5-PadA5)*%
X103579700Y-90170000D02*
X101580000Y-88170300D01*
X103862500Y-90170000D02*
X103579700Y-90170000D01*
X101580000Y-86970000D02*
X101580000Y-88170300D01*
%TO.N,Net-(P1-PadB5)*%
X89870800Y-95349500D02*
X90650000Y-94570300D01*
X89411200Y-95349500D02*
X89870800Y-95349500D01*
X90650000Y-93370000D02*
X90650000Y-94570300D01*
%TO.N,Net-(P1-PadA5)*%
X90155300Y-92169700D02*
X87650000Y-92169700D01*
X92155000Y-90170000D02*
X90155300Y-92169700D01*
X87650000Y-93370000D02*
X87650000Y-92169700D01*
%TO.N,Net-(D1-Pad2)*%
X76250000Y-89565000D02*
X76225000Y-89590000D01*
X76225000Y-89590000D02*
X76200000Y-89615000D01*
X82525000Y-89590000D02*
X82550000Y-89565000D01*
X76225000Y-89590000D02*
X82525000Y-89590000D01*
%TO.N,GND*%
X107752500Y-90170000D02*
X105687500Y-90170000D01*
X111562500Y-90973000D02*
X111562500Y-90170000D01*
X112272500Y-91683000D02*
X111562500Y-90973000D01*
X85550000Y-93370000D02*
X85850000Y-93370000D01*
X92250000Y-93370000D02*
X91950000Y-93370000D01*
X85420000Y-93370000D02*
X85550000Y-93370000D01*
X84580000Y-94210000D02*
X85420000Y-93370000D01*
X96980000Y-93370000D02*
X97280000Y-93370000D01*
X103680000Y-93370000D02*
X103380000Y-93370000D01*
X108410000Y-93370000D02*
X108710000Y-93370000D01*
X115110000Y-93370000D02*
X114810000Y-93370000D01*
X115110000Y-86970000D02*
X114810000Y-86970000D01*
X108410000Y-86970000D02*
X108710000Y-86970000D01*
X103680000Y-86970000D02*
X103380000Y-86970000D01*
X96980000Y-86970000D02*
X97280000Y-86970000D01*
X96980000Y-86970000D02*
X96980000Y-88170300D01*
X92250000Y-86919200D02*
X91950000Y-86919200D01*
X85550000Y-86919200D02*
X85850000Y-86919200D01*
X88345000Y-88674100D02*
X88345000Y-90170000D01*
X88387500Y-88631600D02*
X88345000Y-88674100D01*
X84325500Y-92015500D02*
X83507500Y-91197500D01*
X84535000Y-90170000D02*
X83507500Y-91197500D01*
X83265000Y-91440000D02*
X82550000Y-91440000D01*
X83507500Y-91197500D02*
X83265000Y-91440000D01*
X85420000Y-86919200D02*
X85550000Y-86919200D01*
X84580000Y-86079200D02*
X85420000Y-86919200D01*
X92380000Y-86919200D02*
X92250000Y-86919200D01*
X93220000Y-86079200D02*
X92380000Y-86919200D01*
X92380000Y-93370000D02*
X92250000Y-93370000D01*
X93220000Y-94210000D02*
X92380000Y-93370000D01*
X96850000Y-86970000D02*
X96980000Y-86970000D01*
X96010000Y-86130000D02*
X96850000Y-86970000D01*
X96242500Y-88907800D02*
X96242500Y-90170000D01*
X96980000Y-88170300D02*
X96242500Y-88907800D01*
X96242500Y-90170000D02*
X93980000Y-90170000D01*
X96850000Y-93370000D02*
X96980000Y-93370000D01*
X96010000Y-94210000D02*
X96850000Y-93370000D01*
X103810000Y-93370000D02*
X103680000Y-93370000D01*
X104650000Y-94210000D02*
X103810000Y-93370000D01*
X103810000Y-86970000D02*
X103680000Y-86970000D01*
X104650000Y-86130000D02*
X103810000Y-86970000D01*
X108280000Y-93370000D02*
X108410000Y-93370000D01*
X107440000Y-94210000D02*
X108280000Y-93370000D01*
X104655700Y-91648800D02*
X104655700Y-91201800D01*
X105022400Y-92015500D02*
X104655700Y-91648800D01*
X102909300Y-91201800D02*
X104655700Y-91201800D01*
X101877500Y-90170000D02*
X102909300Y-91201800D01*
X104655700Y-91201800D02*
X105687500Y-90170000D01*
X108280000Y-86970000D02*
X108410000Y-86970000D01*
X107440000Y-86130000D02*
X108280000Y-86970000D01*
X115240000Y-93370000D02*
X115110000Y-93370000D01*
X116080000Y-94210000D02*
X115240000Y-93370000D01*
X115240000Y-86970000D02*
X115110000Y-86970000D01*
X116080000Y-86130000D02*
X115240000Y-86970000D01*
X117117500Y-91520100D02*
X117117500Y-90170000D01*
X116622100Y-92015500D02*
X117117500Y-91520100D01*
%TD*%
%TA.AperFunction,Conductor*%
%TO.N,+5V*%
G36*
X84027334Y-80538502D02*
G01*
X84073827Y-80592158D01*
X84083931Y-80662432D01*
X84054437Y-80727012D01*
X84029094Y-80749157D01*
X84025110Y-80751240D01*
X83870975Y-80875168D01*
X83743846Y-81026674D01*
X83740879Y-81032072D01*
X83740875Y-81032077D01*
X83692780Y-81119563D01*
X83648567Y-81199987D01*
X83646706Y-81205854D01*
X83646705Y-81205856D01*
X83617683Y-81297344D01*
X83588765Y-81388506D01*
X83571500Y-81542427D01*
X83571500Y-82248969D01*
X83571800Y-82252025D01*
X83571800Y-82252032D01*
X83572530Y-82259473D01*
X83585920Y-82396033D01*
X83643084Y-82585369D01*
X83735934Y-82759996D01*
X83790788Y-82827253D01*
X83857040Y-82908487D01*
X83857043Y-82908490D01*
X83860935Y-82913262D01*
X83865682Y-82917189D01*
X83865684Y-82917191D01*
X84008575Y-83035401D01*
X84008579Y-83035403D01*
X84013325Y-83039330D01*
X84187299Y-83133398D01*
X84376232Y-83191882D01*
X84382357Y-83192526D01*
X84382358Y-83192526D01*
X84566796Y-83211911D01*
X84566798Y-83211911D01*
X84572925Y-83212555D01*
X84655424Y-83205047D01*
X84763749Y-83195189D01*
X84763752Y-83195188D01*
X84769888Y-83194630D01*
X84775794Y-83192892D01*
X84775798Y-83192891D01*
X84894983Y-83157813D01*
X84959619Y-83138790D01*
X84965077Y-83135937D01*
X84965081Y-83135935D01*
X85060212Y-83086201D01*
X85134890Y-83047160D01*
X85289025Y-82923232D01*
X85416154Y-82771726D01*
X85419121Y-82766328D01*
X85419125Y-82766323D01*
X85508467Y-82603808D01*
X85511433Y-82598413D01*
X85513846Y-82590808D01*
X85569373Y-82415764D01*
X85569373Y-82415763D01*
X85571235Y-82409894D01*
X85588500Y-82255973D01*
X85588500Y-81549431D01*
X85587814Y-81542427D01*
X85582463Y-81487860D01*
X85574080Y-81402367D01*
X85516916Y-81213031D01*
X85424066Y-81038404D01*
X85329214Y-80922104D01*
X85302960Y-80889913D01*
X85302957Y-80889910D01*
X85299065Y-80885138D01*
X85292724Y-80879892D01*
X85151425Y-80762999D01*
X85151421Y-80762997D01*
X85146675Y-80759070D01*
X85141255Y-80756140D01*
X85141250Y-80756136D01*
X85139770Y-80755336D01*
X85139145Y-80754717D01*
X85136144Y-80752692D01*
X85136529Y-80752122D01*
X85089361Y-80705342D01*
X85073983Y-80636031D01*
X85098519Y-80569408D01*
X85155178Y-80526627D01*
X85199698Y-80518500D01*
X92599213Y-80518500D01*
X92667334Y-80538502D01*
X92713827Y-80592158D01*
X92723931Y-80662432D01*
X92694437Y-80727012D01*
X92669094Y-80749157D01*
X92665110Y-80751240D01*
X92510975Y-80875168D01*
X92383846Y-81026674D01*
X92380879Y-81032072D01*
X92380875Y-81032077D01*
X92332780Y-81119563D01*
X92288567Y-81199987D01*
X92286706Y-81205854D01*
X92286705Y-81205856D01*
X92257683Y-81297344D01*
X92228765Y-81388506D01*
X92211500Y-81542427D01*
X92211500Y-82248969D01*
X92211800Y-82252025D01*
X92211800Y-82252032D01*
X92212530Y-82259473D01*
X92225920Y-82396033D01*
X92283084Y-82585369D01*
X92375934Y-82759996D01*
X92430788Y-82827253D01*
X92497040Y-82908487D01*
X92497043Y-82908490D01*
X92500935Y-82913262D01*
X92505682Y-82917189D01*
X92505684Y-82917191D01*
X92648575Y-83035401D01*
X92648579Y-83035403D01*
X92653325Y-83039330D01*
X92827299Y-83133398D01*
X93016232Y-83191882D01*
X93022357Y-83192526D01*
X93022358Y-83192526D01*
X93206796Y-83211911D01*
X93206798Y-83211911D01*
X93212925Y-83212555D01*
X93295424Y-83205047D01*
X93403749Y-83195189D01*
X93403752Y-83195188D01*
X93409888Y-83194630D01*
X93415794Y-83192892D01*
X93415798Y-83192891D01*
X93534983Y-83157813D01*
X93599619Y-83138790D01*
X93605077Y-83135937D01*
X93605081Y-83135935D01*
X93700212Y-83086201D01*
X93774890Y-83047160D01*
X93929025Y-82923232D01*
X94056154Y-82771726D01*
X94059121Y-82766328D01*
X94059125Y-82766323D01*
X94148467Y-82603808D01*
X94151433Y-82598413D01*
X94153846Y-82590808D01*
X94209373Y-82415764D01*
X94209373Y-82415763D01*
X94211235Y-82409894D01*
X94228500Y-82255973D01*
X94228500Y-81549431D01*
X94227814Y-81542427D01*
X94222463Y-81487860D01*
X94214080Y-81402367D01*
X94156916Y-81213031D01*
X94064066Y-81038404D01*
X93969214Y-80922104D01*
X93942960Y-80889913D01*
X93942957Y-80889910D01*
X93939065Y-80885138D01*
X93932724Y-80879892D01*
X93791425Y-80762999D01*
X93791421Y-80762997D01*
X93786675Y-80759070D01*
X93781255Y-80756140D01*
X93781250Y-80756136D01*
X93779770Y-80755336D01*
X93779145Y-80754717D01*
X93776144Y-80752692D01*
X93776529Y-80752122D01*
X93729361Y-80705342D01*
X93713983Y-80636031D01*
X93738519Y-80569408D01*
X93795178Y-80526627D01*
X93839698Y-80518500D01*
X95484490Y-80518500D01*
X95552611Y-80538502D01*
X95599104Y-80592158D01*
X95609208Y-80662432D01*
X95579714Y-80727012D01*
X95542866Y-80756162D01*
X95455110Y-80802040D01*
X95300975Y-80925968D01*
X95173846Y-81077474D01*
X95170879Y-81082872D01*
X95170875Y-81082877D01*
X95137389Y-81143789D01*
X95078567Y-81250787D01*
X95076706Y-81256654D01*
X95076705Y-81256656D01*
X95058698Y-81313421D01*
X95018765Y-81439306D01*
X95001500Y-81593227D01*
X95001500Y-82299769D01*
X95001800Y-82302825D01*
X95001800Y-82302832D01*
X95002530Y-82310273D01*
X95015920Y-82446833D01*
X95073084Y-82636169D01*
X95165934Y-82810796D01*
X95236291Y-82897062D01*
X95287040Y-82959287D01*
X95287043Y-82959290D01*
X95290935Y-82964062D01*
X95295682Y-82967989D01*
X95295684Y-82967991D01*
X95438575Y-83086201D01*
X95438579Y-83086203D01*
X95443325Y-83090130D01*
X95617299Y-83184198D01*
X95806232Y-83242682D01*
X95812357Y-83243326D01*
X95812358Y-83243326D01*
X95996796Y-83262711D01*
X95996798Y-83262711D01*
X96002925Y-83263355D01*
X96085424Y-83255847D01*
X96193749Y-83245989D01*
X96193752Y-83245988D01*
X96199888Y-83245430D01*
X96205794Y-83243692D01*
X96205798Y-83243691D01*
X96313778Y-83211911D01*
X96389619Y-83189590D01*
X96395077Y-83186737D01*
X96395081Y-83186735D01*
X96502708Y-83130468D01*
X96564890Y-83097960D01*
X96719025Y-82974032D01*
X96846154Y-82822526D01*
X96849121Y-82817128D01*
X96849125Y-82817123D01*
X96938467Y-82654608D01*
X96941433Y-82649213D01*
X96943846Y-82641608D01*
X96999373Y-82466564D01*
X96999373Y-82466563D01*
X97001235Y-82460694D01*
X97018500Y-82306773D01*
X97018500Y-81600231D01*
X97017814Y-81593227D01*
X97004681Y-81459301D01*
X97004080Y-81453167D01*
X96946916Y-81263831D01*
X96854066Y-81089204D01*
X96772005Y-80988587D01*
X96732960Y-80940713D01*
X96732957Y-80940710D01*
X96729065Y-80935938D01*
X96722724Y-80930692D01*
X96581425Y-80813799D01*
X96581421Y-80813797D01*
X96576675Y-80809870D01*
X96475817Y-80755336D01*
X96425408Y-80705341D01*
X96410031Y-80636030D01*
X96434567Y-80569408D01*
X96491227Y-80526627D01*
X96535746Y-80518500D01*
X104124490Y-80518500D01*
X104192611Y-80538502D01*
X104239104Y-80592158D01*
X104249208Y-80662432D01*
X104219714Y-80727012D01*
X104182866Y-80756162D01*
X104095110Y-80802040D01*
X103940975Y-80925968D01*
X103813846Y-81077474D01*
X103810879Y-81082872D01*
X103810875Y-81082877D01*
X103777389Y-81143789D01*
X103718567Y-81250787D01*
X103716706Y-81256654D01*
X103716705Y-81256656D01*
X103698698Y-81313421D01*
X103658765Y-81439306D01*
X103641500Y-81593227D01*
X103641500Y-82299769D01*
X103641800Y-82302825D01*
X103641800Y-82302832D01*
X103642530Y-82310273D01*
X103655920Y-82446833D01*
X103713084Y-82636169D01*
X103805934Y-82810796D01*
X103876291Y-82897062D01*
X103927040Y-82959287D01*
X103927043Y-82959290D01*
X103930935Y-82964062D01*
X103935682Y-82967989D01*
X103935684Y-82967991D01*
X104078575Y-83086201D01*
X104078579Y-83086203D01*
X104083325Y-83090130D01*
X104257299Y-83184198D01*
X104446232Y-83242682D01*
X104452357Y-83243326D01*
X104452358Y-83243326D01*
X104636796Y-83262711D01*
X104636798Y-83262711D01*
X104642925Y-83263355D01*
X104725424Y-83255847D01*
X104833749Y-83245989D01*
X104833752Y-83245988D01*
X104839888Y-83245430D01*
X104845794Y-83243692D01*
X104845798Y-83243691D01*
X104953778Y-83211911D01*
X105029619Y-83189590D01*
X105035077Y-83186737D01*
X105035081Y-83186735D01*
X105142708Y-83130468D01*
X105204890Y-83097960D01*
X105359025Y-82974032D01*
X105486154Y-82822526D01*
X105489121Y-82817128D01*
X105489125Y-82817123D01*
X105578467Y-82654608D01*
X105581433Y-82649213D01*
X105583846Y-82641608D01*
X105639373Y-82466564D01*
X105639373Y-82466563D01*
X105641235Y-82460694D01*
X105658500Y-82306773D01*
X105658500Y-81600231D01*
X105657814Y-81593227D01*
X105644681Y-81459301D01*
X105644080Y-81453167D01*
X105586916Y-81263831D01*
X105494066Y-81089204D01*
X105412005Y-80988587D01*
X105372960Y-80940713D01*
X105372957Y-80940710D01*
X105369065Y-80935938D01*
X105362724Y-80930692D01*
X105221425Y-80813799D01*
X105221421Y-80813797D01*
X105216675Y-80809870D01*
X105115817Y-80755336D01*
X105065408Y-80705341D01*
X105050031Y-80636030D01*
X105074567Y-80569408D01*
X105131227Y-80526627D01*
X105175746Y-80518500D01*
X106914490Y-80518500D01*
X106982611Y-80538502D01*
X107029104Y-80592158D01*
X107039208Y-80662432D01*
X107009714Y-80727012D01*
X106972866Y-80756162D01*
X106885110Y-80802040D01*
X106730975Y-80925968D01*
X106603846Y-81077474D01*
X106600879Y-81082872D01*
X106600875Y-81082877D01*
X106567389Y-81143789D01*
X106508567Y-81250787D01*
X106506706Y-81256654D01*
X106506705Y-81256656D01*
X106488698Y-81313421D01*
X106448765Y-81439306D01*
X106431500Y-81593227D01*
X106431500Y-82299769D01*
X106431800Y-82302825D01*
X106431800Y-82302832D01*
X106432530Y-82310273D01*
X106445920Y-82446833D01*
X106503084Y-82636169D01*
X106595934Y-82810796D01*
X106666291Y-82897062D01*
X106717040Y-82959287D01*
X106717043Y-82959290D01*
X106720935Y-82964062D01*
X106725682Y-82967989D01*
X106725684Y-82967991D01*
X106868575Y-83086201D01*
X106868579Y-83086203D01*
X106873325Y-83090130D01*
X107047299Y-83184198D01*
X107236232Y-83242682D01*
X107242357Y-83243326D01*
X107242358Y-83243326D01*
X107426796Y-83262711D01*
X107426798Y-83262711D01*
X107432925Y-83263355D01*
X107515424Y-83255847D01*
X107623749Y-83245989D01*
X107623752Y-83245988D01*
X107629888Y-83245430D01*
X107635794Y-83243692D01*
X107635798Y-83243691D01*
X107743778Y-83211911D01*
X107819619Y-83189590D01*
X107825077Y-83186737D01*
X107825081Y-83186735D01*
X107932708Y-83130468D01*
X107994890Y-83097960D01*
X108149025Y-82974032D01*
X108276154Y-82822526D01*
X108279121Y-82817128D01*
X108279125Y-82817123D01*
X108368467Y-82654608D01*
X108371433Y-82649213D01*
X108373846Y-82641608D01*
X108429373Y-82466564D01*
X108429373Y-82466563D01*
X108431235Y-82460694D01*
X108448500Y-82306773D01*
X108448500Y-81600231D01*
X108447814Y-81593227D01*
X108434681Y-81459301D01*
X108434080Y-81453167D01*
X108376916Y-81263831D01*
X108284066Y-81089204D01*
X108202005Y-80988587D01*
X108162960Y-80940713D01*
X108162957Y-80940710D01*
X108159065Y-80935938D01*
X108152724Y-80930692D01*
X108011425Y-80813799D01*
X108011421Y-80813797D01*
X108006675Y-80809870D01*
X107905817Y-80755336D01*
X107855408Y-80705341D01*
X107840031Y-80636030D01*
X107864567Y-80569408D01*
X107921227Y-80526627D01*
X107965746Y-80518500D01*
X115554490Y-80518500D01*
X115622611Y-80538502D01*
X115669104Y-80592158D01*
X115679208Y-80662432D01*
X115649714Y-80727012D01*
X115612866Y-80756162D01*
X115525110Y-80802040D01*
X115370975Y-80925968D01*
X115243846Y-81077474D01*
X115240879Y-81082872D01*
X115240875Y-81082877D01*
X115207389Y-81143789D01*
X115148567Y-81250787D01*
X115146706Y-81256654D01*
X115146705Y-81256656D01*
X115128698Y-81313421D01*
X115088765Y-81439306D01*
X115071500Y-81593227D01*
X115071500Y-82299769D01*
X115071800Y-82302825D01*
X115071800Y-82302832D01*
X115072530Y-82310273D01*
X115085920Y-82446833D01*
X115143084Y-82636169D01*
X115235934Y-82810796D01*
X115306291Y-82897062D01*
X115357040Y-82959287D01*
X115357043Y-82959290D01*
X115360935Y-82964062D01*
X115365682Y-82967989D01*
X115365684Y-82967991D01*
X115508575Y-83086201D01*
X115508579Y-83086203D01*
X115513325Y-83090130D01*
X115687299Y-83184198D01*
X115876232Y-83242682D01*
X115882357Y-83243326D01*
X115882358Y-83243326D01*
X116066796Y-83262711D01*
X116066798Y-83262711D01*
X116072925Y-83263355D01*
X116155424Y-83255847D01*
X116263749Y-83245989D01*
X116263752Y-83245988D01*
X116269888Y-83245430D01*
X116275794Y-83243692D01*
X116275798Y-83243691D01*
X116383778Y-83211911D01*
X116459619Y-83189590D01*
X116465077Y-83186737D01*
X116465081Y-83186735D01*
X116572708Y-83130468D01*
X116634890Y-83097960D01*
X116789025Y-82974032D01*
X116916154Y-82822526D01*
X116919121Y-82817128D01*
X116919125Y-82817123D01*
X117008467Y-82654608D01*
X117011433Y-82649213D01*
X117013846Y-82641608D01*
X117069373Y-82466564D01*
X117069373Y-82466563D01*
X117071235Y-82460694D01*
X117088500Y-82306773D01*
X117088500Y-81600231D01*
X117087814Y-81593227D01*
X117074681Y-81459301D01*
X117074080Y-81453167D01*
X117016916Y-81263831D01*
X116924066Y-81089204D01*
X116842005Y-80988587D01*
X116802960Y-80940713D01*
X116802957Y-80940710D01*
X116799065Y-80935938D01*
X116792724Y-80930692D01*
X116651425Y-80813799D01*
X116651421Y-80813797D01*
X116646675Y-80809870D01*
X116545817Y-80755336D01*
X116495408Y-80705341D01*
X116480031Y-80636030D01*
X116504567Y-80569408D01*
X116561227Y-80526627D01*
X116605746Y-80518500D01*
X124410633Y-80518500D01*
X124430018Y-80520000D01*
X124444852Y-80522310D01*
X124444855Y-80522310D01*
X124453724Y-80523691D01*
X124463659Y-80522392D01*
X124464746Y-80522250D01*
X124493431Y-80521793D01*
X124566741Y-80529013D01*
X124596212Y-80531916D01*
X124620432Y-80536733D01*
X124739546Y-80572866D01*
X124762355Y-80582315D01*
X124872124Y-80640987D01*
X124892655Y-80654705D01*
X124988876Y-80733671D01*
X125006329Y-80751124D01*
X125085295Y-80847345D01*
X125099013Y-80867876D01*
X125157685Y-80977645D01*
X125167134Y-81000454D01*
X125203267Y-81119568D01*
X125208084Y-81143789D01*
X125217541Y-81239809D01*
X125217091Y-81255868D01*
X125217800Y-81255877D01*
X125217690Y-81264853D01*
X125216309Y-81273724D01*
X125217473Y-81282626D01*
X125217473Y-81282628D01*
X125220436Y-81305283D01*
X125221500Y-81321621D01*
X125221500Y-99010633D01*
X125220000Y-99030018D01*
X125216309Y-99053724D01*
X125217473Y-99062626D01*
X125217750Y-99064746D01*
X125218207Y-99093431D01*
X125217289Y-99102755D01*
X125208084Y-99196212D01*
X125203267Y-99220432D01*
X125167134Y-99339546D01*
X125157685Y-99362355D01*
X125099013Y-99472124D01*
X125085295Y-99492655D01*
X125006329Y-99588876D01*
X124988876Y-99606329D01*
X124892655Y-99685295D01*
X124872124Y-99699013D01*
X124762355Y-99757685D01*
X124739546Y-99767134D01*
X124620432Y-99803267D01*
X124596211Y-99808084D01*
X124500191Y-99817541D01*
X124484132Y-99817091D01*
X124484123Y-99817800D01*
X124475147Y-99817690D01*
X124466276Y-99816309D01*
X124457374Y-99817473D01*
X124457372Y-99817473D01*
X124444856Y-99819110D01*
X124434714Y-99820436D01*
X124418379Y-99821500D01*
X116605510Y-99821500D01*
X116537389Y-99801498D01*
X116490896Y-99747842D01*
X116480792Y-99677568D01*
X116510286Y-99612988D01*
X116547134Y-99583838D01*
X116547918Y-99583428D01*
X116634890Y-99537960D01*
X116789025Y-99414032D01*
X116916154Y-99262526D01*
X116919121Y-99257128D01*
X116919125Y-99257123D01*
X117008467Y-99094608D01*
X117011433Y-99089213D01*
X117013846Y-99081608D01*
X117069373Y-98906564D01*
X117069373Y-98906563D01*
X117071235Y-98900694D01*
X117088500Y-98746773D01*
X117088500Y-98040231D01*
X117087814Y-98033227D01*
X117074681Y-97899301D01*
X117074080Y-97893167D01*
X117016916Y-97703831D01*
X116924066Y-97529204D01*
X116853709Y-97442938D01*
X116802960Y-97380713D01*
X116802957Y-97380710D01*
X116799065Y-97375938D01*
X116792724Y-97370692D01*
X116651425Y-97253799D01*
X116651421Y-97253797D01*
X116646675Y-97249870D01*
X116472701Y-97155802D01*
X116283768Y-97097318D01*
X116277643Y-97096674D01*
X116277642Y-97096674D01*
X116093204Y-97077289D01*
X116093202Y-97077289D01*
X116087075Y-97076645D01*
X116004576Y-97084153D01*
X115896251Y-97094011D01*
X115896248Y-97094012D01*
X115890112Y-97094570D01*
X115884206Y-97096308D01*
X115884202Y-97096309D01*
X115779076Y-97127249D01*
X115700381Y-97150410D01*
X115694923Y-97153263D01*
X115694919Y-97153265D01*
X115629165Y-97187641D01*
X115525110Y-97242040D01*
X115370975Y-97365968D01*
X115243846Y-97517474D01*
X115240879Y-97522872D01*
X115240875Y-97522877D01*
X115237397Y-97529204D01*
X115148567Y-97690787D01*
X115146706Y-97696654D01*
X115146705Y-97696656D01*
X115090627Y-97873436D01*
X115088765Y-97879306D01*
X115071500Y-98033227D01*
X115071500Y-98739769D01*
X115071800Y-98742825D01*
X115071800Y-98742832D01*
X115072530Y-98750273D01*
X115085920Y-98886833D01*
X115143084Y-99076169D01*
X115235934Y-99250796D01*
X115287281Y-99313753D01*
X115357040Y-99399287D01*
X115357043Y-99399290D01*
X115360935Y-99404062D01*
X115365682Y-99407989D01*
X115365684Y-99407991D01*
X115508575Y-99526201D01*
X115508579Y-99526203D01*
X115513325Y-99530130D01*
X115518746Y-99533061D01*
X115614183Y-99584664D01*
X115664592Y-99634659D01*
X115679969Y-99703970D01*
X115655433Y-99770592D01*
X115598773Y-99813373D01*
X115554254Y-99821500D01*
X107965510Y-99821500D01*
X107897389Y-99801498D01*
X107850896Y-99747842D01*
X107840792Y-99677568D01*
X107870286Y-99612988D01*
X107907134Y-99583838D01*
X107907918Y-99583428D01*
X107994890Y-99537960D01*
X108149025Y-99414032D01*
X108276154Y-99262526D01*
X108279121Y-99257128D01*
X108279125Y-99257123D01*
X108368467Y-99094608D01*
X108371433Y-99089213D01*
X108373846Y-99081608D01*
X108429373Y-98906564D01*
X108429373Y-98906563D01*
X108431235Y-98900694D01*
X108448500Y-98746773D01*
X108448500Y-98040231D01*
X108447814Y-98033227D01*
X108434681Y-97899301D01*
X108434080Y-97893167D01*
X108376916Y-97703831D01*
X108284066Y-97529204D01*
X108213709Y-97442938D01*
X108162960Y-97380713D01*
X108162957Y-97380710D01*
X108159065Y-97375938D01*
X108152724Y-97370692D01*
X108011425Y-97253799D01*
X108011421Y-97253797D01*
X108006675Y-97249870D01*
X107832701Y-97155802D01*
X107643768Y-97097318D01*
X107637643Y-97096674D01*
X107637642Y-97096674D01*
X107453204Y-97077289D01*
X107453202Y-97077289D01*
X107447075Y-97076645D01*
X107364576Y-97084153D01*
X107256251Y-97094011D01*
X107256248Y-97094012D01*
X107250112Y-97094570D01*
X107244206Y-97096308D01*
X107244202Y-97096309D01*
X107139076Y-97127249D01*
X107060381Y-97150410D01*
X107054923Y-97153263D01*
X107054919Y-97153265D01*
X106989165Y-97187641D01*
X106885110Y-97242040D01*
X106730975Y-97365968D01*
X106603846Y-97517474D01*
X106600879Y-97522872D01*
X106600875Y-97522877D01*
X106597397Y-97529204D01*
X106508567Y-97690787D01*
X106506706Y-97696654D01*
X106506705Y-97696656D01*
X106450627Y-97873436D01*
X106448765Y-97879306D01*
X106431500Y-98033227D01*
X106431500Y-98739769D01*
X106431800Y-98742825D01*
X106431800Y-98742832D01*
X106432530Y-98750273D01*
X106445920Y-98886833D01*
X106503084Y-99076169D01*
X106595934Y-99250796D01*
X106647281Y-99313753D01*
X106717040Y-99399287D01*
X106717043Y-99399290D01*
X106720935Y-99404062D01*
X106725682Y-99407989D01*
X106725684Y-99407991D01*
X106868575Y-99526201D01*
X106868579Y-99526203D01*
X106873325Y-99530130D01*
X106878746Y-99533061D01*
X106974183Y-99584664D01*
X107024592Y-99634659D01*
X107039969Y-99703970D01*
X107015433Y-99770592D01*
X106958773Y-99813373D01*
X106914254Y-99821500D01*
X105175510Y-99821500D01*
X105107389Y-99801498D01*
X105060896Y-99747842D01*
X105050792Y-99677568D01*
X105080286Y-99612988D01*
X105117134Y-99583838D01*
X105117918Y-99583428D01*
X105204890Y-99537960D01*
X105359025Y-99414032D01*
X105486154Y-99262526D01*
X105489121Y-99257128D01*
X105489125Y-99257123D01*
X105578467Y-99094608D01*
X105581433Y-99089213D01*
X105583846Y-99081608D01*
X105639373Y-98906564D01*
X105639373Y-98906563D01*
X105641235Y-98900694D01*
X105658500Y-98746773D01*
X105658500Y-98040231D01*
X105657814Y-98033227D01*
X105644681Y-97899301D01*
X105644080Y-97893167D01*
X105586916Y-97703831D01*
X105494066Y-97529204D01*
X105423709Y-97442938D01*
X105372960Y-97380713D01*
X105372957Y-97380710D01*
X105369065Y-97375938D01*
X105362724Y-97370692D01*
X105221425Y-97253799D01*
X105221421Y-97253797D01*
X105216675Y-97249870D01*
X105042701Y-97155802D01*
X104853768Y-97097318D01*
X104847643Y-97096674D01*
X104847642Y-97096674D01*
X104663204Y-97077289D01*
X104663202Y-97077289D01*
X104657075Y-97076645D01*
X104574576Y-97084153D01*
X104466251Y-97094011D01*
X104466248Y-97094012D01*
X104460112Y-97094570D01*
X104454206Y-97096308D01*
X104454202Y-97096309D01*
X104349076Y-97127249D01*
X104270381Y-97150410D01*
X104264923Y-97153263D01*
X104264919Y-97153265D01*
X104199165Y-97187641D01*
X104095110Y-97242040D01*
X103940975Y-97365968D01*
X103813846Y-97517474D01*
X103810879Y-97522872D01*
X103810875Y-97522877D01*
X103807397Y-97529204D01*
X103718567Y-97690787D01*
X103716706Y-97696654D01*
X103716705Y-97696656D01*
X103660627Y-97873436D01*
X103658765Y-97879306D01*
X103641500Y-98033227D01*
X103641500Y-98739769D01*
X103641800Y-98742825D01*
X103641800Y-98742832D01*
X103642530Y-98750273D01*
X103655920Y-98886833D01*
X103713084Y-99076169D01*
X103805934Y-99250796D01*
X103857281Y-99313753D01*
X103927040Y-99399287D01*
X103927043Y-99399290D01*
X103930935Y-99404062D01*
X103935682Y-99407989D01*
X103935684Y-99407991D01*
X104078575Y-99526201D01*
X104078579Y-99526203D01*
X104083325Y-99530130D01*
X104088746Y-99533061D01*
X104184183Y-99584664D01*
X104234592Y-99634659D01*
X104249969Y-99703970D01*
X104225433Y-99770592D01*
X104168773Y-99813373D01*
X104124254Y-99821500D01*
X96535510Y-99821500D01*
X96467389Y-99801498D01*
X96420896Y-99747842D01*
X96410792Y-99677568D01*
X96440286Y-99612988D01*
X96477134Y-99583838D01*
X96477918Y-99583428D01*
X96564890Y-99537960D01*
X96719025Y-99414032D01*
X96846154Y-99262526D01*
X96849121Y-99257128D01*
X96849125Y-99257123D01*
X96938467Y-99094608D01*
X96941433Y-99089213D01*
X96943846Y-99081608D01*
X96999373Y-98906564D01*
X96999373Y-98906563D01*
X97001235Y-98900694D01*
X97018500Y-98746773D01*
X97018500Y-98040231D01*
X97017814Y-98033227D01*
X97004681Y-97899301D01*
X97004080Y-97893167D01*
X96946916Y-97703831D01*
X96854066Y-97529204D01*
X96783709Y-97442938D01*
X96732960Y-97380713D01*
X96732957Y-97380710D01*
X96729065Y-97375938D01*
X96722724Y-97370692D01*
X96581425Y-97253799D01*
X96581421Y-97253797D01*
X96576675Y-97249870D01*
X96402701Y-97155802D01*
X96213768Y-97097318D01*
X96207643Y-97096674D01*
X96207642Y-97096674D01*
X96023204Y-97077289D01*
X96023202Y-97077289D01*
X96017075Y-97076645D01*
X95934576Y-97084153D01*
X95826251Y-97094011D01*
X95826248Y-97094012D01*
X95820112Y-97094570D01*
X95814206Y-97096308D01*
X95814202Y-97096309D01*
X95709076Y-97127249D01*
X95630381Y-97150410D01*
X95624923Y-97153263D01*
X95624919Y-97153265D01*
X95559165Y-97187641D01*
X95455110Y-97242040D01*
X95300975Y-97365968D01*
X95173846Y-97517474D01*
X95170879Y-97522872D01*
X95170875Y-97522877D01*
X95167397Y-97529204D01*
X95078567Y-97690787D01*
X95076706Y-97696654D01*
X95076705Y-97696656D01*
X95020627Y-97873436D01*
X95018765Y-97879306D01*
X95001500Y-98033227D01*
X95001500Y-98739769D01*
X95001800Y-98742825D01*
X95001800Y-98742832D01*
X95002530Y-98750273D01*
X95015920Y-98886833D01*
X95073084Y-99076169D01*
X95165934Y-99250796D01*
X95217281Y-99313753D01*
X95287040Y-99399287D01*
X95287043Y-99399290D01*
X95290935Y-99404062D01*
X95295682Y-99407989D01*
X95295684Y-99407991D01*
X95438575Y-99526201D01*
X95438579Y-99526203D01*
X95443325Y-99530130D01*
X95448746Y-99533061D01*
X95544183Y-99584664D01*
X95594592Y-99634659D01*
X95609969Y-99703970D01*
X95585433Y-99770592D01*
X95528773Y-99813373D01*
X95484254Y-99821500D01*
X93745510Y-99821500D01*
X93677389Y-99801498D01*
X93630896Y-99747842D01*
X93620792Y-99677568D01*
X93650286Y-99612988D01*
X93687134Y-99583838D01*
X93687918Y-99583428D01*
X93774890Y-99537960D01*
X93929025Y-99414032D01*
X94056154Y-99262526D01*
X94059121Y-99257128D01*
X94059125Y-99257123D01*
X94148467Y-99094608D01*
X94151433Y-99089213D01*
X94153846Y-99081608D01*
X94209373Y-98906564D01*
X94209373Y-98906563D01*
X94211235Y-98900694D01*
X94228500Y-98746773D01*
X94228500Y-98040231D01*
X94227814Y-98033227D01*
X94214681Y-97899301D01*
X94214080Y-97893167D01*
X94156916Y-97703831D01*
X94064066Y-97529204D01*
X93993709Y-97442938D01*
X93942960Y-97380713D01*
X93942957Y-97380710D01*
X93939065Y-97375938D01*
X93932724Y-97370692D01*
X93791425Y-97253799D01*
X93791421Y-97253797D01*
X93786675Y-97249870D01*
X93612701Y-97155802D01*
X93423768Y-97097318D01*
X93417643Y-97096674D01*
X93417642Y-97096674D01*
X93233204Y-97077289D01*
X93233202Y-97077289D01*
X93227075Y-97076645D01*
X93144576Y-97084153D01*
X93036251Y-97094011D01*
X93036248Y-97094012D01*
X93030112Y-97094570D01*
X93024206Y-97096308D01*
X93024202Y-97096309D01*
X92919076Y-97127249D01*
X92840381Y-97150410D01*
X92834923Y-97153263D01*
X92834919Y-97153265D01*
X92769165Y-97187641D01*
X92665110Y-97242040D01*
X92510975Y-97365968D01*
X92383846Y-97517474D01*
X92380879Y-97522872D01*
X92380875Y-97522877D01*
X92377397Y-97529204D01*
X92288567Y-97690787D01*
X92286706Y-97696654D01*
X92286705Y-97696656D01*
X92230627Y-97873436D01*
X92228765Y-97879306D01*
X92211500Y-98033227D01*
X92211500Y-98739769D01*
X92211800Y-98742825D01*
X92211800Y-98742832D01*
X92212530Y-98750273D01*
X92225920Y-98886833D01*
X92283084Y-99076169D01*
X92375934Y-99250796D01*
X92427281Y-99313753D01*
X92497040Y-99399287D01*
X92497043Y-99399290D01*
X92500935Y-99404062D01*
X92505682Y-99407989D01*
X92505684Y-99407991D01*
X92648575Y-99526201D01*
X92648579Y-99526203D01*
X92653325Y-99530130D01*
X92658746Y-99533061D01*
X92754183Y-99584664D01*
X92804592Y-99634659D01*
X92819969Y-99703970D01*
X92795433Y-99770592D01*
X92738773Y-99813373D01*
X92694254Y-99821500D01*
X85105510Y-99821500D01*
X85037389Y-99801498D01*
X84990896Y-99747842D01*
X84980792Y-99677568D01*
X85010286Y-99612988D01*
X85047134Y-99583838D01*
X85047918Y-99583428D01*
X85134890Y-99537960D01*
X85289025Y-99414032D01*
X85416154Y-99262526D01*
X85419121Y-99257128D01*
X85419125Y-99257123D01*
X85508467Y-99094608D01*
X85511433Y-99089213D01*
X85513846Y-99081608D01*
X85569373Y-98906564D01*
X85569373Y-98906563D01*
X85571235Y-98900694D01*
X85588500Y-98746773D01*
X85588500Y-98040231D01*
X85587814Y-98033227D01*
X85574681Y-97899301D01*
X85574080Y-97893167D01*
X85516916Y-97703831D01*
X85424066Y-97529204D01*
X85353709Y-97442938D01*
X85302960Y-97380713D01*
X85302957Y-97380710D01*
X85299065Y-97375938D01*
X85292724Y-97370692D01*
X85151425Y-97253799D01*
X85151421Y-97253797D01*
X85146675Y-97249870D01*
X84972701Y-97155802D01*
X84783768Y-97097318D01*
X84777643Y-97096674D01*
X84777642Y-97096674D01*
X84593204Y-97077289D01*
X84593202Y-97077289D01*
X84587075Y-97076645D01*
X84504576Y-97084153D01*
X84396251Y-97094011D01*
X84396248Y-97094012D01*
X84390112Y-97094570D01*
X84384206Y-97096308D01*
X84384202Y-97096309D01*
X84279076Y-97127249D01*
X84200381Y-97150410D01*
X84194923Y-97153263D01*
X84194919Y-97153265D01*
X84129165Y-97187641D01*
X84025110Y-97242040D01*
X83870975Y-97365968D01*
X83743846Y-97517474D01*
X83740879Y-97522872D01*
X83740875Y-97522877D01*
X83737397Y-97529204D01*
X83648567Y-97690787D01*
X83646706Y-97696654D01*
X83646705Y-97696656D01*
X83590627Y-97873436D01*
X83588765Y-97879306D01*
X83571500Y-98033227D01*
X83571500Y-98739769D01*
X83571800Y-98742825D01*
X83571800Y-98742832D01*
X83572530Y-98750273D01*
X83585920Y-98886833D01*
X83643084Y-99076169D01*
X83735934Y-99250796D01*
X83787281Y-99313753D01*
X83857040Y-99399287D01*
X83857043Y-99399290D01*
X83860935Y-99404062D01*
X83865682Y-99407989D01*
X83865684Y-99407991D01*
X84008575Y-99526201D01*
X84008579Y-99526203D01*
X84013325Y-99530130D01*
X84018746Y-99533061D01*
X84114183Y-99584664D01*
X84164592Y-99634659D01*
X84179969Y-99703970D01*
X84155433Y-99770592D01*
X84098773Y-99813373D01*
X84054254Y-99821500D01*
X76249367Y-99821500D01*
X76229982Y-99820000D01*
X76215148Y-99817690D01*
X76215145Y-99817690D01*
X76206276Y-99816309D01*
X76196341Y-99817608D01*
X76195254Y-99817750D01*
X76166569Y-99818207D01*
X76093259Y-99810987D01*
X76063788Y-99808084D01*
X76039568Y-99803267D01*
X75920454Y-99767134D01*
X75897645Y-99757685D01*
X75787876Y-99699013D01*
X75767345Y-99685295D01*
X75671124Y-99606329D01*
X75653671Y-99588876D01*
X75574705Y-99492655D01*
X75560987Y-99472124D01*
X75502315Y-99362355D01*
X75492866Y-99339546D01*
X75456733Y-99220432D01*
X75451916Y-99196212D01*
X75442711Y-99102755D01*
X75442607Y-99079151D01*
X75442768Y-99077354D01*
X75443576Y-99072552D01*
X75443729Y-99060000D01*
X75439773Y-99032376D01*
X75438500Y-99014514D01*
X75438500Y-95382703D01*
X77265743Y-95382703D01*
X77266302Y-95386947D01*
X77266302Y-95386951D01*
X77275765Y-95458827D01*
X77303268Y-95667734D01*
X77304401Y-95671874D01*
X77304401Y-95671876D01*
X77315656Y-95713018D01*
X77379129Y-95945036D01*
X77380813Y-95948984D01*
X77463698Y-96143303D01*
X77491923Y-96209476D01*
X77639561Y-96456161D01*
X77819313Y-96680528D01*
X78027851Y-96878423D01*
X78261317Y-97046186D01*
X78265112Y-97048195D01*
X78265113Y-97048196D01*
X78286869Y-97059715D01*
X78515392Y-97180712D01*
X78539699Y-97189607D01*
X78715112Y-97253799D01*
X78785373Y-97279511D01*
X79066264Y-97340755D01*
X79094841Y-97343004D01*
X79289282Y-97358307D01*
X79289291Y-97358307D01*
X79291739Y-97358500D01*
X79447271Y-97358500D01*
X79449407Y-97358354D01*
X79449418Y-97358354D01*
X79657548Y-97344165D01*
X79657554Y-97344164D01*
X79661825Y-97343873D01*
X79666020Y-97343004D01*
X79666022Y-97343004D01*
X79802584Y-97314723D01*
X79943342Y-97285574D01*
X80214343Y-97189607D01*
X80431956Y-97077289D01*
X80466005Y-97059715D01*
X80466006Y-97059715D01*
X80469812Y-97057750D01*
X80473313Y-97055289D01*
X80473317Y-97055287D01*
X80587418Y-96975095D01*
X80705023Y-96892441D01*
X80915622Y-96696740D01*
X81097713Y-96474268D01*
X81247927Y-96229142D01*
X81336062Y-96028366D01*
X81361757Y-95969830D01*
X81363483Y-95965898D01*
X81370082Y-95942734D01*
X81405261Y-95819237D01*
X81442244Y-95689406D01*
X81477181Y-95443919D01*
X81482146Y-95409036D01*
X81482146Y-95409034D01*
X81482751Y-95404784D01*
X81482791Y-95397271D01*
X81484235Y-95121583D01*
X81484235Y-95121576D01*
X81484257Y-95117297D01*
X81483199Y-95109255D01*
X81461153Y-94941803D01*
X81446732Y-94832266D01*
X81370871Y-94554964D01*
X81258077Y-94290524D01*
X81110439Y-94043839D01*
X80930687Y-93819472D01*
X80722149Y-93621577D01*
X80488683Y-93453814D01*
X80466843Y-93442250D01*
X80429772Y-93422622D01*
X80234608Y-93319288D01*
X80008513Y-93236549D01*
X79968658Y-93221964D01*
X79968656Y-93221963D01*
X79964627Y-93220489D01*
X79683736Y-93159245D01*
X79652685Y-93156801D01*
X79460718Y-93141693D01*
X79460709Y-93141693D01*
X79458261Y-93141500D01*
X79302729Y-93141500D01*
X79300593Y-93141646D01*
X79300582Y-93141646D01*
X79092452Y-93155835D01*
X79092446Y-93155836D01*
X79088175Y-93156127D01*
X79083980Y-93156996D01*
X79083978Y-93156996D01*
X78947417Y-93185276D01*
X78806658Y-93214426D01*
X78535657Y-93310393D01*
X78280188Y-93442250D01*
X78276687Y-93444711D01*
X78276683Y-93444713D01*
X78173331Y-93517350D01*
X78044977Y-93607559D01*
X77834378Y-93803260D01*
X77652287Y-94025732D01*
X77502073Y-94270858D01*
X77386517Y-94534102D01*
X77307756Y-94810594D01*
X77267249Y-95095216D01*
X77267227Y-95099505D01*
X77267226Y-95099512D01*
X77265765Y-95378417D01*
X77265743Y-95382703D01*
X75438500Y-95382703D01*
X75438500Y-92571311D01*
X75458502Y-92503190D01*
X75512158Y-92456697D01*
X75582432Y-92446593D01*
X75590911Y-92448110D01*
X75602084Y-92450505D01*
X75696438Y-92460172D01*
X75702854Y-92460500D01*
X75927885Y-92460500D01*
X75943124Y-92456025D01*
X75944329Y-92454635D01*
X75946000Y-92446952D01*
X75946000Y-92442384D01*
X76454000Y-92442384D01*
X76458475Y-92457623D01*
X76459865Y-92458828D01*
X76467548Y-92460499D01*
X76697095Y-92460499D01*
X76703614Y-92460162D01*
X76799206Y-92450243D01*
X76812600Y-92447351D01*
X76966784Y-92395912D01*
X76979962Y-92389739D01*
X77117807Y-92304437D01*
X77129208Y-92295401D01*
X77243739Y-92180671D01*
X77252751Y-92169260D01*
X77337816Y-92031257D01*
X77343963Y-92018076D01*
X77395138Y-91863790D01*
X77398005Y-91850414D01*
X77407672Y-91756062D01*
X77408000Y-91749646D01*
X77408000Y-91712115D01*
X77403525Y-91696876D01*
X77402135Y-91695671D01*
X77394452Y-91694000D01*
X76472115Y-91694000D01*
X76456876Y-91698475D01*
X76455671Y-91699865D01*
X76454000Y-91707548D01*
X76454000Y-92442384D01*
X75946000Y-92442384D01*
X75946000Y-91312000D01*
X75966002Y-91243879D01*
X76019658Y-91197386D01*
X76072000Y-91186000D01*
X77389884Y-91186000D01*
X77405123Y-91181525D01*
X77406328Y-91180135D01*
X77407999Y-91172452D01*
X77407999Y-91130405D01*
X77407662Y-91123886D01*
X77397743Y-91028294D01*
X77394851Y-91014900D01*
X77343412Y-90860716D01*
X77337239Y-90847538D01*
X77251937Y-90709693D01*
X77242901Y-90698292D01*
X77161538Y-90617070D01*
X77127459Y-90554787D01*
X77132462Y-90483967D01*
X77161383Y-90438880D01*
X77244130Y-90355988D01*
X77244134Y-90355983D01*
X77249305Y-90350803D01*
X77290863Y-90283384D01*
X77343636Y-90235890D01*
X77398123Y-90223500D01*
X81396235Y-90223500D01*
X81464356Y-90243502D01*
X81494980Y-90271235D01*
X81496353Y-90272967D01*
X81500203Y-90279189D01*
X81624347Y-90403117D01*
X81627270Y-90404919D01*
X81667408Y-90461529D01*
X81670642Y-90532452D01*
X81635018Y-90593864D01*
X81628622Y-90599416D01*
X81623311Y-90602703D01*
X81499383Y-90726847D01*
X81407339Y-90876171D01*
X81405034Y-90883119D01*
X81405034Y-90883120D01*
X81356882Y-91028294D01*
X81352115Y-91042665D01*
X81341500Y-91146269D01*
X81341501Y-91733730D01*
X81352384Y-91838629D01*
X81354563Y-91845160D01*
X81354564Y-91845165D01*
X81393452Y-91961726D01*
X81407898Y-92005026D01*
X81500203Y-92154189D01*
X81624347Y-92278117D01*
X81773671Y-92370161D01*
X81780619Y-92372466D01*
X81780620Y-92372466D01*
X81933634Y-92423219D01*
X81933636Y-92423219D01*
X81940165Y-92425385D01*
X82043769Y-92436000D01*
X82546096Y-92436000D01*
X83056230Y-92435999D01*
X83161129Y-92425116D01*
X83167660Y-92422937D01*
X83167665Y-92422936D01*
X83320578Y-92371920D01*
X83327526Y-92369602D01*
X83333757Y-92365746D01*
X83340377Y-92362645D01*
X83341436Y-92364907D01*
X83398494Y-92349198D01*
X83466266Y-92370352D01*
X83505478Y-92412180D01*
X83583158Y-92546726D01*
X83583161Y-92546731D01*
X83586460Y-92552444D01*
X83590878Y-92557351D01*
X83590879Y-92557352D01*
X83702198Y-92680984D01*
X83714247Y-92694366D01*
X83735490Y-92709800D01*
X83839710Y-92785521D01*
X83883064Y-92841744D01*
X83889139Y-92912480D01*
X83857486Y-92969516D01*
X83859489Y-92971245D01*
X83855315Y-92976081D01*
X83850678Y-92980466D01*
X83738989Y-93139975D01*
X83731623Y-93156996D01*
X83665243Y-93310393D01*
X83661655Y-93318684D01*
X83660350Y-93324931D01*
X83660349Y-93324934D01*
X83641268Y-93416273D01*
X83621835Y-93509293D01*
X83621500Y-93515685D01*
X83621500Y-94858663D01*
X83636235Y-95003727D01*
X83653889Y-95060061D01*
X83692556Y-95183451D01*
X83692558Y-95183456D01*
X83694465Y-95189541D01*
X83697558Y-95195120D01*
X83783133Y-95349500D01*
X83788870Y-95359850D01*
X83793019Y-95364691D01*
X83793022Y-95364695D01*
X83911440Y-95502855D01*
X83915591Y-95507698D01*
X83920633Y-95511609D01*
X83920634Y-95511610D01*
X83964590Y-95545706D01*
X84069453Y-95627046D01*
X84075176Y-95629862D01*
X84075179Y-95629864D01*
X84187554Y-95685159D01*
X84244171Y-95713018D01*
X84250349Y-95714627D01*
X84250351Y-95714628D01*
X84426425Y-95760492D01*
X84426428Y-95760492D01*
X84432607Y-95762102D01*
X84516597Y-95766504D01*
X84620683Y-95771959D01*
X84620687Y-95771959D01*
X84627064Y-95772293D01*
X84782413Y-95748799D01*
X84813285Y-95744130D01*
X84813286Y-95744130D01*
X84819599Y-95743175D01*
X84825585Y-95740972D01*
X84825591Y-95740971D01*
X84996360Y-95678140D01*
X84996365Y-95678138D01*
X85002346Y-95675937D01*
X85167840Y-95573326D01*
X85235462Y-95509380D01*
X85304685Y-95443919D01*
X85309322Y-95439534D01*
X85332481Y-95406459D01*
X85387935Y-95362131D01*
X85458555Y-95354821D01*
X85512220Y-95378633D01*
X85575678Y-95427150D01*
X85643610Y-95458827D01*
X85733631Y-95500805D01*
X85733634Y-95500806D01*
X85739808Y-95503685D01*
X85746456Y-95505171D01*
X85746459Y-95505172D01*
X85852421Y-95528857D01*
X85916543Y-95543190D01*
X85922088Y-95543500D01*
X86055244Y-95543500D01*
X86082124Y-95540580D01*
X86170945Y-95530931D01*
X86190037Y-95528857D01*
X86308190Y-95489094D01*
X86355204Y-95473272D01*
X86355206Y-95473271D01*
X86361675Y-95471094D01*
X86516905Y-95377823D01*
X86521862Y-95373135D01*
X86521865Y-95373133D01*
X86643527Y-95258082D01*
X86643529Y-95258080D01*
X86648485Y-95253393D01*
X86652317Y-95247755D01*
X86652320Y-95247751D01*
X86746442Y-95109255D01*
X86750277Y-95103612D01*
X86817530Y-94935466D01*
X86818644Y-94928738D01*
X86818645Y-94928734D01*
X86828316Y-94870316D01*
X86830202Y-94858921D01*
X86861061Y-94794982D01*
X86921590Y-94757877D01*
X86954510Y-94753500D01*
X87348134Y-94753500D01*
X87351529Y-94753131D01*
X87351533Y-94753131D01*
X87382969Y-94749716D01*
X87386394Y-94749344D01*
X87413606Y-94749344D01*
X87417031Y-94749716D01*
X87448467Y-94753131D01*
X87448471Y-94753131D01*
X87451866Y-94753500D01*
X87848134Y-94753500D01*
X87851529Y-94753131D01*
X87851533Y-94753131D01*
X87882969Y-94749716D01*
X87886394Y-94749344D01*
X87913606Y-94749344D01*
X87917031Y-94749716D01*
X87948467Y-94753131D01*
X87948471Y-94753131D01*
X87951866Y-94753500D01*
X88348134Y-94753500D01*
X88351529Y-94753131D01*
X88351533Y-94753131D01*
X88382969Y-94749716D01*
X88386394Y-94749344D01*
X88413606Y-94749344D01*
X88417031Y-94749716D01*
X88448467Y-94753131D01*
X88448471Y-94753131D01*
X88451866Y-94753500D01*
X88488018Y-94753500D01*
X88556139Y-94773502D01*
X88602632Y-94827158D01*
X88612736Y-94897432D01*
X88597138Y-94942497D01*
X88576673Y-94977944D01*
X88517658Y-95159572D01*
X88497696Y-95349500D01*
X88498386Y-95356065D01*
X88514058Y-95505172D01*
X88517658Y-95539428D01*
X88576673Y-95721056D01*
X88672160Y-95886444D01*
X88676578Y-95891351D01*
X88676579Y-95891352D01*
X88744839Y-95967162D01*
X88799947Y-96028366D01*
X88954448Y-96140618D01*
X88960476Y-96143302D01*
X88960478Y-96143303D01*
X89122881Y-96215609D01*
X89128912Y-96218294D01*
X89222313Y-96238147D01*
X89309256Y-96256628D01*
X89309261Y-96256628D01*
X89315713Y-96258000D01*
X89506687Y-96258000D01*
X89513139Y-96256628D01*
X89513144Y-96256628D01*
X89600088Y-96238147D01*
X89693488Y-96218294D01*
X89699519Y-96215609D01*
X89861922Y-96143303D01*
X89861924Y-96143302D01*
X89867952Y-96140618D01*
X90022453Y-96028366D01*
X90026868Y-96023462D01*
X90026872Y-96023459D01*
X90077562Y-95967162D01*
X90119704Y-95936880D01*
X90124393Y-95935518D01*
X90141828Y-95925207D01*
X90159576Y-95916512D01*
X90178417Y-95909052D01*
X90189784Y-95900794D01*
X90214187Y-95883064D01*
X90224107Y-95876548D01*
X90255335Y-95858080D01*
X90255338Y-95858078D01*
X90262162Y-95854042D01*
X90276483Y-95839721D01*
X90291517Y-95826880D01*
X90301494Y-95819631D01*
X90307907Y-95814972D01*
X90336098Y-95780895D01*
X90344088Y-95772116D01*
X90925870Y-95190334D01*
X90988182Y-95156308D01*
X91058997Y-95161373D01*
X91111201Y-95198100D01*
X91211813Y-95317157D01*
X91217237Y-95321304D01*
X91217238Y-95321305D01*
X91350257Y-95423006D01*
X91350261Y-95423009D01*
X91355678Y-95427150D01*
X91423610Y-95458827D01*
X91513631Y-95500805D01*
X91513634Y-95500806D01*
X91519808Y-95503685D01*
X91526456Y-95505171D01*
X91526459Y-95505172D01*
X91632421Y-95528857D01*
X91696543Y-95543190D01*
X91702088Y-95543500D01*
X91835244Y-95543500D01*
X91862124Y-95540580D01*
X91950945Y-95530931D01*
X91970037Y-95528857D01*
X92088190Y-95489094D01*
X92135204Y-95473272D01*
X92135206Y-95473271D01*
X92141675Y-95471094D01*
X92291186Y-95381259D01*
X92291187Y-95381259D01*
X92296905Y-95377823D01*
X92297521Y-95378848D01*
X92357485Y-95356027D01*
X92426958Y-95370656D01*
X92462978Y-95399645D01*
X92551440Y-95502855D01*
X92555591Y-95507698D01*
X92560633Y-95511609D01*
X92560634Y-95511610D01*
X92604590Y-95545706D01*
X92709453Y-95627046D01*
X92715176Y-95629862D01*
X92715179Y-95629864D01*
X92827554Y-95685159D01*
X92884171Y-95713018D01*
X92890349Y-95714627D01*
X92890351Y-95714628D01*
X93066425Y-95760492D01*
X93066428Y-95760492D01*
X93072607Y-95762102D01*
X93156597Y-95766504D01*
X93260683Y-95771959D01*
X93260687Y-95771959D01*
X93267064Y-95772293D01*
X93422413Y-95748799D01*
X93453285Y-95744130D01*
X93453286Y-95744130D01*
X93459599Y-95743175D01*
X93465585Y-95740972D01*
X93465591Y-95740971D01*
X93636360Y-95678140D01*
X93636365Y-95678138D01*
X93642346Y-95675937D01*
X93807840Y-95573326D01*
X93875462Y-95509380D01*
X93944685Y-95443919D01*
X93949322Y-95439534D01*
X93955976Y-95430032D01*
X94019970Y-95338638D01*
X94061011Y-95280025D01*
X94104799Y-95178836D01*
X94135810Y-95107175D01*
X94135811Y-95107171D01*
X94138345Y-95101316D01*
X94143702Y-95075673D01*
X94177176Y-94915443D01*
X94177177Y-94915438D01*
X94178165Y-94910707D01*
X94178500Y-94904315D01*
X94178500Y-93561337D01*
X94163765Y-93416273D01*
X94146111Y-93359939D01*
X94107444Y-93236549D01*
X94107442Y-93236544D01*
X94105535Y-93230459D01*
X94052477Y-93134741D01*
X94014223Y-93065729D01*
X94014221Y-93065726D01*
X94011130Y-93060150D01*
X94006981Y-93055309D01*
X94006978Y-93055305D01*
X93888560Y-92917145D01*
X93884409Y-92912302D01*
X93853977Y-92888696D01*
X93735594Y-92796869D01*
X93730547Y-92792954D01*
X93724824Y-92790138D01*
X93724821Y-92790136D01*
X93561556Y-92709800D01*
X93555829Y-92706982D01*
X93549651Y-92705373D01*
X93549649Y-92705372D01*
X93373575Y-92659508D01*
X93373572Y-92659508D01*
X93367393Y-92657898D01*
X93283403Y-92653496D01*
X93179317Y-92648041D01*
X93179313Y-92648041D01*
X93172936Y-92647707D01*
X93053341Y-92665794D01*
X92982996Y-92656204D01*
X92929002Y-92610104D01*
X92908500Y-92541211D01*
X92908500Y-92446866D01*
X92901745Y-92384684D01*
X92850615Y-92248295D01*
X92763261Y-92131739D01*
X92646705Y-92044385D01*
X92510316Y-91993255D01*
X92448134Y-91986500D01*
X91751866Y-91986500D01*
X91711280Y-91990909D01*
X91684067Y-91990909D01*
X91651483Y-91987369D01*
X91644672Y-91987000D01*
X91618115Y-91987000D01*
X91602876Y-91991475D01*
X91580611Y-92017170D01*
X91580082Y-92016712D01*
X91573318Y-92029100D01*
X91553161Y-92044207D01*
X91553295Y-92044385D01*
X91500691Y-92083810D01*
X91500441Y-92083997D01*
X91433935Y-92108845D01*
X91364552Y-92093792D01*
X91314322Y-92043618D01*
X91303980Y-92018671D01*
X91301948Y-92011751D01*
X91301947Y-91940754D01*
X91333749Y-91887156D01*
X91805500Y-91415405D01*
X91867812Y-91381379D01*
X91894595Y-91378500D01*
X92467900Y-91378500D01*
X92471146Y-91378163D01*
X92471150Y-91378163D01*
X92566808Y-91368238D01*
X92566812Y-91368237D01*
X92573666Y-91367526D01*
X92580202Y-91365345D01*
X92580204Y-91365345D01*
X92712306Y-91321272D01*
X92741446Y-91311550D01*
X92891848Y-91218478D01*
X92978284Y-91131891D01*
X93040566Y-91097812D01*
X93111386Y-91102815D01*
X93156475Y-91131736D01*
X93174256Y-91149486D01*
X93244197Y-91219305D01*
X93250427Y-91223145D01*
X93250428Y-91223146D01*
X93387590Y-91307694D01*
X93394762Y-91312115D01*
X93468685Y-91336634D01*
X93556111Y-91365632D01*
X93556113Y-91365632D01*
X93562639Y-91367797D01*
X93569475Y-91368497D01*
X93569478Y-91368498D01*
X93612531Y-91372909D01*
X93667100Y-91378500D01*
X94292900Y-91378500D01*
X94296146Y-91378163D01*
X94296150Y-91378163D01*
X94391808Y-91368238D01*
X94391812Y-91368237D01*
X94398666Y-91367526D01*
X94405202Y-91365345D01*
X94405204Y-91365345D01*
X94537306Y-91321272D01*
X94566446Y-91311550D01*
X94716848Y-91218478D01*
X94841805Y-91093303D01*
X94892491Y-91011075D01*
X94930775Y-90948968D01*
X94930776Y-90948966D01*
X94934615Y-90942738D01*
X94952163Y-90889832D01*
X94992594Y-90831473D01*
X95058158Y-90804236D01*
X95071756Y-90803500D01*
X95150803Y-90803500D01*
X95218924Y-90823502D01*
X95265417Y-90877158D01*
X95270326Y-90889623D01*
X95284308Y-90931530D01*
X95288450Y-90943946D01*
X95381522Y-91094348D01*
X95506697Y-91219305D01*
X95512927Y-91223145D01*
X95512928Y-91223146D01*
X95650090Y-91307694D01*
X95657262Y-91312115D01*
X95731185Y-91336634D01*
X95818611Y-91365632D01*
X95818613Y-91365632D01*
X95825139Y-91367797D01*
X95831975Y-91368497D01*
X95831978Y-91368498D01*
X95875031Y-91372909D01*
X95929600Y-91378500D01*
X96555400Y-91378500D01*
X96558646Y-91378163D01*
X96558650Y-91378163D01*
X96654308Y-91368238D01*
X96654312Y-91368237D01*
X96661166Y-91367526D01*
X96667702Y-91365345D01*
X96667704Y-91365345D01*
X96799806Y-91321272D01*
X96828946Y-91311550D01*
X96979348Y-91218478D01*
X97065784Y-91131891D01*
X97128066Y-91097812D01*
X97198886Y-91102815D01*
X97243975Y-91131736D01*
X97261756Y-91149486D01*
X97331697Y-91219305D01*
X97337927Y-91223145D01*
X97337928Y-91223146D01*
X97475090Y-91307694D01*
X97482262Y-91312115D01*
X97556185Y-91336634D01*
X97643611Y-91365632D01*
X97643613Y-91365632D01*
X97650139Y-91367797D01*
X97656975Y-91368497D01*
X97656978Y-91368498D01*
X97700031Y-91372909D01*
X97754600Y-91378500D01*
X98320500Y-91378500D01*
X98388621Y-91398502D01*
X98435114Y-91452158D01*
X98446500Y-91504500D01*
X98446500Y-91864866D01*
X98426498Y-91932987D01*
X98372842Y-91979480D01*
X98306892Y-91990129D01*
X98281486Y-91987369D01*
X98274672Y-91987000D01*
X98248115Y-91987000D01*
X98232876Y-91991475D01*
X98210611Y-92017170D01*
X98210082Y-92016712D01*
X98203318Y-92029100D01*
X98183161Y-92044207D01*
X98183295Y-92044385D01*
X98066739Y-92131739D01*
X98030824Y-92179660D01*
X97973967Y-92222173D01*
X97903149Y-92227199D01*
X97840855Y-92193139D01*
X97829183Y-92179670D01*
X97793261Y-92131739D01*
X97676705Y-92044385D01*
X97676921Y-92044096D01*
X97630861Y-91997935D01*
X97628647Y-91992582D01*
X97624135Y-91988672D01*
X97616452Y-91987001D01*
X97585330Y-91987001D01*
X97578512Y-91987370D01*
X97545933Y-91990909D01*
X97518720Y-91990909D01*
X97478134Y-91986500D01*
X96781866Y-91986500D01*
X96719684Y-91993255D01*
X96583295Y-92044385D01*
X96466739Y-92131739D01*
X96379385Y-92248295D01*
X96328255Y-92384684D01*
X96321500Y-92446866D01*
X96321500Y-92537620D01*
X96301498Y-92605741D01*
X96247842Y-92652234D01*
X96177568Y-92662338D01*
X96163739Y-92659551D01*
X96163575Y-92659508D01*
X96163572Y-92659508D01*
X96157393Y-92657898D01*
X96073403Y-92653496D01*
X95969317Y-92648041D01*
X95969313Y-92648041D01*
X95962936Y-92647707D01*
X95843341Y-92665794D01*
X95776715Y-92675870D01*
X95776714Y-92675870D01*
X95770401Y-92676825D01*
X95764415Y-92679028D01*
X95764409Y-92679029D01*
X95593640Y-92741860D01*
X95593635Y-92741862D01*
X95587654Y-92744063D01*
X95582232Y-92747425D01*
X95450851Y-92828885D01*
X95422160Y-92846674D01*
X95417527Y-92851055D01*
X95417526Y-92851056D01*
X95310244Y-92952507D01*
X95280678Y-92980466D01*
X95168989Y-93139975D01*
X95161623Y-93156996D01*
X95095243Y-93310393D01*
X95091655Y-93318684D01*
X95090350Y-93324931D01*
X95090349Y-93324934D01*
X95071268Y-93416273D01*
X95051835Y-93509293D01*
X95051500Y-93515685D01*
X95051500Y-94858663D01*
X95066235Y-95003727D01*
X95083889Y-95060061D01*
X95122556Y-95183451D01*
X95122558Y-95183456D01*
X95124465Y-95189541D01*
X95127558Y-95195120D01*
X95213133Y-95349500D01*
X95218870Y-95359850D01*
X95223019Y-95364691D01*
X95223022Y-95364695D01*
X95341440Y-95502855D01*
X95345591Y-95507698D01*
X95350633Y-95511609D01*
X95350634Y-95511610D01*
X95394590Y-95545706D01*
X95499453Y-95627046D01*
X95505176Y-95629862D01*
X95505179Y-95629864D01*
X95617554Y-95685159D01*
X95674171Y-95713018D01*
X95680349Y-95714627D01*
X95680351Y-95714628D01*
X95856425Y-95760492D01*
X95856428Y-95760492D01*
X95862607Y-95762102D01*
X95946597Y-95766504D01*
X96050683Y-95771959D01*
X96050687Y-95771959D01*
X96057064Y-95772293D01*
X96212413Y-95748799D01*
X96243285Y-95744130D01*
X96243286Y-95744130D01*
X96249599Y-95743175D01*
X96255585Y-95740972D01*
X96255591Y-95740971D01*
X96426360Y-95678140D01*
X96426365Y-95678138D01*
X96432346Y-95675937D01*
X96597840Y-95573326D01*
X96665462Y-95509380D01*
X96734685Y-95443919D01*
X96739322Y-95439534D01*
X96762481Y-95406459D01*
X96817935Y-95362131D01*
X96888555Y-95354821D01*
X96942220Y-95378633D01*
X97005678Y-95427150D01*
X97073610Y-95458827D01*
X97163631Y-95500805D01*
X97163634Y-95500806D01*
X97169808Y-95503685D01*
X97176456Y-95505171D01*
X97176459Y-95505172D01*
X97282421Y-95528857D01*
X97346543Y-95543190D01*
X97352088Y-95543500D01*
X97485244Y-95543500D01*
X97512124Y-95540580D01*
X97600945Y-95530931D01*
X97620037Y-95528857D01*
X97738190Y-95489094D01*
X97785204Y-95473272D01*
X97785206Y-95473271D01*
X97791675Y-95471094D01*
X97946905Y-95377823D01*
X97951862Y-95373135D01*
X97951865Y-95373133D01*
X98073527Y-95258082D01*
X98073529Y-95258080D01*
X98078485Y-95253393D01*
X98082317Y-95247755D01*
X98082320Y-95247751D01*
X98176442Y-95109255D01*
X98180277Y-95103612D01*
X98247530Y-94935466D01*
X98248644Y-94928738D01*
X98248645Y-94928734D01*
X98258316Y-94870316D01*
X98260202Y-94858921D01*
X98291061Y-94794982D01*
X98351590Y-94757877D01*
X98384510Y-94753500D01*
X98778134Y-94753500D01*
X98781529Y-94753131D01*
X98781533Y-94753131D01*
X98812969Y-94749716D01*
X98816394Y-94749344D01*
X98843606Y-94749344D01*
X98847031Y-94749716D01*
X98878467Y-94753131D01*
X98878471Y-94753131D01*
X98881866Y-94753500D01*
X99278134Y-94753500D01*
X99281529Y-94753131D01*
X99281533Y-94753131D01*
X99312969Y-94749716D01*
X99316394Y-94749344D01*
X99343606Y-94749344D01*
X99347031Y-94749716D01*
X99378467Y-94753131D01*
X99378471Y-94753131D01*
X99381866Y-94753500D01*
X99778134Y-94753500D01*
X99781529Y-94753131D01*
X99781533Y-94753131D01*
X99812969Y-94749716D01*
X99816394Y-94749344D01*
X99843606Y-94749344D01*
X99847031Y-94749716D01*
X99878467Y-94753131D01*
X99878471Y-94753131D01*
X99881866Y-94753500D01*
X100152330Y-94753500D01*
X100220451Y-94773502D01*
X100266944Y-94827158D01*
X100277640Y-94892670D01*
X100262996Y-95032000D01*
X100282958Y-95221928D01*
X100341973Y-95403556D01*
X100437460Y-95568944D01*
X100441878Y-95573851D01*
X100441879Y-95573852D01*
X100522579Y-95663478D01*
X100565247Y-95710866D01*
X100719748Y-95823118D01*
X100725776Y-95825802D01*
X100725778Y-95825803D01*
X100888181Y-95898109D01*
X100894212Y-95900794D01*
X100968131Y-95916506D01*
X101074556Y-95939128D01*
X101074561Y-95939128D01*
X101081013Y-95940500D01*
X101271987Y-95940500D01*
X101278439Y-95939128D01*
X101278444Y-95939128D01*
X101384869Y-95916506D01*
X101458788Y-95900794D01*
X101464819Y-95898109D01*
X101627222Y-95825803D01*
X101627224Y-95825802D01*
X101633252Y-95823118D01*
X101787753Y-95710866D01*
X101819204Y-95675937D01*
X101857840Y-95633027D01*
X101887323Y-95608893D01*
X101889316Y-95607714D01*
X101907076Y-95599012D01*
X101925917Y-95591552D01*
X101961687Y-95565564D01*
X101971607Y-95559048D01*
X102002835Y-95540580D01*
X102002838Y-95540578D01*
X102009662Y-95536542D01*
X102023983Y-95522221D01*
X102039017Y-95509380D01*
X102044809Y-95505172D01*
X102055407Y-95497472D01*
X102083598Y-95463395D01*
X102091588Y-95454616D01*
X102355870Y-95190334D01*
X102418182Y-95156308D01*
X102488997Y-95161373D01*
X102541201Y-95198100D01*
X102641813Y-95317157D01*
X102647237Y-95321304D01*
X102647238Y-95321305D01*
X102780257Y-95423006D01*
X102780261Y-95423009D01*
X102785678Y-95427150D01*
X102853610Y-95458827D01*
X102943631Y-95500805D01*
X102943634Y-95500806D01*
X102949808Y-95503685D01*
X102956456Y-95505171D01*
X102956459Y-95505172D01*
X103062421Y-95528857D01*
X103126543Y-95543190D01*
X103132088Y-95543500D01*
X103265244Y-95543500D01*
X103292124Y-95540580D01*
X103380945Y-95530931D01*
X103400037Y-95528857D01*
X103518190Y-95489094D01*
X103565204Y-95473272D01*
X103565206Y-95473271D01*
X103571675Y-95471094D01*
X103721186Y-95381259D01*
X103721187Y-95381259D01*
X103726905Y-95377823D01*
X103727521Y-95378848D01*
X103787485Y-95356027D01*
X103856958Y-95370656D01*
X103892978Y-95399645D01*
X103981440Y-95502855D01*
X103985591Y-95507698D01*
X103990633Y-95511609D01*
X103990634Y-95511610D01*
X104034590Y-95545706D01*
X104139453Y-95627046D01*
X104145176Y-95629862D01*
X104145179Y-95629864D01*
X104257554Y-95685159D01*
X104314171Y-95713018D01*
X104320349Y-95714627D01*
X104320351Y-95714628D01*
X104496425Y-95760492D01*
X104496428Y-95760492D01*
X104502607Y-95762102D01*
X104586597Y-95766504D01*
X104690683Y-95771959D01*
X104690687Y-95771959D01*
X104697064Y-95772293D01*
X104852413Y-95748799D01*
X104883285Y-95744130D01*
X104883286Y-95744130D01*
X104889599Y-95743175D01*
X104895585Y-95740972D01*
X104895591Y-95740971D01*
X105066360Y-95678140D01*
X105066365Y-95678138D01*
X105072346Y-95675937D01*
X105237840Y-95573326D01*
X105305462Y-95509380D01*
X105374685Y-95443919D01*
X105379322Y-95439534D01*
X105385976Y-95430032D01*
X105449970Y-95338638D01*
X105491011Y-95280025D01*
X105534799Y-95178836D01*
X105565810Y-95107175D01*
X105565811Y-95107171D01*
X105568345Y-95101316D01*
X105573702Y-95075673D01*
X105607176Y-94915443D01*
X105607177Y-94915438D01*
X105608165Y-94910707D01*
X105608500Y-94904315D01*
X105608500Y-93561337D01*
X105593765Y-93416273D01*
X105576111Y-93359939D01*
X105537444Y-93236549D01*
X105537442Y-93236544D01*
X105535535Y-93230459D01*
X105482477Y-93134741D01*
X105444223Y-93065729D01*
X105444221Y-93065726D01*
X105441130Y-93060150D01*
X105404357Y-93017246D01*
X105375214Y-92952507D01*
X105385697Y-92882289D01*
X105432479Y-92828885D01*
X105448777Y-92820143D01*
X105473114Y-92809307D01*
X105473121Y-92809303D01*
X105479152Y-92806618D01*
X105492571Y-92796869D01*
X105612410Y-92709800D01*
X105633653Y-92694366D01*
X105645702Y-92680984D01*
X105757021Y-92557352D01*
X105757022Y-92557351D01*
X105761440Y-92552444D01*
X105828670Y-92435999D01*
X105853623Y-92392779D01*
X105853624Y-92392778D01*
X105856927Y-92387056D01*
X105915942Y-92205428D01*
X105919744Y-92169260D01*
X105935214Y-92022065D01*
X105935904Y-92015500D01*
X105930856Y-91967468D01*
X105916632Y-91832135D01*
X105916632Y-91832133D01*
X105915942Y-91825572D01*
X105856927Y-91643944D01*
X105833188Y-91602826D01*
X105812792Y-91567500D01*
X105796054Y-91498505D01*
X105819274Y-91431413D01*
X105875081Y-91387526D01*
X105921911Y-91378500D01*
X106000400Y-91378500D01*
X106003646Y-91378163D01*
X106003650Y-91378163D01*
X106099308Y-91368238D01*
X106099312Y-91368237D01*
X106106166Y-91367526D01*
X106112702Y-91365345D01*
X106112704Y-91365345D01*
X106244806Y-91321272D01*
X106273946Y-91311550D01*
X106424348Y-91218478D01*
X106549305Y-91093303D01*
X106612707Y-90990446D01*
X106665478Y-90942954D01*
X106735550Y-90931530D01*
X106800673Y-90959804D01*
X106827110Y-90990260D01*
X106891522Y-91094348D01*
X107016697Y-91219305D01*
X107022927Y-91223145D01*
X107022928Y-91223146D01*
X107160090Y-91307694D01*
X107167262Y-91312115D01*
X107241185Y-91336634D01*
X107328611Y-91365632D01*
X107328613Y-91365632D01*
X107335139Y-91367797D01*
X107341975Y-91368497D01*
X107341978Y-91368498D01*
X107385031Y-91372909D01*
X107439600Y-91378500D01*
X108065400Y-91378500D01*
X108068646Y-91378163D01*
X108068650Y-91378163D01*
X108164308Y-91368238D01*
X108164312Y-91368237D01*
X108171166Y-91367526D01*
X108177702Y-91365345D01*
X108177704Y-91365345D01*
X108309806Y-91321272D01*
X108338946Y-91311550D01*
X108489348Y-91218478D01*
X108575784Y-91131891D01*
X108638066Y-91097812D01*
X108708886Y-91102815D01*
X108753975Y-91131736D01*
X108771756Y-91149486D01*
X108841697Y-91219305D01*
X108847927Y-91223145D01*
X108847928Y-91223146D01*
X108985090Y-91307694D01*
X108992262Y-91312115D01*
X109066185Y-91336634D01*
X109153611Y-91365632D01*
X109153613Y-91365632D01*
X109160139Y-91367797D01*
X109166975Y-91368497D01*
X109166978Y-91368498D01*
X109210031Y-91372909D01*
X109264600Y-91378500D01*
X109750500Y-91378500D01*
X109818621Y-91398502D01*
X109865114Y-91452158D01*
X109876500Y-91504500D01*
X109876500Y-91864866D01*
X109856498Y-91932987D01*
X109802842Y-91979480D01*
X109736892Y-91990129D01*
X109711486Y-91987369D01*
X109704672Y-91987000D01*
X109678115Y-91987000D01*
X109662876Y-91991475D01*
X109640611Y-92017170D01*
X109640082Y-92016712D01*
X109633318Y-92029100D01*
X109613161Y-92044207D01*
X109613295Y-92044385D01*
X109496739Y-92131739D01*
X109460824Y-92179660D01*
X109403967Y-92222173D01*
X109333149Y-92227199D01*
X109270855Y-92193139D01*
X109259183Y-92179670D01*
X109223261Y-92131739D01*
X109106705Y-92044385D01*
X109106921Y-92044096D01*
X109060861Y-91997935D01*
X109058647Y-91992582D01*
X109054135Y-91988672D01*
X109046452Y-91987001D01*
X109015330Y-91987001D01*
X109008512Y-91987370D01*
X108975933Y-91990909D01*
X108948720Y-91990909D01*
X108908134Y-91986500D01*
X108211866Y-91986500D01*
X108149684Y-91993255D01*
X108013295Y-92044385D01*
X107896739Y-92131739D01*
X107809385Y-92248295D01*
X107758255Y-92384684D01*
X107751500Y-92446866D01*
X107751500Y-92537620D01*
X107731498Y-92605741D01*
X107677842Y-92652234D01*
X107607568Y-92662338D01*
X107593739Y-92659551D01*
X107593575Y-92659508D01*
X107593572Y-92659508D01*
X107587393Y-92657898D01*
X107503403Y-92653496D01*
X107399317Y-92648041D01*
X107399313Y-92648041D01*
X107392936Y-92647707D01*
X107273341Y-92665794D01*
X107206715Y-92675870D01*
X107206714Y-92675870D01*
X107200401Y-92676825D01*
X107194415Y-92679028D01*
X107194409Y-92679029D01*
X107023640Y-92741860D01*
X107023635Y-92741862D01*
X107017654Y-92744063D01*
X107012232Y-92747425D01*
X106880851Y-92828885D01*
X106852160Y-92846674D01*
X106847527Y-92851055D01*
X106847526Y-92851056D01*
X106740244Y-92952507D01*
X106710678Y-92980466D01*
X106598989Y-93139975D01*
X106591623Y-93156996D01*
X106525243Y-93310393D01*
X106521655Y-93318684D01*
X106520350Y-93324931D01*
X106520349Y-93324934D01*
X106501268Y-93416273D01*
X106481835Y-93509293D01*
X106481500Y-93515685D01*
X106481500Y-94858663D01*
X106496235Y-95003727D01*
X106513889Y-95060061D01*
X106552556Y-95183451D01*
X106552558Y-95183456D01*
X106554465Y-95189541D01*
X106557558Y-95195120D01*
X106643133Y-95349500D01*
X106648870Y-95359850D01*
X106653019Y-95364691D01*
X106653022Y-95364695D01*
X106771440Y-95502855D01*
X106775591Y-95507698D01*
X106780633Y-95511609D01*
X106780634Y-95511610D01*
X106824590Y-95545706D01*
X106929453Y-95627046D01*
X106935176Y-95629862D01*
X106935179Y-95629864D01*
X107047554Y-95685159D01*
X107104171Y-95713018D01*
X107110349Y-95714627D01*
X107110351Y-95714628D01*
X107286425Y-95760492D01*
X107286428Y-95760492D01*
X107292607Y-95762102D01*
X107376597Y-95766504D01*
X107480683Y-95771959D01*
X107480687Y-95771959D01*
X107487064Y-95772293D01*
X107642413Y-95748799D01*
X107673285Y-95744130D01*
X107673286Y-95744130D01*
X107679599Y-95743175D01*
X107685585Y-95740972D01*
X107685591Y-95740971D01*
X107856360Y-95678140D01*
X107856365Y-95678138D01*
X107862346Y-95675937D01*
X108027840Y-95573326D01*
X108095462Y-95509380D01*
X108164685Y-95443919D01*
X108169322Y-95439534D01*
X108192481Y-95406459D01*
X108247935Y-95362131D01*
X108318555Y-95354821D01*
X108372220Y-95378633D01*
X108435678Y-95427150D01*
X108503610Y-95458827D01*
X108593631Y-95500805D01*
X108593634Y-95500806D01*
X108599808Y-95503685D01*
X108606456Y-95505171D01*
X108606459Y-95505172D01*
X108712421Y-95528857D01*
X108776543Y-95543190D01*
X108782088Y-95543500D01*
X108915244Y-95543500D01*
X108942124Y-95540580D01*
X109030945Y-95530931D01*
X109050037Y-95528857D01*
X109168190Y-95489094D01*
X109215204Y-95473272D01*
X109215206Y-95473271D01*
X109221675Y-95471094D01*
X109376905Y-95377823D01*
X109381862Y-95373135D01*
X109381865Y-95373133D01*
X109503527Y-95258082D01*
X109503529Y-95258080D01*
X109508485Y-95253393D01*
X109512317Y-95247755D01*
X109512320Y-95247751D01*
X109606442Y-95109255D01*
X109610277Y-95103612D01*
X109677530Y-94935466D01*
X109678644Y-94928738D01*
X109678645Y-94928734D01*
X109688316Y-94870316D01*
X109690202Y-94858921D01*
X109721061Y-94794982D01*
X109781590Y-94757877D01*
X109814510Y-94753500D01*
X110208134Y-94753500D01*
X110211529Y-94753131D01*
X110211533Y-94753131D01*
X110242969Y-94749716D01*
X110246394Y-94749344D01*
X110273606Y-94749344D01*
X110277031Y-94749716D01*
X110308467Y-94753131D01*
X110308471Y-94753131D01*
X110311866Y-94753500D01*
X110708134Y-94753500D01*
X110711529Y-94753131D01*
X110711533Y-94753131D01*
X110742969Y-94749716D01*
X110746394Y-94749344D01*
X110773606Y-94749344D01*
X110777031Y-94749716D01*
X110808467Y-94753131D01*
X110808471Y-94753131D01*
X110811866Y-94753500D01*
X111208134Y-94753500D01*
X111211529Y-94753131D01*
X111211533Y-94753131D01*
X111242969Y-94749716D01*
X111246394Y-94749344D01*
X111273606Y-94749344D01*
X111277031Y-94749716D01*
X111308467Y-94753131D01*
X111308471Y-94753131D01*
X111311866Y-94753500D01*
X111708134Y-94753500D01*
X111711529Y-94753131D01*
X111711533Y-94753131D01*
X111742969Y-94749716D01*
X111746394Y-94749344D01*
X111773606Y-94749344D01*
X111777031Y-94749716D01*
X111808467Y-94753131D01*
X111808471Y-94753131D01*
X111811866Y-94753500D01*
X112208134Y-94753500D01*
X112211529Y-94753131D01*
X112211533Y-94753131D01*
X112242969Y-94749716D01*
X112246394Y-94749344D01*
X112273606Y-94749344D01*
X112277031Y-94749716D01*
X112308467Y-94753131D01*
X112308471Y-94753131D01*
X112311866Y-94753500D01*
X112708134Y-94753500D01*
X112711529Y-94753131D01*
X112711533Y-94753131D01*
X112742969Y-94749716D01*
X112746394Y-94749344D01*
X112773606Y-94749344D01*
X112777031Y-94749716D01*
X112808467Y-94753131D01*
X112808471Y-94753131D01*
X112811866Y-94753500D01*
X113208134Y-94753500D01*
X113211529Y-94753131D01*
X113211533Y-94753131D01*
X113242969Y-94749716D01*
X113246394Y-94749344D01*
X113273606Y-94749344D01*
X113277031Y-94749716D01*
X113308467Y-94753131D01*
X113308471Y-94753131D01*
X113311866Y-94753500D01*
X113701443Y-94753500D01*
X113769564Y-94773502D01*
X113816057Y-94827158D01*
X113822919Y-94846040D01*
X113870461Y-95018641D01*
X113954922Y-95178836D01*
X113959327Y-95184049D01*
X113959330Y-95184053D01*
X114067406Y-95311943D01*
X114067410Y-95311947D01*
X114071813Y-95317157D01*
X114077237Y-95321304D01*
X114077238Y-95321305D01*
X114210257Y-95423006D01*
X114210261Y-95423009D01*
X114215678Y-95427150D01*
X114283610Y-95458827D01*
X114373631Y-95500805D01*
X114373634Y-95500806D01*
X114379808Y-95503685D01*
X114386456Y-95505171D01*
X114386459Y-95505172D01*
X114492421Y-95528857D01*
X114556543Y-95543190D01*
X114562088Y-95543500D01*
X114695244Y-95543500D01*
X114722124Y-95540580D01*
X114810945Y-95530931D01*
X114830037Y-95528857D01*
X114948190Y-95489094D01*
X114995204Y-95473272D01*
X114995206Y-95473271D01*
X115001675Y-95471094D01*
X115151186Y-95381259D01*
X115151187Y-95381259D01*
X115156905Y-95377823D01*
X115157521Y-95378848D01*
X115217485Y-95356027D01*
X115286958Y-95370656D01*
X115322978Y-95399645D01*
X115411440Y-95502855D01*
X115415591Y-95507698D01*
X115420633Y-95511609D01*
X115420634Y-95511610D01*
X115464590Y-95545706D01*
X115569453Y-95627046D01*
X115575176Y-95629862D01*
X115575179Y-95629864D01*
X115687554Y-95685159D01*
X115744171Y-95713018D01*
X115750349Y-95714627D01*
X115750351Y-95714628D01*
X115926425Y-95760492D01*
X115926428Y-95760492D01*
X115932607Y-95762102D01*
X116016597Y-95766504D01*
X116120683Y-95771959D01*
X116120687Y-95771959D01*
X116127064Y-95772293D01*
X116282413Y-95748799D01*
X116313285Y-95744130D01*
X116313286Y-95744130D01*
X116319599Y-95743175D01*
X116325585Y-95740972D01*
X116325591Y-95740971D01*
X116496360Y-95678140D01*
X116496365Y-95678138D01*
X116502346Y-95675937D01*
X116667840Y-95573326D01*
X116735462Y-95509380D01*
X116804685Y-95443919D01*
X116809322Y-95439534D01*
X116815976Y-95430032D01*
X116849116Y-95382703D01*
X118540743Y-95382703D01*
X118541302Y-95386947D01*
X118541302Y-95386951D01*
X118550765Y-95458827D01*
X118578268Y-95667734D01*
X118579401Y-95671874D01*
X118579401Y-95671876D01*
X118590656Y-95713018D01*
X118654129Y-95945036D01*
X118655813Y-95948984D01*
X118738698Y-96143303D01*
X118766923Y-96209476D01*
X118914561Y-96456161D01*
X119094313Y-96680528D01*
X119302851Y-96878423D01*
X119536317Y-97046186D01*
X119540112Y-97048195D01*
X119540113Y-97048196D01*
X119561869Y-97059715D01*
X119790392Y-97180712D01*
X119814699Y-97189607D01*
X119990112Y-97253799D01*
X120060373Y-97279511D01*
X120341264Y-97340755D01*
X120369841Y-97343004D01*
X120564282Y-97358307D01*
X120564291Y-97358307D01*
X120566739Y-97358500D01*
X120722271Y-97358500D01*
X120724407Y-97358354D01*
X120724418Y-97358354D01*
X120932548Y-97344165D01*
X120932554Y-97344164D01*
X120936825Y-97343873D01*
X120941020Y-97343004D01*
X120941022Y-97343004D01*
X121077584Y-97314723D01*
X121218342Y-97285574D01*
X121489343Y-97189607D01*
X121706956Y-97077289D01*
X121741005Y-97059715D01*
X121741006Y-97059715D01*
X121744812Y-97057750D01*
X121748313Y-97055289D01*
X121748317Y-97055287D01*
X121862418Y-96975095D01*
X121980023Y-96892441D01*
X122190622Y-96696740D01*
X122372713Y-96474268D01*
X122522927Y-96229142D01*
X122611062Y-96028366D01*
X122636757Y-95969830D01*
X122638483Y-95965898D01*
X122645082Y-95942734D01*
X122680261Y-95819237D01*
X122717244Y-95689406D01*
X122752181Y-95443919D01*
X122757146Y-95409036D01*
X122757146Y-95409034D01*
X122757751Y-95404784D01*
X122757791Y-95397271D01*
X122759235Y-95121583D01*
X122759235Y-95121576D01*
X122759257Y-95117297D01*
X122758199Y-95109255D01*
X122736153Y-94941803D01*
X122721732Y-94832266D01*
X122645871Y-94554964D01*
X122533077Y-94290524D01*
X122385439Y-94043839D01*
X122205687Y-93819472D01*
X121997149Y-93621577D01*
X121763683Y-93453814D01*
X121741843Y-93442250D01*
X121704772Y-93422622D01*
X121509608Y-93319288D01*
X121283513Y-93236549D01*
X121243658Y-93221964D01*
X121243656Y-93221963D01*
X121239627Y-93220489D01*
X120958736Y-93159245D01*
X120927685Y-93156801D01*
X120735718Y-93141693D01*
X120735709Y-93141693D01*
X120733261Y-93141500D01*
X120577729Y-93141500D01*
X120575593Y-93141646D01*
X120575582Y-93141646D01*
X120367452Y-93155835D01*
X120367446Y-93155836D01*
X120363175Y-93156127D01*
X120358980Y-93156996D01*
X120358978Y-93156996D01*
X120222416Y-93185277D01*
X120081658Y-93214426D01*
X119810657Y-93310393D01*
X119555188Y-93442250D01*
X119551687Y-93444711D01*
X119551683Y-93444713D01*
X119448331Y-93517350D01*
X119319977Y-93607559D01*
X119109378Y-93803260D01*
X118927287Y-94025732D01*
X118777073Y-94270858D01*
X118661517Y-94534102D01*
X118582756Y-94810594D01*
X118542249Y-95095216D01*
X118542227Y-95099505D01*
X118542226Y-95099512D01*
X118540765Y-95378417D01*
X118540743Y-95382703D01*
X116849116Y-95382703D01*
X116879970Y-95338638D01*
X116921011Y-95280025D01*
X116964799Y-95178836D01*
X116995810Y-95107175D01*
X116995811Y-95107171D01*
X116998345Y-95101316D01*
X117003702Y-95075673D01*
X117037176Y-94915443D01*
X117037177Y-94915438D01*
X117038165Y-94910707D01*
X117038500Y-94904315D01*
X117038500Y-93561337D01*
X117023765Y-93416273D01*
X117006111Y-93359939D01*
X116967444Y-93236549D01*
X116967442Y-93236544D01*
X116965535Y-93230459D01*
X116871130Y-93060150D01*
X116871184Y-93060120D01*
X116849522Y-92995149D01*
X116867043Y-92926348D01*
X116924190Y-92875478D01*
X117072822Y-92809303D01*
X117072824Y-92809302D01*
X117078852Y-92806618D01*
X117092271Y-92796869D01*
X117212110Y-92709800D01*
X117233353Y-92694366D01*
X117245402Y-92680984D01*
X117356721Y-92557352D01*
X117356722Y-92557351D01*
X117361140Y-92552444D01*
X117428370Y-92435999D01*
X117453323Y-92392779D01*
X117453324Y-92392778D01*
X117456627Y-92387056D01*
X117515642Y-92205428D01*
X117519444Y-92169260D01*
X117532410Y-92045885D01*
X117532971Y-92040549D01*
X117559984Y-91974893D01*
X117566430Y-91967468D01*
X117571159Y-91962432D01*
X117573915Y-91959589D01*
X117593634Y-91939870D01*
X117596112Y-91936675D01*
X117603818Y-91927653D01*
X117628658Y-91901201D01*
X117634086Y-91895421D01*
X117641489Y-91881955D01*
X117643846Y-91877668D01*
X117654699Y-91861145D01*
X117662253Y-91851406D01*
X117667113Y-91845141D01*
X117684676Y-91804557D01*
X117689883Y-91793927D01*
X117711195Y-91755160D01*
X117713166Y-91747483D01*
X117713168Y-91747478D01*
X117716232Y-91735542D01*
X117722638Y-91716830D01*
X117724314Y-91712959D01*
X117730681Y-91698245D01*
X117733506Y-91680412D01*
X117737597Y-91654581D01*
X117740004Y-91642960D01*
X117749028Y-91607811D01*
X117749028Y-91607810D01*
X117751000Y-91600130D01*
X117751000Y-91579869D01*
X117752551Y-91560158D01*
X117754479Y-91547985D01*
X117755719Y-91540157D01*
X117751559Y-91496146D01*
X117751000Y-91484289D01*
X117751000Y-91352634D01*
X117771002Y-91284513D01*
X117810697Y-91245490D01*
X117813301Y-91243879D01*
X117854348Y-91218478D01*
X117979305Y-91093303D01*
X118029991Y-91011075D01*
X118068275Y-90948968D01*
X118068276Y-90948966D01*
X118072115Y-90942738D01*
X118127797Y-90774861D01*
X118138500Y-90670400D01*
X118138500Y-89669600D01*
X118127526Y-89563834D01*
X118111734Y-89516498D01*
X118073868Y-89403002D01*
X118071550Y-89396054D01*
X117978478Y-89245652D01*
X117853303Y-89120695D01*
X117847072Y-89116854D01*
X117708968Y-89031725D01*
X117708966Y-89031724D01*
X117702738Y-89027885D01*
X117617889Y-88999742D01*
X117541389Y-88974368D01*
X117541387Y-88974368D01*
X117534861Y-88972203D01*
X117528025Y-88971503D01*
X117528022Y-88971502D01*
X117484969Y-88967091D01*
X117430400Y-88961500D01*
X116804600Y-88961500D01*
X116801354Y-88961837D01*
X116801350Y-88961837D01*
X116705692Y-88971762D01*
X116705688Y-88971763D01*
X116698834Y-88972474D01*
X116692298Y-88974655D01*
X116692296Y-88974655D01*
X116580618Y-89011914D01*
X116531054Y-89028450D01*
X116380652Y-89121522D01*
X116335100Y-89167154D01*
X116294216Y-89208109D01*
X116231934Y-89242188D01*
X116161114Y-89237185D01*
X116116025Y-89208264D01*
X116033483Y-89125866D01*
X116028303Y-89120695D01*
X116022072Y-89116854D01*
X115883968Y-89031725D01*
X115883966Y-89031724D01*
X115877738Y-89027885D01*
X115792889Y-88999742D01*
X115716389Y-88974368D01*
X115716387Y-88974368D01*
X115709861Y-88972203D01*
X115703025Y-88971503D01*
X115703022Y-88971502D01*
X115659969Y-88967091D01*
X115605400Y-88961500D01*
X114979600Y-88961500D01*
X114976354Y-88961837D01*
X114976350Y-88961837D01*
X114880692Y-88971762D01*
X114880688Y-88971763D01*
X114873834Y-88972474D01*
X114867298Y-88974655D01*
X114867296Y-88974655D01*
X114823436Y-88989288D01*
X114752486Y-88991872D01*
X114694465Y-88958860D01*
X114193474Y-88457869D01*
X114159449Y-88395557D01*
X114159447Y-88341997D01*
X114162004Y-88330240D01*
X114196026Y-88267926D01*
X114258337Y-88233898D01*
X114329153Y-88238959D01*
X114360690Y-88256190D01*
X114406108Y-88290229D01*
X114411294Y-88294115D01*
X114413294Y-88295614D01*
X114413078Y-88295903D01*
X114459139Y-88342065D01*
X114461353Y-88347418D01*
X114465865Y-88351328D01*
X114473548Y-88352999D01*
X114504670Y-88352999D01*
X114511488Y-88352630D01*
X114544067Y-88349091D01*
X114571280Y-88349091D01*
X114611866Y-88353500D01*
X115308134Y-88353500D01*
X115370316Y-88346745D01*
X115506705Y-88295615D01*
X115623261Y-88208261D01*
X115710615Y-88091705D01*
X115761745Y-87955316D01*
X115768500Y-87893134D01*
X115768500Y-87802380D01*
X115788502Y-87734259D01*
X115842158Y-87687766D01*
X115912432Y-87677662D01*
X115926261Y-87680449D01*
X115926425Y-87680492D01*
X115926428Y-87680492D01*
X115932607Y-87682102D01*
X116016597Y-87686504D01*
X116120683Y-87691959D01*
X116120687Y-87691959D01*
X116127064Y-87692293D01*
X116282413Y-87668799D01*
X116313285Y-87664130D01*
X116313286Y-87664130D01*
X116319599Y-87663175D01*
X116325585Y-87660972D01*
X116325591Y-87660971D01*
X116496360Y-87598140D01*
X116496365Y-87598138D01*
X116502346Y-87595937D01*
X116667840Y-87493326D01*
X116742362Y-87422855D01*
X116804685Y-87363919D01*
X116809322Y-87359534D01*
X116844893Y-87308734D01*
X116897295Y-87233895D01*
X116921011Y-87200025D01*
X116982150Y-87058741D01*
X116995810Y-87027175D01*
X116995811Y-87027171D01*
X116998345Y-87021316D01*
X117008958Y-86970516D01*
X117037176Y-86835443D01*
X117037177Y-86835438D01*
X117038165Y-86830707D01*
X117038500Y-86824315D01*
X117038500Y-85481337D01*
X117028054Y-85378493D01*
X117024410Y-85342622D01*
X117024410Y-85342621D01*
X117023765Y-85336273D01*
X116996427Y-85249036D01*
X116988175Y-85222703D01*
X118540743Y-85222703D01*
X118541302Y-85226947D01*
X118541302Y-85226951D01*
X118542847Y-85238684D01*
X118578268Y-85507734D01*
X118579401Y-85511874D01*
X118579401Y-85511876D01*
X118592489Y-85559718D01*
X118654129Y-85785036D01*
X118766923Y-86049476D01*
X118914561Y-86296161D01*
X119094313Y-86520528D01*
X119302851Y-86718423D01*
X119536317Y-86886186D01*
X119540112Y-86888195D01*
X119540113Y-86888196D01*
X119561869Y-86899715D01*
X119790392Y-87020712D01*
X119925383Y-87070112D01*
X120033129Y-87109541D01*
X120060373Y-87119511D01*
X120341264Y-87180755D01*
X120369841Y-87183004D01*
X120564282Y-87198307D01*
X120564291Y-87198307D01*
X120566739Y-87198500D01*
X120722271Y-87198500D01*
X120724407Y-87198354D01*
X120724418Y-87198354D01*
X120932548Y-87184165D01*
X120932554Y-87184164D01*
X120936825Y-87183873D01*
X120941020Y-87183004D01*
X120941022Y-87183004D01*
X121132446Y-87143362D01*
X121218342Y-87125574D01*
X121489343Y-87029607D01*
X121744812Y-86897750D01*
X121748313Y-86895289D01*
X121748317Y-86895287D01*
X121909732Y-86781842D01*
X121980023Y-86732441D01*
X122190622Y-86536740D01*
X122372713Y-86314268D01*
X122522927Y-86069142D01*
X122638483Y-85805898D01*
X122717244Y-85529406D01*
X122757751Y-85244784D01*
X122757845Y-85226951D01*
X122759235Y-84961583D01*
X122759235Y-84961576D01*
X122759257Y-84957297D01*
X122755278Y-84927069D01*
X122738136Y-84796869D01*
X122721732Y-84672266D01*
X122645871Y-84394964D01*
X122612420Y-84316540D01*
X122534763Y-84134476D01*
X122534761Y-84134472D01*
X122533077Y-84130524D01*
X122385439Y-83883839D01*
X122205687Y-83659472D01*
X121997149Y-83461577D01*
X121763683Y-83293814D01*
X121741843Y-83282250D01*
X121673357Y-83245989D01*
X121509608Y-83159288D01*
X121320625Y-83090130D01*
X121243658Y-83061964D01*
X121243656Y-83061963D01*
X121239627Y-83060489D01*
X120958736Y-82999245D01*
X120927685Y-82996801D01*
X120735718Y-82981693D01*
X120735709Y-82981693D01*
X120733261Y-82981500D01*
X120577729Y-82981500D01*
X120575593Y-82981646D01*
X120575582Y-82981646D01*
X120367452Y-82995835D01*
X120367446Y-82995836D01*
X120363175Y-82996127D01*
X120358980Y-82996996D01*
X120358978Y-82996996D01*
X120222417Y-83025276D01*
X120081658Y-83054426D01*
X119810657Y-83150393D01*
X119806848Y-83152359D01*
X119592880Y-83262796D01*
X119555188Y-83282250D01*
X119551687Y-83284711D01*
X119551683Y-83284713D01*
X119541594Y-83291804D01*
X119319977Y-83447559D01*
X119109378Y-83643260D01*
X118927287Y-83865732D01*
X118777073Y-84110858D01*
X118775347Y-84114791D01*
X118775346Y-84114792D01*
X118686785Y-84316540D01*
X118661517Y-84374102D01*
X118660342Y-84378229D01*
X118660341Y-84378230D01*
X118648488Y-84419841D01*
X118582756Y-84650594D01*
X118556206Y-84837145D01*
X118547195Y-84900466D01*
X118542249Y-84935216D01*
X118542227Y-84939505D01*
X118542226Y-84939512D01*
X118540765Y-85218417D01*
X118540743Y-85222703D01*
X116988175Y-85222703D01*
X116967444Y-85156549D01*
X116967442Y-85156544D01*
X116965535Y-85150459D01*
X116901982Y-85035807D01*
X116874223Y-84985729D01*
X116874221Y-84985726D01*
X116871130Y-84980150D01*
X116866981Y-84975309D01*
X116866978Y-84975305D01*
X116748560Y-84837145D01*
X116744409Y-84832302D01*
X116698343Y-84796569D01*
X116632763Y-84745700D01*
X116590547Y-84712954D01*
X116584824Y-84710138D01*
X116584821Y-84710136D01*
X116421556Y-84629800D01*
X116415829Y-84626982D01*
X116409651Y-84625373D01*
X116409649Y-84625372D01*
X116233575Y-84579508D01*
X116233572Y-84579508D01*
X116227393Y-84577898D01*
X116143403Y-84573496D01*
X116039317Y-84568041D01*
X116039313Y-84568041D01*
X116032936Y-84567707D01*
X115877587Y-84591201D01*
X115846715Y-84595870D01*
X115846714Y-84595870D01*
X115840401Y-84596825D01*
X115834415Y-84599028D01*
X115834409Y-84599029D01*
X115663640Y-84661860D01*
X115663635Y-84661862D01*
X115657654Y-84664063D01*
X115644424Y-84672266D01*
X115498860Y-84762520D01*
X115492160Y-84766674D01*
X115487527Y-84771055D01*
X115487526Y-84771056D01*
X115415471Y-84839195D01*
X115350678Y-84900466D01*
X115327519Y-84933541D01*
X115272065Y-84977869D01*
X115201445Y-84985179D01*
X115147780Y-84961367D01*
X115084322Y-84912850D01*
X114975381Y-84862050D01*
X114926369Y-84839195D01*
X114926366Y-84839194D01*
X114920192Y-84836315D01*
X114913544Y-84834829D01*
X114913541Y-84834828D01*
X114748494Y-84797936D01*
X114748495Y-84797936D01*
X114743457Y-84796810D01*
X114737912Y-84796500D01*
X114604756Y-84796500D01*
X114469963Y-84811143D01*
X114386609Y-84839195D01*
X114304796Y-84866728D01*
X114304794Y-84866729D01*
X114298325Y-84868906D01*
X114143095Y-84962177D01*
X114138138Y-84966865D01*
X114138135Y-84966867D01*
X114053758Y-85046659D01*
X114011515Y-85086607D01*
X114007683Y-85092245D01*
X114007680Y-85092249D01*
X113939940Y-85191925D01*
X113909723Y-85236388D01*
X113842470Y-85404534D01*
X113841356Y-85411262D01*
X113841355Y-85411266D01*
X113839155Y-85424557D01*
X113830282Y-85478158D01*
X113829798Y-85481079D01*
X113798939Y-85545018D01*
X113738410Y-85582123D01*
X113705490Y-85586500D01*
X113311866Y-85586500D01*
X113308471Y-85586869D01*
X113308467Y-85586869D01*
X113282469Y-85589693D01*
X113273606Y-85590656D01*
X113246394Y-85590656D01*
X113237531Y-85589693D01*
X113211533Y-85586869D01*
X113211529Y-85586869D01*
X113208134Y-85586500D01*
X112811866Y-85586500D01*
X112808471Y-85586869D01*
X112808467Y-85586869D01*
X112782469Y-85589693D01*
X112773606Y-85590656D01*
X112746394Y-85590656D01*
X112737531Y-85589693D01*
X112711533Y-85586869D01*
X112711529Y-85586869D01*
X112708134Y-85586500D01*
X112311866Y-85586500D01*
X112308471Y-85586869D01*
X112308467Y-85586869D01*
X112282469Y-85589693D01*
X112273606Y-85590656D01*
X112246394Y-85590656D01*
X112237531Y-85589693D01*
X112211533Y-85586869D01*
X112211529Y-85586869D01*
X112208134Y-85586500D01*
X112172182Y-85586500D01*
X112104061Y-85566498D01*
X112057568Y-85512842D01*
X112047464Y-85442568D01*
X112063062Y-85397503D01*
X112083527Y-85362056D01*
X112142542Y-85180428D01*
X112151618Y-85094080D01*
X112161814Y-84997065D01*
X112162504Y-84990500D01*
X112157145Y-84939512D01*
X112143232Y-84807135D01*
X112143232Y-84807133D01*
X112142542Y-84800572D01*
X112083527Y-84618944D01*
X111988040Y-84453556D01*
X111971881Y-84435609D01*
X111864675Y-84316545D01*
X111864674Y-84316544D01*
X111860253Y-84311634D01*
X111705752Y-84199382D01*
X111699724Y-84196698D01*
X111699722Y-84196697D01*
X111537319Y-84124391D01*
X111537318Y-84124391D01*
X111531288Y-84121706D01*
X111437888Y-84101853D01*
X111350944Y-84083372D01*
X111350939Y-84083372D01*
X111344487Y-84082000D01*
X111153513Y-84082000D01*
X111147061Y-84083372D01*
X111147056Y-84083372D01*
X111060112Y-84101853D01*
X110966712Y-84121706D01*
X110960682Y-84124391D01*
X110960681Y-84124391D01*
X110798278Y-84196697D01*
X110798276Y-84196698D01*
X110792248Y-84199382D01*
X110637747Y-84311634D01*
X110582765Y-84372698D01*
X110540515Y-84403056D01*
X110535607Y-84404482D01*
X110528782Y-84408518D01*
X110528778Y-84408520D01*
X110518168Y-84414794D01*
X110500418Y-84423490D01*
X110488956Y-84428028D01*
X110488951Y-84428031D01*
X110481583Y-84430948D01*
X110475168Y-84435609D01*
X110445825Y-84456927D01*
X110435907Y-84463443D01*
X110417219Y-84474495D01*
X110397837Y-84485958D01*
X110383513Y-84500282D01*
X110368481Y-84513121D01*
X110352093Y-84525028D01*
X110323912Y-84559093D01*
X110315922Y-84567873D01*
X109734130Y-85149665D01*
X109671818Y-85183691D01*
X109601003Y-85178626D01*
X109548797Y-85141898D01*
X109452594Y-85028058D01*
X109452593Y-85028057D01*
X109448187Y-85022843D01*
X109442762Y-85018695D01*
X109309743Y-84916994D01*
X109309739Y-84916991D01*
X109304322Y-84912850D01*
X109195381Y-84862050D01*
X109146369Y-84839195D01*
X109146366Y-84839194D01*
X109140192Y-84836315D01*
X109133544Y-84834829D01*
X109133541Y-84834828D01*
X108968494Y-84797936D01*
X108968495Y-84797936D01*
X108963457Y-84796810D01*
X108957912Y-84796500D01*
X108824756Y-84796500D01*
X108689963Y-84811143D01*
X108606609Y-84839195D01*
X108524796Y-84866728D01*
X108524794Y-84866729D01*
X108518325Y-84868906D01*
X108368814Y-84958741D01*
X108368813Y-84958741D01*
X108363095Y-84962177D01*
X108362479Y-84961152D01*
X108302515Y-84983973D01*
X108233042Y-84969344D01*
X108197022Y-84940355D01*
X108108560Y-84837145D01*
X108104409Y-84832302D01*
X108058343Y-84796569D01*
X107992763Y-84745700D01*
X107950547Y-84712954D01*
X107944824Y-84710138D01*
X107944821Y-84710136D01*
X107781556Y-84629800D01*
X107775829Y-84626982D01*
X107769651Y-84625373D01*
X107769649Y-84625372D01*
X107593575Y-84579508D01*
X107593572Y-84579508D01*
X107587393Y-84577898D01*
X107503403Y-84573496D01*
X107399317Y-84568041D01*
X107399313Y-84568041D01*
X107392936Y-84567707D01*
X107237587Y-84591201D01*
X107206715Y-84595870D01*
X107206714Y-84595870D01*
X107200401Y-84596825D01*
X107194415Y-84599028D01*
X107194409Y-84599029D01*
X107023640Y-84661860D01*
X107023635Y-84661862D01*
X107017654Y-84664063D01*
X107004424Y-84672266D01*
X106858860Y-84762520D01*
X106852160Y-84766674D01*
X106847527Y-84771055D01*
X106847526Y-84771056D01*
X106775471Y-84839195D01*
X106710678Y-84900466D01*
X106707017Y-84905695D01*
X106707015Y-84905697D01*
X106650976Y-84985729D01*
X106598989Y-85059975D01*
X106587464Y-85086607D01*
X106528571Y-85222703D01*
X106521655Y-85238684D01*
X106520350Y-85244931D01*
X106520349Y-85244934D01*
X106492448Y-85378493D01*
X106481835Y-85429293D01*
X106481500Y-85435685D01*
X106481500Y-86778663D01*
X106496235Y-86923727D01*
X106498144Y-86929818D01*
X106552556Y-87103451D01*
X106552558Y-87103456D01*
X106554465Y-87109541D01*
X106648870Y-87279850D01*
X106653019Y-87284691D01*
X106653022Y-87284695D01*
X106712684Y-87354303D01*
X106775591Y-87427698D01*
X106929453Y-87547046D01*
X106935176Y-87549862D01*
X106935179Y-87549864D01*
X107084637Y-87623406D01*
X107104171Y-87633018D01*
X107110349Y-87634627D01*
X107110351Y-87634628D01*
X107286425Y-87680492D01*
X107286428Y-87680492D01*
X107292607Y-87682102D01*
X107376597Y-87686504D01*
X107480683Y-87691959D01*
X107480687Y-87691959D01*
X107487064Y-87692293D01*
X107606659Y-87674206D01*
X107677004Y-87683796D01*
X107730998Y-87729896D01*
X107751500Y-87798789D01*
X107751500Y-87893134D01*
X107758255Y-87955316D01*
X107809385Y-88091705D01*
X107896739Y-88208261D01*
X108013295Y-88295615D01*
X108149684Y-88346745D01*
X108211866Y-88353500D01*
X108908134Y-88353500D01*
X108948720Y-88349091D01*
X108975933Y-88349091D01*
X109008517Y-88352631D01*
X109015328Y-88353000D01*
X109041885Y-88353000D01*
X109057124Y-88348525D01*
X109079389Y-88322830D01*
X109079918Y-88323288D01*
X109086682Y-88310900D01*
X109106839Y-88295793D01*
X109106705Y-88295615D01*
X109170281Y-88247967D01*
X109223261Y-88208261D01*
X109259176Y-88160340D01*
X109316033Y-88117827D01*
X109386851Y-88112801D01*
X109449145Y-88146861D01*
X109460817Y-88160330D01*
X109496739Y-88208261D01*
X109611294Y-88294115D01*
X109611295Y-88294116D01*
X109613295Y-88295615D01*
X109613079Y-88295904D01*
X109659139Y-88342065D01*
X109661353Y-88347418D01*
X109665865Y-88351328D01*
X109673548Y-88352999D01*
X109704670Y-88352999D01*
X109711488Y-88352630D01*
X109744067Y-88349091D01*
X109771280Y-88349091D01*
X109811866Y-88353500D01*
X110208134Y-88353500D01*
X110211529Y-88353131D01*
X110211533Y-88353131D01*
X110237531Y-88350307D01*
X110246394Y-88349344D01*
X110273606Y-88349344D01*
X110282469Y-88350307D01*
X110308467Y-88353131D01*
X110308471Y-88353131D01*
X110311866Y-88353500D01*
X110708134Y-88353500D01*
X110711529Y-88353131D01*
X110711533Y-88353131D01*
X110737531Y-88350307D01*
X110746394Y-88349344D01*
X110773606Y-88349344D01*
X110782469Y-88350307D01*
X110808467Y-88353131D01*
X110808471Y-88353131D01*
X110811866Y-88353500D01*
X111208134Y-88353500D01*
X111211529Y-88353131D01*
X111211533Y-88353131D01*
X111237531Y-88350307D01*
X111246394Y-88349344D01*
X111273606Y-88349344D01*
X111282469Y-88350307D01*
X111308467Y-88353131D01*
X111308471Y-88353131D01*
X111311866Y-88353500D01*
X111708134Y-88353500D01*
X111711529Y-88353131D01*
X111711533Y-88353131D01*
X111737531Y-88350307D01*
X111746394Y-88349344D01*
X111773606Y-88349344D01*
X111782469Y-88350307D01*
X111808467Y-88353131D01*
X111808471Y-88353131D01*
X111811866Y-88353500D01*
X112208134Y-88353500D01*
X112211529Y-88353131D01*
X112211533Y-88353131D01*
X112237531Y-88350307D01*
X112246394Y-88349344D01*
X112273606Y-88349344D01*
X112311866Y-88353500D01*
X112315285Y-88353500D01*
X112318647Y-88353682D01*
X112385587Y-88377337D01*
X112423315Y-88424286D01*
X112423981Y-88423892D01*
X112424243Y-88424334D01*
X112428020Y-88430720D01*
X112428020Y-88430721D01*
X112434293Y-88441328D01*
X112442988Y-88459076D01*
X112450448Y-88477917D01*
X112455110Y-88484333D01*
X112455110Y-88484334D01*
X112476436Y-88513687D01*
X112482952Y-88523607D01*
X112492309Y-88539428D01*
X112505458Y-88561662D01*
X112519779Y-88575983D01*
X112532619Y-88591016D01*
X112544528Y-88607407D01*
X112558219Y-88618733D01*
X112578605Y-88635598D01*
X112587384Y-88643588D01*
X112794294Y-88850498D01*
X112828320Y-88912810D01*
X112823255Y-88983625D01*
X112780708Y-89040461D01*
X112771502Y-89046737D01*
X112701345Y-89090152D01*
X112650652Y-89121522D01*
X112605100Y-89167154D01*
X112564216Y-89208109D01*
X112501934Y-89242188D01*
X112431114Y-89237185D01*
X112386025Y-89208264D01*
X112303483Y-89125866D01*
X112298303Y-89120695D01*
X112292072Y-89116854D01*
X112153968Y-89031725D01*
X112153966Y-89031724D01*
X112147738Y-89027885D01*
X112062889Y-88999742D01*
X111986389Y-88974368D01*
X111986387Y-88974368D01*
X111979861Y-88972203D01*
X111973025Y-88971503D01*
X111973022Y-88971502D01*
X111929969Y-88967091D01*
X111875400Y-88961500D01*
X111249600Y-88961500D01*
X111246354Y-88961837D01*
X111246350Y-88961837D01*
X111150692Y-88971762D01*
X111150688Y-88971763D01*
X111143834Y-88972474D01*
X111137298Y-88974655D01*
X111137296Y-88974655D01*
X111025618Y-89011914D01*
X110976054Y-89028450D01*
X110825652Y-89121522D01*
X110700695Y-89246697D01*
X110696855Y-89252927D01*
X110696854Y-89252928D01*
X110677216Y-89284787D01*
X110624444Y-89332280D01*
X110554372Y-89343704D01*
X110489248Y-89315430D01*
X110462813Y-89284976D01*
X110451869Y-89267292D01*
X110438478Y-89245652D01*
X110313303Y-89120695D01*
X110307072Y-89116854D01*
X110168968Y-89031725D01*
X110168966Y-89031724D01*
X110162738Y-89027885D01*
X110077889Y-88999742D01*
X110001389Y-88974368D01*
X110001387Y-88974368D01*
X109994861Y-88972203D01*
X109988025Y-88971503D01*
X109988022Y-88971502D01*
X109944969Y-88967091D01*
X109890400Y-88961500D01*
X109264600Y-88961500D01*
X109261354Y-88961837D01*
X109261350Y-88961837D01*
X109165692Y-88971762D01*
X109165688Y-88971763D01*
X109158834Y-88972474D01*
X109152298Y-88974655D01*
X109152296Y-88974655D01*
X109040618Y-89011914D01*
X108991054Y-89028450D01*
X108840652Y-89121522D01*
X108795100Y-89167154D01*
X108754216Y-89208109D01*
X108691934Y-89242188D01*
X108621114Y-89237185D01*
X108576025Y-89208264D01*
X108493483Y-89125866D01*
X108488303Y-89120695D01*
X108482072Y-89116854D01*
X108343968Y-89031725D01*
X108343966Y-89031724D01*
X108337738Y-89027885D01*
X108252889Y-88999742D01*
X108176389Y-88974368D01*
X108176387Y-88974368D01*
X108169861Y-88972203D01*
X108163025Y-88971503D01*
X108163022Y-88971502D01*
X108119969Y-88967091D01*
X108065400Y-88961500D01*
X107439600Y-88961500D01*
X107436354Y-88961837D01*
X107436350Y-88961837D01*
X107340692Y-88971762D01*
X107340688Y-88971763D01*
X107333834Y-88972474D01*
X107327298Y-88974655D01*
X107327296Y-88974655D01*
X107215618Y-89011914D01*
X107166054Y-89028450D01*
X107015652Y-89121522D01*
X106890695Y-89246697D01*
X106827293Y-89349554D01*
X106774522Y-89397046D01*
X106704450Y-89408470D01*
X106639327Y-89380196D01*
X106612890Y-89349740D01*
X106552332Y-89251880D01*
X106552331Y-89251879D01*
X106548478Y-89245652D01*
X106423303Y-89120695D01*
X106417072Y-89116854D01*
X106278968Y-89031725D01*
X106278966Y-89031724D01*
X106272738Y-89027885D01*
X106187889Y-88999742D01*
X106111389Y-88974368D01*
X106111387Y-88974368D01*
X106104861Y-88972203D01*
X106098025Y-88971503D01*
X106098022Y-88971502D01*
X106054969Y-88967091D01*
X106000400Y-88961500D01*
X105374600Y-88961500D01*
X105371354Y-88961837D01*
X105371350Y-88961837D01*
X105275692Y-88971762D01*
X105275688Y-88971763D01*
X105268834Y-88972474D01*
X105262298Y-88974655D01*
X105262296Y-88974655D01*
X105150618Y-89011914D01*
X105101054Y-89028450D01*
X104950652Y-89121522D01*
X104905100Y-89167154D01*
X104864216Y-89208109D01*
X104801934Y-89242188D01*
X104731114Y-89237185D01*
X104686025Y-89208264D01*
X104603483Y-89125866D01*
X104598303Y-89120695D01*
X104592072Y-89116854D01*
X104453968Y-89031725D01*
X104453966Y-89031724D01*
X104447738Y-89027885D01*
X104362889Y-88999742D01*
X104286389Y-88974368D01*
X104286387Y-88974368D01*
X104279861Y-88972203D01*
X104273025Y-88971503D01*
X104273022Y-88971502D01*
X104229969Y-88967091D01*
X104175400Y-88961500D01*
X103549600Y-88961500D01*
X103546354Y-88961837D01*
X103546350Y-88961837D01*
X103450692Y-88971762D01*
X103450688Y-88971763D01*
X103443834Y-88972474D01*
X103437298Y-88974655D01*
X103437296Y-88974655D01*
X103393436Y-88989288D01*
X103322486Y-88991872D01*
X103264465Y-88958860D01*
X102763474Y-88457869D01*
X102729449Y-88395557D01*
X102729447Y-88341997D01*
X102732004Y-88330240D01*
X102766026Y-88267926D01*
X102828337Y-88233898D01*
X102899153Y-88238959D01*
X102930690Y-88256190D01*
X102976108Y-88290229D01*
X102981294Y-88294115D01*
X102983294Y-88295614D01*
X102983078Y-88295903D01*
X103029139Y-88342065D01*
X103031353Y-88347418D01*
X103035865Y-88351328D01*
X103043548Y-88352999D01*
X103074670Y-88352999D01*
X103081488Y-88352630D01*
X103114067Y-88349091D01*
X103141280Y-88349091D01*
X103181866Y-88353500D01*
X103878134Y-88353500D01*
X103940316Y-88346745D01*
X104076705Y-88295615D01*
X104193261Y-88208261D01*
X104280615Y-88091705D01*
X104331745Y-87955316D01*
X104338500Y-87893134D01*
X104338500Y-87802380D01*
X104358502Y-87734259D01*
X104412158Y-87687766D01*
X104482432Y-87677662D01*
X104496261Y-87680449D01*
X104496425Y-87680492D01*
X104496428Y-87680492D01*
X104502607Y-87682102D01*
X104586597Y-87686504D01*
X104690683Y-87691959D01*
X104690687Y-87691959D01*
X104697064Y-87692293D01*
X104852413Y-87668799D01*
X104883285Y-87664130D01*
X104883286Y-87664130D01*
X104889599Y-87663175D01*
X104895585Y-87660972D01*
X104895591Y-87660971D01*
X105066360Y-87598140D01*
X105066365Y-87598138D01*
X105072346Y-87595937D01*
X105237840Y-87493326D01*
X105312362Y-87422855D01*
X105374685Y-87363919D01*
X105379322Y-87359534D01*
X105414893Y-87308734D01*
X105467295Y-87233895D01*
X105491011Y-87200025D01*
X105552150Y-87058741D01*
X105565810Y-87027175D01*
X105565811Y-87027171D01*
X105568345Y-87021316D01*
X105578958Y-86970516D01*
X105607176Y-86835443D01*
X105607177Y-86835438D01*
X105608165Y-86830707D01*
X105608500Y-86824315D01*
X105608500Y-85481337D01*
X105598054Y-85378493D01*
X105594410Y-85342622D01*
X105594410Y-85342621D01*
X105593765Y-85336273D01*
X105566427Y-85249036D01*
X105537444Y-85156549D01*
X105537442Y-85156544D01*
X105535535Y-85150459D01*
X105471982Y-85035807D01*
X105444223Y-84985729D01*
X105444221Y-84985726D01*
X105441130Y-84980150D01*
X105436981Y-84975309D01*
X105436978Y-84975305D01*
X105318560Y-84837145D01*
X105314409Y-84832302D01*
X105268343Y-84796569D01*
X105202763Y-84745700D01*
X105160547Y-84712954D01*
X105154824Y-84710138D01*
X105154821Y-84710136D01*
X104991556Y-84629800D01*
X104985829Y-84626982D01*
X104979651Y-84625373D01*
X104979649Y-84625372D01*
X104803575Y-84579508D01*
X104803572Y-84579508D01*
X104797393Y-84577898D01*
X104713403Y-84573496D01*
X104609317Y-84568041D01*
X104609313Y-84568041D01*
X104602936Y-84567707D01*
X104447587Y-84591201D01*
X104416715Y-84595870D01*
X104416714Y-84595870D01*
X104410401Y-84596825D01*
X104404415Y-84599028D01*
X104404409Y-84599029D01*
X104233640Y-84661860D01*
X104233635Y-84661862D01*
X104227654Y-84664063D01*
X104214424Y-84672266D01*
X104068860Y-84762520D01*
X104062160Y-84766674D01*
X104057527Y-84771055D01*
X104057526Y-84771056D01*
X103985471Y-84839195D01*
X103920678Y-84900466D01*
X103897519Y-84933541D01*
X103842065Y-84977869D01*
X103771445Y-84985179D01*
X103717780Y-84961367D01*
X103654322Y-84912850D01*
X103545381Y-84862050D01*
X103496369Y-84839195D01*
X103496366Y-84839194D01*
X103490192Y-84836315D01*
X103483544Y-84834829D01*
X103483541Y-84834828D01*
X103318494Y-84797936D01*
X103318495Y-84797936D01*
X103313457Y-84796810D01*
X103307912Y-84796500D01*
X103174756Y-84796500D01*
X103039963Y-84811143D01*
X102956609Y-84839195D01*
X102874796Y-84866728D01*
X102874794Y-84866729D01*
X102868325Y-84868906D01*
X102713095Y-84962177D01*
X102708138Y-84966865D01*
X102708135Y-84966867D01*
X102623758Y-85046659D01*
X102581515Y-85086607D01*
X102577683Y-85092245D01*
X102577680Y-85092249D01*
X102509940Y-85191925D01*
X102479723Y-85236388D01*
X102412470Y-85404534D01*
X102411356Y-85411262D01*
X102411355Y-85411266D01*
X102409155Y-85424557D01*
X102400282Y-85478158D01*
X102399798Y-85481079D01*
X102368939Y-85545018D01*
X102308410Y-85582123D01*
X102275490Y-85586500D01*
X101881866Y-85586500D01*
X101878471Y-85586869D01*
X101878467Y-85586869D01*
X101852469Y-85589693D01*
X101843606Y-85590656D01*
X101816394Y-85590656D01*
X101807531Y-85589693D01*
X101781533Y-85586869D01*
X101781529Y-85586869D01*
X101778134Y-85586500D01*
X101381866Y-85586500D01*
X101378471Y-85586869D01*
X101378467Y-85586869D01*
X101352469Y-85589693D01*
X101343606Y-85590656D01*
X101316394Y-85590656D01*
X101307531Y-85589693D01*
X101281533Y-85586869D01*
X101281529Y-85586869D01*
X101278134Y-85586500D01*
X100881866Y-85586500D01*
X100878471Y-85586869D01*
X100878467Y-85586869D01*
X100852469Y-85589693D01*
X100843606Y-85590656D01*
X100816394Y-85590656D01*
X100807531Y-85589693D01*
X100781533Y-85586869D01*
X100781529Y-85586869D01*
X100778134Y-85586500D01*
X100381866Y-85586500D01*
X100378471Y-85586869D01*
X100378467Y-85586869D01*
X100352469Y-85589693D01*
X100343606Y-85590656D01*
X100316394Y-85590656D01*
X100307531Y-85589693D01*
X100281533Y-85586869D01*
X100281529Y-85586869D01*
X100278134Y-85586500D01*
X99881866Y-85586500D01*
X99878471Y-85586869D01*
X99878467Y-85586869D01*
X99852469Y-85589693D01*
X99843606Y-85590656D01*
X99816394Y-85590656D01*
X99807531Y-85589693D01*
X99781533Y-85586869D01*
X99781529Y-85586869D01*
X99778134Y-85586500D01*
X99381866Y-85586500D01*
X99378471Y-85586869D01*
X99378467Y-85586869D01*
X99352469Y-85589693D01*
X99343606Y-85590656D01*
X99316394Y-85590656D01*
X99307531Y-85589693D01*
X99281533Y-85586869D01*
X99281529Y-85586869D01*
X99278134Y-85586500D01*
X98881866Y-85586500D01*
X98878471Y-85586869D01*
X98878467Y-85586869D01*
X98852469Y-85589693D01*
X98843606Y-85590656D01*
X98816394Y-85590656D01*
X98807531Y-85589693D01*
X98781533Y-85586869D01*
X98781529Y-85586869D01*
X98778134Y-85586500D01*
X98388557Y-85586500D01*
X98320436Y-85566498D01*
X98273943Y-85512842D01*
X98267081Y-85493960D01*
X98249612Y-85430537D01*
X98219539Y-85321359D01*
X98135078Y-85161164D01*
X98130673Y-85155951D01*
X98130670Y-85155947D01*
X98022594Y-85028057D01*
X98022590Y-85028053D01*
X98018187Y-85022843D01*
X98012762Y-85018695D01*
X97879743Y-84916994D01*
X97879739Y-84916991D01*
X97874322Y-84912850D01*
X97765381Y-84862050D01*
X97716369Y-84839195D01*
X97716366Y-84839194D01*
X97710192Y-84836315D01*
X97703544Y-84834829D01*
X97703541Y-84834828D01*
X97538494Y-84797936D01*
X97538495Y-84797936D01*
X97533457Y-84796810D01*
X97527912Y-84796500D01*
X97394756Y-84796500D01*
X97259963Y-84811143D01*
X97176609Y-84839195D01*
X97094796Y-84866728D01*
X97094794Y-84866729D01*
X97088325Y-84868906D01*
X96938814Y-84958741D01*
X96938813Y-84958741D01*
X96933095Y-84962177D01*
X96932479Y-84961152D01*
X96872515Y-84983973D01*
X96803042Y-84969344D01*
X96767022Y-84940355D01*
X96678560Y-84837145D01*
X96674409Y-84832302D01*
X96628343Y-84796569D01*
X96562763Y-84745700D01*
X96520547Y-84712954D01*
X96514824Y-84710138D01*
X96514821Y-84710136D01*
X96351556Y-84629800D01*
X96345829Y-84626982D01*
X96339651Y-84625373D01*
X96339649Y-84625372D01*
X96163575Y-84579508D01*
X96163572Y-84579508D01*
X96157393Y-84577898D01*
X96073403Y-84573496D01*
X95969317Y-84568041D01*
X95969313Y-84568041D01*
X95962936Y-84567707D01*
X95807587Y-84591201D01*
X95776715Y-84595870D01*
X95776714Y-84595870D01*
X95770401Y-84596825D01*
X95764415Y-84599028D01*
X95764409Y-84599029D01*
X95593640Y-84661860D01*
X95593635Y-84661862D01*
X95587654Y-84664063D01*
X95574424Y-84672266D01*
X95428860Y-84762520D01*
X95422160Y-84766674D01*
X95417527Y-84771055D01*
X95417526Y-84771056D01*
X95345471Y-84839195D01*
X95280678Y-84900466D01*
X95277017Y-84905695D01*
X95277015Y-84905697D01*
X95220976Y-84985729D01*
X95168989Y-85059975D01*
X95157464Y-85086607D01*
X95098571Y-85222703D01*
X95091655Y-85238684D01*
X95090350Y-85244931D01*
X95090349Y-85244934D01*
X95062448Y-85378493D01*
X95051835Y-85429293D01*
X95051500Y-85435685D01*
X95051500Y-86778663D01*
X95066235Y-86923727D01*
X95068144Y-86929818D01*
X95122556Y-87103451D01*
X95122558Y-87103456D01*
X95124465Y-87109541D01*
X95218870Y-87279850D01*
X95223019Y-87284691D01*
X95223022Y-87284695D01*
X95282684Y-87354303D01*
X95345591Y-87427698D01*
X95499453Y-87547046D01*
X95505176Y-87549862D01*
X95505179Y-87549864D01*
X95654637Y-87623406D01*
X95674171Y-87633018D01*
X95680349Y-87634627D01*
X95680351Y-87634628D01*
X95856425Y-87680492D01*
X95856428Y-87680492D01*
X95862607Y-87682102D01*
X95946597Y-87686504D01*
X96050683Y-87691959D01*
X96050687Y-87691959D01*
X96057064Y-87692293D01*
X96176659Y-87674206D01*
X96247004Y-87683796D01*
X96300998Y-87729896D01*
X96321500Y-87798789D01*
X96321500Y-87880705D01*
X96301498Y-87948826D01*
X96284595Y-87969801D01*
X96058987Y-88195408D01*
X95850242Y-88404153D01*
X95841963Y-88411687D01*
X95835482Y-88415800D01*
X95795976Y-88457870D01*
X95788857Y-88465451D01*
X95786102Y-88468293D01*
X95766365Y-88488030D01*
X95763885Y-88491227D01*
X95756182Y-88500247D01*
X95725914Y-88532479D01*
X95722095Y-88539425D01*
X95722093Y-88539428D01*
X95716152Y-88550234D01*
X95705301Y-88566753D01*
X95692886Y-88582759D01*
X95689741Y-88590028D01*
X95689738Y-88590032D01*
X95675326Y-88623337D01*
X95670109Y-88633987D01*
X95648805Y-88672740D01*
X95646834Y-88680415D01*
X95646834Y-88680416D01*
X95643767Y-88692362D01*
X95637363Y-88711066D01*
X95629319Y-88729655D01*
X95628080Y-88737478D01*
X95628077Y-88737488D01*
X95622401Y-88773324D01*
X95619995Y-88784944D01*
X95609000Y-88827770D01*
X95609000Y-88848024D01*
X95607449Y-88867734D01*
X95604280Y-88887743D01*
X95605026Y-88895635D01*
X95608441Y-88931761D01*
X95609000Y-88943619D01*
X95609000Y-88987366D01*
X95588998Y-89055487D01*
X95549304Y-89094509D01*
X95505652Y-89121522D01*
X95380695Y-89246697D01*
X95376855Y-89252927D01*
X95376854Y-89252928D01*
X95298405Y-89380196D01*
X95287885Y-89397262D01*
X95270337Y-89450168D01*
X95229906Y-89508527D01*
X95164342Y-89535764D01*
X95150744Y-89536500D01*
X95071697Y-89536500D01*
X95003576Y-89516498D01*
X94957083Y-89462842D01*
X94952174Y-89450377D01*
X94936367Y-89402998D01*
X94936366Y-89402996D01*
X94934050Y-89396054D01*
X94840978Y-89245652D01*
X94715803Y-89120695D01*
X94709572Y-89116854D01*
X94571468Y-89031725D01*
X94571466Y-89031724D01*
X94565238Y-89027885D01*
X94480389Y-88999742D01*
X94403889Y-88974368D01*
X94403887Y-88974368D01*
X94397361Y-88972203D01*
X94390525Y-88971503D01*
X94390522Y-88971502D01*
X94347469Y-88967091D01*
X94292900Y-88961500D01*
X93667100Y-88961500D01*
X93663854Y-88961837D01*
X93663850Y-88961837D01*
X93568192Y-88971762D01*
X93568188Y-88971763D01*
X93561334Y-88972474D01*
X93554798Y-88974655D01*
X93554796Y-88974655D01*
X93443118Y-89011914D01*
X93393554Y-89028450D01*
X93243152Y-89121522D01*
X93197600Y-89167154D01*
X93156716Y-89208109D01*
X93094434Y-89242188D01*
X93023614Y-89237185D01*
X92978525Y-89208264D01*
X92895983Y-89125866D01*
X92890803Y-89120695D01*
X92884572Y-89116854D01*
X92746468Y-89031725D01*
X92746466Y-89031724D01*
X92740238Y-89027885D01*
X92655389Y-88999742D01*
X92578889Y-88974368D01*
X92578887Y-88974368D01*
X92572361Y-88972203D01*
X92565525Y-88971503D01*
X92565522Y-88971502D01*
X92522469Y-88967091D01*
X92467900Y-88961500D01*
X91842100Y-88961500D01*
X91838854Y-88961837D01*
X91838850Y-88961837D01*
X91743192Y-88971762D01*
X91743188Y-88971763D01*
X91736334Y-88972474D01*
X91729798Y-88974655D01*
X91729796Y-88974655D01*
X91618118Y-89011914D01*
X91568554Y-89028450D01*
X91418152Y-89121522D01*
X91293195Y-89246697D01*
X91289355Y-89252927D01*
X91289354Y-89252928D01*
X91269716Y-89284787D01*
X91216944Y-89332280D01*
X91146872Y-89343704D01*
X91081748Y-89315430D01*
X91055313Y-89284976D01*
X91044369Y-89267292D01*
X91030978Y-89245652D01*
X90905803Y-89120695D01*
X90899572Y-89116854D01*
X90843384Y-89082219D01*
X90795890Y-89029446D01*
X90783500Y-88974959D01*
X90783500Y-88424334D01*
X90803502Y-88356213D01*
X90857158Y-88309720D01*
X90923108Y-88299071D01*
X90948514Y-88301831D01*
X90955328Y-88302200D01*
X90981885Y-88302200D01*
X90997124Y-88297725D01*
X91019389Y-88272030D01*
X91019918Y-88272488D01*
X91026682Y-88260100D01*
X91046839Y-88244993D01*
X91046705Y-88244815D01*
X91105059Y-88201081D01*
X91163261Y-88157461D01*
X91199176Y-88109540D01*
X91256033Y-88067027D01*
X91326851Y-88062001D01*
X91389145Y-88096061D01*
X91400817Y-88109530D01*
X91436739Y-88157461D01*
X91551295Y-88243316D01*
X91553295Y-88244815D01*
X91553079Y-88245104D01*
X91599139Y-88291265D01*
X91601353Y-88296618D01*
X91605865Y-88300528D01*
X91613548Y-88302199D01*
X91644670Y-88302199D01*
X91651488Y-88301830D01*
X91684067Y-88298291D01*
X91711280Y-88298291D01*
X91751866Y-88302700D01*
X92448134Y-88302700D01*
X92510316Y-88295945D01*
X92646705Y-88244815D01*
X92763261Y-88157461D01*
X92850615Y-88040905D01*
X92901745Y-87904516D01*
X92908500Y-87842334D01*
X92908500Y-87751580D01*
X92928502Y-87683459D01*
X92982158Y-87636966D01*
X93052432Y-87626862D01*
X93066261Y-87629649D01*
X93066425Y-87629692D01*
X93066428Y-87629692D01*
X93072607Y-87631302D01*
X93156597Y-87635704D01*
X93260683Y-87641159D01*
X93260687Y-87641159D01*
X93267064Y-87641493D01*
X93422413Y-87617999D01*
X93453285Y-87613330D01*
X93453286Y-87613330D01*
X93459599Y-87612375D01*
X93465585Y-87610172D01*
X93465591Y-87610171D01*
X93636360Y-87547340D01*
X93636365Y-87547338D01*
X93642346Y-87545137D01*
X93807840Y-87442526D01*
X93819384Y-87431610D01*
X93944685Y-87313119D01*
X93949322Y-87308734D01*
X94061011Y-87149225D01*
X94116362Y-87021316D01*
X94135810Y-86976375D01*
X94135811Y-86976371D01*
X94138345Y-86970516D01*
X94139651Y-86964266D01*
X94177176Y-86784643D01*
X94177177Y-86784638D01*
X94178165Y-86779907D01*
X94178500Y-86773515D01*
X94178500Y-85430537D01*
X94163765Y-85285473D01*
X94146111Y-85229139D01*
X94107444Y-85105749D01*
X94107442Y-85105744D01*
X94105535Y-85099659D01*
X94047997Y-84995859D01*
X94014223Y-84934929D01*
X94014221Y-84934926D01*
X94011130Y-84929350D01*
X94006981Y-84924509D01*
X94006978Y-84924505D01*
X93888560Y-84786345D01*
X93884409Y-84781502D01*
X93838343Y-84745769D01*
X93735594Y-84666069D01*
X93730547Y-84662154D01*
X93724824Y-84659338D01*
X93724821Y-84659336D01*
X93561556Y-84579000D01*
X93555829Y-84576182D01*
X93549651Y-84574573D01*
X93549649Y-84574572D01*
X93373575Y-84528708D01*
X93373572Y-84528708D01*
X93367393Y-84527098D01*
X93283403Y-84522696D01*
X93179317Y-84517241D01*
X93179313Y-84517241D01*
X93172936Y-84516907D01*
X93017587Y-84540401D01*
X92986715Y-84545070D01*
X92986714Y-84545070D01*
X92980401Y-84546025D01*
X92974415Y-84548228D01*
X92974409Y-84548229D01*
X92803640Y-84611060D01*
X92803635Y-84611062D01*
X92797654Y-84613263D01*
X92632160Y-84715874D01*
X92627527Y-84720255D01*
X92627526Y-84720256D01*
X92531415Y-84811143D01*
X92490678Y-84849666D01*
X92467519Y-84882741D01*
X92412065Y-84927069D01*
X92341445Y-84934379D01*
X92287780Y-84910567D01*
X92224322Y-84862050D01*
X92119186Y-84813025D01*
X92066369Y-84788395D01*
X92066366Y-84788394D01*
X92060192Y-84785515D01*
X92053544Y-84784029D01*
X92053541Y-84784028D01*
X91888494Y-84747136D01*
X91888495Y-84747136D01*
X91883457Y-84746010D01*
X91877912Y-84745700D01*
X91744756Y-84745700D01*
X91609963Y-84760343D01*
X91491810Y-84800106D01*
X91444796Y-84815928D01*
X91444794Y-84815929D01*
X91438325Y-84818106D01*
X91283095Y-84911377D01*
X91278138Y-84916065D01*
X91278135Y-84916067D01*
X91159710Y-85028057D01*
X91151515Y-85035807D01*
X91147683Y-85041445D01*
X91147680Y-85041449D01*
X91096740Y-85116405D01*
X91049723Y-85185588D01*
X90982470Y-85353734D01*
X90981356Y-85360462D01*
X90981355Y-85360466D01*
X90971684Y-85418884D01*
X90970282Y-85427358D01*
X90969798Y-85430279D01*
X90938939Y-85494218D01*
X90878410Y-85531323D01*
X90845490Y-85535700D01*
X90451866Y-85535700D01*
X90448471Y-85536069D01*
X90448467Y-85536069D01*
X90422469Y-85538893D01*
X90413606Y-85539856D01*
X90386394Y-85539856D01*
X90377531Y-85538893D01*
X90351533Y-85536069D01*
X90351529Y-85536069D01*
X90348134Y-85535700D01*
X89951866Y-85535700D01*
X89948471Y-85536069D01*
X89948467Y-85536069D01*
X89922469Y-85538893D01*
X89913606Y-85539856D01*
X89886394Y-85539856D01*
X89877531Y-85538893D01*
X89851533Y-85536069D01*
X89851529Y-85536069D01*
X89848134Y-85535700D01*
X89451866Y-85535700D01*
X89448471Y-85536069D01*
X89448467Y-85536069D01*
X89422469Y-85538893D01*
X89413606Y-85539856D01*
X89386394Y-85539856D01*
X89377531Y-85538893D01*
X89351533Y-85536069D01*
X89351529Y-85536069D01*
X89348134Y-85535700D01*
X88951866Y-85535700D01*
X88948471Y-85536069D01*
X88948467Y-85536069D01*
X88922469Y-85538893D01*
X88913606Y-85539856D01*
X88886394Y-85539856D01*
X88877531Y-85538893D01*
X88851533Y-85536069D01*
X88851529Y-85536069D01*
X88848134Y-85535700D01*
X88451866Y-85535700D01*
X88448471Y-85536069D01*
X88448467Y-85536069D01*
X88422469Y-85538893D01*
X88413606Y-85539856D01*
X88386394Y-85539856D01*
X88377531Y-85538893D01*
X88351533Y-85536069D01*
X88351529Y-85536069D01*
X88348134Y-85535700D01*
X87951866Y-85535700D01*
X87948471Y-85536069D01*
X87948467Y-85536069D01*
X87922469Y-85538893D01*
X87913606Y-85539856D01*
X87886394Y-85539856D01*
X87877531Y-85538893D01*
X87851533Y-85536069D01*
X87851529Y-85536069D01*
X87848134Y-85535700D01*
X87451866Y-85535700D01*
X87448471Y-85536069D01*
X87448467Y-85536069D01*
X87422469Y-85538893D01*
X87413606Y-85539856D01*
X87386394Y-85539856D01*
X87377531Y-85538893D01*
X87351533Y-85536069D01*
X87351529Y-85536069D01*
X87348134Y-85535700D01*
X86958557Y-85535700D01*
X86890436Y-85515698D01*
X86843943Y-85462042D01*
X86837081Y-85443160D01*
X86791352Y-85277141D01*
X86789539Y-85270559D01*
X86705078Y-85110364D01*
X86700673Y-85105151D01*
X86700670Y-85105147D01*
X86592594Y-84977257D01*
X86592590Y-84977253D01*
X86588187Y-84972043D01*
X86574222Y-84961366D01*
X86449743Y-84866194D01*
X86449739Y-84866191D01*
X86444322Y-84862050D01*
X86339186Y-84813025D01*
X86286369Y-84788395D01*
X86286366Y-84788394D01*
X86280192Y-84785515D01*
X86273544Y-84784029D01*
X86273541Y-84784028D01*
X86108494Y-84747136D01*
X86108495Y-84747136D01*
X86103457Y-84746010D01*
X86097912Y-84745700D01*
X85964756Y-84745700D01*
X85829963Y-84760343D01*
X85711810Y-84800106D01*
X85664796Y-84815928D01*
X85664794Y-84815929D01*
X85658325Y-84818106D01*
X85508814Y-84907941D01*
X85508813Y-84907941D01*
X85503095Y-84911377D01*
X85502479Y-84910352D01*
X85442515Y-84933173D01*
X85373042Y-84918544D01*
X85337022Y-84889555D01*
X85248560Y-84786345D01*
X85244409Y-84781502D01*
X85198343Y-84745769D01*
X85095594Y-84666069D01*
X85090547Y-84662154D01*
X85084824Y-84659338D01*
X85084821Y-84659336D01*
X84921556Y-84579000D01*
X84915829Y-84576182D01*
X84909651Y-84574573D01*
X84909649Y-84574572D01*
X84733575Y-84528708D01*
X84733572Y-84528708D01*
X84727393Y-84527098D01*
X84643403Y-84522696D01*
X84539317Y-84517241D01*
X84539313Y-84517241D01*
X84532936Y-84516907D01*
X84377587Y-84540401D01*
X84346715Y-84545070D01*
X84346714Y-84545070D01*
X84340401Y-84546025D01*
X84334415Y-84548228D01*
X84334409Y-84548229D01*
X84163640Y-84611060D01*
X84163635Y-84611062D01*
X84157654Y-84613263D01*
X83992160Y-84715874D01*
X83987527Y-84720255D01*
X83987526Y-84720256D01*
X83891415Y-84811143D01*
X83850678Y-84849666D01*
X83847017Y-84854895D01*
X83847015Y-84854897D01*
X83790976Y-84934929D01*
X83738989Y-85009175D01*
X83727464Y-85035807D01*
X83667722Y-85173865D01*
X83661655Y-85187884D01*
X83660350Y-85194131D01*
X83660349Y-85194134D01*
X83625269Y-85362056D01*
X83621835Y-85378493D01*
X83621500Y-85384885D01*
X83621500Y-86727863D01*
X83621823Y-86731042D01*
X83632428Y-86835443D01*
X83636235Y-86872927D01*
X83640390Y-86886186D01*
X83692556Y-87052651D01*
X83692558Y-87052656D01*
X83694465Y-87058741D01*
X83730719Y-87124144D01*
X83771936Y-87198500D01*
X83788870Y-87229050D01*
X83793019Y-87233891D01*
X83793022Y-87233895D01*
X83852684Y-87303503D01*
X83915591Y-87376898D01*
X84069453Y-87496246D01*
X84075176Y-87499062D01*
X84075179Y-87499064D01*
X84178419Y-87549864D01*
X84244171Y-87582218D01*
X84250349Y-87583827D01*
X84250351Y-87583828D01*
X84426425Y-87629692D01*
X84426428Y-87629692D01*
X84432607Y-87631302D01*
X84516597Y-87635704D01*
X84620683Y-87641159D01*
X84620687Y-87641159D01*
X84627064Y-87641493D01*
X84746659Y-87623406D01*
X84817004Y-87632996D01*
X84870998Y-87679096D01*
X84891500Y-87747989D01*
X84891500Y-87842334D01*
X84898255Y-87904516D01*
X84949385Y-88040905D01*
X85036739Y-88157461D01*
X85153295Y-88244815D01*
X85289684Y-88295945D01*
X85351866Y-88302700D01*
X86048134Y-88302700D01*
X86088720Y-88298291D01*
X86115933Y-88298291D01*
X86148517Y-88301831D01*
X86155328Y-88302200D01*
X86181885Y-88302200D01*
X86197124Y-88297725D01*
X86219389Y-88272030D01*
X86219918Y-88272488D01*
X86226682Y-88260100D01*
X86246839Y-88244993D01*
X86246705Y-88244815D01*
X86299559Y-88205203D01*
X86366065Y-88180355D01*
X86435448Y-88195408D01*
X86485678Y-88245582D01*
X86496020Y-88270530D01*
X86511396Y-88322895D01*
X86516500Y-88358394D01*
X86516500Y-88835500D01*
X86496498Y-88903621D01*
X86442842Y-88950114D01*
X86390500Y-88961500D01*
X86047100Y-88961500D01*
X86043854Y-88961837D01*
X86043850Y-88961837D01*
X85948192Y-88971762D01*
X85948188Y-88971763D01*
X85941334Y-88972474D01*
X85934798Y-88974655D01*
X85934796Y-88974655D01*
X85823118Y-89011914D01*
X85773554Y-89028450D01*
X85623152Y-89121522D01*
X85577600Y-89167154D01*
X85536716Y-89208109D01*
X85474434Y-89242188D01*
X85403614Y-89237185D01*
X85358525Y-89208264D01*
X85275983Y-89125866D01*
X85270803Y-89120695D01*
X85264572Y-89116854D01*
X85126468Y-89031725D01*
X85126466Y-89031724D01*
X85120238Y-89027885D01*
X85035389Y-88999742D01*
X84958889Y-88974368D01*
X84958887Y-88974368D01*
X84952361Y-88972203D01*
X84945525Y-88971503D01*
X84945522Y-88971502D01*
X84902469Y-88967091D01*
X84847900Y-88961500D01*
X84222100Y-88961500D01*
X84218854Y-88961837D01*
X84218850Y-88961837D01*
X84123192Y-88971762D01*
X84123188Y-88971763D01*
X84116334Y-88972474D01*
X84109798Y-88974655D01*
X84109796Y-88974655D01*
X83998118Y-89011914D01*
X83948554Y-89028450D01*
X83884864Y-89067863D01*
X83879287Y-89071314D01*
X83810835Y-89090152D01*
X83743066Y-89068991D01*
X83697494Y-89014550D01*
X83695226Y-89008643D01*
X83694421Y-89006924D01*
X83692102Y-88999974D01*
X83599797Y-88850811D01*
X83475653Y-88726883D01*
X83326329Y-88634839D01*
X83291652Y-88623337D01*
X83166366Y-88581781D01*
X83166364Y-88581781D01*
X83159835Y-88579615D01*
X83056231Y-88569000D01*
X82553904Y-88569000D01*
X82043770Y-88569001D01*
X81938871Y-88579884D01*
X81932340Y-88582063D01*
X81932335Y-88582064D01*
X81792284Y-88628789D01*
X81772474Y-88635398D01*
X81623311Y-88727703D01*
X81499383Y-88851847D01*
X81495543Y-88858077D01*
X81495542Y-88858078D01*
X81471787Y-88896616D01*
X81419015Y-88944109D01*
X81364527Y-88956500D01*
X77367165Y-88956500D01*
X77299044Y-88936498D01*
X77260022Y-88896805D01*
X77252331Y-88884377D01*
X77252327Y-88884372D01*
X77248478Y-88878152D01*
X77123303Y-88753195D01*
X77081948Y-88727703D01*
X76978968Y-88664225D01*
X76978966Y-88664224D01*
X76972738Y-88660385D01*
X76892995Y-88633936D01*
X76811389Y-88606868D01*
X76811387Y-88606868D01*
X76804861Y-88604703D01*
X76798025Y-88604003D01*
X76798022Y-88604002D01*
X76754969Y-88599591D01*
X76700400Y-88594000D01*
X75699600Y-88594000D01*
X75696354Y-88594337D01*
X75696350Y-88594337D01*
X75666417Y-88597443D01*
X75593834Y-88604974D01*
X75589999Y-88606254D01*
X75520292Y-88601164D01*
X75463520Y-88558533D01*
X75438808Y-88491976D01*
X75438500Y-88483174D01*
X75438500Y-85222703D01*
X77265743Y-85222703D01*
X77266302Y-85226947D01*
X77266302Y-85226951D01*
X77267847Y-85238684D01*
X77303268Y-85507734D01*
X77304401Y-85511874D01*
X77304401Y-85511876D01*
X77317489Y-85559718D01*
X77379129Y-85785036D01*
X77491923Y-86049476D01*
X77639561Y-86296161D01*
X77819313Y-86520528D01*
X78027851Y-86718423D01*
X78261317Y-86886186D01*
X78265112Y-86888195D01*
X78265113Y-86888196D01*
X78286869Y-86899715D01*
X78515392Y-87020712D01*
X78650383Y-87070112D01*
X78758129Y-87109541D01*
X78785373Y-87119511D01*
X79066264Y-87180755D01*
X79094841Y-87183004D01*
X79289282Y-87198307D01*
X79289291Y-87198307D01*
X79291739Y-87198500D01*
X79447271Y-87198500D01*
X79449407Y-87198354D01*
X79449418Y-87198354D01*
X79657548Y-87184165D01*
X79657554Y-87184164D01*
X79661825Y-87183873D01*
X79666020Y-87183004D01*
X79666022Y-87183004D01*
X79857446Y-87143362D01*
X79943342Y-87125574D01*
X80214343Y-87029607D01*
X80469812Y-86897750D01*
X80473313Y-86895289D01*
X80473317Y-86895287D01*
X80634732Y-86781842D01*
X80705023Y-86732441D01*
X80915622Y-86536740D01*
X81097713Y-86314268D01*
X81247927Y-86069142D01*
X81363483Y-85805898D01*
X81442244Y-85529406D01*
X81482751Y-85244784D01*
X81482845Y-85226951D01*
X81484235Y-84961583D01*
X81484235Y-84961576D01*
X81484257Y-84957297D01*
X81480278Y-84927069D01*
X81463136Y-84796869D01*
X81446732Y-84672266D01*
X81370871Y-84394964D01*
X81337420Y-84316540D01*
X81259763Y-84134476D01*
X81259761Y-84134472D01*
X81258077Y-84130524D01*
X81110439Y-83883839D01*
X80930687Y-83659472D01*
X80722149Y-83461577D01*
X80488683Y-83293814D01*
X80466843Y-83282250D01*
X80398357Y-83245989D01*
X80234608Y-83159288D01*
X80045625Y-83090130D01*
X79968658Y-83061964D01*
X79968656Y-83061963D01*
X79964627Y-83060489D01*
X79683736Y-82999245D01*
X79652685Y-82996801D01*
X79460718Y-82981693D01*
X79460709Y-82981693D01*
X79458261Y-82981500D01*
X79302729Y-82981500D01*
X79300593Y-82981646D01*
X79300582Y-82981646D01*
X79092452Y-82995835D01*
X79092446Y-82995836D01*
X79088175Y-82996127D01*
X79083980Y-82996996D01*
X79083978Y-82996996D01*
X78947417Y-83025276D01*
X78806658Y-83054426D01*
X78535657Y-83150393D01*
X78531848Y-83152359D01*
X78317880Y-83262796D01*
X78280188Y-83282250D01*
X78276687Y-83284711D01*
X78276683Y-83284713D01*
X78266594Y-83291804D01*
X78044977Y-83447559D01*
X77834378Y-83643260D01*
X77652287Y-83865732D01*
X77502073Y-84110858D01*
X77500347Y-84114791D01*
X77500346Y-84114792D01*
X77411785Y-84316540D01*
X77386517Y-84374102D01*
X77385342Y-84378229D01*
X77385341Y-84378230D01*
X77373488Y-84419841D01*
X77307756Y-84650594D01*
X77281206Y-84837145D01*
X77272195Y-84900466D01*
X77267249Y-84935216D01*
X77267227Y-84939505D01*
X77267226Y-84939512D01*
X77265765Y-85218417D01*
X77265743Y-85222703D01*
X75438500Y-85222703D01*
X75438500Y-81333250D01*
X75440246Y-81312345D01*
X75442770Y-81297344D01*
X75442770Y-81297341D01*
X75443576Y-81292552D01*
X75443729Y-81280000D01*
X75442788Y-81273429D01*
X75442123Y-81243218D01*
X75451916Y-81143789D01*
X75456733Y-81119568D01*
X75492866Y-81000454D01*
X75502315Y-80977645D01*
X75560987Y-80867876D01*
X75574705Y-80847345D01*
X75653671Y-80751124D01*
X75671124Y-80733671D01*
X75767345Y-80654705D01*
X75787876Y-80640987D01*
X75897645Y-80582315D01*
X75920454Y-80572866D01*
X76039568Y-80536733D01*
X76063789Y-80531916D01*
X76159809Y-80522459D01*
X76175868Y-80522909D01*
X76175877Y-80522200D01*
X76184853Y-80522310D01*
X76193724Y-80523691D01*
X76202626Y-80522527D01*
X76202628Y-80522527D01*
X76219059Y-80520378D01*
X76225286Y-80519564D01*
X76241621Y-80518500D01*
X83959213Y-80518500D01*
X84027334Y-80538502D01*
G37*
%TD.AperFunction*%
%TD*%
M02*
