%TF.GenerationSoftware,KiCad,Pcbnew,(6.0.11)*%
%TF.CreationDate,2023-04-18T11:05:53+02:00*%
%TF.ProjectId,FarmSupply,4661726d-5375-4707-906c-792e6b696361,rev?*%
%TF.SameCoordinates,Original*%
%TF.FileFunction,Soldermask,Top*%
%TF.FilePolarity,Negative*%
%FSLAX46Y46*%
G04 Gerber Fmt 4.6, Leading zero omitted, Abs format (unit mm)*
G04 Created by KiCad (PCBNEW (6.0.11)) date 2023-04-18 11:05:53*
%MOMM*%
%LPD*%
G01*
G04 APERTURE LIST*
G04 Aperture macros list*
%AMRoundRect*
0 Rectangle with rounded corners*
0 $1 Rounding radius*
0 $2 $3 $4 $5 $6 $7 $8 $9 X,Y pos of 4 corners*
0 Add a 4 corners polygon primitive as box body*
4,1,4,$2,$3,$4,$5,$6,$7,$8,$9,$2,$3,0*
0 Add four circle primitives for the rounded corners*
1,1,$1+$1,$2,$3*
1,1,$1+$1,$4,$5*
1,1,$1+$1,$6,$7*
1,1,$1+$1,$8,$9*
0 Add four rect primitives between the rounded corners*
20,1,$1+$1,$2,$3,$4,$5,0*
20,1,$1+$1,$4,$5,$6,$7,0*
20,1,$1+$1,$6,$7,$8,$9,0*
20,1,$1+$1,$8,$9,$2,$3,0*%
G04 Aperture macros list end*
%ADD10RoundRect,0.250000X0.450000X-0.262500X0.450000X0.262500X-0.450000X0.262500X-0.450000X-0.262500X0*%
%ADD11RoundRect,0.243750X0.456250X-0.243750X0.456250X0.243750X-0.456250X0.243750X-0.456250X-0.243750X0*%
%ADD12C,0.650000*%
%ADD13R,0.300000X1.750000*%
%ADD14O,0.900000X2.100000*%
%ADD15O,1.000000X1.600000*%
%ADD16C,3.200000*%
G04 APERTURE END LIST*
D10*
%TO.C,R1*%
X76200000Y-91440000D03*
X76200000Y-89615000D03*
%TD*%
D11*
%TO.C,D1*%
X82550000Y-89565000D03*
X82550000Y-91440000D03*
%TD*%
D12*
%TO.C,P1*%
X86010000Y-94710000D03*
X91790000Y-94710000D03*
D13*
X85550000Y-93370000D03*
X86350000Y-93370000D03*
X87650000Y-93370000D03*
X88650000Y-93370000D03*
X89150000Y-93370000D03*
X90150000Y-93370000D03*
X91450000Y-93370000D03*
X92250000Y-93370000D03*
X91950000Y-93370000D03*
X91150000Y-93370000D03*
X90650000Y-93370000D03*
X89650000Y-93370000D03*
X88150000Y-93370000D03*
X87150000Y-93370000D03*
X86650000Y-93370000D03*
X85850000Y-93370000D03*
D14*
X84580000Y-94210000D03*
D15*
X84580000Y-98390000D03*
X93220000Y-98390000D03*
D14*
X93220000Y-94210000D03*
%TD*%
D16*
%TO.C,H2*%
X120650000Y-85090000D03*
%TD*%
D12*
%TO.C,P5*%
X97130000Y-94710000D03*
X102910000Y-94710000D03*
D13*
X96670000Y-93370000D03*
X97470000Y-93370000D03*
X98770000Y-93370000D03*
X99770000Y-93370000D03*
X100270000Y-93370000D03*
X101270000Y-93370000D03*
X102570000Y-93370000D03*
X103370000Y-93370000D03*
X103070000Y-93370000D03*
X102270000Y-93370000D03*
X101770000Y-93370000D03*
X100770000Y-93370000D03*
X99270000Y-93370000D03*
X98270000Y-93370000D03*
X97770000Y-93370000D03*
X96970000Y-93370000D03*
D15*
X95700000Y-98390000D03*
D14*
X104340000Y-94210000D03*
D15*
X104340000Y-98390000D03*
D14*
X95700000Y-94210000D03*
%TD*%
D12*
%TO.C,P3*%
X114030000Y-85630000D03*
X108250000Y-85630000D03*
D13*
X114490000Y-86970000D03*
X113690000Y-86970000D03*
X112390000Y-86970000D03*
X111390000Y-86970000D03*
X110890000Y-86970000D03*
X109890000Y-86970000D03*
X108590000Y-86970000D03*
X107790000Y-86970000D03*
X108090000Y-86970000D03*
X108890000Y-86970000D03*
X109390000Y-86970000D03*
X110390000Y-86970000D03*
X111890000Y-86970000D03*
X112890000Y-86970000D03*
X113390000Y-86970000D03*
X114190000Y-86970000D03*
D14*
X106820000Y-86130000D03*
D15*
X115460000Y-81950000D03*
D14*
X115460000Y-86130000D03*
D15*
X106820000Y-81950000D03*
%TD*%
D16*
%TO.C,H1*%
X79375000Y-85090000D03*
%TD*%
%TO.C,H3*%
X120650000Y-95250000D03*
%TD*%
D12*
%TO.C,P2*%
X108250000Y-94710000D03*
X114030000Y-94710000D03*
D13*
X107790000Y-93370000D03*
X108590000Y-93370000D03*
X109890000Y-93370000D03*
X110890000Y-93370000D03*
X111390000Y-93370000D03*
X112390000Y-93370000D03*
X113690000Y-93370000D03*
X114490000Y-93370000D03*
X114190000Y-93370000D03*
X113390000Y-93370000D03*
X112890000Y-93370000D03*
X111890000Y-93370000D03*
X110390000Y-93370000D03*
X109390000Y-93370000D03*
X108890000Y-93370000D03*
X108090000Y-93370000D03*
D15*
X106820000Y-98390000D03*
X115460000Y-98390000D03*
D14*
X106820000Y-94210000D03*
X115460000Y-94210000D03*
%TD*%
D16*
%TO.C,H4*%
X79375000Y-95250000D03*
%TD*%
D12*
%TO.C,P4*%
X97130000Y-85630000D03*
X102910000Y-85630000D03*
D13*
X103370000Y-86970000D03*
X102570000Y-86970000D03*
X101270000Y-86970000D03*
X100270000Y-86970000D03*
X99770000Y-86970000D03*
X98770000Y-86970000D03*
X97470000Y-86970000D03*
X96670000Y-86970000D03*
X96970000Y-86970000D03*
X97770000Y-86970000D03*
X98270000Y-86970000D03*
X99270000Y-86970000D03*
X100770000Y-86970000D03*
X101770000Y-86970000D03*
X102270000Y-86970000D03*
X103070000Y-86970000D03*
D14*
X95700000Y-86130000D03*
D15*
X104340000Y-81950000D03*
X95700000Y-81950000D03*
D14*
X104340000Y-86130000D03*
%TD*%
D12*
%TO.C,P6*%
X86010000Y-85630000D03*
X91790000Y-85630000D03*
D13*
X92250000Y-86970000D03*
X91450000Y-86970000D03*
X90150000Y-86970000D03*
X89150000Y-86970000D03*
X88650000Y-86970000D03*
X87650000Y-86970000D03*
X86350000Y-86970000D03*
X85550000Y-86970000D03*
X85850000Y-86970000D03*
X86650000Y-86970000D03*
X87150000Y-86970000D03*
X88150000Y-86970000D03*
X89650000Y-86970000D03*
X90650000Y-86970000D03*
X91150000Y-86970000D03*
X91950000Y-86970000D03*
D15*
X84580000Y-81950000D03*
X93220000Y-81950000D03*
D14*
X93220000Y-86130000D03*
X84580000Y-86130000D03*
%TD*%
M02*
