%TF.GenerationSoftware,KiCad,Pcbnew,(6.0.11)*%
%TF.CreationDate,2023-04-18T18:31:17+02:00*%
%TF.ProjectId,FarmSupply,4661726d-5375-4707-906c-792e6b696361,rev?*%
%TF.SameCoordinates,Original*%
%TF.FileFunction,Copper,L2,Bot*%
%TF.FilePolarity,Positive*%
%FSLAX46Y46*%
G04 Gerber Fmt 4.6, Leading zero omitted, Abs format (unit mm)*
G04 Created by KiCad (PCBNEW (6.0.11)) date 2023-04-18 18:31:17*
%MOMM*%
%LPD*%
G01*
G04 APERTURE LIST*
G04 Aperture macros list*
%AMRoundRect*
0 Rectangle with rounded corners*
0 $1 Rounding radius*
0 $2 $3 $4 $5 $6 $7 $8 $9 X,Y pos of 4 corners*
0 Add a 4 corners polygon primitive as box body*
4,1,4,$2,$3,$4,$5,$6,$7,$8,$9,$2,$3,0*
0 Add four circle primitives for the rounded corners*
1,1,$1+$1,$2,$3*
1,1,$1+$1,$4,$5*
1,1,$1+$1,$6,$7*
1,1,$1+$1,$8,$9*
0 Add four rect primitives between the rounded corners*
20,1,$1+$1,$2,$3,$4,$5,0*
20,1,$1+$1,$4,$5,$6,$7,0*
20,1,$1+$1,$6,$7,$8,$9,0*
20,1,$1+$1,$8,$9,$2,$3,0*%
G04 Aperture macros list end*
%TA.AperFunction,ComponentPad*%
%ADD10O,0.900000X2.100000*%
%TD*%
%TA.AperFunction,ComponentPad*%
%ADD11O,1.000000X1.600000*%
%TD*%
%TA.AperFunction,SMDPad,CuDef*%
%ADD12RoundRect,0.250000X0.262500X0.450000X-0.262500X0.450000X-0.262500X-0.450000X0.262500X-0.450000X0*%
%TD*%
%TA.AperFunction,ViaPad*%
%ADD13C,0.800000*%
%TD*%
%TA.AperFunction,Conductor*%
%ADD14C,0.250000*%
%TD*%
G04 APERTURE END LIST*
D10*
%TO.P,P6,S1,SHIELD*%
%TO.N,GND*%
X84580000Y-86079200D03*
X93220000Y-86079200D03*
D11*
X84580000Y-81899200D03*
X93220000Y-81899200D03*
%TD*%
D10*
%TO.P,P5,S1,SHIELD*%
%TO.N,GND*%
X96010000Y-86130000D03*
X104650000Y-86130000D03*
D11*
X96010000Y-81950000D03*
X104650000Y-81950000D03*
%TD*%
D10*
%TO.P,P4,S1,SHIELD*%
%TO.N,GND*%
X107440000Y-86130000D03*
X116080000Y-86130000D03*
D11*
X107440000Y-81950000D03*
X116080000Y-81950000D03*
%TD*%
D10*
%TO.P,P3,S1,SHIELD*%
%TO.N,GND*%
X116080000Y-94210000D03*
X107440000Y-94210000D03*
D11*
X116080000Y-98390000D03*
X107440000Y-98390000D03*
%TD*%
D10*
%TO.P,P2,S1,SHIELD*%
%TO.N,GND*%
X104650000Y-94210000D03*
X96010000Y-94210000D03*
D11*
X104650000Y-98390000D03*
X96010000Y-98390000D03*
%TD*%
D10*
%TO.P,P1,S1,SHIELD*%
%TO.N,GND*%
X93220000Y-94210000D03*
X84580000Y-94210000D03*
D11*
X93220000Y-98390000D03*
X84580000Y-98390000D03*
%TD*%
D12*
%TO.P,R13,1*%
%TO.N,GND*%
X112950000Y-83185000D03*
%TO.P,R13,2*%
%TO.N,Net-(P4-PadB5)*%
X111125000Y-83185000D03*
%TD*%
%TO.P,R7,1*%
%TO.N,GND*%
X101520000Y-96520000D03*
%TO.P,R7,2*%
%TO.N,Net-(P2-PadB5)*%
X99695000Y-96520000D03*
%TD*%
%TO.P,R3,1*%
%TO.N,GND*%
X90090000Y-97155000D03*
%TO.P,R3,2*%
%TO.N,Net-(P1-PadB5)*%
X88265000Y-97155000D03*
%TD*%
D13*
%TO.N,Net-(P4-PadB5)*%
X111249000Y-84990500D03*
%TO.N,Net-(P2-PadB5)*%
X101176500Y-95032000D03*
%TO.N,Net-(P1-PadB5)*%
X89411200Y-95349500D03*
%TO.N,GND*%
X112272500Y-91683000D03*
X88387500Y-88631600D03*
X84325500Y-92015500D03*
X105022400Y-92015500D03*
X116622100Y-92015500D03*
%TD*%
D14*
%TO.N,Net-(P4-PadB5)*%
X111249000Y-83309000D02*
X111249000Y-84990500D01*
X111125000Y-83185000D02*
X111249000Y-83309000D01*
%TO.N,Net-(P2-PadB5)*%
X99695000Y-96513500D02*
X101176500Y-95032000D01*
X99695000Y-96520000D02*
X99695000Y-96513500D01*
%TO.N,Net-(P1-PadB5)*%
X88265000Y-96495700D02*
X89411200Y-95349500D01*
X88265000Y-97155000D02*
X88265000Y-96495700D01*
%TD*%
%TA.AperFunction,Conductor*%
%TO.N,GND*%
G36*
X84028254Y-80538502D02*
G01*
X84074747Y-80592158D01*
X84084851Y-80662432D01*
X84055357Y-80727012D01*
X84029124Y-80749934D01*
X84020582Y-80755523D01*
X83876127Y-80871668D01*
X83867368Y-80880246D01*
X83748222Y-81022239D01*
X83741292Y-81032359D01*
X83651998Y-81194785D01*
X83647166Y-81206058D01*
X83591120Y-81382738D01*
X83588570Y-81394732D01*
X83572393Y-81538961D01*
X83572000Y-81545985D01*
X83572000Y-81627085D01*
X83576475Y-81642324D01*
X83577865Y-81643529D01*
X83585548Y-81645200D01*
X85569885Y-81645200D01*
X85585124Y-81640725D01*
X85586329Y-81639335D01*
X85588000Y-81631652D01*
X85588000Y-81552543D01*
X85587699Y-81546395D01*
X85574188Y-81408597D01*
X85571805Y-81396562D01*
X85518233Y-81219124D01*
X85513559Y-81207784D01*
X85426540Y-81044123D01*
X85419751Y-81033906D01*
X85302603Y-80890267D01*
X85293959Y-80881563D01*
X85151144Y-80763416D01*
X85140965Y-80756551D01*
X85138717Y-80755335D01*
X85137769Y-80754394D01*
X85135863Y-80753109D01*
X85136107Y-80752747D01*
X85088308Y-80705340D01*
X85072931Y-80636029D01*
X85097468Y-80569407D01*
X85154128Y-80526627D01*
X85198646Y-80518500D01*
X92600133Y-80518500D01*
X92668254Y-80538502D01*
X92714747Y-80592158D01*
X92724851Y-80662432D01*
X92695357Y-80727012D01*
X92669124Y-80749934D01*
X92660582Y-80755523D01*
X92516127Y-80871668D01*
X92507368Y-80880246D01*
X92388222Y-81022239D01*
X92381292Y-81032359D01*
X92291998Y-81194785D01*
X92287166Y-81206058D01*
X92231120Y-81382738D01*
X92228570Y-81394732D01*
X92212393Y-81538961D01*
X92212000Y-81545985D01*
X92212000Y-81627085D01*
X92216475Y-81642324D01*
X92217865Y-81643529D01*
X92225548Y-81645200D01*
X94209885Y-81645200D01*
X94225124Y-81640725D01*
X94226329Y-81639335D01*
X94228000Y-81631652D01*
X94228000Y-81552543D01*
X94227699Y-81546395D01*
X94214188Y-81408597D01*
X94211805Y-81396562D01*
X94158233Y-81219124D01*
X94153559Y-81207784D01*
X94066540Y-81044123D01*
X94059751Y-81033906D01*
X93942603Y-80890267D01*
X93933959Y-80881563D01*
X93791144Y-80763416D01*
X93780965Y-80756551D01*
X93778717Y-80755335D01*
X93777769Y-80754394D01*
X93775863Y-80753109D01*
X93776107Y-80752747D01*
X93728308Y-80705340D01*
X93712931Y-80636029D01*
X93737468Y-80569407D01*
X93794128Y-80526627D01*
X93838646Y-80518500D01*
X95485573Y-80518500D01*
X95553694Y-80538502D01*
X95600187Y-80592158D01*
X95610291Y-80662432D01*
X95580797Y-80727012D01*
X95543948Y-80756162D01*
X95460846Y-80799607D01*
X95450585Y-80806321D01*
X95306127Y-80922468D01*
X95297368Y-80931046D01*
X95178222Y-81073039D01*
X95171292Y-81083159D01*
X95081998Y-81245585D01*
X95077166Y-81256858D01*
X95021120Y-81433538D01*
X95018570Y-81445532D01*
X95002393Y-81589761D01*
X95002000Y-81596785D01*
X95002000Y-81677885D01*
X95006475Y-81693124D01*
X95007865Y-81694329D01*
X95015548Y-81696000D01*
X96999885Y-81696000D01*
X97015124Y-81691525D01*
X97016329Y-81690135D01*
X97018000Y-81682452D01*
X97018000Y-81603343D01*
X97017699Y-81597195D01*
X97004188Y-81459397D01*
X97001805Y-81447362D01*
X96948233Y-81269924D01*
X96943559Y-81258584D01*
X96856540Y-81094923D01*
X96849751Y-81084706D01*
X96732603Y-80941067D01*
X96723959Y-80932363D01*
X96581144Y-80814216D01*
X96570973Y-80807356D01*
X96474764Y-80755336D01*
X96424356Y-80705341D01*
X96408978Y-80636030D01*
X96433514Y-80569408D01*
X96490174Y-80526627D01*
X96534693Y-80518500D01*
X104125573Y-80518500D01*
X104193694Y-80538502D01*
X104240187Y-80592158D01*
X104250291Y-80662432D01*
X104220797Y-80727012D01*
X104183948Y-80756162D01*
X104100846Y-80799607D01*
X104090585Y-80806321D01*
X103946127Y-80922468D01*
X103937368Y-80931046D01*
X103818222Y-81073039D01*
X103811292Y-81083159D01*
X103721998Y-81245585D01*
X103717166Y-81256858D01*
X103661120Y-81433538D01*
X103658570Y-81445532D01*
X103642393Y-81589761D01*
X103642000Y-81596785D01*
X103642000Y-81677885D01*
X103646475Y-81693124D01*
X103647865Y-81694329D01*
X103655548Y-81696000D01*
X105639885Y-81696000D01*
X105655124Y-81691525D01*
X105656329Y-81690135D01*
X105658000Y-81682452D01*
X105658000Y-81603343D01*
X105657699Y-81597195D01*
X105644188Y-81459397D01*
X105641805Y-81447362D01*
X105588233Y-81269924D01*
X105583559Y-81258584D01*
X105496540Y-81094923D01*
X105489751Y-81084706D01*
X105372603Y-80941067D01*
X105363959Y-80932363D01*
X105221144Y-80814216D01*
X105210973Y-80807356D01*
X105114764Y-80755336D01*
X105064356Y-80705341D01*
X105048978Y-80636030D01*
X105073514Y-80569408D01*
X105130174Y-80526627D01*
X105174693Y-80518500D01*
X106915573Y-80518500D01*
X106983694Y-80538502D01*
X107030187Y-80592158D01*
X107040291Y-80662432D01*
X107010797Y-80727012D01*
X106973948Y-80756162D01*
X106890846Y-80799607D01*
X106880585Y-80806321D01*
X106736127Y-80922468D01*
X106727368Y-80931046D01*
X106608222Y-81073039D01*
X106601292Y-81083159D01*
X106511998Y-81245585D01*
X106507166Y-81256858D01*
X106451120Y-81433538D01*
X106448570Y-81445532D01*
X106432393Y-81589761D01*
X106432000Y-81596785D01*
X106432000Y-81677885D01*
X106436475Y-81693124D01*
X106437865Y-81694329D01*
X106445548Y-81696000D01*
X108429885Y-81696000D01*
X108445124Y-81691525D01*
X108446329Y-81690135D01*
X108448000Y-81682452D01*
X108448000Y-81603343D01*
X108447699Y-81597195D01*
X108434188Y-81459397D01*
X108431805Y-81447362D01*
X108378233Y-81269924D01*
X108373559Y-81258584D01*
X108286540Y-81094923D01*
X108279751Y-81084706D01*
X108162603Y-80941067D01*
X108153959Y-80932363D01*
X108011144Y-80814216D01*
X108000973Y-80807356D01*
X107904764Y-80755336D01*
X107854356Y-80705341D01*
X107838978Y-80636030D01*
X107863514Y-80569408D01*
X107920174Y-80526627D01*
X107964693Y-80518500D01*
X115555573Y-80518500D01*
X115623694Y-80538502D01*
X115670187Y-80592158D01*
X115680291Y-80662432D01*
X115650797Y-80727012D01*
X115613948Y-80756162D01*
X115530846Y-80799607D01*
X115520585Y-80806321D01*
X115376127Y-80922468D01*
X115367368Y-80931046D01*
X115248222Y-81073039D01*
X115241292Y-81083159D01*
X115151998Y-81245585D01*
X115147166Y-81256858D01*
X115091120Y-81433538D01*
X115088570Y-81445532D01*
X115072393Y-81589761D01*
X115072000Y-81596785D01*
X115072000Y-81677885D01*
X115076475Y-81693124D01*
X115077865Y-81694329D01*
X115085548Y-81696000D01*
X117069885Y-81696000D01*
X117085124Y-81691525D01*
X117086329Y-81690135D01*
X117088000Y-81682452D01*
X117088000Y-81603343D01*
X117087699Y-81597195D01*
X117074188Y-81459397D01*
X117071805Y-81447362D01*
X117018233Y-81269924D01*
X117013559Y-81258584D01*
X116926540Y-81094923D01*
X116919751Y-81084706D01*
X116802603Y-80941067D01*
X116793959Y-80932363D01*
X116651144Y-80814216D01*
X116640973Y-80807356D01*
X116544764Y-80755336D01*
X116494356Y-80705341D01*
X116478978Y-80636030D01*
X116503514Y-80569408D01*
X116560174Y-80526627D01*
X116604693Y-80518500D01*
X124410633Y-80518500D01*
X124430018Y-80520000D01*
X124444852Y-80522310D01*
X124444855Y-80522310D01*
X124453724Y-80523691D01*
X124463659Y-80522392D01*
X124464746Y-80522250D01*
X124493431Y-80521793D01*
X124566741Y-80529013D01*
X124596212Y-80531916D01*
X124620432Y-80536733D01*
X124739546Y-80572866D01*
X124762355Y-80582315D01*
X124872124Y-80640987D01*
X124892655Y-80654705D01*
X124988876Y-80733671D01*
X125006329Y-80751124D01*
X125085295Y-80847345D01*
X125099013Y-80867876D01*
X125157685Y-80977645D01*
X125167134Y-81000454D01*
X125203267Y-81119568D01*
X125208084Y-81143789D01*
X125217541Y-81239809D01*
X125217091Y-81255868D01*
X125217800Y-81255877D01*
X125217690Y-81264853D01*
X125216309Y-81273724D01*
X125217473Y-81282626D01*
X125217473Y-81282628D01*
X125220436Y-81305283D01*
X125221500Y-81321621D01*
X125221500Y-99010633D01*
X125220000Y-99030018D01*
X125216309Y-99053724D01*
X125217473Y-99062626D01*
X125217750Y-99064746D01*
X125218207Y-99093431D01*
X125217289Y-99102755D01*
X125208084Y-99196212D01*
X125203267Y-99220432D01*
X125167134Y-99339546D01*
X125157685Y-99362355D01*
X125099013Y-99472124D01*
X125085295Y-99492655D01*
X125006329Y-99588876D01*
X124988876Y-99606329D01*
X124892655Y-99685295D01*
X124872124Y-99699013D01*
X124762355Y-99757685D01*
X124739546Y-99767134D01*
X124620432Y-99803267D01*
X124596211Y-99808084D01*
X124500191Y-99817541D01*
X124484132Y-99817091D01*
X124484123Y-99817800D01*
X124475147Y-99817690D01*
X124466276Y-99816309D01*
X124457374Y-99817473D01*
X124457372Y-99817473D01*
X124444856Y-99819110D01*
X124434714Y-99820436D01*
X124418379Y-99821500D01*
X116604427Y-99821500D01*
X116536306Y-99801498D01*
X116489813Y-99747842D01*
X116479709Y-99677568D01*
X116509203Y-99612988D01*
X116546052Y-99583838D01*
X116629154Y-99540393D01*
X116639415Y-99533679D01*
X116783873Y-99417532D01*
X116792632Y-99408954D01*
X116911778Y-99266961D01*
X116918708Y-99256841D01*
X117008002Y-99094415D01*
X117012834Y-99083142D01*
X117068880Y-98906462D01*
X117071430Y-98894468D01*
X117087607Y-98750239D01*
X117088000Y-98743215D01*
X117088000Y-98662115D01*
X117083525Y-98646876D01*
X117082135Y-98645671D01*
X117074452Y-98644000D01*
X115090115Y-98644000D01*
X115074876Y-98648475D01*
X115073671Y-98649865D01*
X115072000Y-98657548D01*
X115072000Y-98736657D01*
X115072301Y-98742805D01*
X115085812Y-98880603D01*
X115088195Y-98892638D01*
X115141767Y-99070076D01*
X115146441Y-99081416D01*
X115233460Y-99245077D01*
X115240249Y-99255294D01*
X115357397Y-99398933D01*
X115366041Y-99407637D01*
X115508856Y-99525784D01*
X115519027Y-99532644D01*
X115615236Y-99584664D01*
X115665644Y-99634659D01*
X115681022Y-99703970D01*
X115656486Y-99770592D01*
X115599826Y-99813373D01*
X115555307Y-99821500D01*
X107964427Y-99821500D01*
X107896306Y-99801498D01*
X107849813Y-99747842D01*
X107839709Y-99677568D01*
X107869203Y-99612988D01*
X107906052Y-99583838D01*
X107989154Y-99540393D01*
X107999415Y-99533679D01*
X108143873Y-99417532D01*
X108152632Y-99408954D01*
X108271778Y-99266961D01*
X108278708Y-99256841D01*
X108368002Y-99094415D01*
X108372834Y-99083142D01*
X108428880Y-98906462D01*
X108431430Y-98894468D01*
X108447607Y-98750239D01*
X108448000Y-98743215D01*
X108448000Y-98662115D01*
X108443525Y-98646876D01*
X108442135Y-98645671D01*
X108434452Y-98644000D01*
X106450115Y-98644000D01*
X106434876Y-98648475D01*
X106433671Y-98649865D01*
X106432000Y-98657548D01*
X106432000Y-98736657D01*
X106432301Y-98742805D01*
X106445812Y-98880603D01*
X106448195Y-98892638D01*
X106501767Y-99070076D01*
X106506441Y-99081416D01*
X106593460Y-99245077D01*
X106600249Y-99255294D01*
X106717397Y-99398933D01*
X106726041Y-99407637D01*
X106868856Y-99525784D01*
X106879027Y-99532644D01*
X106975236Y-99584664D01*
X107025644Y-99634659D01*
X107041022Y-99703970D01*
X107016486Y-99770592D01*
X106959826Y-99813373D01*
X106915307Y-99821500D01*
X105174427Y-99821500D01*
X105106306Y-99801498D01*
X105059813Y-99747842D01*
X105049709Y-99677568D01*
X105079203Y-99612988D01*
X105116052Y-99583838D01*
X105199154Y-99540393D01*
X105209415Y-99533679D01*
X105353873Y-99417532D01*
X105362632Y-99408954D01*
X105481778Y-99266961D01*
X105488708Y-99256841D01*
X105578002Y-99094415D01*
X105582834Y-99083142D01*
X105638880Y-98906462D01*
X105641430Y-98894468D01*
X105657607Y-98750239D01*
X105658000Y-98743215D01*
X105658000Y-98662115D01*
X105653525Y-98646876D01*
X105652135Y-98645671D01*
X105644452Y-98644000D01*
X103660115Y-98644000D01*
X103644876Y-98648475D01*
X103643671Y-98649865D01*
X103642000Y-98657548D01*
X103642000Y-98736657D01*
X103642301Y-98742805D01*
X103655812Y-98880603D01*
X103658195Y-98892638D01*
X103711767Y-99070076D01*
X103716441Y-99081416D01*
X103803460Y-99245077D01*
X103810249Y-99255294D01*
X103927397Y-99398933D01*
X103936041Y-99407637D01*
X104078856Y-99525784D01*
X104089027Y-99532644D01*
X104185236Y-99584664D01*
X104235644Y-99634659D01*
X104251022Y-99703970D01*
X104226486Y-99770592D01*
X104169826Y-99813373D01*
X104125307Y-99821500D01*
X96534427Y-99821500D01*
X96466306Y-99801498D01*
X96419813Y-99747842D01*
X96409709Y-99677568D01*
X96439203Y-99612988D01*
X96476052Y-99583838D01*
X96559154Y-99540393D01*
X96569415Y-99533679D01*
X96713873Y-99417532D01*
X96722632Y-99408954D01*
X96841778Y-99266961D01*
X96848708Y-99256841D01*
X96938002Y-99094415D01*
X96942834Y-99083142D01*
X96998880Y-98906462D01*
X97001430Y-98894468D01*
X97017607Y-98750239D01*
X97018000Y-98743215D01*
X97018000Y-98662115D01*
X97013525Y-98646876D01*
X97012135Y-98645671D01*
X97004452Y-98644000D01*
X95020115Y-98644000D01*
X95004876Y-98648475D01*
X95003671Y-98649865D01*
X95002000Y-98657548D01*
X95002000Y-98736657D01*
X95002301Y-98742805D01*
X95015812Y-98880603D01*
X95018195Y-98892638D01*
X95071767Y-99070076D01*
X95076441Y-99081416D01*
X95163460Y-99245077D01*
X95170249Y-99255294D01*
X95287397Y-99398933D01*
X95296041Y-99407637D01*
X95438856Y-99525784D01*
X95449027Y-99532644D01*
X95545236Y-99584664D01*
X95595644Y-99634659D01*
X95611022Y-99703970D01*
X95586486Y-99770592D01*
X95529826Y-99813373D01*
X95485307Y-99821500D01*
X93744427Y-99821500D01*
X93676306Y-99801498D01*
X93629813Y-99747842D01*
X93619709Y-99677568D01*
X93649203Y-99612988D01*
X93686052Y-99583838D01*
X93769154Y-99540393D01*
X93779415Y-99533679D01*
X93923873Y-99417532D01*
X93932632Y-99408954D01*
X94051778Y-99266961D01*
X94058708Y-99256841D01*
X94148002Y-99094415D01*
X94152834Y-99083142D01*
X94208880Y-98906462D01*
X94211430Y-98894468D01*
X94227607Y-98750239D01*
X94228000Y-98743215D01*
X94228000Y-98662115D01*
X94223525Y-98646876D01*
X94222135Y-98645671D01*
X94214452Y-98644000D01*
X92230115Y-98644000D01*
X92214876Y-98648475D01*
X92213671Y-98649865D01*
X92212000Y-98657548D01*
X92212000Y-98736657D01*
X92212301Y-98742805D01*
X92225812Y-98880603D01*
X92228195Y-98892638D01*
X92281767Y-99070076D01*
X92286441Y-99081416D01*
X92373460Y-99245077D01*
X92380249Y-99255294D01*
X92497397Y-99398933D01*
X92506041Y-99407637D01*
X92648856Y-99525784D01*
X92659027Y-99532644D01*
X92755236Y-99584664D01*
X92805644Y-99634659D01*
X92821022Y-99703970D01*
X92796486Y-99770592D01*
X92739826Y-99813373D01*
X92695307Y-99821500D01*
X85104427Y-99821500D01*
X85036306Y-99801498D01*
X84989813Y-99747842D01*
X84979709Y-99677568D01*
X85009203Y-99612988D01*
X85046052Y-99583838D01*
X85129154Y-99540393D01*
X85139415Y-99533679D01*
X85283873Y-99417532D01*
X85292632Y-99408954D01*
X85411778Y-99266961D01*
X85418708Y-99256841D01*
X85508002Y-99094415D01*
X85512834Y-99083142D01*
X85568880Y-98906462D01*
X85571430Y-98894468D01*
X85587607Y-98750239D01*
X85588000Y-98743215D01*
X85588000Y-98662115D01*
X85583525Y-98646876D01*
X85582135Y-98645671D01*
X85574452Y-98644000D01*
X83590115Y-98644000D01*
X83574876Y-98648475D01*
X83573671Y-98649865D01*
X83572000Y-98657548D01*
X83572000Y-98736657D01*
X83572301Y-98742805D01*
X83585812Y-98880603D01*
X83588195Y-98892638D01*
X83641767Y-99070076D01*
X83646441Y-99081416D01*
X83733460Y-99245077D01*
X83740249Y-99255294D01*
X83857397Y-99398933D01*
X83866041Y-99407637D01*
X84008856Y-99525784D01*
X84019027Y-99532644D01*
X84115236Y-99584664D01*
X84165644Y-99634659D01*
X84181022Y-99703970D01*
X84156486Y-99770592D01*
X84099826Y-99813373D01*
X84055307Y-99821500D01*
X76249367Y-99821500D01*
X76229982Y-99820000D01*
X76215148Y-99817690D01*
X76215145Y-99817690D01*
X76206276Y-99816309D01*
X76196341Y-99817608D01*
X76195254Y-99817750D01*
X76166569Y-99818207D01*
X76093259Y-99810987D01*
X76063788Y-99808084D01*
X76039568Y-99803267D01*
X75920454Y-99767134D01*
X75897645Y-99757685D01*
X75787876Y-99699013D01*
X75767345Y-99685295D01*
X75671124Y-99606329D01*
X75653671Y-99588876D01*
X75574705Y-99492655D01*
X75560987Y-99472124D01*
X75502315Y-99362355D01*
X75492866Y-99339546D01*
X75456733Y-99220432D01*
X75451916Y-99196212D01*
X75442711Y-99102755D01*
X75442607Y-99079151D01*
X75442768Y-99077354D01*
X75443576Y-99072552D01*
X75443729Y-99060000D01*
X75439773Y-99032376D01*
X75438500Y-99014514D01*
X75438500Y-98117885D01*
X83572000Y-98117885D01*
X83576475Y-98133124D01*
X83577865Y-98134329D01*
X83585548Y-98136000D01*
X84307885Y-98136000D01*
X84323124Y-98131525D01*
X84324329Y-98130135D01*
X84326000Y-98122452D01*
X84326000Y-98117885D01*
X84834000Y-98117885D01*
X84838475Y-98133124D01*
X84839865Y-98134329D01*
X84847548Y-98136000D01*
X85569885Y-98136000D01*
X85585124Y-98131525D01*
X85586329Y-98130135D01*
X85588000Y-98122452D01*
X85588000Y-98043343D01*
X85587699Y-98037195D01*
X85574188Y-97899397D01*
X85571805Y-97887362D01*
X85518233Y-97709924D01*
X85513559Y-97698584D01*
X85490598Y-97655400D01*
X87244000Y-97655400D01*
X87244337Y-97658646D01*
X87244337Y-97658650D01*
X87254118Y-97752914D01*
X87254974Y-97761166D01*
X87310950Y-97928946D01*
X87404022Y-98079348D01*
X87529197Y-98204305D01*
X87535427Y-98208145D01*
X87535428Y-98208146D01*
X87672788Y-98292816D01*
X87679762Y-98297115D01*
X87759505Y-98323564D01*
X87841111Y-98350632D01*
X87841113Y-98350632D01*
X87847639Y-98352797D01*
X87854475Y-98353497D01*
X87854478Y-98353498D01*
X87897531Y-98357909D01*
X87952100Y-98363500D01*
X88577900Y-98363500D01*
X88581146Y-98363163D01*
X88581150Y-98363163D01*
X88676808Y-98353238D01*
X88676812Y-98353237D01*
X88683666Y-98352526D01*
X88690202Y-98350345D01*
X88690204Y-98350345D01*
X88822306Y-98306272D01*
X88851446Y-98296550D01*
X89001848Y-98203478D01*
X89007415Y-98197901D01*
X89088638Y-98116537D01*
X89150921Y-98082458D01*
X89221741Y-98087461D01*
X89266829Y-98116382D01*
X89349329Y-98198739D01*
X89360740Y-98207751D01*
X89498743Y-98292816D01*
X89511924Y-98298963D01*
X89666210Y-98350138D01*
X89679586Y-98353005D01*
X89773938Y-98362672D01*
X89780354Y-98363000D01*
X89817885Y-98363000D01*
X89833124Y-98358525D01*
X89834329Y-98357135D01*
X89836000Y-98349452D01*
X89836000Y-98344884D01*
X90344000Y-98344884D01*
X90348475Y-98360123D01*
X90349865Y-98361328D01*
X90357548Y-98362999D01*
X90399595Y-98362999D01*
X90406114Y-98362662D01*
X90501706Y-98352743D01*
X90515100Y-98349851D01*
X90669284Y-98298412D01*
X90682462Y-98292239D01*
X90820307Y-98206937D01*
X90831708Y-98197901D01*
X90911585Y-98117885D01*
X92212000Y-98117885D01*
X92216475Y-98133124D01*
X92217865Y-98134329D01*
X92225548Y-98136000D01*
X92947885Y-98136000D01*
X92963124Y-98131525D01*
X92964329Y-98130135D01*
X92966000Y-98122452D01*
X92966000Y-98117885D01*
X93474000Y-98117885D01*
X93478475Y-98133124D01*
X93479865Y-98134329D01*
X93487548Y-98136000D01*
X94209885Y-98136000D01*
X94225124Y-98131525D01*
X94226329Y-98130135D01*
X94228000Y-98122452D01*
X94228000Y-98117885D01*
X95002000Y-98117885D01*
X95006475Y-98133124D01*
X95007865Y-98134329D01*
X95015548Y-98136000D01*
X95737885Y-98136000D01*
X95753124Y-98131525D01*
X95754329Y-98130135D01*
X95756000Y-98122452D01*
X95756000Y-98117885D01*
X96264000Y-98117885D01*
X96268475Y-98133124D01*
X96269865Y-98134329D01*
X96277548Y-98136000D01*
X96999885Y-98136000D01*
X97015124Y-98131525D01*
X97016329Y-98130135D01*
X97018000Y-98122452D01*
X97018000Y-98117885D01*
X103642000Y-98117885D01*
X103646475Y-98133124D01*
X103647865Y-98134329D01*
X103655548Y-98136000D01*
X104377885Y-98136000D01*
X104393124Y-98131525D01*
X104394329Y-98130135D01*
X104396000Y-98122452D01*
X104396000Y-98117885D01*
X104904000Y-98117885D01*
X104908475Y-98133124D01*
X104909865Y-98134329D01*
X104917548Y-98136000D01*
X105639885Y-98136000D01*
X105655124Y-98131525D01*
X105656329Y-98130135D01*
X105658000Y-98122452D01*
X105658000Y-98117885D01*
X106432000Y-98117885D01*
X106436475Y-98133124D01*
X106437865Y-98134329D01*
X106445548Y-98136000D01*
X107167885Y-98136000D01*
X107183124Y-98131525D01*
X107184329Y-98130135D01*
X107186000Y-98122452D01*
X107186000Y-98117885D01*
X107694000Y-98117885D01*
X107698475Y-98133124D01*
X107699865Y-98134329D01*
X107707548Y-98136000D01*
X108429885Y-98136000D01*
X108445124Y-98131525D01*
X108446329Y-98130135D01*
X108448000Y-98122452D01*
X108448000Y-98117885D01*
X115072000Y-98117885D01*
X115076475Y-98133124D01*
X115077865Y-98134329D01*
X115085548Y-98136000D01*
X115807885Y-98136000D01*
X115823124Y-98131525D01*
X115824329Y-98130135D01*
X115826000Y-98122452D01*
X115826000Y-98117885D01*
X116334000Y-98117885D01*
X116338475Y-98133124D01*
X116339865Y-98134329D01*
X116347548Y-98136000D01*
X117069885Y-98136000D01*
X117085124Y-98131525D01*
X117086329Y-98130135D01*
X117088000Y-98122452D01*
X117088000Y-98043343D01*
X117087699Y-98037195D01*
X117074188Y-97899397D01*
X117071805Y-97887362D01*
X117018233Y-97709924D01*
X117013559Y-97698584D01*
X116926540Y-97534923D01*
X116919751Y-97524706D01*
X116802603Y-97381067D01*
X116793959Y-97372363D01*
X116651144Y-97254216D01*
X116640973Y-97247356D01*
X116477924Y-97159196D01*
X116466619Y-97154444D01*
X116351308Y-97118750D01*
X116337205Y-97118544D01*
X116334000Y-97125299D01*
X116334000Y-98117885D01*
X115826000Y-98117885D01*
X115826000Y-97132076D01*
X115822027Y-97118545D01*
X115814232Y-97117425D01*
X115706479Y-97149138D01*
X115695111Y-97153731D01*
X115530846Y-97239607D01*
X115520585Y-97246321D01*
X115376127Y-97362468D01*
X115367368Y-97371046D01*
X115248222Y-97513039D01*
X115241292Y-97523159D01*
X115151998Y-97685585D01*
X115147166Y-97696858D01*
X115091120Y-97873538D01*
X115088570Y-97885532D01*
X115072393Y-98029761D01*
X115072000Y-98036785D01*
X115072000Y-98117885D01*
X108448000Y-98117885D01*
X108448000Y-98043343D01*
X108447699Y-98037195D01*
X108434188Y-97899397D01*
X108431805Y-97887362D01*
X108378233Y-97709924D01*
X108373559Y-97698584D01*
X108286540Y-97534923D01*
X108279751Y-97524706D01*
X108162603Y-97381067D01*
X108153959Y-97372363D01*
X108011144Y-97254216D01*
X108000973Y-97247356D01*
X107837924Y-97159196D01*
X107826619Y-97154444D01*
X107711308Y-97118750D01*
X107697205Y-97118544D01*
X107694000Y-97125299D01*
X107694000Y-98117885D01*
X107186000Y-98117885D01*
X107186000Y-97132076D01*
X107182027Y-97118545D01*
X107174232Y-97117425D01*
X107066479Y-97149138D01*
X107055111Y-97153731D01*
X106890846Y-97239607D01*
X106880585Y-97246321D01*
X106736127Y-97362468D01*
X106727368Y-97371046D01*
X106608222Y-97513039D01*
X106601292Y-97523159D01*
X106511998Y-97685585D01*
X106507166Y-97696858D01*
X106451120Y-97873538D01*
X106448570Y-97885532D01*
X106432393Y-98029761D01*
X106432000Y-98036785D01*
X106432000Y-98117885D01*
X105658000Y-98117885D01*
X105658000Y-98043343D01*
X105657699Y-98037195D01*
X105644188Y-97899397D01*
X105641805Y-97887362D01*
X105588233Y-97709924D01*
X105583559Y-97698584D01*
X105496540Y-97534923D01*
X105489751Y-97524706D01*
X105372603Y-97381067D01*
X105363959Y-97372363D01*
X105221144Y-97254216D01*
X105210973Y-97247356D01*
X105047924Y-97159196D01*
X105036619Y-97154444D01*
X104921308Y-97118750D01*
X104907205Y-97118544D01*
X104904000Y-97125299D01*
X104904000Y-98117885D01*
X104396000Y-98117885D01*
X104396000Y-97132076D01*
X104392027Y-97118545D01*
X104384232Y-97117425D01*
X104276479Y-97149138D01*
X104265111Y-97153731D01*
X104100846Y-97239607D01*
X104090585Y-97246321D01*
X103946127Y-97362468D01*
X103937368Y-97371046D01*
X103818222Y-97513039D01*
X103811292Y-97523159D01*
X103721998Y-97685585D01*
X103717166Y-97696858D01*
X103661120Y-97873538D01*
X103658570Y-97885532D01*
X103642393Y-98029761D01*
X103642000Y-98036785D01*
X103642000Y-98117885D01*
X97018000Y-98117885D01*
X97018000Y-98043343D01*
X97017699Y-98037195D01*
X97004188Y-97899397D01*
X97001805Y-97887362D01*
X96948233Y-97709924D01*
X96943559Y-97698584D01*
X96856540Y-97534923D01*
X96849751Y-97524706D01*
X96732603Y-97381067D01*
X96723959Y-97372363D01*
X96581144Y-97254216D01*
X96570973Y-97247356D01*
X96407924Y-97159196D01*
X96396619Y-97154444D01*
X96281308Y-97118750D01*
X96267205Y-97118544D01*
X96264000Y-97125299D01*
X96264000Y-98117885D01*
X95756000Y-98117885D01*
X95756000Y-97132076D01*
X95752027Y-97118545D01*
X95744232Y-97117425D01*
X95636479Y-97149138D01*
X95625111Y-97153731D01*
X95460846Y-97239607D01*
X95450585Y-97246321D01*
X95306127Y-97362468D01*
X95297368Y-97371046D01*
X95178222Y-97513039D01*
X95171292Y-97523159D01*
X95081998Y-97685585D01*
X95077166Y-97696858D01*
X95021120Y-97873538D01*
X95018570Y-97885532D01*
X95002393Y-98029761D01*
X95002000Y-98036785D01*
X95002000Y-98117885D01*
X94228000Y-98117885D01*
X94228000Y-98043343D01*
X94227699Y-98037195D01*
X94214188Y-97899397D01*
X94211805Y-97887362D01*
X94158233Y-97709924D01*
X94153559Y-97698584D01*
X94066540Y-97534923D01*
X94059751Y-97524706D01*
X93942603Y-97381067D01*
X93933959Y-97372363D01*
X93791144Y-97254216D01*
X93780973Y-97247356D01*
X93617924Y-97159196D01*
X93606619Y-97154444D01*
X93491308Y-97118750D01*
X93477205Y-97118544D01*
X93474000Y-97125299D01*
X93474000Y-98117885D01*
X92966000Y-98117885D01*
X92966000Y-97132076D01*
X92962027Y-97118545D01*
X92954232Y-97117425D01*
X92846479Y-97149138D01*
X92835111Y-97153731D01*
X92670846Y-97239607D01*
X92660585Y-97246321D01*
X92516127Y-97362468D01*
X92507368Y-97371046D01*
X92388222Y-97513039D01*
X92381292Y-97523159D01*
X92291998Y-97685585D01*
X92287166Y-97696858D01*
X92231120Y-97873538D01*
X92228570Y-97885532D01*
X92212393Y-98029761D01*
X92212000Y-98036785D01*
X92212000Y-98117885D01*
X90911585Y-98117885D01*
X90946239Y-98083171D01*
X90955251Y-98071760D01*
X91040316Y-97933757D01*
X91046463Y-97920576D01*
X91097638Y-97766290D01*
X91100505Y-97752914D01*
X91110172Y-97658562D01*
X91110500Y-97652146D01*
X91110500Y-97427115D01*
X91106025Y-97411876D01*
X91104635Y-97410671D01*
X91096952Y-97409000D01*
X90362115Y-97409000D01*
X90346876Y-97413475D01*
X90345671Y-97414865D01*
X90344000Y-97422548D01*
X90344000Y-98344884D01*
X89836000Y-98344884D01*
X89836000Y-97027000D01*
X89837938Y-97020400D01*
X98674000Y-97020400D01*
X98674337Y-97023646D01*
X98674337Y-97023650D01*
X98684205Y-97118750D01*
X98684974Y-97126166D01*
X98740950Y-97293946D01*
X98834022Y-97444348D01*
X98959197Y-97569305D01*
X98965427Y-97573145D01*
X98965428Y-97573146D01*
X99102788Y-97657816D01*
X99109762Y-97662115D01*
X99180522Y-97685585D01*
X99271111Y-97715632D01*
X99271113Y-97715632D01*
X99277639Y-97717797D01*
X99284475Y-97718497D01*
X99284478Y-97718498D01*
X99327531Y-97722909D01*
X99382100Y-97728500D01*
X100007900Y-97728500D01*
X100011146Y-97728163D01*
X100011150Y-97728163D01*
X100106808Y-97718238D01*
X100106812Y-97718237D01*
X100113666Y-97717526D01*
X100120202Y-97715345D01*
X100120204Y-97715345D01*
X100252306Y-97671272D01*
X100281446Y-97661550D01*
X100431848Y-97568478D01*
X100477088Y-97523159D01*
X100518638Y-97481537D01*
X100580921Y-97447458D01*
X100651741Y-97452461D01*
X100696829Y-97481382D01*
X100779329Y-97563739D01*
X100790740Y-97572751D01*
X100928743Y-97657816D01*
X100941924Y-97663963D01*
X101096210Y-97715138D01*
X101109586Y-97718005D01*
X101203938Y-97727672D01*
X101210354Y-97728000D01*
X101247885Y-97728000D01*
X101263124Y-97723525D01*
X101264329Y-97722135D01*
X101266000Y-97714452D01*
X101266000Y-97709884D01*
X101774000Y-97709884D01*
X101778475Y-97725123D01*
X101779865Y-97726328D01*
X101787548Y-97727999D01*
X101829595Y-97727999D01*
X101836114Y-97727662D01*
X101931706Y-97717743D01*
X101945100Y-97714851D01*
X102099284Y-97663412D01*
X102112462Y-97657239D01*
X102250307Y-97571937D01*
X102261708Y-97562901D01*
X102376239Y-97448171D01*
X102385251Y-97436760D01*
X102470316Y-97298757D01*
X102476464Y-97285574D01*
X102527638Y-97131290D01*
X102530505Y-97117914D01*
X102540172Y-97023562D01*
X102540500Y-97017146D01*
X102540500Y-96792115D01*
X102536025Y-96776876D01*
X102534635Y-96775671D01*
X102526952Y-96774000D01*
X101792115Y-96774000D01*
X101776876Y-96778475D01*
X101775671Y-96779865D01*
X101774000Y-96787548D01*
X101774000Y-97709884D01*
X101266000Y-97709884D01*
X101266000Y-96392000D01*
X101286002Y-96323879D01*
X101339658Y-96277386D01*
X101392000Y-96266000D01*
X102522384Y-96266000D01*
X102537623Y-96261525D01*
X102538828Y-96260135D01*
X102540499Y-96252452D01*
X102540499Y-96022905D01*
X102540162Y-96016386D01*
X102530243Y-95920794D01*
X102527351Y-95907400D01*
X102475912Y-95753216D01*
X102469739Y-95740038D01*
X102384437Y-95602193D01*
X102375401Y-95590792D01*
X102260671Y-95476261D01*
X102249260Y-95467249D01*
X102117867Y-95386258D01*
X102070374Y-95333486D01*
X102058950Y-95263415D01*
X102064149Y-95240065D01*
X102070042Y-95221928D01*
X102072880Y-95194932D01*
X102089314Y-95038565D01*
X102090004Y-95032000D01*
X102079858Y-94935466D01*
X102070732Y-94848635D01*
X102070732Y-94848633D01*
X102070042Y-94842072D01*
X102011922Y-94663198D01*
X102382892Y-94663198D01*
X102383249Y-94670015D01*
X102383249Y-94670019D01*
X102388151Y-94763539D01*
X102392370Y-94844047D01*
X102394181Y-94850620D01*
X102394181Y-94850623D01*
X102417551Y-94935466D01*
X102440461Y-95018641D01*
X102524922Y-95178836D01*
X102529327Y-95184049D01*
X102529330Y-95184053D01*
X102637406Y-95311943D01*
X102637410Y-95311947D01*
X102641813Y-95317157D01*
X102647237Y-95321304D01*
X102647238Y-95321305D01*
X102780257Y-95423006D01*
X102780261Y-95423009D01*
X102785678Y-95427150D01*
X102871671Y-95467249D01*
X102943631Y-95500805D01*
X102943634Y-95500806D01*
X102949808Y-95503685D01*
X102956456Y-95505171D01*
X102956459Y-95505172D01*
X103062421Y-95528857D01*
X103126543Y-95543190D01*
X103132088Y-95543500D01*
X103265244Y-95543500D01*
X103400037Y-95528857D01*
X103518190Y-95489094D01*
X103565204Y-95473272D01*
X103565206Y-95473271D01*
X103571675Y-95471094D01*
X103578074Y-95467249D01*
X103721054Y-95381339D01*
X103721056Y-95381337D01*
X103726905Y-95377823D01*
X103727447Y-95378726D01*
X103787882Y-95355724D01*
X103857355Y-95370352D01*
X103893377Y-95399343D01*
X103981785Y-95502490D01*
X103990976Y-95511244D01*
X104134680Y-95622711D01*
X104145440Y-95629435D01*
X104308625Y-95709732D01*
X104320519Y-95714155D01*
X104378470Y-95729251D01*
X104392564Y-95728817D01*
X104396000Y-95720636D01*
X104396000Y-95719229D01*
X104904000Y-95719229D01*
X104907973Y-95732760D01*
X104914075Y-95733637D01*
X105066136Y-95677690D01*
X105077549Y-95672123D01*
X105232108Y-95576292D01*
X105242174Y-95568540D01*
X105374303Y-95443592D01*
X105382605Y-95433974D01*
X105486908Y-95285013D01*
X105493108Y-95273919D01*
X105565332Y-95107020D01*
X105569171Y-95094917D01*
X105606675Y-94915400D01*
X105607915Y-94905848D01*
X105608000Y-94902616D01*
X105608000Y-94855447D01*
X106482000Y-94855447D01*
X106482323Y-94861822D01*
X106496082Y-94997277D01*
X106498636Y-95009717D01*
X106553016Y-95183244D01*
X106558025Y-95194932D01*
X106646187Y-95353979D01*
X106653438Y-95364412D01*
X106771785Y-95502491D01*
X106780976Y-95511244D01*
X106924680Y-95622711D01*
X106935440Y-95629435D01*
X107098625Y-95709732D01*
X107110519Y-95714155D01*
X107168470Y-95729251D01*
X107182564Y-95728817D01*
X107186000Y-95720636D01*
X107186000Y-95719229D01*
X107694000Y-95719229D01*
X107697973Y-95732760D01*
X107704075Y-95733637D01*
X107856136Y-95677690D01*
X107867549Y-95672123D01*
X108022108Y-95576292D01*
X108032174Y-95568540D01*
X108164303Y-95443592D01*
X108172605Y-95433974D01*
X108192083Y-95406156D01*
X108247540Y-95361827D01*
X108318159Y-95354518D01*
X108371821Y-95378328D01*
X108435678Y-95427150D01*
X108521671Y-95467249D01*
X108593631Y-95500805D01*
X108593634Y-95500806D01*
X108599808Y-95503685D01*
X108606456Y-95505171D01*
X108606459Y-95505172D01*
X108712421Y-95528857D01*
X108776543Y-95543190D01*
X108782088Y-95543500D01*
X108915244Y-95543500D01*
X109050037Y-95528857D01*
X109168190Y-95489094D01*
X109215204Y-95473272D01*
X109215206Y-95473271D01*
X109221675Y-95471094D01*
X109376905Y-95377823D01*
X109381862Y-95373135D01*
X109381865Y-95373133D01*
X109503527Y-95258082D01*
X109503529Y-95258080D01*
X109508485Y-95253393D01*
X109512317Y-95247755D01*
X109512320Y-95247751D01*
X109606442Y-95109255D01*
X109610277Y-95103612D01*
X109677530Y-94935466D01*
X109678644Y-94928738D01*
X109678645Y-94928734D01*
X109705993Y-94763539D01*
X109705993Y-94763536D01*
X109707108Y-94756802D01*
X109702850Y-94675545D01*
X109702203Y-94663198D01*
X113812892Y-94663198D01*
X113813249Y-94670015D01*
X113813249Y-94670019D01*
X113818151Y-94763539D01*
X113822370Y-94844047D01*
X113824181Y-94850620D01*
X113824181Y-94850623D01*
X113847551Y-94935466D01*
X113870461Y-95018641D01*
X113954922Y-95178836D01*
X113959327Y-95184049D01*
X113959330Y-95184053D01*
X114067406Y-95311943D01*
X114067410Y-95311947D01*
X114071813Y-95317157D01*
X114077237Y-95321304D01*
X114077238Y-95321305D01*
X114210257Y-95423006D01*
X114210261Y-95423009D01*
X114215678Y-95427150D01*
X114301671Y-95467249D01*
X114373631Y-95500805D01*
X114373634Y-95500806D01*
X114379808Y-95503685D01*
X114386456Y-95505171D01*
X114386459Y-95505172D01*
X114492421Y-95528857D01*
X114556543Y-95543190D01*
X114562088Y-95543500D01*
X114695244Y-95543500D01*
X114830037Y-95528857D01*
X114948190Y-95489094D01*
X114995204Y-95473272D01*
X114995206Y-95473271D01*
X115001675Y-95471094D01*
X115008074Y-95467249D01*
X115151054Y-95381339D01*
X115151056Y-95381337D01*
X115156905Y-95377823D01*
X115157447Y-95378726D01*
X115217882Y-95355724D01*
X115287355Y-95370352D01*
X115323377Y-95399343D01*
X115411785Y-95502490D01*
X115420976Y-95511244D01*
X115564680Y-95622711D01*
X115575440Y-95629435D01*
X115738625Y-95709732D01*
X115750519Y-95714155D01*
X115808470Y-95729251D01*
X115822564Y-95728817D01*
X115826000Y-95720636D01*
X115826000Y-95719229D01*
X116334000Y-95719229D01*
X116337973Y-95732760D01*
X116344075Y-95733637D01*
X116496136Y-95677690D01*
X116507549Y-95672123D01*
X116662108Y-95576292D01*
X116672174Y-95568540D01*
X116804303Y-95443592D01*
X116812605Y-95433974D01*
X116848505Y-95382703D01*
X118540743Y-95382703D01*
X118541302Y-95386947D01*
X118541302Y-95386951D01*
X118546974Y-95430032D01*
X118578268Y-95667734D01*
X118579401Y-95671874D01*
X118579401Y-95671876D01*
X118590967Y-95714155D01*
X118654129Y-95945036D01*
X118655813Y-95948984D01*
X118689673Y-96028366D01*
X118766923Y-96209476D01*
X118914561Y-96456161D01*
X119094313Y-96680528D01*
X119302851Y-96878423D01*
X119536317Y-97046186D01*
X119540112Y-97048195D01*
X119540113Y-97048196D01*
X119561869Y-97059715D01*
X119790392Y-97180712D01*
X120060373Y-97279511D01*
X120341264Y-97340755D01*
X120369841Y-97343004D01*
X120564282Y-97358307D01*
X120564291Y-97358307D01*
X120566739Y-97358500D01*
X120722271Y-97358500D01*
X120724407Y-97358354D01*
X120724418Y-97358354D01*
X120932548Y-97344165D01*
X120932554Y-97344164D01*
X120936825Y-97343873D01*
X120941020Y-97343004D01*
X120941022Y-97343004D01*
X121154683Y-97298757D01*
X121218342Y-97285574D01*
X121489343Y-97189607D01*
X121628246Y-97117914D01*
X121741005Y-97059715D01*
X121741006Y-97059715D01*
X121744812Y-97057750D01*
X121748313Y-97055289D01*
X121748317Y-97055287D01*
X121951644Y-96912386D01*
X121980023Y-96892441D01*
X122058403Y-96819606D01*
X122187479Y-96699661D01*
X122187481Y-96699658D01*
X122190622Y-96696740D01*
X122372713Y-96474268D01*
X122522927Y-96229142D01*
X122611062Y-96028366D01*
X122636757Y-95969830D01*
X122638483Y-95965898D01*
X122640203Y-95959862D01*
X122708749Y-95719229D01*
X122717244Y-95689406D01*
X122757751Y-95404784D01*
X122757827Y-95390450D01*
X122759235Y-95121583D01*
X122759235Y-95121576D01*
X122759257Y-95117297D01*
X122758199Y-95109255D01*
X122736153Y-94941803D01*
X122721732Y-94832266D01*
X122645871Y-94554964D01*
X122583160Y-94407941D01*
X122534763Y-94294476D01*
X122534761Y-94294472D01*
X122533077Y-94290524D01*
X122385439Y-94043839D01*
X122205687Y-93819472D01*
X121997149Y-93621577D01*
X121763683Y-93453814D01*
X121741843Y-93442250D01*
X121681467Y-93410283D01*
X121509608Y-93319288D01*
X121239627Y-93220489D01*
X120958736Y-93159245D01*
X120927685Y-93156801D01*
X120735718Y-93141693D01*
X120735709Y-93141693D01*
X120733261Y-93141500D01*
X120577729Y-93141500D01*
X120575593Y-93141646D01*
X120575582Y-93141646D01*
X120367452Y-93155835D01*
X120367446Y-93155836D01*
X120363175Y-93156127D01*
X120358980Y-93156996D01*
X120358978Y-93156996D01*
X120222416Y-93185277D01*
X120081658Y-93214426D01*
X119810657Y-93310393D01*
X119555188Y-93442250D01*
X119551687Y-93444711D01*
X119551683Y-93444713D01*
X119541594Y-93451804D01*
X119319977Y-93607559D01*
X119109378Y-93803260D01*
X118927287Y-94025732D01*
X118777073Y-94270858D01*
X118661517Y-94534102D01*
X118582756Y-94810594D01*
X118542249Y-95095216D01*
X118542227Y-95099505D01*
X118542226Y-95099512D01*
X118540765Y-95378417D01*
X118540743Y-95382703D01*
X116848505Y-95382703D01*
X116916908Y-95285013D01*
X116923108Y-95273919D01*
X116995332Y-95107020D01*
X116999171Y-95094917D01*
X117036675Y-94915400D01*
X117037915Y-94905848D01*
X117038000Y-94902616D01*
X117038000Y-94482115D01*
X117033525Y-94466876D01*
X117032135Y-94465671D01*
X117024452Y-94464000D01*
X116352115Y-94464000D01*
X116336876Y-94468475D01*
X116335671Y-94469865D01*
X116334000Y-94477548D01*
X116334000Y-95719229D01*
X115826000Y-95719229D01*
X115826000Y-93937885D01*
X116334000Y-93937885D01*
X116338475Y-93953124D01*
X116339865Y-93954329D01*
X116347548Y-93956000D01*
X117019885Y-93956000D01*
X117035124Y-93951525D01*
X117036329Y-93950135D01*
X117038000Y-93942452D01*
X117038000Y-93564553D01*
X117037677Y-93558178D01*
X117023918Y-93422723D01*
X117021364Y-93410283D01*
X116966984Y-93236756D01*
X116961975Y-93225068D01*
X116873813Y-93066021D01*
X116866562Y-93055588D01*
X116748215Y-92917509D01*
X116739024Y-92908756D01*
X116595320Y-92797289D01*
X116584560Y-92790565D01*
X116421375Y-92710268D01*
X116409481Y-92705845D01*
X116351530Y-92690749D01*
X116337436Y-92691183D01*
X116334000Y-92699364D01*
X116334000Y-93937885D01*
X115826000Y-93937885D01*
X115826000Y-92700771D01*
X115822027Y-92687240D01*
X115815925Y-92686363D01*
X115663864Y-92742310D01*
X115652451Y-92747877D01*
X115497892Y-92843708D01*
X115487826Y-92851460D01*
X115355697Y-92976408D01*
X115347395Y-92986026D01*
X115243092Y-93134987D01*
X115236892Y-93146081D01*
X115164668Y-93312980D01*
X115160829Y-93325083D01*
X115123325Y-93504600D01*
X115122085Y-93514152D01*
X115122000Y-93517384D01*
X115122000Y-93812639D01*
X115101998Y-93880760D01*
X115048342Y-93927253D01*
X114978068Y-93937357D01*
X114942750Y-93926834D01*
X114926369Y-93919195D01*
X114926366Y-93919194D01*
X114920192Y-93916315D01*
X114913544Y-93914829D01*
X114913541Y-93914828D01*
X114748494Y-93877936D01*
X114748495Y-93877936D01*
X114743457Y-93876810D01*
X114737912Y-93876500D01*
X114604756Y-93876500D01*
X114469963Y-93891143D01*
X114386609Y-93919195D01*
X114304796Y-93946728D01*
X114304794Y-93946729D01*
X114298325Y-93948906D01*
X114143095Y-94042177D01*
X114138138Y-94046865D01*
X114138135Y-94046867D01*
X114083329Y-94098695D01*
X114011515Y-94166607D01*
X114007683Y-94172245D01*
X114007680Y-94172249D01*
X113913558Y-94310745D01*
X113909723Y-94316388D01*
X113842470Y-94484534D01*
X113841356Y-94491262D01*
X113841355Y-94491266D01*
X113814295Y-94654721D01*
X113812892Y-94663198D01*
X109702203Y-94663198D01*
X109697987Y-94582766D01*
X109697630Y-94575953D01*
X109690762Y-94551016D01*
X109651352Y-94407941D01*
X109649539Y-94401359D01*
X109565078Y-94241164D01*
X109560673Y-94235951D01*
X109560670Y-94235947D01*
X109452594Y-94108057D01*
X109452590Y-94108053D01*
X109448187Y-94102843D01*
X109375829Y-94047521D01*
X109309743Y-93996994D01*
X109309739Y-93996991D01*
X109304322Y-93992850D01*
X109185317Y-93937357D01*
X109146369Y-93919195D01*
X109146366Y-93919194D01*
X109140192Y-93916315D01*
X109133544Y-93914829D01*
X109133541Y-93914828D01*
X108968494Y-93877936D01*
X108968495Y-93877936D01*
X108963457Y-93876810D01*
X108957912Y-93876500D01*
X108824756Y-93876500D01*
X108689963Y-93891143D01*
X108683499Y-93893318D01*
X108683496Y-93893319D01*
X108564189Y-93933471D01*
X108493247Y-93936241D01*
X108432068Y-93900218D01*
X108400077Y-93836837D01*
X108398000Y-93814052D01*
X108398000Y-93564553D01*
X108397677Y-93558178D01*
X108383918Y-93422723D01*
X108381364Y-93410283D01*
X108326984Y-93236756D01*
X108321975Y-93225068D01*
X108233813Y-93066021D01*
X108226562Y-93055588D01*
X108108215Y-92917509D01*
X108099024Y-92908756D01*
X107955320Y-92797289D01*
X107944560Y-92790565D01*
X107781375Y-92710268D01*
X107769481Y-92705845D01*
X107711530Y-92690749D01*
X107697436Y-92691183D01*
X107694000Y-92699364D01*
X107694000Y-95719229D01*
X107186000Y-95719229D01*
X107186000Y-94482115D01*
X107181525Y-94466876D01*
X107180135Y-94465671D01*
X107172452Y-94464000D01*
X106500115Y-94464000D01*
X106484876Y-94468475D01*
X106483671Y-94469865D01*
X106482000Y-94477548D01*
X106482000Y-94855447D01*
X105608000Y-94855447D01*
X105608000Y-94482115D01*
X105603525Y-94466876D01*
X105602135Y-94465671D01*
X105594452Y-94464000D01*
X104922115Y-94464000D01*
X104906876Y-94468475D01*
X104905671Y-94469865D01*
X104904000Y-94477548D01*
X104904000Y-95719229D01*
X104396000Y-95719229D01*
X104396000Y-93937885D01*
X104904000Y-93937885D01*
X104908475Y-93953124D01*
X104909865Y-93954329D01*
X104917548Y-93956000D01*
X105589885Y-93956000D01*
X105605124Y-93951525D01*
X105606329Y-93950135D01*
X105608000Y-93942452D01*
X105608000Y-93937885D01*
X106482000Y-93937885D01*
X106486475Y-93953124D01*
X106487865Y-93954329D01*
X106495548Y-93956000D01*
X107167885Y-93956000D01*
X107183124Y-93951525D01*
X107184329Y-93950135D01*
X107186000Y-93942452D01*
X107186000Y-92700771D01*
X107182027Y-92687240D01*
X107175925Y-92686363D01*
X107023864Y-92742310D01*
X107012451Y-92747877D01*
X106857892Y-92843708D01*
X106847826Y-92851460D01*
X106715697Y-92976408D01*
X106707395Y-92986026D01*
X106603092Y-93134987D01*
X106596892Y-93146081D01*
X106524668Y-93312980D01*
X106520829Y-93325083D01*
X106483325Y-93504600D01*
X106482085Y-93514152D01*
X106482000Y-93517384D01*
X106482000Y-93937885D01*
X105608000Y-93937885D01*
X105608000Y-93564553D01*
X105607677Y-93558178D01*
X105593918Y-93422723D01*
X105591364Y-93410283D01*
X105536984Y-93236756D01*
X105531975Y-93225068D01*
X105443813Y-93066021D01*
X105436562Y-93055588D01*
X105318215Y-92917509D01*
X105309024Y-92908756D01*
X105165320Y-92797289D01*
X105154560Y-92790565D01*
X104991375Y-92710268D01*
X104979481Y-92705845D01*
X104921530Y-92690749D01*
X104907436Y-92691183D01*
X104904000Y-92699364D01*
X104904000Y-93937885D01*
X104396000Y-93937885D01*
X104396000Y-92700771D01*
X104392027Y-92687240D01*
X104385925Y-92686363D01*
X104233864Y-92742310D01*
X104222451Y-92747877D01*
X104067892Y-92843708D01*
X104057826Y-92851460D01*
X103925697Y-92976408D01*
X103917395Y-92986026D01*
X103813092Y-93134987D01*
X103806892Y-93146081D01*
X103734668Y-93312980D01*
X103730829Y-93325083D01*
X103693325Y-93504600D01*
X103692085Y-93514152D01*
X103692000Y-93517384D01*
X103692000Y-93812639D01*
X103671998Y-93880760D01*
X103618342Y-93927253D01*
X103548068Y-93937357D01*
X103512750Y-93926834D01*
X103496369Y-93919195D01*
X103496366Y-93919194D01*
X103490192Y-93916315D01*
X103483544Y-93914829D01*
X103483541Y-93914828D01*
X103318494Y-93877936D01*
X103318495Y-93877936D01*
X103313457Y-93876810D01*
X103307912Y-93876500D01*
X103174756Y-93876500D01*
X103039963Y-93891143D01*
X102956609Y-93919195D01*
X102874796Y-93946728D01*
X102874794Y-93946729D01*
X102868325Y-93948906D01*
X102713095Y-94042177D01*
X102708138Y-94046865D01*
X102708135Y-94046867D01*
X102653329Y-94098695D01*
X102581515Y-94166607D01*
X102577683Y-94172245D01*
X102577680Y-94172249D01*
X102483558Y-94310745D01*
X102479723Y-94316388D01*
X102412470Y-94484534D01*
X102411356Y-94491262D01*
X102411355Y-94491266D01*
X102384295Y-94654721D01*
X102382892Y-94663198D01*
X102011922Y-94663198D01*
X102011027Y-94660444D01*
X101915540Y-94495056D01*
X101891607Y-94468475D01*
X101792175Y-94358045D01*
X101792174Y-94358044D01*
X101787753Y-94353134D01*
X101633252Y-94240882D01*
X101627224Y-94238198D01*
X101627222Y-94238197D01*
X101464819Y-94165891D01*
X101464818Y-94165891D01*
X101458788Y-94163206D01*
X101365387Y-94143353D01*
X101278444Y-94124872D01*
X101278439Y-94124872D01*
X101271987Y-94123500D01*
X101081013Y-94123500D01*
X101074561Y-94124872D01*
X101074556Y-94124872D01*
X100987613Y-94143353D01*
X100894212Y-94163206D01*
X100888182Y-94165891D01*
X100888181Y-94165891D01*
X100725778Y-94238197D01*
X100725776Y-94238198D01*
X100719748Y-94240882D01*
X100565247Y-94353134D01*
X100560826Y-94358044D01*
X100560825Y-94358045D01*
X100461394Y-94468475D01*
X100437460Y-94495056D01*
X100341973Y-94660444D01*
X100282958Y-94842072D01*
X100266646Y-94997277D01*
X100265593Y-95007292D01*
X100238580Y-95072949D01*
X100229378Y-95083217D01*
X100038000Y-95274595D01*
X99975688Y-95308621D01*
X99948905Y-95311500D01*
X99382100Y-95311500D01*
X99378854Y-95311837D01*
X99378850Y-95311837D01*
X99283192Y-95321762D01*
X99283188Y-95321763D01*
X99276334Y-95322474D01*
X99269798Y-95324655D01*
X99269796Y-95324655D01*
X99176672Y-95355724D01*
X99108554Y-95378450D01*
X98958152Y-95471522D01*
X98833195Y-95596697D01*
X98829355Y-95602927D01*
X98829354Y-95602928D01*
X98748784Y-95733637D01*
X98740385Y-95747262D01*
X98738081Y-95754209D01*
X98694221Y-95886444D01*
X98684703Y-95915139D01*
X98684003Y-95921975D01*
X98684002Y-95921978D01*
X98681405Y-95947328D01*
X98674000Y-96019600D01*
X98674000Y-97020400D01*
X89837938Y-97020400D01*
X89856002Y-96958879D01*
X89909658Y-96912386D01*
X89962000Y-96901000D01*
X91092384Y-96901000D01*
X91107623Y-96896525D01*
X91108828Y-96895135D01*
X91110499Y-96887452D01*
X91110499Y-96657905D01*
X91110162Y-96651386D01*
X91100243Y-96555794D01*
X91097351Y-96542400D01*
X91045912Y-96388216D01*
X91039739Y-96375038D01*
X90954437Y-96237193D01*
X90945401Y-96225792D01*
X90830671Y-96111261D01*
X90819260Y-96102249D01*
X90681257Y-96017184D01*
X90668076Y-96011037D01*
X90513790Y-95959862D01*
X90500414Y-95956995D01*
X90406062Y-95947328D01*
X90399645Y-95947000D01*
X90333516Y-95947000D01*
X90265395Y-95926998D01*
X90218902Y-95873342D01*
X90208798Y-95803068D01*
X90224396Y-95758003D01*
X90245727Y-95721056D01*
X90304742Y-95539428D01*
X90308343Y-95505172D01*
X90324014Y-95356065D01*
X90324704Y-95349500D01*
X90322093Y-95324655D01*
X90305432Y-95166135D01*
X90305432Y-95166133D01*
X90304742Y-95159572D01*
X90245727Y-94977944D01*
X90150240Y-94812556D01*
X90022453Y-94670634D01*
X90012218Y-94663198D01*
X90952892Y-94663198D01*
X90953249Y-94670015D01*
X90953249Y-94670019D01*
X90958151Y-94763539D01*
X90962370Y-94844047D01*
X90964181Y-94850620D01*
X90964181Y-94850623D01*
X90987551Y-94935466D01*
X91010461Y-95018641D01*
X91094922Y-95178836D01*
X91099327Y-95184049D01*
X91099330Y-95184053D01*
X91207406Y-95311943D01*
X91207410Y-95311947D01*
X91211813Y-95317157D01*
X91217237Y-95321304D01*
X91217238Y-95321305D01*
X91350257Y-95423006D01*
X91350261Y-95423009D01*
X91355678Y-95427150D01*
X91441671Y-95467249D01*
X91513631Y-95500805D01*
X91513634Y-95500806D01*
X91519808Y-95503685D01*
X91526456Y-95505171D01*
X91526459Y-95505172D01*
X91632421Y-95528857D01*
X91696543Y-95543190D01*
X91702088Y-95543500D01*
X91835244Y-95543500D01*
X91970037Y-95528857D01*
X92088190Y-95489094D01*
X92135204Y-95473272D01*
X92135206Y-95473271D01*
X92141675Y-95471094D01*
X92148074Y-95467249D01*
X92291054Y-95381339D01*
X92291056Y-95381337D01*
X92296905Y-95377823D01*
X92297447Y-95378726D01*
X92357882Y-95355724D01*
X92427355Y-95370352D01*
X92463377Y-95399343D01*
X92551785Y-95502490D01*
X92560976Y-95511244D01*
X92704680Y-95622711D01*
X92715440Y-95629435D01*
X92878625Y-95709732D01*
X92890519Y-95714155D01*
X92948470Y-95729251D01*
X92962564Y-95728817D01*
X92966000Y-95720636D01*
X92966000Y-95719229D01*
X93474000Y-95719229D01*
X93477973Y-95732760D01*
X93484075Y-95733637D01*
X93636136Y-95677690D01*
X93647549Y-95672123D01*
X93802108Y-95576292D01*
X93812174Y-95568540D01*
X93944303Y-95443592D01*
X93952605Y-95433974D01*
X94056908Y-95285013D01*
X94063108Y-95273919D01*
X94135332Y-95107020D01*
X94139171Y-95094917D01*
X94176675Y-94915400D01*
X94177915Y-94905848D01*
X94178000Y-94902616D01*
X94178000Y-94855447D01*
X95052000Y-94855447D01*
X95052323Y-94861822D01*
X95066082Y-94997277D01*
X95068636Y-95009717D01*
X95123016Y-95183244D01*
X95128025Y-95194932D01*
X95216187Y-95353979D01*
X95223438Y-95364412D01*
X95341785Y-95502491D01*
X95350976Y-95511244D01*
X95494680Y-95622711D01*
X95505440Y-95629435D01*
X95668625Y-95709732D01*
X95680519Y-95714155D01*
X95738470Y-95729251D01*
X95752564Y-95728817D01*
X95756000Y-95720636D01*
X95756000Y-95719229D01*
X96264000Y-95719229D01*
X96267973Y-95732760D01*
X96274075Y-95733637D01*
X96426136Y-95677690D01*
X96437549Y-95672123D01*
X96592108Y-95576292D01*
X96602174Y-95568540D01*
X96734303Y-95443592D01*
X96742605Y-95433974D01*
X96762083Y-95406156D01*
X96817540Y-95361827D01*
X96888159Y-95354518D01*
X96941821Y-95378328D01*
X97005678Y-95427150D01*
X97091671Y-95467249D01*
X97163631Y-95500805D01*
X97163634Y-95500806D01*
X97169808Y-95503685D01*
X97176456Y-95505171D01*
X97176459Y-95505172D01*
X97282421Y-95528857D01*
X97346543Y-95543190D01*
X97352088Y-95543500D01*
X97485244Y-95543500D01*
X97620037Y-95528857D01*
X97738190Y-95489094D01*
X97785204Y-95473272D01*
X97785206Y-95473271D01*
X97791675Y-95471094D01*
X97946905Y-95377823D01*
X97951862Y-95373135D01*
X97951865Y-95373133D01*
X98073527Y-95258082D01*
X98073529Y-95258080D01*
X98078485Y-95253393D01*
X98082317Y-95247755D01*
X98082320Y-95247751D01*
X98176442Y-95109255D01*
X98180277Y-95103612D01*
X98247530Y-94935466D01*
X98248644Y-94928738D01*
X98248645Y-94928734D01*
X98275993Y-94763539D01*
X98275993Y-94763536D01*
X98277108Y-94756802D01*
X98272850Y-94675545D01*
X98267987Y-94582766D01*
X98267630Y-94575953D01*
X98260762Y-94551016D01*
X98221352Y-94407941D01*
X98219539Y-94401359D01*
X98135078Y-94241164D01*
X98130673Y-94235951D01*
X98130670Y-94235947D01*
X98022594Y-94108057D01*
X98022590Y-94108053D01*
X98018187Y-94102843D01*
X97945829Y-94047521D01*
X97879743Y-93996994D01*
X97879739Y-93996991D01*
X97874322Y-93992850D01*
X97755317Y-93937357D01*
X97716369Y-93919195D01*
X97716366Y-93919194D01*
X97710192Y-93916315D01*
X97703544Y-93914829D01*
X97703541Y-93914828D01*
X97538494Y-93877936D01*
X97538495Y-93877936D01*
X97533457Y-93876810D01*
X97527912Y-93876500D01*
X97394756Y-93876500D01*
X97259963Y-93891143D01*
X97253499Y-93893318D01*
X97253496Y-93893319D01*
X97134189Y-93933471D01*
X97063247Y-93936241D01*
X97002068Y-93900218D01*
X96970077Y-93836837D01*
X96968000Y-93814052D01*
X96968000Y-93564553D01*
X96967677Y-93558178D01*
X96953918Y-93422723D01*
X96951364Y-93410283D01*
X96896984Y-93236756D01*
X96891975Y-93225068D01*
X96803813Y-93066021D01*
X96796562Y-93055588D01*
X96678215Y-92917509D01*
X96669024Y-92908756D01*
X96525320Y-92797289D01*
X96514560Y-92790565D01*
X96351375Y-92710268D01*
X96339481Y-92705845D01*
X96281530Y-92690749D01*
X96267436Y-92691183D01*
X96264000Y-92699364D01*
X96264000Y-95719229D01*
X95756000Y-95719229D01*
X95756000Y-94482115D01*
X95751525Y-94466876D01*
X95750135Y-94465671D01*
X95742452Y-94464000D01*
X95070115Y-94464000D01*
X95054876Y-94468475D01*
X95053671Y-94469865D01*
X95052000Y-94477548D01*
X95052000Y-94855447D01*
X94178000Y-94855447D01*
X94178000Y-94482115D01*
X94173525Y-94466876D01*
X94172135Y-94465671D01*
X94164452Y-94464000D01*
X93492115Y-94464000D01*
X93476876Y-94468475D01*
X93475671Y-94469865D01*
X93474000Y-94477548D01*
X93474000Y-95719229D01*
X92966000Y-95719229D01*
X92966000Y-93937885D01*
X93474000Y-93937885D01*
X93478475Y-93953124D01*
X93479865Y-93954329D01*
X93487548Y-93956000D01*
X94159885Y-93956000D01*
X94175124Y-93951525D01*
X94176329Y-93950135D01*
X94178000Y-93942452D01*
X94178000Y-93937885D01*
X95052000Y-93937885D01*
X95056475Y-93953124D01*
X95057865Y-93954329D01*
X95065548Y-93956000D01*
X95737885Y-93956000D01*
X95753124Y-93951525D01*
X95754329Y-93950135D01*
X95756000Y-93942452D01*
X95756000Y-92700771D01*
X95752027Y-92687240D01*
X95745925Y-92686363D01*
X95593864Y-92742310D01*
X95582451Y-92747877D01*
X95427892Y-92843708D01*
X95417826Y-92851460D01*
X95285697Y-92976408D01*
X95277395Y-92986026D01*
X95173092Y-93134987D01*
X95166892Y-93146081D01*
X95094668Y-93312980D01*
X95090829Y-93325083D01*
X95053325Y-93504600D01*
X95052085Y-93514152D01*
X95052000Y-93517384D01*
X95052000Y-93937885D01*
X94178000Y-93937885D01*
X94178000Y-93564553D01*
X94177677Y-93558178D01*
X94163918Y-93422723D01*
X94161364Y-93410283D01*
X94106984Y-93236756D01*
X94101975Y-93225068D01*
X94013813Y-93066021D01*
X94006562Y-93055588D01*
X93888215Y-92917509D01*
X93879024Y-92908756D01*
X93735320Y-92797289D01*
X93724560Y-92790565D01*
X93561375Y-92710268D01*
X93549481Y-92705845D01*
X93491530Y-92690749D01*
X93477436Y-92691183D01*
X93474000Y-92699364D01*
X93474000Y-93937885D01*
X92966000Y-93937885D01*
X92966000Y-92700771D01*
X92962027Y-92687240D01*
X92955925Y-92686363D01*
X92803864Y-92742310D01*
X92792451Y-92747877D01*
X92637892Y-92843708D01*
X92627826Y-92851460D01*
X92495697Y-92976408D01*
X92487395Y-92986026D01*
X92383092Y-93134987D01*
X92376892Y-93146081D01*
X92304668Y-93312980D01*
X92300829Y-93325083D01*
X92263325Y-93504600D01*
X92262085Y-93514152D01*
X92262000Y-93517384D01*
X92262000Y-93812639D01*
X92241998Y-93880760D01*
X92188342Y-93927253D01*
X92118068Y-93937357D01*
X92082750Y-93926834D01*
X92066369Y-93919195D01*
X92066366Y-93919194D01*
X92060192Y-93916315D01*
X92053544Y-93914829D01*
X92053541Y-93914828D01*
X91888494Y-93877936D01*
X91888495Y-93877936D01*
X91883457Y-93876810D01*
X91877912Y-93876500D01*
X91744756Y-93876500D01*
X91609963Y-93891143D01*
X91526609Y-93919195D01*
X91444796Y-93946728D01*
X91444794Y-93946729D01*
X91438325Y-93948906D01*
X91283095Y-94042177D01*
X91278138Y-94046865D01*
X91278135Y-94046867D01*
X91223329Y-94098695D01*
X91151515Y-94166607D01*
X91147683Y-94172245D01*
X91147680Y-94172249D01*
X91053558Y-94310745D01*
X91049723Y-94316388D01*
X90982470Y-94484534D01*
X90981356Y-94491262D01*
X90981355Y-94491266D01*
X90954295Y-94654721D01*
X90952892Y-94663198D01*
X90012218Y-94663198D01*
X89867952Y-94558382D01*
X89861924Y-94555698D01*
X89861922Y-94555697D01*
X89699519Y-94483391D01*
X89699518Y-94483391D01*
X89693488Y-94480706D01*
X89600088Y-94460853D01*
X89513144Y-94442372D01*
X89513139Y-94442372D01*
X89506687Y-94441000D01*
X89315713Y-94441000D01*
X89309261Y-94442372D01*
X89309256Y-94442372D01*
X89222312Y-94460853D01*
X89128912Y-94480706D01*
X89122882Y-94483391D01*
X89122881Y-94483391D01*
X88960478Y-94555697D01*
X88960476Y-94555698D01*
X88954448Y-94558382D01*
X88799947Y-94670634D01*
X88672160Y-94812556D01*
X88576673Y-94977944D01*
X88517658Y-95159572D01*
X88516968Y-95166133D01*
X88516968Y-95166135D01*
X88511795Y-95215358D01*
X88500308Y-95324655D01*
X88500293Y-95324793D01*
X88473280Y-95390450D01*
X88464078Y-95400718D01*
X87946000Y-95918796D01*
X87883688Y-95952822D01*
X87869909Y-95955028D01*
X87867021Y-95955328D01*
X87846334Y-95957474D01*
X87678554Y-96013450D01*
X87528152Y-96106522D01*
X87403195Y-96231697D01*
X87399355Y-96237927D01*
X87399354Y-96237928D01*
X87386982Y-96258000D01*
X87310385Y-96382262D01*
X87254703Y-96550139D01*
X87244000Y-96654600D01*
X87244000Y-97655400D01*
X85490598Y-97655400D01*
X85426540Y-97534923D01*
X85419751Y-97524706D01*
X85302603Y-97381067D01*
X85293959Y-97372363D01*
X85151144Y-97254216D01*
X85140973Y-97247356D01*
X84977924Y-97159196D01*
X84966619Y-97154444D01*
X84851308Y-97118750D01*
X84837205Y-97118544D01*
X84834000Y-97125299D01*
X84834000Y-98117885D01*
X84326000Y-98117885D01*
X84326000Y-97132076D01*
X84322027Y-97118545D01*
X84314232Y-97117425D01*
X84206479Y-97149138D01*
X84195111Y-97153731D01*
X84030846Y-97239607D01*
X84020585Y-97246321D01*
X83876127Y-97362468D01*
X83867368Y-97371046D01*
X83748222Y-97513039D01*
X83741292Y-97523159D01*
X83651998Y-97685585D01*
X83647166Y-97696858D01*
X83591120Y-97873538D01*
X83588570Y-97885532D01*
X83572393Y-98029761D01*
X83572000Y-98036785D01*
X83572000Y-98117885D01*
X75438500Y-98117885D01*
X75438500Y-95382703D01*
X77265743Y-95382703D01*
X77266302Y-95386947D01*
X77266302Y-95386951D01*
X77271974Y-95430032D01*
X77303268Y-95667734D01*
X77304401Y-95671874D01*
X77304401Y-95671876D01*
X77315967Y-95714155D01*
X77379129Y-95945036D01*
X77380813Y-95948984D01*
X77414673Y-96028366D01*
X77491923Y-96209476D01*
X77639561Y-96456161D01*
X77819313Y-96680528D01*
X78027851Y-96878423D01*
X78261317Y-97046186D01*
X78265112Y-97048195D01*
X78265113Y-97048196D01*
X78286869Y-97059715D01*
X78515392Y-97180712D01*
X78785373Y-97279511D01*
X79066264Y-97340755D01*
X79094841Y-97343004D01*
X79289282Y-97358307D01*
X79289291Y-97358307D01*
X79291739Y-97358500D01*
X79447271Y-97358500D01*
X79449407Y-97358354D01*
X79449418Y-97358354D01*
X79657548Y-97344165D01*
X79657554Y-97344164D01*
X79661825Y-97343873D01*
X79666020Y-97343004D01*
X79666022Y-97343004D01*
X79879683Y-97298757D01*
X79943342Y-97285574D01*
X80214343Y-97189607D01*
X80353246Y-97117914D01*
X80466005Y-97059715D01*
X80466006Y-97059715D01*
X80469812Y-97057750D01*
X80473313Y-97055289D01*
X80473317Y-97055287D01*
X80676644Y-96912386D01*
X80705023Y-96892441D01*
X80783403Y-96819606D01*
X80912479Y-96699661D01*
X80912481Y-96699658D01*
X80915622Y-96696740D01*
X81097713Y-96474268D01*
X81247927Y-96229142D01*
X81336062Y-96028366D01*
X81361757Y-95969830D01*
X81363483Y-95965898D01*
X81365203Y-95959862D01*
X81433749Y-95719229D01*
X81442244Y-95689406D01*
X81482751Y-95404784D01*
X81482827Y-95390450D01*
X81484235Y-95121583D01*
X81484235Y-95121576D01*
X81484257Y-95117297D01*
X81483199Y-95109255D01*
X81461153Y-94941803D01*
X81449784Y-94855447D01*
X83622000Y-94855447D01*
X83622323Y-94861822D01*
X83636082Y-94997277D01*
X83638636Y-95009717D01*
X83693016Y-95183244D01*
X83698025Y-95194932D01*
X83786187Y-95353979D01*
X83793438Y-95364412D01*
X83911785Y-95502491D01*
X83920976Y-95511244D01*
X84064680Y-95622711D01*
X84075440Y-95629435D01*
X84238625Y-95709732D01*
X84250519Y-95714155D01*
X84308470Y-95729251D01*
X84322564Y-95728817D01*
X84326000Y-95720636D01*
X84326000Y-95719229D01*
X84834000Y-95719229D01*
X84837973Y-95732760D01*
X84844075Y-95733637D01*
X84996136Y-95677690D01*
X85007549Y-95672123D01*
X85162108Y-95576292D01*
X85172174Y-95568540D01*
X85304303Y-95443592D01*
X85312605Y-95433974D01*
X85332083Y-95406156D01*
X85387540Y-95361827D01*
X85458159Y-95354518D01*
X85511821Y-95378328D01*
X85575678Y-95427150D01*
X85661671Y-95467249D01*
X85733631Y-95500805D01*
X85733634Y-95500806D01*
X85739808Y-95503685D01*
X85746456Y-95505171D01*
X85746459Y-95505172D01*
X85852421Y-95528857D01*
X85916543Y-95543190D01*
X85922088Y-95543500D01*
X86055244Y-95543500D01*
X86190037Y-95528857D01*
X86308190Y-95489094D01*
X86355204Y-95473272D01*
X86355206Y-95473271D01*
X86361675Y-95471094D01*
X86516905Y-95377823D01*
X86521862Y-95373135D01*
X86521865Y-95373133D01*
X86643527Y-95258082D01*
X86643529Y-95258080D01*
X86648485Y-95253393D01*
X86652317Y-95247755D01*
X86652320Y-95247751D01*
X86746442Y-95109255D01*
X86750277Y-95103612D01*
X86817530Y-94935466D01*
X86818644Y-94928738D01*
X86818645Y-94928734D01*
X86845993Y-94763539D01*
X86845993Y-94763536D01*
X86847108Y-94756802D01*
X86842850Y-94675545D01*
X86837987Y-94582766D01*
X86837630Y-94575953D01*
X86830762Y-94551016D01*
X86791352Y-94407941D01*
X86789539Y-94401359D01*
X86705078Y-94241164D01*
X86700673Y-94235951D01*
X86700670Y-94235947D01*
X86592594Y-94108057D01*
X86592590Y-94108053D01*
X86588187Y-94102843D01*
X86515829Y-94047521D01*
X86449743Y-93996994D01*
X86449739Y-93996991D01*
X86444322Y-93992850D01*
X86325317Y-93937357D01*
X86286369Y-93919195D01*
X86286366Y-93919194D01*
X86280192Y-93916315D01*
X86273544Y-93914829D01*
X86273541Y-93914828D01*
X86108494Y-93877936D01*
X86108495Y-93877936D01*
X86103457Y-93876810D01*
X86097912Y-93876500D01*
X85964756Y-93876500D01*
X85829963Y-93891143D01*
X85823499Y-93893318D01*
X85823496Y-93893319D01*
X85704189Y-93933471D01*
X85633247Y-93936241D01*
X85572068Y-93900218D01*
X85540077Y-93836837D01*
X85538000Y-93814052D01*
X85538000Y-93564553D01*
X85537677Y-93558178D01*
X85523918Y-93422723D01*
X85521364Y-93410283D01*
X85466984Y-93236756D01*
X85461975Y-93225068D01*
X85373813Y-93066021D01*
X85366562Y-93055588D01*
X85248215Y-92917509D01*
X85239024Y-92908756D01*
X85095320Y-92797289D01*
X85084560Y-92790565D01*
X84921375Y-92710268D01*
X84909481Y-92705845D01*
X84851530Y-92690749D01*
X84837436Y-92691183D01*
X84834000Y-92699364D01*
X84834000Y-95719229D01*
X84326000Y-95719229D01*
X84326000Y-94482115D01*
X84321525Y-94466876D01*
X84320135Y-94465671D01*
X84312452Y-94464000D01*
X83640115Y-94464000D01*
X83624876Y-94468475D01*
X83623671Y-94469865D01*
X83622000Y-94477548D01*
X83622000Y-94855447D01*
X81449784Y-94855447D01*
X81446732Y-94832266D01*
X81370871Y-94554964D01*
X81308160Y-94407941D01*
X81259763Y-94294476D01*
X81259761Y-94294472D01*
X81258077Y-94290524D01*
X81110439Y-94043839D01*
X81025554Y-93937885D01*
X83622000Y-93937885D01*
X83626475Y-93953124D01*
X83627865Y-93954329D01*
X83635548Y-93956000D01*
X84307885Y-93956000D01*
X84323124Y-93951525D01*
X84324329Y-93950135D01*
X84326000Y-93942452D01*
X84326000Y-92700771D01*
X84322027Y-92687240D01*
X84315925Y-92686363D01*
X84163864Y-92742310D01*
X84152451Y-92747877D01*
X83997892Y-92843708D01*
X83987826Y-92851460D01*
X83855697Y-92976408D01*
X83847395Y-92986026D01*
X83743092Y-93134987D01*
X83736892Y-93146081D01*
X83664668Y-93312980D01*
X83660829Y-93325083D01*
X83623325Y-93504600D01*
X83622085Y-93514152D01*
X83622000Y-93517384D01*
X83622000Y-93937885D01*
X81025554Y-93937885D01*
X80930687Y-93819472D01*
X80722149Y-93621577D01*
X80488683Y-93453814D01*
X80466843Y-93442250D01*
X80406467Y-93410283D01*
X80234608Y-93319288D01*
X79964627Y-93220489D01*
X79683736Y-93159245D01*
X79652685Y-93156801D01*
X79460718Y-93141693D01*
X79460709Y-93141693D01*
X79458261Y-93141500D01*
X79302729Y-93141500D01*
X79300593Y-93141646D01*
X79300582Y-93141646D01*
X79092452Y-93155835D01*
X79092446Y-93155836D01*
X79088175Y-93156127D01*
X79083980Y-93156996D01*
X79083978Y-93156996D01*
X78947417Y-93185276D01*
X78806658Y-93214426D01*
X78535657Y-93310393D01*
X78280188Y-93442250D01*
X78276687Y-93444711D01*
X78276683Y-93444713D01*
X78266594Y-93451804D01*
X78044977Y-93607559D01*
X77834378Y-93803260D01*
X77652287Y-94025732D01*
X77502073Y-94270858D01*
X77386517Y-94534102D01*
X77307756Y-94810594D01*
X77267249Y-95095216D01*
X77267227Y-95099505D01*
X77267226Y-95099512D01*
X77265765Y-95378417D01*
X77265743Y-95382703D01*
X75438500Y-95382703D01*
X75438500Y-85222703D01*
X77265743Y-85222703D01*
X77266302Y-85226947D01*
X77266302Y-85226951D01*
X77268084Y-85240488D01*
X77303268Y-85507734D01*
X77379129Y-85785036D01*
X77380813Y-85788984D01*
X77444648Y-85938641D01*
X77491923Y-86049476D01*
X77524587Y-86104053D01*
X77607346Y-86242333D01*
X77639561Y-86296161D01*
X77819313Y-86520528D01*
X78027851Y-86718423D01*
X78261317Y-86886186D01*
X78265112Y-86888195D01*
X78265113Y-86888196D01*
X78286869Y-86899715D01*
X78515392Y-87020712D01*
X78785373Y-87119511D01*
X79066264Y-87180755D01*
X79094841Y-87183004D01*
X79289282Y-87198307D01*
X79289291Y-87198307D01*
X79291739Y-87198500D01*
X79447271Y-87198500D01*
X79449407Y-87198354D01*
X79449418Y-87198354D01*
X79657548Y-87184165D01*
X79657554Y-87184164D01*
X79661825Y-87183873D01*
X79666020Y-87183004D01*
X79666022Y-87183004D01*
X79858620Y-87143119D01*
X79943342Y-87125574D01*
X80214343Y-87029607D01*
X80469812Y-86897750D01*
X80473313Y-86895289D01*
X80473317Y-86895287D01*
X80634761Y-86781822D01*
X80705023Y-86732441D01*
X80713410Y-86724647D01*
X83622000Y-86724647D01*
X83622323Y-86731022D01*
X83636082Y-86866477D01*
X83638636Y-86878917D01*
X83693016Y-87052444D01*
X83698025Y-87064132D01*
X83786187Y-87223179D01*
X83793438Y-87233612D01*
X83911785Y-87371691D01*
X83920976Y-87380444D01*
X84064680Y-87491911D01*
X84075440Y-87498635D01*
X84238625Y-87578932D01*
X84250519Y-87583355D01*
X84308470Y-87598451D01*
X84322564Y-87598017D01*
X84326000Y-87589836D01*
X84326000Y-87588429D01*
X84834000Y-87588429D01*
X84837973Y-87601960D01*
X84844075Y-87602837D01*
X84996136Y-87546890D01*
X85007549Y-87541323D01*
X85162108Y-87445492D01*
X85172174Y-87437740D01*
X85304303Y-87312792D01*
X85312605Y-87303174D01*
X85416908Y-87154213D01*
X85423108Y-87143119D01*
X85495332Y-86976220D01*
X85499171Y-86964117D01*
X85536675Y-86784600D01*
X85537915Y-86775048D01*
X85538000Y-86771816D01*
X85538000Y-86476561D01*
X85558002Y-86408440D01*
X85611658Y-86361947D01*
X85681932Y-86351843D01*
X85717250Y-86362366D01*
X85733631Y-86370005D01*
X85733634Y-86370006D01*
X85739808Y-86372885D01*
X85746456Y-86374371D01*
X85746459Y-86374372D01*
X85842686Y-86395881D01*
X85916543Y-86412390D01*
X85922088Y-86412700D01*
X86055244Y-86412700D01*
X86190037Y-86398057D01*
X86328927Y-86351315D01*
X86355204Y-86342472D01*
X86355206Y-86342471D01*
X86361675Y-86340294D01*
X86516905Y-86247023D01*
X86521862Y-86242335D01*
X86521865Y-86242333D01*
X86643527Y-86127282D01*
X86643529Y-86127280D01*
X86648485Y-86122593D01*
X86652317Y-86116955D01*
X86652320Y-86116951D01*
X86746442Y-85978455D01*
X86750277Y-85972812D01*
X86817530Y-85804666D01*
X86818644Y-85797938D01*
X86818645Y-85797934D01*
X86845993Y-85632739D01*
X86845993Y-85632736D01*
X86847108Y-85626002D01*
X86845223Y-85590019D01*
X86842203Y-85532398D01*
X90952892Y-85532398D01*
X90953249Y-85539215D01*
X90953249Y-85539219D01*
X90958151Y-85632739D01*
X90962370Y-85713247D01*
X90964181Y-85719820D01*
X90964181Y-85719823D01*
X90993207Y-85825200D01*
X91010461Y-85887841D01*
X91094922Y-86048036D01*
X91099327Y-86053249D01*
X91099330Y-86053253D01*
X91207406Y-86181143D01*
X91207410Y-86181147D01*
X91211813Y-86186357D01*
X91217237Y-86190504D01*
X91217238Y-86190505D01*
X91350257Y-86292206D01*
X91350261Y-86292209D01*
X91355678Y-86296350D01*
X91438287Y-86334871D01*
X91513631Y-86370005D01*
X91513634Y-86370006D01*
X91519808Y-86372885D01*
X91526456Y-86374371D01*
X91526459Y-86374372D01*
X91622686Y-86395881D01*
X91696543Y-86412390D01*
X91702088Y-86412700D01*
X91835244Y-86412700D01*
X91970037Y-86398057D01*
X91976501Y-86395882D01*
X91976504Y-86395881D01*
X92095811Y-86355729D01*
X92166753Y-86352959D01*
X92227932Y-86388982D01*
X92259923Y-86452363D01*
X92262000Y-86475148D01*
X92262000Y-86724647D01*
X92262323Y-86731022D01*
X92276082Y-86866477D01*
X92278636Y-86878917D01*
X92333016Y-87052444D01*
X92338025Y-87064132D01*
X92426187Y-87223179D01*
X92433438Y-87233612D01*
X92551785Y-87371691D01*
X92560976Y-87380444D01*
X92704680Y-87491911D01*
X92715440Y-87498635D01*
X92878625Y-87578932D01*
X92890519Y-87583355D01*
X92948470Y-87598451D01*
X92962564Y-87598017D01*
X92966000Y-87589836D01*
X92966000Y-87588429D01*
X93474000Y-87588429D01*
X93477973Y-87601960D01*
X93484075Y-87602837D01*
X93636136Y-87546890D01*
X93647549Y-87541323D01*
X93802108Y-87445492D01*
X93812174Y-87437740D01*
X93944303Y-87312792D01*
X93952605Y-87303174D01*
X94056908Y-87154213D01*
X94063108Y-87143119D01*
X94135332Y-86976220D01*
X94139171Y-86964117D01*
X94176675Y-86784600D01*
X94177863Y-86775447D01*
X95052000Y-86775447D01*
X95052323Y-86781822D01*
X95066082Y-86917277D01*
X95068636Y-86929717D01*
X95123016Y-87103244D01*
X95128025Y-87114932D01*
X95216187Y-87273979D01*
X95223438Y-87284412D01*
X95341785Y-87422491D01*
X95350976Y-87431244D01*
X95494680Y-87542711D01*
X95505440Y-87549435D01*
X95668625Y-87629732D01*
X95680519Y-87634155D01*
X95738470Y-87649251D01*
X95752564Y-87648817D01*
X95756000Y-87640636D01*
X95756000Y-87639229D01*
X96264000Y-87639229D01*
X96267973Y-87652760D01*
X96274075Y-87653637D01*
X96426136Y-87597690D01*
X96437549Y-87592123D01*
X96592108Y-87496292D01*
X96602174Y-87488540D01*
X96734303Y-87363592D01*
X96742605Y-87353974D01*
X96846908Y-87205013D01*
X96853108Y-87193919D01*
X96925332Y-87027020D01*
X96929171Y-87014917D01*
X96966675Y-86835400D01*
X96967915Y-86825848D01*
X96968000Y-86822616D01*
X96968000Y-86527361D01*
X96988002Y-86459240D01*
X97041658Y-86412747D01*
X97111932Y-86402643D01*
X97147250Y-86413166D01*
X97163631Y-86420805D01*
X97163634Y-86420806D01*
X97169808Y-86423685D01*
X97176456Y-86425171D01*
X97176459Y-86425172D01*
X97272686Y-86446681D01*
X97346543Y-86463190D01*
X97352088Y-86463500D01*
X97485244Y-86463500D01*
X97620037Y-86448857D01*
X97758927Y-86402115D01*
X97785204Y-86393272D01*
X97785206Y-86393271D01*
X97791675Y-86391094D01*
X97946905Y-86297823D01*
X97951862Y-86293135D01*
X97951865Y-86293133D01*
X98073527Y-86178082D01*
X98073529Y-86178080D01*
X98078485Y-86173393D01*
X98082317Y-86167755D01*
X98082320Y-86167751D01*
X98176442Y-86029255D01*
X98180277Y-86023612D01*
X98247530Y-85855466D01*
X98248644Y-85848738D01*
X98248645Y-85848734D01*
X98275993Y-85683539D01*
X98275993Y-85683536D01*
X98277108Y-85676802D01*
X98276719Y-85669366D01*
X98272203Y-85583198D01*
X102382892Y-85583198D01*
X102383249Y-85590015D01*
X102383249Y-85590019D01*
X102389708Y-85713247D01*
X102392370Y-85764047D01*
X102394181Y-85770620D01*
X102394181Y-85770623D01*
X102423207Y-85876000D01*
X102440461Y-85938641D01*
X102524922Y-86098836D01*
X102529327Y-86104049D01*
X102529330Y-86104053D01*
X102637406Y-86231943D01*
X102637410Y-86231947D01*
X102641813Y-86237157D01*
X102647237Y-86241304D01*
X102647238Y-86241305D01*
X102780257Y-86343006D01*
X102780261Y-86343009D01*
X102785678Y-86347150D01*
X102868287Y-86385671D01*
X102943631Y-86420805D01*
X102943634Y-86420806D01*
X102949808Y-86423685D01*
X102956456Y-86425171D01*
X102956459Y-86425172D01*
X103052686Y-86446681D01*
X103126543Y-86463190D01*
X103132088Y-86463500D01*
X103265244Y-86463500D01*
X103400037Y-86448857D01*
X103406501Y-86446682D01*
X103406504Y-86446681D01*
X103511110Y-86411477D01*
X103525811Y-86406529D01*
X103596753Y-86403759D01*
X103657932Y-86439782D01*
X103689923Y-86503163D01*
X103692000Y-86525948D01*
X103692000Y-86775447D01*
X103692323Y-86781822D01*
X103706082Y-86917277D01*
X103708636Y-86929717D01*
X103763016Y-87103244D01*
X103768025Y-87114932D01*
X103856187Y-87273979D01*
X103863438Y-87284412D01*
X103981785Y-87422491D01*
X103990976Y-87431244D01*
X104134680Y-87542711D01*
X104145440Y-87549435D01*
X104308625Y-87629732D01*
X104320519Y-87634155D01*
X104378470Y-87649251D01*
X104392564Y-87648817D01*
X104396000Y-87640636D01*
X104396000Y-87639229D01*
X104904000Y-87639229D01*
X104907973Y-87652760D01*
X104914075Y-87653637D01*
X105066136Y-87597690D01*
X105077549Y-87592123D01*
X105232108Y-87496292D01*
X105242174Y-87488540D01*
X105374303Y-87363592D01*
X105382605Y-87353974D01*
X105486908Y-87205013D01*
X105493108Y-87193919D01*
X105565332Y-87027020D01*
X105569171Y-87014917D01*
X105606675Y-86835400D01*
X105607915Y-86825848D01*
X105608000Y-86822616D01*
X105608000Y-86775447D01*
X106482000Y-86775447D01*
X106482323Y-86781822D01*
X106496082Y-86917277D01*
X106498636Y-86929717D01*
X106553016Y-87103244D01*
X106558025Y-87114932D01*
X106646187Y-87273979D01*
X106653438Y-87284412D01*
X106771785Y-87422491D01*
X106780976Y-87431244D01*
X106924680Y-87542711D01*
X106935440Y-87549435D01*
X107098625Y-87629732D01*
X107110519Y-87634155D01*
X107168470Y-87649251D01*
X107182564Y-87648817D01*
X107186000Y-87640636D01*
X107186000Y-87639229D01*
X107694000Y-87639229D01*
X107697973Y-87652760D01*
X107704075Y-87653637D01*
X107856136Y-87597690D01*
X107867549Y-87592123D01*
X108022108Y-87496292D01*
X108032174Y-87488540D01*
X108164303Y-87363592D01*
X108172605Y-87353974D01*
X108276908Y-87205013D01*
X108283108Y-87193919D01*
X108355332Y-87027020D01*
X108359171Y-87014917D01*
X108396675Y-86835400D01*
X108397915Y-86825848D01*
X108398000Y-86822616D01*
X108398000Y-86527361D01*
X108418002Y-86459240D01*
X108471658Y-86412747D01*
X108541932Y-86402643D01*
X108577250Y-86413166D01*
X108593631Y-86420805D01*
X108593634Y-86420806D01*
X108599808Y-86423685D01*
X108606456Y-86425171D01*
X108606459Y-86425172D01*
X108702686Y-86446681D01*
X108776543Y-86463190D01*
X108782088Y-86463500D01*
X108915244Y-86463500D01*
X109050037Y-86448857D01*
X109188927Y-86402115D01*
X109215204Y-86393272D01*
X109215206Y-86393271D01*
X109221675Y-86391094D01*
X109376905Y-86297823D01*
X109381862Y-86293135D01*
X109381865Y-86293133D01*
X109503527Y-86178082D01*
X109503529Y-86178080D01*
X109508485Y-86173393D01*
X109512317Y-86167755D01*
X109512320Y-86167751D01*
X109606442Y-86029255D01*
X109610277Y-86023612D01*
X109677530Y-85855466D01*
X109678644Y-85848738D01*
X109678645Y-85848734D01*
X109705993Y-85683539D01*
X109705993Y-85683536D01*
X109707108Y-85676802D01*
X109706719Y-85669366D01*
X109697987Y-85502766D01*
X109697630Y-85495953D01*
X109683638Y-85445153D01*
X109651352Y-85327941D01*
X109649539Y-85321359D01*
X109565078Y-85161164D01*
X109560673Y-85155951D01*
X109560670Y-85155947D01*
X109452594Y-85028057D01*
X109452590Y-85028053D01*
X109448187Y-85022843D01*
X109442762Y-85018695D01*
X109309743Y-84916994D01*
X109309739Y-84916991D01*
X109304322Y-84912850D01*
X109195381Y-84862050D01*
X109146369Y-84839195D01*
X109146366Y-84839194D01*
X109140192Y-84836315D01*
X109133544Y-84834829D01*
X109133541Y-84834828D01*
X108968494Y-84797936D01*
X108968495Y-84797936D01*
X108963457Y-84796810D01*
X108957912Y-84796500D01*
X108824756Y-84796500D01*
X108689963Y-84811143D01*
X108611619Y-84837509D01*
X108524796Y-84866728D01*
X108524794Y-84866729D01*
X108518325Y-84868906D01*
X108512470Y-84872424D01*
X108368946Y-84958661D01*
X108368944Y-84958663D01*
X108363095Y-84962177D01*
X108362553Y-84961274D01*
X108302118Y-84984276D01*
X108232645Y-84969648D01*
X108196623Y-84940657D01*
X108108215Y-84837510D01*
X108099024Y-84828756D01*
X107955320Y-84717289D01*
X107944560Y-84710565D01*
X107781375Y-84630268D01*
X107769481Y-84625845D01*
X107711530Y-84610749D01*
X107697436Y-84611183D01*
X107694000Y-84619364D01*
X107694000Y-87639229D01*
X107186000Y-87639229D01*
X107186000Y-86402115D01*
X107181525Y-86386876D01*
X107180135Y-86385671D01*
X107172452Y-86384000D01*
X106500115Y-86384000D01*
X106484876Y-86388475D01*
X106483671Y-86389865D01*
X106482000Y-86397548D01*
X106482000Y-86775447D01*
X105608000Y-86775447D01*
X105608000Y-86402115D01*
X105603525Y-86386876D01*
X105602135Y-86385671D01*
X105594452Y-86384000D01*
X104922115Y-86384000D01*
X104906876Y-86388475D01*
X104905671Y-86389865D01*
X104904000Y-86397548D01*
X104904000Y-87639229D01*
X104396000Y-87639229D01*
X104396000Y-85857885D01*
X104904000Y-85857885D01*
X104908475Y-85873124D01*
X104909865Y-85874329D01*
X104917548Y-85876000D01*
X105589885Y-85876000D01*
X105605124Y-85871525D01*
X105606329Y-85870135D01*
X105608000Y-85862452D01*
X105608000Y-85857885D01*
X106482000Y-85857885D01*
X106486475Y-85873124D01*
X106487865Y-85874329D01*
X106495548Y-85876000D01*
X107167885Y-85876000D01*
X107183124Y-85871525D01*
X107184329Y-85870135D01*
X107186000Y-85862452D01*
X107186000Y-84620771D01*
X107182027Y-84607240D01*
X107175925Y-84606363D01*
X107023864Y-84662310D01*
X107012451Y-84667877D01*
X106857892Y-84763708D01*
X106847826Y-84771460D01*
X106715697Y-84896408D01*
X106707395Y-84906026D01*
X106603092Y-85054987D01*
X106596892Y-85066081D01*
X106524668Y-85232980D01*
X106520829Y-85245083D01*
X106483325Y-85424600D01*
X106482085Y-85434152D01*
X106482000Y-85437384D01*
X106482000Y-85857885D01*
X105608000Y-85857885D01*
X105608000Y-85484553D01*
X105607677Y-85478178D01*
X105593918Y-85342723D01*
X105591364Y-85330283D01*
X105536984Y-85156756D01*
X105531975Y-85145068D01*
X105443813Y-84986021D01*
X105436562Y-84975588D01*
X105318215Y-84837509D01*
X105309024Y-84828756D01*
X105165320Y-84717289D01*
X105154560Y-84710565D01*
X104991375Y-84630268D01*
X104979481Y-84625845D01*
X104921530Y-84610749D01*
X104907436Y-84611183D01*
X104904000Y-84619364D01*
X104904000Y-85857885D01*
X104396000Y-85857885D01*
X104396000Y-84620771D01*
X104392027Y-84607240D01*
X104385925Y-84606363D01*
X104233864Y-84662310D01*
X104222451Y-84667877D01*
X104067892Y-84763708D01*
X104057826Y-84771460D01*
X103925697Y-84896408D01*
X103917395Y-84906026D01*
X103897917Y-84933844D01*
X103842460Y-84978173D01*
X103771841Y-84985482D01*
X103718179Y-84961672D01*
X103654322Y-84912850D01*
X103545381Y-84862050D01*
X103496369Y-84839195D01*
X103496366Y-84839194D01*
X103490192Y-84836315D01*
X103483544Y-84834829D01*
X103483541Y-84834828D01*
X103318494Y-84797936D01*
X103318495Y-84797936D01*
X103313457Y-84796810D01*
X103307912Y-84796500D01*
X103174756Y-84796500D01*
X103039963Y-84811143D01*
X102961619Y-84837509D01*
X102874796Y-84866728D01*
X102874794Y-84866729D01*
X102868325Y-84868906D01*
X102713095Y-84962177D01*
X102708138Y-84966865D01*
X102708135Y-84966867D01*
X102603220Y-85066081D01*
X102581515Y-85086607D01*
X102577683Y-85092245D01*
X102577680Y-85092249D01*
X102516563Y-85182180D01*
X102479723Y-85236388D01*
X102412470Y-85404534D01*
X102411356Y-85411262D01*
X102411355Y-85411266D01*
X102384007Y-85576461D01*
X102382892Y-85583198D01*
X98272203Y-85583198D01*
X98267987Y-85502766D01*
X98267630Y-85495953D01*
X98253638Y-85445153D01*
X98221352Y-85327941D01*
X98219539Y-85321359D01*
X98135078Y-85161164D01*
X98130673Y-85155951D01*
X98130670Y-85155947D01*
X98022594Y-85028057D01*
X98022590Y-85028053D01*
X98018187Y-85022843D01*
X98012762Y-85018695D01*
X97879743Y-84916994D01*
X97879739Y-84916991D01*
X97874322Y-84912850D01*
X97765381Y-84862050D01*
X97716369Y-84839195D01*
X97716366Y-84839194D01*
X97710192Y-84836315D01*
X97703544Y-84834829D01*
X97703541Y-84834828D01*
X97538494Y-84797936D01*
X97538495Y-84797936D01*
X97533457Y-84796810D01*
X97527912Y-84796500D01*
X97394756Y-84796500D01*
X97259963Y-84811143D01*
X97181619Y-84837509D01*
X97094796Y-84866728D01*
X97094794Y-84866729D01*
X97088325Y-84868906D01*
X97082470Y-84872424D01*
X96938946Y-84958661D01*
X96938944Y-84958663D01*
X96933095Y-84962177D01*
X96932553Y-84961274D01*
X96872118Y-84984276D01*
X96802645Y-84969648D01*
X96766623Y-84940657D01*
X96678215Y-84837510D01*
X96669024Y-84828756D01*
X96525320Y-84717289D01*
X96514560Y-84710565D01*
X96351375Y-84630268D01*
X96339481Y-84625845D01*
X96281530Y-84610749D01*
X96267436Y-84611183D01*
X96264000Y-84619364D01*
X96264000Y-87639229D01*
X95756000Y-87639229D01*
X95756000Y-86402115D01*
X95751525Y-86386876D01*
X95750135Y-86385671D01*
X95742452Y-86384000D01*
X95070115Y-86384000D01*
X95054876Y-86388475D01*
X95053671Y-86389865D01*
X95052000Y-86397548D01*
X95052000Y-86775447D01*
X94177863Y-86775447D01*
X94177915Y-86775048D01*
X94178000Y-86771816D01*
X94178000Y-86351315D01*
X94173525Y-86336076D01*
X94172135Y-86334871D01*
X94164452Y-86333200D01*
X93492115Y-86333200D01*
X93476876Y-86337675D01*
X93475671Y-86339065D01*
X93474000Y-86346748D01*
X93474000Y-87588429D01*
X92966000Y-87588429D01*
X92966000Y-85857885D01*
X95052000Y-85857885D01*
X95056475Y-85873124D01*
X95057865Y-85874329D01*
X95065548Y-85876000D01*
X95737885Y-85876000D01*
X95753124Y-85871525D01*
X95754329Y-85870135D01*
X95756000Y-85862452D01*
X95756000Y-84620771D01*
X95752027Y-84607240D01*
X95745925Y-84606363D01*
X95593864Y-84662310D01*
X95582451Y-84667877D01*
X95427892Y-84763708D01*
X95417826Y-84771460D01*
X95285697Y-84896408D01*
X95277395Y-84906026D01*
X95173092Y-85054987D01*
X95166892Y-85066081D01*
X95094668Y-85232980D01*
X95090829Y-85245083D01*
X95053325Y-85424600D01*
X95052085Y-85434152D01*
X95052000Y-85437384D01*
X95052000Y-85857885D01*
X92966000Y-85857885D01*
X92966000Y-85807085D01*
X93474000Y-85807085D01*
X93478475Y-85822324D01*
X93479865Y-85823529D01*
X93487548Y-85825200D01*
X94159885Y-85825200D01*
X94175124Y-85820725D01*
X94176329Y-85819335D01*
X94178000Y-85811652D01*
X94178000Y-85433753D01*
X94177677Y-85427378D01*
X94163918Y-85291923D01*
X94161364Y-85279483D01*
X94106984Y-85105956D01*
X94101975Y-85094268D01*
X94013813Y-84935221D01*
X94006562Y-84924788D01*
X93888215Y-84786709D01*
X93879024Y-84777956D01*
X93735320Y-84666489D01*
X93724560Y-84659765D01*
X93561375Y-84579468D01*
X93549481Y-84575045D01*
X93491530Y-84559949D01*
X93477436Y-84560383D01*
X93474000Y-84568564D01*
X93474000Y-85807085D01*
X92966000Y-85807085D01*
X92966000Y-84569971D01*
X92962027Y-84556440D01*
X92955925Y-84555563D01*
X92803864Y-84611510D01*
X92792451Y-84617077D01*
X92637892Y-84712908D01*
X92627826Y-84720660D01*
X92495697Y-84845608D01*
X92487395Y-84855226D01*
X92467917Y-84883044D01*
X92412460Y-84927373D01*
X92341841Y-84934682D01*
X92288179Y-84910872D01*
X92224322Y-84862050D01*
X92119186Y-84813025D01*
X92066369Y-84788395D01*
X92066366Y-84788394D01*
X92060192Y-84785515D01*
X92053544Y-84784029D01*
X92053541Y-84784028D01*
X91888494Y-84747136D01*
X91888495Y-84747136D01*
X91883457Y-84746010D01*
X91877912Y-84745700D01*
X91744756Y-84745700D01*
X91609963Y-84760343D01*
X91491810Y-84800106D01*
X91444796Y-84815928D01*
X91444794Y-84815929D01*
X91438325Y-84818106D01*
X91283095Y-84911377D01*
X91278138Y-84916065D01*
X91278135Y-84916067D01*
X91159710Y-85028057D01*
X91151515Y-85035807D01*
X91147683Y-85041445D01*
X91147680Y-85041449D01*
X91069867Y-85155947D01*
X91049723Y-85185588D01*
X90982470Y-85353734D01*
X90981356Y-85360462D01*
X90981355Y-85360466D01*
X90954090Y-85525159D01*
X90952892Y-85532398D01*
X86842203Y-85532398D01*
X86837987Y-85451966D01*
X86837630Y-85445153D01*
X86821498Y-85386584D01*
X86791352Y-85277141D01*
X86789539Y-85270559D01*
X86705078Y-85110364D01*
X86700673Y-85105151D01*
X86700670Y-85105147D01*
X86592594Y-84977257D01*
X86592590Y-84977253D01*
X86588187Y-84972043D01*
X86574102Y-84961274D01*
X86449743Y-84866194D01*
X86449739Y-84866191D01*
X86444322Y-84862050D01*
X86339186Y-84813025D01*
X86286369Y-84788395D01*
X86286366Y-84788394D01*
X86280192Y-84785515D01*
X86273544Y-84784029D01*
X86273541Y-84784028D01*
X86108494Y-84747136D01*
X86108495Y-84747136D01*
X86103457Y-84746010D01*
X86097912Y-84745700D01*
X85964756Y-84745700D01*
X85829963Y-84760343D01*
X85711810Y-84800106D01*
X85664796Y-84815928D01*
X85664794Y-84815929D01*
X85658325Y-84818106D01*
X85652470Y-84821624D01*
X85508946Y-84907861D01*
X85508944Y-84907863D01*
X85503095Y-84911377D01*
X85502553Y-84910474D01*
X85442118Y-84933476D01*
X85372645Y-84918848D01*
X85336623Y-84889857D01*
X85248215Y-84786710D01*
X85239024Y-84777956D01*
X85095320Y-84666489D01*
X85084560Y-84659765D01*
X84921375Y-84579468D01*
X84909481Y-84575045D01*
X84851530Y-84559949D01*
X84837436Y-84560383D01*
X84834000Y-84568564D01*
X84834000Y-87588429D01*
X84326000Y-87588429D01*
X84326000Y-86351315D01*
X84321525Y-86336076D01*
X84320135Y-86334871D01*
X84312452Y-86333200D01*
X83640115Y-86333200D01*
X83624876Y-86337675D01*
X83623671Y-86339065D01*
X83622000Y-86346748D01*
X83622000Y-86724647D01*
X80713410Y-86724647D01*
X80915622Y-86536740D01*
X81097713Y-86314268D01*
X81247927Y-86069142D01*
X81356273Y-85822324D01*
X81361757Y-85809830D01*
X81362962Y-85807085D01*
X83622000Y-85807085D01*
X83626475Y-85822324D01*
X83627865Y-85823529D01*
X83635548Y-85825200D01*
X84307885Y-85825200D01*
X84323124Y-85820725D01*
X84324329Y-85819335D01*
X84326000Y-85811652D01*
X84326000Y-84569971D01*
X84322027Y-84556440D01*
X84315925Y-84555563D01*
X84163864Y-84611510D01*
X84152451Y-84617077D01*
X83997892Y-84712908D01*
X83987826Y-84720660D01*
X83855697Y-84845608D01*
X83847395Y-84855226D01*
X83743092Y-85004187D01*
X83736892Y-85015281D01*
X83664668Y-85182180D01*
X83660829Y-85194283D01*
X83623325Y-85373800D01*
X83622085Y-85383352D01*
X83622000Y-85386584D01*
X83622000Y-85807085D01*
X81362962Y-85807085D01*
X81363483Y-85805898D01*
X81442244Y-85529406D01*
X81482751Y-85244784D01*
X81482845Y-85226951D01*
X81484235Y-84961583D01*
X81484235Y-84961576D01*
X81484257Y-84957297D01*
X81482067Y-84940657D01*
X81463136Y-84796869D01*
X81446732Y-84672266D01*
X81370871Y-84394964D01*
X81339851Y-84322239D01*
X81259763Y-84134476D01*
X81259761Y-84134472D01*
X81258077Y-84130524D01*
X81154667Y-83957738D01*
X81112643Y-83887521D01*
X81112640Y-83887517D01*
X81110439Y-83883839D01*
X80951459Y-83685400D01*
X110104000Y-83685400D01*
X110104337Y-83688646D01*
X110104337Y-83688650D01*
X110114118Y-83782914D01*
X110114974Y-83791166D01*
X110170950Y-83958946D01*
X110264022Y-84109348D01*
X110269204Y-84114521D01*
X110285235Y-84130524D01*
X110389197Y-84234305D01*
X110395429Y-84238147D01*
X110395431Y-84238148D01*
X110467489Y-84282566D01*
X110514982Y-84335338D01*
X110526404Y-84405410D01*
X110507868Y-84452348D01*
X110509960Y-84453556D01*
X110421737Y-84606363D01*
X110414473Y-84618944D01*
X110355458Y-84800572D01*
X110354768Y-84807133D01*
X110354768Y-84807135D01*
X110341306Y-84935221D01*
X110335496Y-84990500D01*
X110336186Y-84997065D01*
X110351742Y-85145068D01*
X110355458Y-85180428D01*
X110414473Y-85362056D01*
X110509960Y-85527444D01*
X110514378Y-85532351D01*
X110514379Y-85532352D01*
X110515443Y-85533534D01*
X110637747Y-85669366D01*
X110792248Y-85781618D01*
X110798276Y-85784302D01*
X110798278Y-85784303D01*
X110958114Y-85855466D01*
X110966712Y-85859294D01*
X111060112Y-85879147D01*
X111147056Y-85897628D01*
X111147061Y-85897628D01*
X111153513Y-85899000D01*
X111344487Y-85899000D01*
X111350939Y-85897628D01*
X111350944Y-85897628D01*
X111437888Y-85879147D01*
X111531288Y-85859294D01*
X111539886Y-85855466D01*
X111699722Y-85784303D01*
X111699724Y-85784302D01*
X111705752Y-85781618D01*
X111860253Y-85669366D01*
X111937839Y-85583198D01*
X113812892Y-85583198D01*
X113813249Y-85590015D01*
X113813249Y-85590019D01*
X113819708Y-85713247D01*
X113822370Y-85764047D01*
X113824181Y-85770620D01*
X113824181Y-85770623D01*
X113853207Y-85876000D01*
X113870461Y-85938641D01*
X113954922Y-86098836D01*
X113959327Y-86104049D01*
X113959330Y-86104053D01*
X114067406Y-86231943D01*
X114067410Y-86231947D01*
X114071813Y-86237157D01*
X114077237Y-86241304D01*
X114077238Y-86241305D01*
X114210257Y-86343006D01*
X114210261Y-86343009D01*
X114215678Y-86347150D01*
X114298287Y-86385671D01*
X114373631Y-86420805D01*
X114373634Y-86420806D01*
X114379808Y-86423685D01*
X114386456Y-86425171D01*
X114386459Y-86425172D01*
X114482686Y-86446681D01*
X114556543Y-86463190D01*
X114562088Y-86463500D01*
X114695244Y-86463500D01*
X114830037Y-86448857D01*
X114836501Y-86446682D01*
X114836504Y-86446681D01*
X114941110Y-86411477D01*
X114955811Y-86406529D01*
X115026753Y-86403759D01*
X115087932Y-86439782D01*
X115119923Y-86503163D01*
X115122000Y-86525948D01*
X115122000Y-86775447D01*
X115122323Y-86781822D01*
X115136082Y-86917277D01*
X115138636Y-86929717D01*
X115193016Y-87103244D01*
X115198025Y-87114932D01*
X115286187Y-87273979D01*
X115293438Y-87284412D01*
X115411785Y-87422491D01*
X115420976Y-87431244D01*
X115564680Y-87542711D01*
X115575440Y-87549435D01*
X115738625Y-87629732D01*
X115750519Y-87634155D01*
X115808470Y-87649251D01*
X115822564Y-87648817D01*
X115826000Y-87640636D01*
X115826000Y-87639229D01*
X116334000Y-87639229D01*
X116337973Y-87652760D01*
X116344075Y-87653637D01*
X116496136Y-87597690D01*
X116507549Y-87592123D01*
X116662108Y-87496292D01*
X116672174Y-87488540D01*
X116804303Y-87363592D01*
X116812605Y-87353974D01*
X116916908Y-87205013D01*
X116923108Y-87193919D01*
X116995332Y-87027020D01*
X116999171Y-87014917D01*
X117036675Y-86835400D01*
X117037915Y-86825848D01*
X117038000Y-86822616D01*
X117038000Y-86402115D01*
X117033525Y-86386876D01*
X117032135Y-86385671D01*
X117024452Y-86384000D01*
X116352115Y-86384000D01*
X116336876Y-86388475D01*
X116335671Y-86389865D01*
X116334000Y-86397548D01*
X116334000Y-87639229D01*
X115826000Y-87639229D01*
X115826000Y-85857885D01*
X116334000Y-85857885D01*
X116338475Y-85873124D01*
X116339865Y-85874329D01*
X116347548Y-85876000D01*
X117019885Y-85876000D01*
X117035124Y-85871525D01*
X117036329Y-85870135D01*
X117038000Y-85862452D01*
X117038000Y-85484553D01*
X117037677Y-85478178D01*
X117023918Y-85342723D01*
X117021364Y-85330283D01*
X116987651Y-85222703D01*
X118540743Y-85222703D01*
X118541302Y-85226947D01*
X118541302Y-85226951D01*
X118543084Y-85240488D01*
X118578268Y-85507734D01*
X118654129Y-85785036D01*
X118655813Y-85788984D01*
X118719648Y-85938641D01*
X118766923Y-86049476D01*
X118799587Y-86104053D01*
X118882346Y-86242333D01*
X118914561Y-86296161D01*
X119094313Y-86520528D01*
X119302851Y-86718423D01*
X119536317Y-86886186D01*
X119540112Y-86888195D01*
X119540113Y-86888196D01*
X119561869Y-86899715D01*
X119790392Y-87020712D01*
X120060373Y-87119511D01*
X120341264Y-87180755D01*
X120369841Y-87183004D01*
X120564282Y-87198307D01*
X120564291Y-87198307D01*
X120566739Y-87198500D01*
X120722271Y-87198500D01*
X120724407Y-87198354D01*
X120724418Y-87198354D01*
X120932548Y-87184165D01*
X120932554Y-87184164D01*
X120936825Y-87183873D01*
X120941020Y-87183004D01*
X120941022Y-87183004D01*
X121133620Y-87143119D01*
X121218342Y-87125574D01*
X121489343Y-87029607D01*
X121744812Y-86897750D01*
X121748313Y-86895289D01*
X121748317Y-86895287D01*
X121909761Y-86781822D01*
X121980023Y-86732441D01*
X122190622Y-86536740D01*
X122372713Y-86314268D01*
X122522927Y-86069142D01*
X122631273Y-85822324D01*
X122636757Y-85809830D01*
X122638483Y-85805898D01*
X122717244Y-85529406D01*
X122757751Y-85244784D01*
X122757845Y-85226951D01*
X122759235Y-84961583D01*
X122759235Y-84961576D01*
X122759257Y-84957297D01*
X122757067Y-84940657D01*
X122738136Y-84796869D01*
X122721732Y-84672266D01*
X122645871Y-84394964D01*
X122614851Y-84322239D01*
X122534763Y-84134476D01*
X122534761Y-84134472D01*
X122533077Y-84130524D01*
X122429667Y-83957738D01*
X122387643Y-83887521D01*
X122387640Y-83887517D01*
X122385439Y-83883839D01*
X122205687Y-83659472D01*
X121997149Y-83461577D01*
X121763683Y-83293814D01*
X121741843Y-83282250D01*
X121629136Y-83222575D01*
X121509608Y-83159288D01*
X121239627Y-83060489D01*
X120958736Y-82999245D01*
X120927685Y-82996801D01*
X120735718Y-82981693D01*
X120735709Y-82981693D01*
X120733261Y-82981500D01*
X120577729Y-82981500D01*
X120575593Y-82981646D01*
X120575582Y-82981646D01*
X120367452Y-82995835D01*
X120367446Y-82995836D01*
X120363175Y-82996127D01*
X120358980Y-82996996D01*
X120358978Y-82996996D01*
X120222417Y-83025276D01*
X120081658Y-83054426D01*
X119810657Y-83150393D01*
X119806848Y-83152359D01*
X119670807Y-83222575D01*
X119555188Y-83282250D01*
X119551687Y-83284711D01*
X119551683Y-83284713D01*
X119541594Y-83291804D01*
X119319977Y-83447559D01*
X119109378Y-83643260D01*
X118927287Y-83865732D01*
X118777073Y-84110858D01*
X118775347Y-84114791D01*
X118775346Y-84114792D01*
X118681332Y-84328963D01*
X118661517Y-84374102D01*
X118660342Y-84378229D01*
X118660341Y-84378230D01*
X118639228Y-84452348D01*
X118582756Y-84650594D01*
X118542249Y-84935216D01*
X118542227Y-84939505D01*
X118542226Y-84939512D01*
X118540765Y-85218417D01*
X118540743Y-85222703D01*
X116987651Y-85222703D01*
X116966984Y-85156756D01*
X116961975Y-85145068D01*
X116873813Y-84986021D01*
X116866562Y-84975588D01*
X116748215Y-84837509D01*
X116739024Y-84828756D01*
X116595320Y-84717289D01*
X116584560Y-84710565D01*
X116421375Y-84630268D01*
X116409481Y-84625845D01*
X116351530Y-84610749D01*
X116337436Y-84611183D01*
X116334000Y-84619364D01*
X116334000Y-85857885D01*
X115826000Y-85857885D01*
X115826000Y-84620771D01*
X115822027Y-84607240D01*
X115815925Y-84606363D01*
X115663864Y-84662310D01*
X115652451Y-84667877D01*
X115497892Y-84763708D01*
X115487826Y-84771460D01*
X115355697Y-84896408D01*
X115347395Y-84906026D01*
X115327917Y-84933844D01*
X115272460Y-84978173D01*
X115201841Y-84985482D01*
X115148179Y-84961672D01*
X115084322Y-84912850D01*
X114975381Y-84862050D01*
X114926369Y-84839195D01*
X114926366Y-84839194D01*
X114920192Y-84836315D01*
X114913544Y-84834829D01*
X114913541Y-84834828D01*
X114748494Y-84797936D01*
X114748495Y-84797936D01*
X114743457Y-84796810D01*
X114737912Y-84796500D01*
X114604756Y-84796500D01*
X114469963Y-84811143D01*
X114391619Y-84837509D01*
X114304796Y-84866728D01*
X114304794Y-84866729D01*
X114298325Y-84868906D01*
X114143095Y-84962177D01*
X114138138Y-84966865D01*
X114138135Y-84966867D01*
X114033220Y-85066081D01*
X114011515Y-85086607D01*
X114007683Y-85092245D01*
X114007680Y-85092249D01*
X113946563Y-85182180D01*
X113909723Y-85236388D01*
X113842470Y-85404534D01*
X113841356Y-85411262D01*
X113841355Y-85411266D01*
X113814007Y-85576461D01*
X113812892Y-85583198D01*
X111937839Y-85583198D01*
X111982557Y-85533534D01*
X111983621Y-85532352D01*
X111983622Y-85532351D01*
X111988040Y-85527444D01*
X112083527Y-85362056D01*
X112142542Y-85180428D01*
X112146259Y-85145068D01*
X112161814Y-84997065D01*
X112162504Y-84990500D01*
X112156694Y-84935221D01*
X112143232Y-84807135D01*
X112143232Y-84807133D01*
X112142542Y-84800572D01*
X112083527Y-84618944D01*
X112076264Y-84606363D01*
X111991341Y-84459274D01*
X111988040Y-84453556D01*
X111914863Y-84372285D01*
X111884147Y-84308279D01*
X111882500Y-84287976D01*
X111882500Y-84264917D01*
X111902502Y-84196796D01*
X111919327Y-84175899D01*
X111948638Y-84146537D01*
X112010921Y-84112458D01*
X112081741Y-84117461D01*
X112126829Y-84146382D01*
X112209329Y-84228739D01*
X112220740Y-84237751D01*
X112358743Y-84322816D01*
X112371924Y-84328963D01*
X112526210Y-84380138D01*
X112539586Y-84383005D01*
X112633938Y-84392672D01*
X112640354Y-84393000D01*
X112677885Y-84393000D01*
X112693124Y-84388525D01*
X112694329Y-84387135D01*
X112696000Y-84379452D01*
X112696000Y-84374884D01*
X113204000Y-84374884D01*
X113208475Y-84390123D01*
X113209865Y-84391328D01*
X113217548Y-84392999D01*
X113259595Y-84392999D01*
X113266114Y-84392662D01*
X113361706Y-84382743D01*
X113375100Y-84379851D01*
X113529284Y-84328412D01*
X113542462Y-84322239D01*
X113680307Y-84236937D01*
X113691708Y-84227901D01*
X113806239Y-84113171D01*
X113815251Y-84101760D01*
X113900316Y-83963757D01*
X113906463Y-83950576D01*
X113957638Y-83796290D01*
X113960505Y-83782914D01*
X113970172Y-83688562D01*
X113970500Y-83682146D01*
X113970500Y-83457115D01*
X113966025Y-83441876D01*
X113964635Y-83440671D01*
X113956952Y-83439000D01*
X113222115Y-83439000D01*
X113206876Y-83443475D01*
X113205671Y-83444865D01*
X113204000Y-83452548D01*
X113204000Y-84374884D01*
X112696000Y-84374884D01*
X112696000Y-82912885D01*
X113204000Y-82912885D01*
X113208475Y-82928124D01*
X113209865Y-82929329D01*
X113217548Y-82931000D01*
X113952384Y-82931000D01*
X113967623Y-82926525D01*
X113968828Y-82925135D01*
X113970499Y-82917452D01*
X113970499Y-82687905D01*
X113970162Y-82681386D01*
X113960243Y-82585794D01*
X113957351Y-82572400D01*
X113905912Y-82418216D01*
X113899739Y-82405038D01*
X113832670Y-82296657D01*
X115072000Y-82296657D01*
X115072301Y-82302805D01*
X115085812Y-82440603D01*
X115088195Y-82452638D01*
X115141767Y-82630076D01*
X115146441Y-82641416D01*
X115233460Y-82805077D01*
X115240249Y-82815294D01*
X115357397Y-82958933D01*
X115366041Y-82967637D01*
X115508856Y-83085784D01*
X115519027Y-83092644D01*
X115682076Y-83180804D01*
X115693381Y-83185556D01*
X115808692Y-83221250D01*
X115822795Y-83221456D01*
X115826000Y-83214701D01*
X115826000Y-83207924D01*
X116334000Y-83207924D01*
X116337973Y-83221455D01*
X116345768Y-83222575D01*
X116453521Y-83190862D01*
X116464889Y-83186269D01*
X116629154Y-83100393D01*
X116639415Y-83093679D01*
X116783873Y-82977532D01*
X116792632Y-82968954D01*
X116911778Y-82826961D01*
X116918708Y-82816841D01*
X117008002Y-82654415D01*
X117012834Y-82643142D01*
X117068880Y-82466462D01*
X117071430Y-82454468D01*
X117087607Y-82310239D01*
X117088000Y-82303215D01*
X117088000Y-82222115D01*
X117083525Y-82206876D01*
X117082135Y-82205671D01*
X117074452Y-82204000D01*
X116352115Y-82204000D01*
X116336876Y-82208475D01*
X116335671Y-82209865D01*
X116334000Y-82217548D01*
X116334000Y-83207924D01*
X115826000Y-83207924D01*
X115826000Y-82222115D01*
X115821525Y-82206876D01*
X115820135Y-82205671D01*
X115812452Y-82204000D01*
X115090115Y-82204000D01*
X115074876Y-82208475D01*
X115073671Y-82209865D01*
X115072000Y-82217548D01*
X115072000Y-82296657D01*
X113832670Y-82296657D01*
X113814437Y-82267193D01*
X113805401Y-82255792D01*
X113690671Y-82141261D01*
X113679260Y-82132249D01*
X113541257Y-82047184D01*
X113528076Y-82041037D01*
X113373790Y-81989862D01*
X113360414Y-81986995D01*
X113266062Y-81977328D01*
X113259645Y-81977000D01*
X113222115Y-81977000D01*
X113206876Y-81981475D01*
X113205671Y-81982865D01*
X113204000Y-81990548D01*
X113204000Y-82912885D01*
X112696000Y-82912885D01*
X112696000Y-81995116D01*
X112691525Y-81979877D01*
X112690135Y-81978672D01*
X112682452Y-81977001D01*
X112640405Y-81977001D01*
X112633886Y-81977338D01*
X112538294Y-81987257D01*
X112524900Y-81990149D01*
X112370716Y-82041588D01*
X112357538Y-82047761D01*
X112219693Y-82133063D01*
X112208292Y-82142099D01*
X112127070Y-82223462D01*
X112064787Y-82257541D01*
X111993967Y-82252538D01*
X111948880Y-82223617D01*
X111865988Y-82140870D01*
X111865983Y-82140866D01*
X111860803Y-82135695D01*
X111854572Y-82131854D01*
X111716468Y-82046725D01*
X111716466Y-82046724D01*
X111710238Y-82042885D01*
X111630495Y-82016436D01*
X111548889Y-81989368D01*
X111548887Y-81989368D01*
X111542361Y-81987203D01*
X111535525Y-81986503D01*
X111535522Y-81986502D01*
X111492469Y-81982091D01*
X111437900Y-81976500D01*
X110812100Y-81976500D01*
X110808854Y-81976837D01*
X110808850Y-81976837D01*
X110713192Y-81986762D01*
X110713188Y-81986763D01*
X110706334Y-81987474D01*
X110699798Y-81989655D01*
X110699796Y-81989655D01*
X110683428Y-81995116D01*
X110538554Y-82043450D01*
X110388152Y-82136522D01*
X110263195Y-82261697D01*
X110259355Y-82267927D01*
X110259354Y-82267928D01*
X110237856Y-82302805D01*
X110170385Y-82412262D01*
X110114703Y-82580139D01*
X110114003Y-82586975D01*
X110114002Y-82586978D01*
X110109591Y-82630031D01*
X110104000Y-82684600D01*
X110104000Y-83685400D01*
X80951459Y-83685400D01*
X80930687Y-83659472D01*
X80722149Y-83461577D01*
X80488683Y-83293814D01*
X80466843Y-83282250D01*
X80354136Y-83222575D01*
X80234608Y-83159288D01*
X79964627Y-83060489D01*
X79683736Y-82999245D01*
X79652685Y-82996801D01*
X79460718Y-82981693D01*
X79460709Y-82981693D01*
X79458261Y-82981500D01*
X79302729Y-82981500D01*
X79300593Y-82981646D01*
X79300582Y-82981646D01*
X79092452Y-82995835D01*
X79092446Y-82995836D01*
X79088175Y-82996127D01*
X79083980Y-82996996D01*
X79083978Y-82996996D01*
X78947417Y-83025276D01*
X78806658Y-83054426D01*
X78535657Y-83150393D01*
X78531848Y-83152359D01*
X78395807Y-83222575D01*
X78280188Y-83282250D01*
X78276687Y-83284711D01*
X78276683Y-83284713D01*
X78266594Y-83291804D01*
X78044977Y-83447559D01*
X77834378Y-83643260D01*
X77652287Y-83865732D01*
X77502073Y-84110858D01*
X77500347Y-84114791D01*
X77500346Y-84114792D01*
X77406332Y-84328963D01*
X77386517Y-84374102D01*
X77385342Y-84378229D01*
X77385341Y-84378230D01*
X77364228Y-84452348D01*
X77307756Y-84650594D01*
X77267249Y-84935216D01*
X77267227Y-84939505D01*
X77267226Y-84939512D01*
X77265765Y-85218417D01*
X77265743Y-85222703D01*
X75438500Y-85222703D01*
X75438500Y-82245857D01*
X83572000Y-82245857D01*
X83572301Y-82252005D01*
X83585812Y-82389803D01*
X83588195Y-82401838D01*
X83641767Y-82579276D01*
X83646441Y-82590616D01*
X83733460Y-82754277D01*
X83740249Y-82764494D01*
X83857397Y-82908133D01*
X83866041Y-82916837D01*
X84008856Y-83034984D01*
X84019027Y-83041844D01*
X84182076Y-83130004D01*
X84193381Y-83134756D01*
X84308692Y-83170450D01*
X84322795Y-83170656D01*
X84326000Y-83163901D01*
X84326000Y-83157124D01*
X84834000Y-83157124D01*
X84837973Y-83170655D01*
X84845768Y-83171775D01*
X84953521Y-83140062D01*
X84964889Y-83135469D01*
X85129154Y-83049593D01*
X85139415Y-83042879D01*
X85283873Y-82926732D01*
X85292632Y-82918154D01*
X85411778Y-82776161D01*
X85418708Y-82766041D01*
X85508002Y-82603615D01*
X85512834Y-82592342D01*
X85568880Y-82415662D01*
X85571430Y-82403668D01*
X85587607Y-82259439D01*
X85588000Y-82252415D01*
X85588000Y-82245857D01*
X92212000Y-82245857D01*
X92212301Y-82252005D01*
X92225812Y-82389803D01*
X92228195Y-82401838D01*
X92281767Y-82579276D01*
X92286441Y-82590616D01*
X92373460Y-82754277D01*
X92380249Y-82764494D01*
X92497397Y-82908133D01*
X92506041Y-82916837D01*
X92648856Y-83034984D01*
X92659027Y-83041844D01*
X92822076Y-83130004D01*
X92833381Y-83134756D01*
X92948692Y-83170450D01*
X92962795Y-83170656D01*
X92966000Y-83163901D01*
X92966000Y-83157124D01*
X93474000Y-83157124D01*
X93477973Y-83170655D01*
X93485768Y-83171775D01*
X93593521Y-83140062D01*
X93604889Y-83135469D01*
X93769154Y-83049593D01*
X93779415Y-83042879D01*
X93923873Y-82926732D01*
X93932632Y-82918154D01*
X94051778Y-82776161D01*
X94058708Y-82766041D01*
X94148002Y-82603615D01*
X94152834Y-82592342D01*
X94208880Y-82415662D01*
X94211430Y-82403668D01*
X94223433Y-82296657D01*
X95002000Y-82296657D01*
X95002301Y-82302805D01*
X95015812Y-82440603D01*
X95018195Y-82452638D01*
X95071767Y-82630076D01*
X95076441Y-82641416D01*
X95163460Y-82805077D01*
X95170249Y-82815294D01*
X95287397Y-82958933D01*
X95296041Y-82967637D01*
X95438856Y-83085784D01*
X95449027Y-83092644D01*
X95612076Y-83180804D01*
X95623381Y-83185556D01*
X95738692Y-83221250D01*
X95752795Y-83221456D01*
X95756000Y-83214701D01*
X95756000Y-83207924D01*
X96264000Y-83207924D01*
X96267973Y-83221455D01*
X96275768Y-83222575D01*
X96383521Y-83190862D01*
X96394889Y-83186269D01*
X96559154Y-83100393D01*
X96569415Y-83093679D01*
X96713873Y-82977532D01*
X96722632Y-82968954D01*
X96841778Y-82826961D01*
X96848708Y-82816841D01*
X96938002Y-82654415D01*
X96942834Y-82643142D01*
X96998880Y-82466462D01*
X97001430Y-82454468D01*
X97017607Y-82310239D01*
X97018000Y-82303215D01*
X97018000Y-82296657D01*
X103642000Y-82296657D01*
X103642301Y-82302805D01*
X103655812Y-82440603D01*
X103658195Y-82452638D01*
X103711767Y-82630076D01*
X103716441Y-82641416D01*
X103803460Y-82805077D01*
X103810249Y-82815294D01*
X103927397Y-82958933D01*
X103936041Y-82967637D01*
X104078856Y-83085784D01*
X104089027Y-83092644D01*
X104252076Y-83180804D01*
X104263381Y-83185556D01*
X104378692Y-83221250D01*
X104392795Y-83221456D01*
X104396000Y-83214701D01*
X104396000Y-83207924D01*
X104904000Y-83207924D01*
X104907973Y-83221455D01*
X104915768Y-83222575D01*
X105023521Y-83190862D01*
X105034889Y-83186269D01*
X105199154Y-83100393D01*
X105209415Y-83093679D01*
X105353873Y-82977532D01*
X105362632Y-82968954D01*
X105481778Y-82826961D01*
X105488708Y-82816841D01*
X105578002Y-82654415D01*
X105582834Y-82643142D01*
X105638880Y-82466462D01*
X105641430Y-82454468D01*
X105657607Y-82310239D01*
X105658000Y-82303215D01*
X105658000Y-82296657D01*
X106432000Y-82296657D01*
X106432301Y-82302805D01*
X106445812Y-82440603D01*
X106448195Y-82452638D01*
X106501767Y-82630076D01*
X106506441Y-82641416D01*
X106593460Y-82805077D01*
X106600249Y-82815294D01*
X106717397Y-82958933D01*
X106726041Y-82967637D01*
X106868856Y-83085784D01*
X106879027Y-83092644D01*
X107042076Y-83180804D01*
X107053381Y-83185556D01*
X107168692Y-83221250D01*
X107182795Y-83221456D01*
X107186000Y-83214701D01*
X107186000Y-83207924D01*
X107694000Y-83207924D01*
X107697973Y-83221455D01*
X107705768Y-83222575D01*
X107813521Y-83190862D01*
X107824889Y-83186269D01*
X107989154Y-83100393D01*
X107999415Y-83093679D01*
X108143873Y-82977532D01*
X108152632Y-82968954D01*
X108271778Y-82826961D01*
X108278708Y-82816841D01*
X108368002Y-82654415D01*
X108372834Y-82643142D01*
X108428880Y-82466462D01*
X108431430Y-82454468D01*
X108447607Y-82310239D01*
X108448000Y-82303215D01*
X108448000Y-82222115D01*
X108443525Y-82206876D01*
X108442135Y-82205671D01*
X108434452Y-82204000D01*
X107712115Y-82204000D01*
X107696876Y-82208475D01*
X107695671Y-82209865D01*
X107694000Y-82217548D01*
X107694000Y-83207924D01*
X107186000Y-83207924D01*
X107186000Y-82222115D01*
X107181525Y-82206876D01*
X107180135Y-82205671D01*
X107172452Y-82204000D01*
X106450115Y-82204000D01*
X106434876Y-82208475D01*
X106433671Y-82209865D01*
X106432000Y-82217548D01*
X106432000Y-82296657D01*
X105658000Y-82296657D01*
X105658000Y-82222115D01*
X105653525Y-82206876D01*
X105652135Y-82205671D01*
X105644452Y-82204000D01*
X104922115Y-82204000D01*
X104906876Y-82208475D01*
X104905671Y-82209865D01*
X104904000Y-82217548D01*
X104904000Y-83207924D01*
X104396000Y-83207924D01*
X104396000Y-82222115D01*
X104391525Y-82206876D01*
X104390135Y-82205671D01*
X104382452Y-82204000D01*
X103660115Y-82204000D01*
X103644876Y-82208475D01*
X103643671Y-82209865D01*
X103642000Y-82217548D01*
X103642000Y-82296657D01*
X97018000Y-82296657D01*
X97018000Y-82222115D01*
X97013525Y-82206876D01*
X97012135Y-82205671D01*
X97004452Y-82204000D01*
X96282115Y-82204000D01*
X96266876Y-82208475D01*
X96265671Y-82209865D01*
X96264000Y-82217548D01*
X96264000Y-83207924D01*
X95756000Y-83207924D01*
X95756000Y-82222115D01*
X95751525Y-82206876D01*
X95750135Y-82205671D01*
X95742452Y-82204000D01*
X95020115Y-82204000D01*
X95004876Y-82208475D01*
X95003671Y-82209865D01*
X95002000Y-82217548D01*
X95002000Y-82296657D01*
X94223433Y-82296657D01*
X94227607Y-82259439D01*
X94228000Y-82252415D01*
X94228000Y-82171315D01*
X94223525Y-82156076D01*
X94222135Y-82154871D01*
X94214452Y-82153200D01*
X93492115Y-82153200D01*
X93476876Y-82157675D01*
X93475671Y-82159065D01*
X93474000Y-82166748D01*
X93474000Y-83157124D01*
X92966000Y-83157124D01*
X92966000Y-82171315D01*
X92961525Y-82156076D01*
X92960135Y-82154871D01*
X92952452Y-82153200D01*
X92230115Y-82153200D01*
X92214876Y-82157675D01*
X92213671Y-82159065D01*
X92212000Y-82166748D01*
X92212000Y-82245857D01*
X85588000Y-82245857D01*
X85588000Y-82171315D01*
X85583525Y-82156076D01*
X85582135Y-82154871D01*
X85574452Y-82153200D01*
X84852115Y-82153200D01*
X84836876Y-82157675D01*
X84835671Y-82159065D01*
X84834000Y-82166748D01*
X84834000Y-83157124D01*
X84326000Y-83157124D01*
X84326000Y-82171315D01*
X84321525Y-82156076D01*
X84320135Y-82154871D01*
X84312452Y-82153200D01*
X83590115Y-82153200D01*
X83574876Y-82157675D01*
X83573671Y-82159065D01*
X83572000Y-82166748D01*
X83572000Y-82245857D01*
X75438500Y-82245857D01*
X75438500Y-81333250D01*
X75440246Y-81312345D01*
X75442770Y-81297344D01*
X75442770Y-81297341D01*
X75443576Y-81292552D01*
X75443729Y-81280000D01*
X75442788Y-81273429D01*
X75442123Y-81243218D01*
X75451916Y-81143789D01*
X75456733Y-81119568D01*
X75492866Y-81000454D01*
X75502315Y-80977645D01*
X75560987Y-80867876D01*
X75574705Y-80847345D01*
X75653671Y-80751124D01*
X75671124Y-80733671D01*
X75767345Y-80654705D01*
X75787876Y-80640987D01*
X75897645Y-80582315D01*
X75920454Y-80572866D01*
X76039568Y-80536733D01*
X76063789Y-80531916D01*
X76159809Y-80522459D01*
X76175868Y-80522909D01*
X76175877Y-80522200D01*
X76184853Y-80522310D01*
X76193724Y-80523691D01*
X76202626Y-80522527D01*
X76202628Y-80522527D01*
X76219059Y-80520378D01*
X76225286Y-80519564D01*
X76241621Y-80518500D01*
X83960133Y-80518500D01*
X84028254Y-80538502D01*
G37*
%TD.AperFunction*%
%TD*%
M02*
