%TF.GenerationSoftware,KiCad,Pcbnew,(6.0.11)*%
%TF.CreationDate,2023-04-18T18:31:17+02:00*%
%TF.ProjectId,FarmSupply,4661726d-5375-4707-906c-792e6b696361,rev?*%
%TF.SameCoordinates,Original*%
%TF.FileFunction,Legend,Bot*%
%TF.FilePolarity,Positive*%
%FSLAX46Y46*%
G04 Gerber Fmt 4.6, Leading zero omitted, Abs format (unit mm)*
G04 Created by KiCad (PCBNEW (6.0.11)) date 2023-04-18 18:31:17*
%MOMM*%
%LPD*%
G01*
G04 APERTURE LIST*
%ADD10C,0.200000*%
%ADD11C,0.150000*%
%ADD12C,0.120000*%
G04 APERTURE END LIST*
D10*
X113804390Y-96427790D02*
X113842485Y-96380171D01*
X113918676Y-96332552D01*
X113994866Y-96332552D01*
X114071057Y-96380171D01*
X114109152Y-96427790D01*
X114147247Y-96523028D01*
X114147247Y-96618266D01*
X114109152Y-96713504D01*
X114071057Y-96761123D01*
X113994866Y-96808742D01*
X113918676Y-96808742D01*
X113842485Y-96761123D01*
X113804390Y-96713504D01*
X113804390Y-96332552D02*
X113804390Y-96713504D01*
X113766295Y-96761123D01*
X113728200Y-96761123D01*
X113652009Y-96713504D01*
X113613914Y-96618266D01*
X113613914Y-96380171D01*
X113690104Y-96237314D01*
X113804390Y-96142076D01*
X113956771Y-96094457D01*
X114109152Y-96142076D01*
X114223438Y-96237314D01*
X114299628Y-96380171D01*
X114337723Y-96570647D01*
X114299628Y-96761123D01*
X114223438Y-96903980D01*
X114109152Y-96999219D01*
X113956771Y-97046838D01*
X113804390Y-96999219D01*
X113690104Y-96903980D01*
X113309152Y-96856361D02*
X113232961Y-96903980D01*
X113080580Y-96903980D01*
X113004390Y-96856361D01*
X112966295Y-96761123D01*
X112966295Y-96713504D01*
X113004390Y-96618266D01*
X113080580Y-96570647D01*
X113194866Y-96570647D01*
X113271057Y-96523028D01*
X113309152Y-96427790D01*
X113309152Y-96380171D01*
X113271057Y-96284933D01*
X113194866Y-96237314D01*
X113080580Y-96237314D01*
X113004390Y-96284933D01*
X112280580Y-96237314D02*
X112280580Y-96903980D01*
X112623438Y-96237314D02*
X112623438Y-96761123D01*
X112585342Y-96856361D01*
X112509152Y-96903980D01*
X112394866Y-96903980D01*
X112318676Y-96856361D01*
X112280580Y-96808742D01*
X111785342Y-96903980D02*
X111861533Y-96856361D01*
X111899628Y-96761123D01*
X111899628Y-95903980D01*
X111594866Y-96237314D02*
X111290104Y-96237314D01*
X111480580Y-96903980D02*
X111480580Y-96046838D01*
X111442485Y-95951600D01*
X111366295Y-95903980D01*
X111290104Y-95903980D01*
X110680580Y-96237314D02*
X110680580Y-96903980D01*
X111023438Y-96237314D02*
X111023438Y-96761123D01*
X110985342Y-96856361D01*
X110909152Y-96903980D01*
X110794866Y-96903980D01*
X110718676Y-96856361D01*
X110680580Y-96808742D01*
X110299628Y-96903980D02*
X110299628Y-96237314D01*
X110299628Y-96427790D02*
X110261533Y-96332552D01*
X110223438Y-96284933D01*
X110147247Y-96237314D01*
X110071057Y-96237314D01*
X109690104Y-96903980D02*
X109766295Y-96856361D01*
X109804390Y-96808742D01*
X109842485Y-96713504D01*
X109842485Y-96427790D01*
X109804390Y-96332552D01*
X109766295Y-96284933D01*
X109690104Y-96237314D01*
X109575819Y-96237314D01*
X109499628Y-96284933D01*
X109461533Y-96332552D01*
X109423438Y-96427790D01*
X109423438Y-96713504D01*
X109461533Y-96808742D01*
X109499628Y-96856361D01*
X109575819Y-96903980D01*
X109690104Y-96903980D01*
X109080580Y-96903980D02*
X109080580Y-96237314D01*
X109080580Y-95903980D02*
X109118676Y-95951600D01*
X109080580Y-95999219D01*
X109042485Y-95951600D01*
X109080580Y-95903980D01*
X109080580Y-95999219D01*
X108356771Y-96903980D02*
X108356771Y-95903980D01*
X108356771Y-96856361D02*
X108432961Y-96903980D01*
X108585342Y-96903980D01*
X108661533Y-96856361D01*
X108699628Y-96808742D01*
X108737723Y-96713504D01*
X108737723Y-96427790D01*
X108699628Y-96332552D01*
X108661533Y-96284933D01*
X108585342Y-96237314D01*
X108432961Y-96237314D01*
X108356771Y-96284933D01*
X113385342Y-97990171D02*
X113652009Y-97990171D01*
X113652009Y-98513980D02*
X113652009Y-97513980D01*
X113271057Y-97513980D01*
X112623438Y-98513980D02*
X112623438Y-97990171D01*
X112661533Y-97894933D01*
X112737723Y-97847314D01*
X112890104Y-97847314D01*
X112966295Y-97894933D01*
X112623438Y-98466361D02*
X112699628Y-98513980D01*
X112890104Y-98513980D01*
X112966295Y-98466361D01*
X113004390Y-98371123D01*
X113004390Y-98275885D01*
X112966295Y-98180647D01*
X112890104Y-98133028D01*
X112699628Y-98133028D01*
X112623438Y-98085409D01*
X112242485Y-98513980D02*
X112242485Y-97847314D01*
X112242485Y-98037790D02*
X112204390Y-97942552D01*
X112166295Y-97894933D01*
X112090104Y-97847314D01*
X112013914Y-97847314D01*
X111747247Y-98513980D02*
X111747247Y-97847314D01*
X111747247Y-97942552D02*
X111709152Y-97894933D01*
X111632961Y-97847314D01*
X111518676Y-97847314D01*
X111442485Y-97894933D01*
X111404390Y-97990171D01*
X111404390Y-98513980D01*
X111404390Y-97990171D02*
X111366295Y-97894933D01*
X111290104Y-97847314D01*
X111175819Y-97847314D01*
X111099628Y-97894933D01*
X111061533Y-97990171D01*
X111061533Y-98513980D01*
X109690104Y-97513980D02*
X110071057Y-97513980D01*
X110109152Y-97990171D01*
X110071057Y-97942552D01*
X109994866Y-97894933D01*
X109804390Y-97894933D01*
X109728200Y-97942552D01*
X109690104Y-97990171D01*
X109652009Y-98085409D01*
X109652009Y-98323504D01*
X109690104Y-98418742D01*
X109728200Y-98466361D01*
X109804390Y-98513980D01*
X109994866Y-98513980D01*
X110071057Y-98466361D01*
X110109152Y-98418742D01*
X109423438Y-97513980D02*
X109156771Y-98513980D01*
X108890104Y-97513980D01*
D11*
%TO.C,R13*%
X112680357Y-81987380D02*
X113013690Y-81511190D01*
X113251785Y-81987380D02*
X113251785Y-80987380D01*
X112870833Y-80987380D01*
X112775595Y-81035000D01*
X112727976Y-81082619D01*
X112680357Y-81177857D01*
X112680357Y-81320714D01*
X112727976Y-81415952D01*
X112775595Y-81463571D01*
X112870833Y-81511190D01*
X113251785Y-81511190D01*
X111727976Y-81987380D02*
X112299404Y-81987380D01*
X112013690Y-81987380D02*
X112013690Y-80987380D01*
X112108928Y-81130238D01*
X112204166Y-81225476D01*
X112299404Y-81273095D01*
X111394642Y-80987380D02*
X110775595Y-80987380D01*
X111108928Y-81368333D01*
X110966071Y-81368333D01*
X110870833Y-81415952D01*
X110823214Y-81463571D01*
X110775595Y-81558809D01*
X110775595Y-81796904D01*
X110823214Y-81892142D01*
X110870833Y-81939761D01*
X110966071Y-81987380D01*
X111251785Y-81987380D01*
X111347023Y-81939761D01*
X111394642Y-81892142D01*
%TO.C,R7*%
X100774166Y-95322380D02*
X101107500Y-94846190D01*
X101345595Y-95322380D02*
X101345595Y-94322380D01*
X100964642Y-94322380D01*
X100869404Y-94370000D01*
X100821785Y-94417619D01*
X100774166Y-94512857D01*
X100774166Y-94655714D01*
X100821785Y-94750952D01*
X100869404Y-94798571D01*
X100964642Y-94846190D01*
X101345595Y-94846190D01*
X100440833Y-94322380D02*
X99774166Y-94322380D01*
X100202738Y-95322380D01*
%TO.C,R3*%
X89344166Y-95957380D02*
X89677500Y-95481190D01*
X89915595Y-95957380D02*
X89915595Y-94957380D01*
X89534642Y-94957380D01*
X89439404Y-95005000D01*
X89391785Y-95052619D01*
X89344166Y-95147857D01*
X89344166Y-95290714D01*
X89391785Y-95385952D01*
X89439404Y-95433571D01*
X89534642Y-95481190D01*
X89915595Y-95481190D01*
X89010833Y-94957380D02*
X88391785Y-94957380D01*
X88725119Y-95338333D01*
X88582261Y-95338333D01*
X88487023Y-95385952D01*
X88439404Y-95433571D01*
X88391785Y-95528809D01*
X88391785Y-95766904D01*
X88439404Y-95862142D01*
X88487023Y-95909761D01*
X88582261Y-95957380D01*
X88867976Y-95957380D01*
X88963214Y-95909761D01*
X89010833Y-95862142D01*
D12*
%TO.C,R13*%
X112264564Y-82450000D02*
X111810436Y-82450000D01*
X112264564Y-83920000D02*
X111810436Y-83920000D01*
%TO.C,R7*%
X100834564Y-95785000D02*
X100380436Y-95785000D01*
X100834564Y-97255000D02*
X100380436Y-97255000D01*
%TO.C,R3*%
X89404564Y-96420000D02*
X88950436Y-96420000D01*
X89404564Y-97890000D02*
X88950436Y-97890000D01*
%TD*%
M02*
