%TF.GenerationSoftware,KiCad,Pcbnew,(6.0.11)*%
%TF.CreationDate,2023-04-18T11:05:53+02:00*%
%TF.ProjectId,FarmSupply,4661726d-5375-4707-906c-792e6b696361,rev?*%
%TF.SameCoordinates,Original*%
%TF.FileFunction,Soldermask,Bot*%
%TF.FilePolarity,Negative*%
%FSLAX46Y46*%
G04 Gerber Fmt 4.6, Leading zero omitted, Abs format (unit mm)*
G04 Created by KiCad (PCBNEW (6.0.11)) date 2023-04-18 11:05:53*
%MOMM*%
%LPD*%
G01*
G04 APERTURE LIST*
%ADD10C,0.650000*%
%ADD11O,0.900000X2.100000*%
%ADD12O,1.000000X1.600000*%
%ADD13C,3.200000*%
G04 APERTURE END LIST*
D10*
%TO.C,P1*%
X86010000Y-94710000D03*
X91790000Y-94710000D03*
D11*
X84580000Y-94210000D03*
D12*
X84580000Y-98390000D03*
X93220000Y-98390000D03*
D11*
X93220000Y-94210000D03*
%TD*%
D13*
%TO.C,H2*%
X120650000Y-85090000D03*
%TD*%
D10*
%TO.C,P5*%
X97130000Y-94710000D03*
X102910000Y-94710000D03*
D12*
X95700000Y-98390000D03*
D11*
X104340000Y-94210000D03*
D12*
X104340000Y-98390000D03*
D11*
X95700000Y-94210000D03*
%TD*%
D10*
%TO.C,P3*%
X114030000Y-85630000D03*
X108250000Y-85630000D03*
D11*
X106820000Y-86130000D03*
D12*
X115460000Y-81950000D03*
D11*
X115460000Y-86130000D03*
D12*
X106820000Y-81950000D03*
%TD*%
D13*
%TO.C,H1*%
X79375000Y-85090000D03*
%TD*%
%TO.C,H3*%
X120650000Y-95250000D03*
%TD*%
D10*
%TO.C,P2*%
X108250000Y-94710000D03*
X114030000Y-94710000D03*
D12*
X106820000Y-98390000D03*
X115460000Y-98390000D03*
D11*
X106820000Y-94210000D03*
X115460000Y-94210000D03*
%TD*%
D13*
%TO.C,H4*%
X79375000Y-95250000D03*
%TD*%
D10*
%TO.C,P4*%
X97130000Y-85630000D03*
X102910000Y-85630000D03*
D11*
X95700000Y-86130000D03*
D12*
X104340000Y-81950000D03*
X95700000Y-81950000D03*
D11*
X104340000Y-86130000D03*
%TD*%
D10*
%TO.C,P6*%
X86010000Y-85630000D03*
X91790000Y-85630000D03*
D12*
X84580000Y-81950000D03*
X93220000Y-81950000D03*
D11*
X93220000Y-86130000D03*
X84580000Y-86130000D03*
%TD*%
M02*
