%TF.GenerationSoftware,KiCad,Pcbnew,(6.0.11)*%
%TF.CreationDate,2023-04-18T18:31:17+02:00*%
%TF.ProjectId,FarmSupply,4661726d-5375-4707-906c-792e6b696361,rev?*%
%TF.SameCoordinates,Original*%
%TF.FileFunction,Soldermask,Bot*%
%TF.FilePolarity,Negative*%
%FSLAX46Y46*%
G04 Gerber Fmt 4.6, Leading zero omitted, Abs format (unit mm)*
G04 Created by KiCad (PCBNEW (6.0.11)) date 2023-04-18 18:31:17*
%MOMM*%
%LPD*%
G01*
G04 APERTURE LIST*
G04 Aperture macros list*
%AMRoundRect*
0 Rectangle with rounded corners*
0 $1 Rounding radius*
0 $2 $3 $4 $5 $6 $7 $8 $9 X,Y pos of 4 corners*
0 Add a 4 corners polygon primitive as box body*
4,1,4,$2,$3,$4,$5,$6,$7,$8,$9,$2,$3,0*
0 Add four circle primitives for the rounded corners*
1,1,$1+$1,$2,$3*
1,1,$1+$1,$4,$5*
1,1,$1+$1,$6,$7*
1,1,$1+$1,$8,$9*
0 Add four rect primitives between the rounded corners*
20,1,$1+$1,$2,$3,$4,$5,0*
20,1,$1+$1,$4,$5,$6,$7,0*
20,1,$1+$1,$6,$7,$8,$9,0*
20,1,$1+$1,$8,$9,$2,$3,0*%
G04 Aperture macros list end*
%ADD10C,0.650000*%
%ADD11O,0.900000X2.100000*%
%ADD12O,1.000000X1.600000*%
%ADD13RoundRect,0.250000X0.262500X0.450000X-0.262500X0.450000X-0.262500X-0.450000X0.262500X-0.450000X0*%
%ADD14C,3.200000*%
G04 APERTURE END LIST*
D10*
%TO.C,P6*%
X86010000Y-85579200D03*
X91790000Y-85579200D03*
D11*
X84580000Y-86079200D03*
X93220000Y-86079200D03*
D12*
X84580000Y-81899200D03*
X93220000Y-81899200D03*
%TD*%
D10*
%TO.C,P5*%
X97440000Y-85630000D03*
X103220000Y-85630000D03*
D11*
X96010000Y-86130000D03*
X104650000Y-86130000D03*
D12*
X96010000Y-81950000D03*
X104650000Y-81950000D03*
%TD*%
D10*
%TO.C,P4*%
X108870000Y-85630000D03*
X114650000Y-85630000D03*
D11*
X107440000Y-86130000D03*
X116080000Y-86130000D03*
D12*
X107440000Y-81950000D03*
X116080000Y-81950000D03*
%TD*%
D10*
%TO.C,P3*%
X114650000Y-94710000D03*
X108870000Y-94710000D03*
D11*
X116080000Y-94210000D03*
X107440000Y-94210000D03*
D12*
X116080000Y-98390000D03*
X107440000Y-98390000D03*
%TD*%
D10*
%TO.C,P2*%
X103220000Y-94710000D03*
X97440000Y-94710000D03*
D11*
X104650000Y-94210000D03*
X96010000Y-94210000D03*
D12*
X104650000Y-98390000D03*
X96010000Y-98390000D03*
%TD*%
D10*
%TO.C,P1*%
X91790000Y-94710000D03*
X86010000Y-94710000D03*
D11*
X93220000Y-94210000D03*
X84580000Y-94210000D03*
D12*
X93220000Y-98390000D03*
X84580000Y-98390000D03*
%TD*%
D13*
%TO.C,R13*%
X112950000Y-83185000D03*
X111125000Y-83185000D03*
%TD*%
%TO.C,R7*%
X101520000Y-96520000D03*
X99695000Y-96520000D03*
%TD*%
%TO.C,R3*%
X90090000Y-97155000D03*
X88265000Y-97155000D03*
%TD*%
D14*
%TO.C,H2*%
X120650000Y-85090000D03*
%TD*%
%TO.C,H1*%
X79375000Y-85090000D03*
%TD*%
%TO.C,H3*%
X120650000Y-95250000D03*
%TD*%
%TO.C,H4*%
X79375000Y-95250000D03*
%TD*%
M02*
