M48
; DRILL file {KiCad (6.0.11)} date Tue Apr 18 11:05:56 2023
; FORMAT={-:-/ absolute / inch / decimal}
; #@! TF.CreationDate,2023-04-18T11:05:56+02:00
; #@! TF.GenerationSoftware,Kicad,Pcbnew,(6.0.11)
; #@! TF.FileFunction,Plated,1,2,PTH
FMAT,2
INCH
; #@! TA.AperFunction,Plated,PTH,ComponentDrill
T1C0.0197
; #@! TA.AperFunction,Plated,PTH,ComponentDrill
T2C0.0236
%
G90
G05
T1
G00X3.3299Y-3.4146
M15
G01X3.3299Y-3.3673
M16
G05
G00X3.3299Y-3.6854
M15
G01X3.3299Y-3.7327
M16
G05
G00X3.6701Y-3.4146
M15
G01X3.6701Y-3.3673
M16
G05
G00X3.6701Y-3.6854
M15
G01X3.6701Y-3.7327
M16
G05
G00X3.7677Y-3.4146
M15
G01X3.7677Y-3.3673
M16
G05
G00X3.7677Y-3.6854
M15
G01X3.7677Y-3.7327
M16
G05
G00X4.1079Y-3.4146
M15
G01X4.1079Y-3.3673
M16
G05
G00X4.1079Y-3.6854
M15
G01X4.1079Y-3.7327
M16
G05
G00X4.2055Y-3.4146
M15
G01X4.2055Y-3.3673
M16
G05
G00X4.2055Y-3.6854
M15
G01X4.2055Y-3.7327
M16
G05
G00X4.5457Y-3.4146
M15
G01X4.5457Y-3.3673
M16
G05
G00X4.5457Y-3.6854
M15
G01X4.5457Y-3.7327
M16
G05
T2
G00X3.3299Y-3.2382
M15
G01X3.3299Y-3.2146
M16
G05
G00X3.3299Y-3.8618
M15
G01X3.3299Y-3.8854
M16
G05
G00X3.6701Y-3.2382
M15
G01X3.6701Y-3.2146
M16
G05
G00X3.6701Y-3.8618
M15
G01X3.6701Y-3.8854
M16
G05
G00X3.7677Y-3.2382
M15
G01X3.7677Y-3.2146
M16
G05
G00X3.7677Y-3.8618
M15
G01X3.7677Y-3.8854
M16
G05
G00X4.1079Y-3.2382
M15
G01X4.1079Y-3.2146
M16
G05
G00X4.1079Y-3.8618
M15
G01X4.1079Y-3.8854
M16
G05
G00X4.2055Y-3.2382
M15
G01X4.2055Y-3.2146
M16
G05
G00X4.2055Y-3.8618
M15
G01X4.2055Y-3.8854
M16
G05
G00X4.5457Y-3.2382
M15
G01X4.5457Y-3.2146
M16
G05
G00X4.5457Y-3.8618
M15
G01X4.5457Y-3.8854
M16
G05
T0
M30
