%TF.GenerationSoftware,KiCad,Pcbnew,(6.0.11)*%
%TF.CreationDate,2023-04-18T11:05:53+02:00*%
%TF.ProjectId,FarmSupply,4661726d-5375-4707-906c-792e6b696361,rev?*%
%TF.SameCoordinates,Original*%
%TF.FileFunction,Legend,Top*%
%TF.FilePolarity,Positive*%
%FSLAX46Y46*%
G04 Gerber Fmt 4.6, Leading zero omitted, Abs format (unit mm)*
G04 Created by KiCad (PCBNEW (6.0.11)) date 2023-04-18 11:05:53*
%MOMM*%
%LPD*%
G01*
G04 APERTURE LIST*
%ADD10C,0.200000*%
%ADD11C,0.150000*%
%ADD12C,0.120000*%
G04 APERTURE END LIST*
D10*
X87077790Y-90308180D02*
X87077790Y-91117704D01*
X87115885Y-91212942D01*
X87153980Y-91260561D01*
X87230171Y-91308180D01*
X87382552Y-91308180D01*
X87458742Y-91260561D01*
X87496838Y-91212942D01*
X87534933Y-91117704D01*
X87534933Y-90308180D01*
X87877790Y-91260561D02*
X87992076Y-91308180D01*
X88182552Y-91308180D01*
X88258742Y-91260561D01*
X88296838Y-91212942D01*
X88334933Y-91117704D01*
X88334933Y-91022466D01*
X88296838Y-90927228D01*
X88258742Y-90879609D01*
X88182552Y-90831990D01*
X88030171Y-90784371D01*
X87953980Y-90736752D01*
X87915885Y-90689133D01*
X87877790Y-90593895D01*
X87877790Y-90498657D01*
X87915885Y-90403419D01*
X87953980Y-90355800D01*
X88030171Y-90308180D01*
X88220647Y-90308180D01*
X88334933Y-90355800D01*
X88944457Y-90784371D02*
X89058742Y-90831990D01*
X89096838Y-90879609D01*
X89134933Y-90974847D01*
X89134933Y-91117704D01*
X89096838Y-91212942D01*
X89058742Y-91260561D01*
X88982552Y-91308180D01*
X88677790Y-91308180D01*
X88677790Y-90308180D01*
X88944457Y-90308180D01*
X89020647Y-90355800D01*
X89058742Y-90403419D01*
X89096838Y-90498657D01*
X89096838Y-90593895D01*
X89058742Y-90689133D01*
X89020647Y-90736752D01*
X88944457Y-90784371D01*
X88677790Y-90784371D01*
X90087314Y-91308180D02*
X90087314Y-90308180D01*
X90468266Y-91308180D02*
X90468266Y-90308180D01*
X90925409Y-91308180D01*
X90925409Y-90308180D01*
D11*
%TO.C,R1*%
X78557380Y-90694166D02*
X78081190Y-91027500D01*
X78557380Y-91265595D02*
X77557380Y-91265595D01*
X77557380Y-90884642D01*
X77605000Y-90789404D01*
X77652619Y-90741785D01*
X77747857Y-90694166D01*
X77890714Y-90694166D01*
X77985952Y-90741785D01*
X78033571Y-90789404D01*
X78081190Y-90884642D01*
X78081190Y-91265595D01*
X78557380Y-89741785D02*
X78557380Y-90313214D01*
X78557380Y-90027500D02*
X77557380Y-90027500D01*
X77700238Y-90122738D01*
X77795476Y-90217976D01*
X77843095Y-90313214D01*
%TO.C,D1*%
X81352380Y-91240595D02*
X80352380Y-91240595D01*
X80352380Y-91002500D01*
X80400000Y-90859642D01*
X80495238Y-90764404D01*
X80590476Y-90716785D01*
X80780952Y-90669166D01*
X80923809Y-90669166D01*
X81114285Y-90716785D01*
X81209523Y-90764404D01*
X81304761Y-90859642D01*
X81352380Y-91002500D01*
X81352380Y-91240595D01*
X81352380Y-89716785D02*
X81352380Y-90288214D01*
X81352380Y-90002500D02*
X80352380Y-90002500D01*
X80495238Y-90097738D01*
X80590476Y-90192976D01*
X80638095Y-90288214D01*
D12*
%TO.C,R1*%
X75465000Y-90754564D02*
X75465000Y-90300436D01*
X76935000Y-90754564D02*
X76935000Y-90300436D01*
%TO.C,D1*%
X81590000Y-89502500D02*
X81590000Y-92187500D01*
X81590000Y-92187500D02*
X83510000Y-92187500D01*
X83510000Y-92187500D02*
X83510000Y-89502500D01*
D11*
%TO.C,P1*%
X93500000Y-101170000D02*
X93500000Y-99220000D01*
X93500000Y-101170000D02*
X84300000Y-101170000D01*
X93500000Y-97570000D02*
X93500000Y-95270000D01*
X84300000Y-101170000D02*
X84300000Y-99220000D01*
X84300000Y-97570000D02*
X84300000Y-95270000D01*
%TO.C,P5*%
X104620000Y-101170000D02*
X104620000Y-99220000D01*
X104620000Y-101170000D02*
X95420000Y-101170000D01*
X95420000Y-101170000D02*
X95420000Y-99220000D01*
X104620000Y-97570000D02*
X104620000Y-95270000D01*
X95420000Y-97570000D02*
X95420000Y-95270000D01*
%TO.C,P3*%
X106540000Y-79170000D02*
X115740000Y-79170000D01*
X106540000Y-79170000D02*
X106540000Y-81120000D01*
X115740000Y-82770000D02*
X115740000Y-85070000D01*
X106540000Y-82770000D02*
X106540000Y-85070000D01*
X115740000Y-79170000D02*
X115740000Y-81120000D01*
%TO.C,P2*%
X115740000Y-97570000D02*
X115740000Y-95270000D01*
X115740000Y-101170000D02*
X115740000Y-99220000D01*
X106540000Y-101170000D02*
X106540000Y-99220000D01*
X115740000Y-101170000D02*
X106540000Y-101170000D01*
X106540000Y-97570000D02*
X106540000Y-95270000D01*
%TO.C,P4*%
X95420000Y-79170000D02*
X95420000Y-81120000D01*
X104620000Y-82770000D02*
X104620000Y-85070000D01*
X95420000Y-79170000D02*
X104620000Y-79170000D01*
X104620000Y-79170000D02*
X104620000Y-81120000D01*
X95420000Y-82770000D02*
X95420000Y-85070000D01*
%TO.C,P6*%
X84300000Y-79170000D02*
X84300000Y-81120000D01*
X84300000Y-79170000D02*
X93500000Y-79170000D01*
X93500000Y-82770000D02*
X93500000Y-85070000D01*
X93500000Y-79170000D02*
X93500000Y-81120000D01*
X84300000Y-82770000D02*
X84300000Y-85070000D01*
%TD*%
M02*
