%TF.GenerationSoftware,KiCad,Pcbnew,(6.0.11)*%
%TF.CreationDate,2023-04-18T11:05:53+02:00*%
%TF.ProjectId,FarmSupply,4661726d-5375-4707-906c-792e6b696361,rev?*%
%TF.SameCoordinates,Original*%
%TF.FileFunction,Copper,L2,Bot*%
%TF.FilePolarity,Positive*%
%FSLAX46Y46*%
G04 Gerber Fmt 4.6, Leading zero omitted, Abs format (unit mm)*
G04 Created by KiCad (PCBNEW (6.0.11)) date 2023-04-18 11:05:53*
%MOMM*%
%LPD*%
G01*
G04 APERTURE LIST*
%TA.AperFunction,ComponentPad*%
%ADD10O,0.900000X2.100000*%
%TD*%
%TA.AperFunction,ComponentPad*%
%ADD11O,1.000000X1.600000*%
%TD*%
G04 APERTURE END LIST*
D10*
%TO.P,P1,S1,SHIELD*%
%TO.N,GND*%
X84580000Y-94210000D03*
D11*
X84580000Y-98390000D03*
X93220000Y-98390000D03*
D10*
X93220000Y-94210000D03*
%TD*%
D11*
%TO.P,P5,S1,SHIELD*%
%TO.N,GND*%
X95700000Y-98390000D03*
D10*
X104340000Y-94210000D03*
D11*
X104340000Y-98390000D03*
D10*
X95700000Y-94210000D03*
%TD*%
%TO.P,P3,S1,SHIELD*%
%TO.N,GND*%
X106820000Y-86130000D03*
D11*
X115460000Y-81950000D03*
D10*
X115460000Y-86130000D03*
D11*
X106820000Y-81950000D03*
%TD*%
%TO.P,P2,S1,SHIELD*%
%TO.N,GND*%
X106820000Y-98390000D03*
X115460000Y-98390000D03*
D10*
X106820000Y-94210000D03*
X115460000Y-94210000D03*
%TD*%
%TO.P,P4,S1,SHIELD*%
%TO.N,GND*%
X95700000Y-86130000D03*
D11*
X104340000Y-81950000D03*
X95700000Y-81950000D03*
D10*
X104340000Y-86130000D03*
%TD*%
D11*
%TO.P,P6,S1,SHIELD*%
%TO.N,GND*%
X84580000Y-81950000D03*
X93220000Y-81950000D03*
D10*
X93220000Y-86130000D03*
X84580000Y-86130000D03*
%TD*%
%TA.AperFunction,Conductor*%
%TO.N,GND*%
G36*
X84123694Y-80538502D02*
G01*
X84170187Y-80592158D01*
X84180291Y-80662432D01*
X84150797Y-80727012D01*
X84113948Y-80756162D01*
X84030846Y-80799607D01*
X84020585Y-80806321D01*
X83876127Y-80922468D01*
X83867368Y-80931046D01*
X83748222Y-81073039D01*
X83741292Y-81083159D01*
X83651998Y-81245585D01*
X83647166Y-81256858D01*
X83591120Y-81433538D01*
X83588570Y-81445532D01*
X83572393Y-81589761D01*
X83572000Y-81596785D01*
X83572000Y-81677885D01*
X83576475Y-81693124D01*
X83577865Y-81694329D01*
X83585548Y-81696000D01*
X85569885Y-81696000D01*
X85585124Y-81691525D01*
X85586329Y-81690135D01*
X85588000Y-81682452D01*
X85588000Y-81603343D01*
X85587699Y-81597195D01*
X85574188Y-81459397D01*
X85571805Y-81447362D01*
X85518233Y-81269924D01*
X85513559Y-81258584D01*
X85426540Y-81094923D01*
X85419751Y-81084706D01*
X85302603Y-80941067D01*
X85293959Y-80932363D01*
X85151144Y-80814216D01*
X85140973Y-80807356D01*
X85044764Y-80755336D01*
X84994356Y-80705341D01*
X84978978Y-80636030D01*
X85003514Y-80569408D01*
X85060174Y-80526627D01*
X85104693Y-80518500D01*
X92695573Y-80518500D01*
X92763694Y-80538502D01*
X92810187Y-80592158D01*
X92820291Y-80662432D01*
X92790797Y-80727012D01*
X92753948Y-80756162D01*
X92670846Y-80799607D01*
X92660585Y-80806321D01*
X92516127Y-80922468D01*
X92507368Y-80931046D01*
X92388222Y-81073039D01*
X92381292Y-81083159D01*
X92291998Y-81245585D01*
X92287166Y-81256858D01*
X92231120Y-81433538D01*
X92228570Y-81445532D01*
X92212393Y-81589761D01*
X92212000Y-81596785D01*
X92212000Y-81677885D01*
X92216475Y-81693124D01*
X92217865Y-81694329D01*
X92225548Y-81696000D01*
X94209885Y-81696000D01*
X94225124Y-81691525D01*
X94226329Y-81690135D01*
X94228000Y-81682452D01*
X94228000Y-81603343D01*
X94227699Y-81597195D01*
X94214188Y-81459397D01*
X94211805Y-81447362D01*
X94158233Y-81269924D01*
X94153559Y-81258584D01*
X94066540Y-81094923D01*
X94059751Y-81084706D01*
X93942603Y-80941067D01*
X93933959Y-80932363D01*
X93791144Y-80814216D01*
X93780973Y-80807356D01*
X93684764Y-80755336D01*
X93634356Y-80705341D01*
X93618978Y-80636030D01*
X93643514Y-80569408D01*
X93700174Y-80526627D01*
X93744693Y-80518500D01*
X95175573Y-80518500D01*
X95243694Y-80538502D01*
X95290187Y-80592158D01*
X95300291Y-80662432D01*
X95270797Y-80727012D01*
X95233948Y-80756162D01*
X95150846Y-80799607D01*
X95140585Y-80806321D01*
X94996127Y-80922468D01*
X94987368Y-80931046D01*
X94868222Y-81073039D01*
X94861292Y-81083159D01*
X94771998Y-81245585D01*
X94767166Y-81256858D01*
X94711120Y-81433538D01*
X94708570Y-81445532D01*
X94692393Y-81589761D01*
X94692000Y-81596785D01*
X94692000Y-81677885D01*
X94696475Y-81693124D01*
X94697865Y-81694329D01*
X94705548Y-81696000D01*
X96689885Y-81696000D01*
X96705124Y-81691525D01*
X96706329Y-81690135D01*
X96708000Y-81682452D01*
X96708000Y-81603343D01*
X96707699Y-81597195D01*
X96694188Y-81459397D01*
X96691805Y-81447362D01*
X96638233Y-81269924D01*
X96633559Y-81258584D01*
X96546540Y-81094923D01*
X96539751Y-81084706D01*
X96422603Y-80941067D01*
X96413959Y-80932363D01*
X96271144Y-80814216D01*
X96260973Y-80807356D01*
X96164764Y-80755336D01*
X96114356Y-80705341D01*
X96098978Y-80636030D01*
X96123514Y-80569408D01*
X96180174Y-80526627D01*
X96224693Y-80518500D01*
X103815573Y-80518500D01*
X103883694Y-80538502D01*
X103930187Y-80592158D01*
X103940291Y-80662432D01*
X103910797Y-80727012D01*
X103873948Y-80756162D01*
X103790846Y-80799607D01*
X103780585Y-80806321D01*
X103636127Y-80922468D01*
X103627368Y-80931046D01*
X103508222Y-81073039D01*
X103501292Y-81083159D01*
X103411998Y-81245585D01*
X103407166Y-81256858D01*
X103351120Y-81433538D01*
X103348570Y-81445532D01*
X103332393Y-81589761D01*
X103332000Y-81596785D01*
X103332000Y-81677885D01*
X103336475Y-81693124D01*
X103337865Y-81694329D01*
X103345548Y-81696000D01*
X105329885Y-81696000D01*
X105345124Y-81691525D01*
X105346329Y-81690135D01*
X105348000Y-81682452D01*
X105348000Y-81603343D01*
X105347699Y-81597195D01*
X105334188Y-81459397D01*
X105331805Y-81447362D01*
X105278233Y-81269924D01*
X105273559Y-81258584D01*
X105186540Y-81094923D01*
X105179751Y-81084706D01*
X105062603Y-80941067D01*
X105053959Y-80932363D01*
X104911144Y-80814216D01*
X104900973Y-80807356D01*
X104804764Y-80755336D01*
X104754356Y-80705341D01*
X104738978Y-80636030D01*
X104763514Y-80569408D01*
X104820174Y-80526627D01*
X104864693Y-80518500D01*
X106295573Y-80518500D01*
X106363694Y-80538502D01*
X106410187Y-80592158D01*
X106420291Y-80662432D01*
X106390797Y-80727012D01*
X106353948Y-80756162D01*
X106270846Y-80799607D01*
X106260585Y-80806321D01*
X106116127Y-80922468D01*
X106107368Y-80931046D01*
X105988222Y-81073039D01*
X105981292Y-81083159D01*
X105891998Y-81245585D01*
X105887166Y-81256858D01*
X105831120Y-81433538D01*
X105828570Y-81445532D01*
X105812393Y-81589761D01*
X105812000Y-81596785D01*
X105812000Y-81677885D01*
X105816475Y-81693124D01*
X105817865Y-81694329D01*
X105825548Y-81696000D01*
X107809885Y-81696000D01*
X107825124Y-81691525D01*
X107826329Y-81690135D01*
X107828000Y-81682452D01*
X107828000Y-81603343D01*
X107827699Y-81597195D01*
X107814188Y-81459397D01*
X107811805Y-81447362D01*
X107758233Y-81269924D01*
X107753559Y-81258584D01*
X107666540Y-81094923D01*
X107659751Y-81084706D01*
X107542603Y-80941067D01*
X107533959Y-80932363D01*
X107391144Y-80814216D01*
X107380973Y-80807356D01*
X107284764Y-80755336D01*
X107234356Y-80705341D01*
X107218978Y-80636030D01*
X107243514Y-80569408D01*
X107300174Y-80526627D01*
X107344693Y-80518500D01*
X114935573Y-80518500D01*
X115003694Y-80538502D01*
X115050187Y-80592158D01*
X115060291Y-80662432D01*
X115030797Y-80727012D01*
X114993948Y-80756162D01*
X114910846Y-80799607D01*
X114900585Y-80806321D01*
X114756127Y-80922468D01*
X114747368Y-80931046D01*
X114628222Y-81073039D01*
X114621292Y-81083159D01*
X114531998Y-81245585D01*
X114527166Y-81256858D01*
X114471120Y-81433538D01*
X114468570Y-81445532D01*
X114452393Y-81589761D01*
X114452000Y-81596785D01*
X114452000Y-81677885D01*
X114456475Y-81693124D01*
X114457865Y-81694329D01*
X114465548Y-81696000D01*
X116449885Y-81696000D01*
X116465124Y-81691525D01*
X116466329Y-81690135D01*
X116468000Y-81682452D01*
X116468000Y-81603343D01*
X116467699Y-81597195D01*
X116454188Y-81459397D01*
X116451805Y-81447362D01*
X116398233Y-81269924D01*
X116393559Y-81258584D01*
X116306540Y-81094923D01*
X116299751Y-81084706D01*
X116182603Y-80941067D01*
X116173959Y-80932363D01*
X116031144Y-80814216D01*
X116020973Y-80807356D01*
X115924764Y-80755336D01*
X115874356Y-80705341D01*
X115858978Y-80636030D01*
X115883514Y-80569408D01*
X115940174Y-80526627D01*
X115984693Y-80518500D01*
X124410633Y-80518500D01*
X124430018Y-80520000D01*
X124444852Y-80522310D01*
X124444855Y-80522310D01*
X124453724Y-80523691D01*
X124463659Y-80522392D01*
X124464746Y-80522250D01*
X124493431Y-80521793D01*
X124566741Y-80529013D01*
X124596212Y-80531916D01*
X124620432Y-80536733D01*
X124739546Y-80572866D01*
X124762355Y-80582315D01*
X124872124Y-80640987D01*
X124892655Y-80654705D01*
X124988876Y-80733671D01*
X125006329Y-80751124D01*
X125085295Y-80847345D01*
X125099013Y-80867876D01*
X125157685Y-80977645D01*
X125167134Y-81000454D01*
X125203267Y-81119568D01*
X125208084Y-81143789D01*
X125217541Y-81239809D01*
X125217091Y-81255868D01*
X125217800Y-81255877D01*
X125217690Y-81264853D01*
X125216309Y-81273724D01*
X125217473Y-81282626D01*
X125217473Y-81282628D01*
X125220436Y-81305283D01*
X125221500Y-81321621D01*
X125221500Y-99010633D01*
X125220000Y-99030018D01*
X125216309Y-99053724D01*
X125217473Y-99062626D01*
X125217750Y-99064746D01*
X125218207Y-99093431D01*
X125217289Y-99102755D01*
X125208084Y-99196212D01*
X125203267Y-99220432D01*
X125167134Y-99339546D01*
X125157685Y-99362355D01*
X125099013Y-99472124D01*
X125085295Y-99492655D01*
X125006329Y-99588876D01*
X124988876Y-99606329D01*
X124892655Y-99685295D01*
X124872124Y-99699013D01*
X124762355Y-99757685D01*
X124739546Y-99767134D01*
X124620432Y-99803267D01*
X124596211Y-99808084D01*
X124500191Y-99817541D01*
X124484132Y-99817091D01*
X124484123Y-99817800D01*
X124475147Y-99817690D01*
X124466276Y-99816309D01*
X124457374Y-99817473D01*
X124457372Y-99817473D01*
X124444856Y-99819110D01*
X124434714Y-99820436D01*
X124418379Y-99821500D01*
X115984427Y-99821500D01*
X115916306Y-99801498D01*
X115869813Y-99747842D01*
X115859709Y-99677568D01*
X115889203Y-99612988D01*
X115926052Y-99583838D01*
X116009154Y-99540393D01*
X116019415Y-99533679D01*
X116163873Y-99417532D01*
X116172632Y-99408954D01*
X116291778Y-99266961D01*
X116298708Y-99256841D01*
X116388002Y-99094415D01*
X116392834Y-99083142D01*
X116448880Y-98906462D01*
X116451430Y-98894468D01*
X116467607Y-98750239D01*
X116468000Y-98743215D01*
X116468000Y-98662115D01*
X116463525Y-98646876D01*
X116462135Y-98645671D01*
X116454452Y-98644000D01*
X114470115Y-98644000D01*
X114454876Y-98648475D01*
X114453671Y-98649865D01*
X114452000Y-98657548D01*
X114452000Y-98736657D01*
X114452301Y-98742805D01*
X114465812Y-98880603D01*
X114468195Y-98892638D01*
X114521767Y-99070076D01*
X114526441Y-99081416D01*
X114613460Y-99245077D01*
X114620249Y-99255294D01*
X114737397Y-99398933D01*
X114746041Y-99407637D01*
X114888856Y-99525784D01*
X114899027Y-99532644D01*
X114995236Y-99584664D01*
X115045644Y-99634659D01*
X115061022Y-99703970D01*
X115036486Y-99770592D01*
X114979826Y-99813373D01*
X114935307Y-99821500D01*
X107344427Y-99821500D01*
X107276306Y-99801498D01*
X107229813Y-99747842D01*
X107219709Y-99677568D01*
X107249203Y-99612988D01*
X107286052Y-99583838D01*
X107369154Y-99540393D01*
X107379415Y-99533679D01*
X107523873Y-99417532D01*
X107532632Y-99408954D01*
X107651778Y-99266961D01*
X107658708Y-99256841D01*
X107748002Y-99094415D01*
X107752834Y-99083142D01*
X107808880Y-98906462D01*
X107811430Y-98894468D01*
X107827607Y-98750239D01*
X107828000Y-98743215D01*
X107828000Y-98662115D01*
X107823525Y-98646876D01*
X107822135Y-98645671D01*
X107814452Y-98644000D01*
X105830115Y-98644000D01*
X105814876Y-98648475D01*
X105813671Y-98649865D01*
X105812000Y-98657548D01*
X105812000Y-98736657D01*
X105812301Y-98742805D01*
X105825812Y-98880603D01*
X105828195Y-98892638D01*
X105881767Y-99070076D01*
X105886441Y-99081416D01*
X105973460Y-99245077D01*
X105980249Y-99255294D01*
X106097397Y-99398933D01*
X106106041Y-99407637D01*
X106248856Y-99525784D01*
X106259027Y-99532644D01*
X106355236Y-99584664D01*
X106405644Y-99634659D01*
X106421022Y-99703970D01*
X106396486Y-99770592D01*
X106339826Y-99813373D01*
X106295307Y-99821500D01*
X104864427Y-99821500D01*
X104796306Y-99801498D01*
X104749813Y-99747842D01*
X104739709Y-99677568D01*
X104769203Y-99612988D01*
X104806052Y-99583838D01*
X104889154Y-99540393D01*
X104899415Y-99533679D01*
X105043873Y-99417532D01*
X105052632Y-99408954D01*
X105171778Y-99266961D01*
X105178708Y-99256841D01*
X105268002Y-99094415D01*
X105272834Y-99083142D01*
X105328880Y-98906462D01*
X105331430Y-98894468D01*
X105347607Y-98750239D01*
X105348000Y-98743215D01*
X105348000Y-98662115D01*
X105343525Y-98646876D01*
X105342135Y-98645671D01*
X105334452Y-98644000D01*
X103350115Y-98644000D01*
X103334876Y-98648475D01*
X103333671Y-98649865D01*
X103332000Y-98657548D01*
X103332000Y-98736657D01*
X103332301Y-98742805D01*
X103345812Y-98880603D01*
X103348195Y-98892638D01*
X103401767Y-99070076D01*
X103406441Y-99081416D01*
X103493460Y-99245077D01*
X103500249Y-99255294D01*
X103617397Y-99398933D01*
X103626041Y-99407637D01*
X103768856Y-99525784D01*
X103779027Y-99532644D01*
X103875236Y-99584664D01*
X103925644Y-99634659D01*
X103941022Y-99703970D01*
X103916486Y-99770592D01*
X103859826Y-99813373D01*
X103815307Y-99821500D01*
X96224427Y-99821500D01*
X96156306Y-99801498D01*
X96109813Y-99747842D01*
X96099709Y-99677568D01*
X96129203Y-99612988D01*
X96166052Y-99583838D01*
X96249154Y-99540393D01*
X96259415Y-99533679D01*
X96403873Y-99417532D01*
X96412632Y-99408954D01*
X96531778Y-99266961D01*
X96538708Y-99256841D01*
X96628002Y-99094415D01*
X96632834Y-99083142D01*
X96688880Y-98906462D01*
X96691430Y-98894468D01*
X96707607Y-98750239D01*
X96708000Y-98743215D01*
X96708000Y-98662115D01*
X96703525Y-98646876D01*
X96702135Y-98645671D01*
X96694452Y-98644000D01*
X94710115Y-98644000D01*
X94694876Y-98648475D01*
X94693671Y-98649865D01*
X94692000Y-98657548D01*
X94692000Y-98736657D01*
X94692301Y-98742805D01*
X94705812Y-98880603D01*
X94708195Y-98892638D01*
X94761767Y-99070076D01*
X94766441Y-99081416D01*
X94853460Y-99245077D01*
X94860249Y-99255294D01*
X94977397Y-99398933D01*
X94986041Y-99407637D01*
X95128856Y-99525784D01*
X95139027Y-99532644D01*
X95235236Y-99584664D01*
X95285644Y-99634659D01*
X95301022Y-99703970D01*
X95276486Y-99770592D01*
X95219826Y-99813373D01*
X95175307Y-99821500D01*
X93744427Y-99821500D01*
X93676306Y-99801498D01*
X93629813Y-99747842D01*
X93619709Y-99677568D01*
X93649203Y-99612988D01*
X93686052Y-99583838D01*
X93769154Y-99540393D01*
X93779415Y-99533679D01*
X93923873Y-99417532D01*
X93932632Y-99408954D01*
X94051778Y-99266961D01*
X94058708Y-99256841D01*
X94148002Y-99094415D01*
X94152834Y-99083142D01*
X94208880Y-98906462D01*
X94211430Y-98894468D01*
X94227607Y-98750239D01*
X94228000Y-98743215D01*
X94228000Y-98662115D01*
X94223525Y-98646876D01*
X94222135Y-98645671D01*
X94214452Y-98644000D01*
X92230115Y-98644000D01*
X92214876Y-98648475D01*
X92213671Y-98649865D01*
X92212000Y-98657548D01*
X92212000Y-98736657D01*
X92212301Y-98742805D01*
X92225812Y-98880603D01*
X92228195Y-98892638D01*
X92281767Y-99070076D01*
X92286441Y-99081416D01*
X92373460Y-99245077D01*
X92380249Y-99255294D01*
X92497397Y-99398933D01*
X92506041Y-99407637D01*
X92648856Y-99525784D01*
X92659027Y-99532644D01*
X92755236Y-99584664D01*
X92805644Y-99634659D01*
X92821022Y-99703970D01*
X92796486Y-99770592D01*
X92739826Y-99813373D01*
X92695307Y-99821500D01*
X85104427Y-99821500D01*
X85036306Y-99801498D01*
X84989813Y-99747842D01*
X84979709Y-99677568D01*
X85009203Y-99612988D01*
X85046052Y-99583838D01*
X85129154Y-99540393D01*
X85139415Y-99533679D01*
X85283873Y-99417532D01*
X85292632Y-99408954D01*
X85411778Y-99266961D01*
X85418708Y-99256841D01*
X85508002Y-99094415D01*
X85512834Y-99083142D01*
X85568880Y-98906462D01*
X85571430Y-98894468D01*
X85587607Y-98750239D01*
X85588000Y-98743215D01*
X85588000Y-98662115D01*
X85583525Y-98646876D01*
X85582135Y-98645671D01*
X85574452Y-98644000D01*
X83590115Y-98644000D01*
X83574876Y-98648475D01*
X83573671Y-98649865D01*
X83572000Y-98657548D01*
X83572000Y-98736657D01*
X83572301Y-98742805D01*
X83585812Y-98880603D01*
X83588195Y-98892638D01*
X83641767Y-99070076D01*
X83646441Y-99081416D01*
X83733460Y-99245077D01*
X83740249Y-99255294D01*
X83857397Y-99398933D01*
X83866041Y-99407637D01*
X84008856Y-99525784D01*
X84019027Y-99532644D01*
X84115236Y-99584664D01*
X84165644Y-99634659D01*
X84181022Y-99703970D01*
X84156486Y-99770592D01*
X84099826Y-99813373D01*
X84055307Y-99821500D01*
X76249367Y-99821500D01*
X76229982Y-99820000D01*
X76215148Y-99817690D01*
X76215145Y-99817690D01*
X76206276Y-99816309D01*
X76196341Y-99817608D01*
X76195254Y-99817750D01*
X76166569Y-99818207D01*
X76093259Y-99810987D01*
X76063788Y-99808084D01*
X76039568Y-99803267D01*
X75920454Y-99767134D01*
X75897645Y-99757685D01*
X75787876Y-99699013D01*
X75767345Y-99685295D01*
X75671124Y-99606329D01*
X75653671Y-99588876D01*
X75574705Y-99492655D01*
X75560987Y-99472124D01*
X75502315Y-99362355D01*
X75492866Y-99339546D01*
X75456733Y-99220432D01*
X75451916Y-99196212D01*
X75442711Y-99102755D01*
X75442607Y-99079151D01*
X75442768Y-99077354D01*
X75443576Y-99072552D01*
X75443729Y-99060000D01*
X75439773Y-99032376D01*
X75438500Y-99014514D01*
X75438500Y-98117885D01*
X83572000Y-98117885D01*
X83576475Y-98133124D01*
X83577865Y-98134329D01*
X83585548Y-98136000D01*
X84307885Y-98136000D01*
X84323124Y-98131525D01*
X84324329Y-98130135D01*
X84326000Y-98122452D01*
X84326000Y-98117885D01*
X84834000Y-98117885D01*
X84838475Y-98133124D01*
X84839865Y-98134329D01*
X84847548Y-98136000D01*
X85569885Y-98136000D01*
X85585124Y-98131525D01*
X85586329Y-98130135D01*
X85588000Y-98122452D01*
X85588000Y-98117885D01*
X92212000Y-98117885D01*
X92216475Y-98133124D01*
X92217865Y-98134329D01*
X92225548Y-98136000D01*
X92947885Y-98136000D01*
X92963124Y-98131525D01*
X92964329Y-98130135D01*
X92966000Y-98122452D01*
X92966000Y-98117885D01*
X93474000Y-98117885D01*
X93478475Y-98133124D01*
X93479865Y-98134329D01*
X93487548Y-98136000D01*
X94209885Y-98136000D01*
X94225124Y-98131525D01*
X94226329Y-98130135D01*
X94228000Y-98122452D01*
X94228000Y-98117885D01*
X94692000Y-98117885D01*
X94696475Y-98133124D01*
X94697865Y-98134329D01*
X94705548Y-98136000D01*
X95427885Y-98136000D01*
X95443124Y-98131525D01*
X95444329Y-98130135D01*
X95446000Y-98122452D01*
X95446000Y-98117885D01*
X95954000Y-98117885D01*
X95958475Y-98133124D01*
X95959865Y-98134329D01*
X95967548Y-98136000D01*
X96689885Y-98136000D01*
X96705124Y-98131525D01*
X96706329Y-98130135D01*
X96708000Y-98122452D01*
X96708000Y-98117885D01*
X103332000Y-98117885D01*
X103336475Y-98133124D01*
X103337865Y-98134329D01*
X103345548Y-98136000D01*
X104067885Y-98136000D01*
X104083124Y-98131525D01*
X104084329Y-98130135D01*
X104086000Y-98122452D01*
X104086000Y-98117885D01*
X104594000Y-98117885D01*
X104598475Y-98133124D01*
X104599865Y-98134329D01*
X104607548Y-98136000D01*
X105329885Y-98136000D01*
X105345124Y-98131525D01*
X105346329Y-98130135D01*
X105348000Y-98122452D01*
X105348000Y-98117885D01*
X105812000Y-98117885D01*
X105816475Y-98133124D01*
X105817865Y-98134329D01*
X105825548Y-98136000D01*
X106547885Y-98136000D01*
X106563124Y-98131525D01*
X106564329Y-98130135D01*
X106566000Y-98122452D01*
X106566000Y-98117885D01*
X107074000Y-98117885D01*
X107078475Y-98133124D01*
X107079865Y-98134329D01*
X107087548Y-98136000D01*
X107809885Y-98136000D01*
X107825124Y-98131525D01*
X107826329Y-98130135D01*
X107828000Y-98122452D01*
X107828000Y-98117885D01*
X114452000Y-98117885D01*
X114456475Y-98133124D01*
X114457865Y-98134329D01*
X114465548Y-98136000D01*
X115187885Y-98136000D01*
X115203124Y-98131525D01*
X115204329Y-98130135D01*
X115206000Y-98122452D01*
X115206000Y-98117885D01*
X115714000Y-98117885D01*
X115718475Y-98133124D01*
X115719865Y-98134329D01*
X115727548Y-98136000D01*
X116449885Y-98136000D01*
X116465124Y-98131525D01*
X116466329Y-98130135D01*
X116468000Y-98122452D01*
X116468000Y-98043343D01*
X116467699Y-98037195D01*
X116454188Y-97899397D01*
X116451805Y-97887362D01*
X116398233Y-97709924D01*
X116393559Y-97698584D01*
X116306540Y-97534923D01*
X116299751Y-97524706D01*
X116182603Y-97381067D01*
X116173959Y-97372363D01*
X116031144Y-97254216D01*
X116020973Y-97247356D01*
X115857924Y-97159196D01*
X115846619Y-97154444D01*
X115731308Y-97118750D01*
X115717205Y-97118544D01*
X115714000Y-97125299D01*
X115714000Y-98117885D01*
X115206000Y-98117885D01*
X115206000Y-97132076D01*
X115202027Y-97118545D01*
X115194232Y-97117425D01*
X115086479Y-97149138D01*
X115075111Y-97153731D01*
X114910846Y-97239607D01*
X114900585Y-97246321D01*
X114756127Y-97362468D01*
X114747368Y-97371046D01*
X114628222Y-97513039D01*
X114621292Y-97523159D01*
X114531998Y-97685585D01*
X114527166Y-97696858D01*
X114471120Y-97873538D01*
X114468570Y-97885532D01*
X114452393Y-98029761D01*
X114452000Y-98036785D01*
X114452000Y-98117885D01*
X107828000Y-98117885D01*
X107828000Y-98043343D01*
X107827699Y-98037195D01*
X107814188Y-97899397D01*
X107811805Y-97887362D01*
X107758233Y-97709924D01*
X107753559Y-97698584D01*
X107666540Y-97534923D01*
X107659751Y-97524706D01*
X107542603Y-97381067D01*
X107533959Y-97372363D01*
X107391144Y-97254216D01*
X107380973Y-97247356D01*
X107217924Y-97159196D01*
X107206619Y-97154444D01*
X107091308Y-97118750D01*
X107077205Y-97118544D01*
X107074000Y-97125299D01*
X107074000Y-98117885D01*
X106566000Y-98117885D01*
X106566000Y-97132076D01*
X106562027Y-97118545D01*
X106554232Y-97117425D01*
X106446479Y-97149138D01*
X106435111Y-97153731D01*
X106270846Y-97239607D01*
X106260585Y-97246321D01*
X106116127Y-97362468D01*
X106107368Y-97371046D01*
X105988222Y-97513039D01*
X105981292Y-97523159D01*
X105891998Y-97685585D01*
X105887166Y-97696858D01*
X105831120Y-97873538D01*
X105828570Y-97885532D01*
X105812393Y-98029761D01*
X105812000Y-98036785D01*
X105812000Y-98117885D01*
X105348000Y-98117885D01*
X105348000Y-98043343D01*
X105347699Y-98037195D01*
X105334188Y-97899397D01*
X105331805Y-97887362D01*
X105278233Y-97709924D01*
X105273559Y-97698584D01*
X105186540Y-97534923D01*
X105179751Y-97524706D01*
X105062603Y-97381067D01*
X105053959Y-97372363D01*
X104911144Y-97254216D01*
X104900973Y-97247356D01*
X104737924Y-97159196D01*
X104726619Y-97154444D01*
X104611308Y-97118750D01*
X104597205Y-97118544D01*
X104594000Y-97125299D01*
X104594000Y-98117885D01*
X104086000Y-98117885D01*
X104086000Y-97132076D01*
X104082027Y-97118545D01*
X104074232Y-97117425D01*
X103966479Y-97149138D01*
X103955111Y-97153731D01*
X103790846Y-97239607D01*
X103780585Y-97246321D01*
X103636127Y-97362468D01*
X103627368Y-97371046D01*
X103508222Y-97513039D01*
X103501292Y-97523159D01*
X103411998Y-97685585D01*
X103407166Y-97696858D01*
X103351120Y-97873538D01*
X103348570Y-97885532D01*
X103332393Y-98029761D01*
X103332000Y-98036785D01*
X103332000Y-98117885D01*
X96708000Y-98117885D01*
X96708000Y-98043343D01*
X96707699Y-98037195D01*
X96694188Y-97899397D01*
X96691805Y-97887362D01*
X96638233Y-97709924D01*
X96633559Y-97698584D01*
X96546540Y-97534923D01*
X96539751Y-97524706D01*
X96422603Y-97381067D01*
X96413959Y-97372363D01*
X96271144Y-97254216D01*
X96260973Y-97247356D01*
X96097924Y-97159196D01*
X96086619Y-97154444D01*
X95971308Y-97118750D01*
X95957205Y-97118544D01*
X95954000Y-97125299D01*
X95954000Y-98117885D01*
X95446000Y-98117885D01*
X95446000Y-97132076D01*
X95442027Y-97118545D01*
X95434232Y-97117425D01*
X95326479Y-97149138D01*
X95315111Y-97153731D01*
X95150846Y-97239607D01*
X95140585Y-97246321D01*
X94996127Y-97362468D01*
X94987368Y-97371046D01*
X94868222Y-97513039D01*
X94861292Y-97523159D01*
X94771998Y-97685585D01*
X94767166Y-97696858D01*
X94711120Y-97873538D01*
X94708570Y-97885532D01*
X94692393Y-98029761D01*
X94692000Y-98036785D01*
X94692000Y-98117885D01*
X94228000Y-98117885D01*
X94228000Y-98043343D01*
X94227699Y-98037195D01*
X94214188Y-97899397D01*
X94211805Y-97887362D01*
X94158233Y-97709924D01*
X94153559Y-97698584D01*
X94066540Y-97534923D01*
X94059751Y-97524706D01*
X93942603Y-97381067D01*
X93933959Y-97372363D01*
X93791144Y-97254216D01*
X93780973Y-97247356D01*
X93617924Y-97159196D01*
X93606619Y-97154444D01*
X93491308Y-97118750D01*
X93477205Y-97118544D01*
X93474000Y-97125299D01*
X93474000Y-98117885D01*
X92966000Y-98117885D01*
X92966000Y-97132076D01*
X92962027Y-97118545D01*
X92954232Y-97117425D01*
X92846479Y-97149138D01*
X92835111Y-97153731D01*
X92670846Y-97239607D01*
X92660585Y-97246321D01*
X92516127Y-97362468D01*
X92507368Y-97371046D01*
X92388222Y-97513039D01*
X92381292Y-97523159D01*
X92291998Y-97685585D01*
X92287166Y-97696858D01*
X92231120Y-97873538D01*
X92228570Y-97885532D01*
X92212393Y-98029761D01*
X92212000Y-98036785D01*
X92212000Y-98117885D01*
X85588000Y-98117885D01*
X85588000Y-98043343D01*
X85587699Y-98037195D01*
X85574188Y-97899397D01*
X85571805Y-97887362D01*
X85518233Y-97709924D01*
X85513559Y-97698584D01*
X85426540Y-97534923D01*
X85419751Y-97524706D01*
X85302603Y-97381067D01*
X85293959Y-97372363D01*
X85151144Y-97254216D01*
X85140973Y-97247356D01*
X84977924Y-97159196D01*
X84966619Y-97154444D01*
X84851308Y-97118750D01*
X84837205Y-97118544D01*
X84834000Y-97125299D01*
X84834000Y-98117885D01*
X84326000Y-98117885D01*
X84326000Y-97132076D01*
X84322027Y-97118545D01*
X84314232Y-97117425D01*
X84206479Y-97149138D01*
X84195111Y-97153731D01*
X84030846Y-97239607D01*
X84020585Y-97246321D01*
X83876127Y-97362468D01*
X83867368Y-97371046D01*
X83748222Y-97513039D01*
X83741292Y-97523159D01*
X83651998Y-97685585D01*
X83647166Y-97696858D01*
X83591120Y-97873538D01*
X83588570Y-97885532D01*
X83572393Y-98029761D01*
X83572000Y-98036785D01*
X83572000Y-98117885D01*
X75438500Y-98117885D01*
X75438500Y-95382703D01*
X77265743Y-95382703D01*
X77266302Y-95386947D01*
X77266302Y-95386951D01*
X77271974Y-95430032D01*
X77303268Y-95667734D01*
X77379129Y-95945036D01*
X77491923Y-96209476D01*
X77639561Y-96456161D01*
X77819313Y-96680528D01*
X78027851Y-96878423D01*
X78261317Y-97046186D01*
X78265112Y-97048195D01*
X78265113Y-97048196D01*
X78286869Y-97059715D01*
X78515392Y-97180712D01*
X78785373Y-97279511D01*
X79066264Y-97340755D01*
X79094841Y-97343004D01*
X79289282Y-97358307D01*
X79289291Y-97358307D01*
X79291739Y-97358500D01*
X79447271Y-97358500D01*
X79449407Y-97358354D01*
X79449418Y-97358354D01*
X79657548Y-97344165D01*
X79657554Y-97344164D01*
X79661825Y-97343873D01*
X79666020Y-97343004D01*
X79666022Y-97343004D01*
X79802584Y-97314723D01*
X79943342Y-97285574D01*
X80214343Y-97189607D01*
X80352025Y-97118544D01*
X80466005Y-97059715D01*
X80466006Y-97059715D01*
X80469812Y-97057750D01*
X80473313Y-97055289D01*
X80473317Y-97055287D01*
X80587418Y-96975095D01*
X80705023Y-96892441D01*
X80915622Y-96696740D01*
X81097713Y-96474268D01*
X81247927Y-96229142D01*
X81363483Y-95965898D01*
X81442244Y-95689406D01*
X81482751Y-95404784D01*
X81482845Y-95386951D01*
X81484235Y-95121583D01*
X81484235Y-95121576D01*
X81484257Y-95117297D01*
X81483199Y-95109255D01*
X81461153Y-94941803D01*
X81449784Y-94855447D01*
X83622000Y-94855447D01*
X83622323Y-94861822D01*
X83636082Y-94997277D01*
X83638636Y-95009717D01*
X83693016Y-95183244D01*
X83698025Y-95194932D01*
X83786187Y-95353979D01*
X83793438Y-95364412D01*
X83911785Y-95502491D01*
X83920976Y-95511244D01*
X84064680Y-95622711D01*
X84075440Y-95629435D01*
X84238625Y-95709732D01*
X84250519Y-95714155D01*
X84308470Y-95729251D01*
X84322564Y-95728817D01*
X84326000Y-95720636D01*
X84326000Y-95719229D01*
X84834000Y-95719229D01*
X84837973Y-95732760D01*
X84844075Y-95733637D01*
X84996136Y-95677690D01*
X85007549Y-95672123D01*
X85162108Y-95576292D01*
X85172174Y-95568540D01*
X85304303Y-95443592D01*
X85312605Y-95433974D01*
X85332083Y-95406156D01*
X85387540Y-95361827D01*
X85458159Y-95354518D01*
X85511821Y-95378328D01*
X85575678Y-95427150D01*
X85662372Y-95467576D01*
X85733631Y-95500805D01*
X85733634Y-95500806D01*
X85739808Y-95503685D01*
X85746456Y-95505171D01*
X85746459Y-95505172D01*
X85852421Y-95528857D01*
X85916543Y-95543190D01*
X85922088Y-95543500D01*
X86055244Y-95543500D01*
X86190037Y-95528857D01*
X86308190Y-95489094D01*
X86355204Y-95473272D01*
X86355206Y-95473271D01*
X86361675Y-95471094D01*
X86516905Y-95377823D01*
X86521862Y-95373135D01*
X86521865Y-95373133D01*
X86643527Y-95258082D01*
X86643529Y-95258080D01*
X86648485Y-95253393D01*
X86652317Y-95247755D01*
X86652320Y-95247751D01*
X86746442Y-95109255D01*
X86750277Y-95103612D01*
X86817530Y-94935466D01*
X86818644Y-94928738D01*
X86818645Y-94928734D01*
X86845993Y-94763539D01*
X86845993Y-94763536D01*
X86847108Y-94756802D01*
X86842203Y-94663198D01*
X90952892Y-94663198D01*
X90953249Y-94670015D01*
X90953249Y-94670019D01*
X90958151Y-94763539D01*
X90962370Y-94844047D01*
X90964181Y-94850620D01*
X90964181Y-94850623D01*
X90987551Y-94935466D01*
X91010461Y-95018641D01*
X91094922Y-95178836D01*
X91099327Y-95184049D01*
X91099330Y-95184053D01*
X91207406Y-95311943D01*
X91207410Y-95311947D01*
X91211813Y-95317157D01*
X91217237Y-95321304D01*
X91217238Y-95321305D01*
X91350257Y-95423006D01*
X91350261Y-95423009D01*
X91355678Y-95427150D01*
X91442372Y-95467576D01*
X91513631Y-95500805D01*
X91513634Y-95500806D01*
X91519808Y-95503685D01*
X91526456Y-95505171D01*
X91526459Y-95505172D01*
X91632421Y-95528857D01*
X91696543Y-95543190D01*
X91702088Y-95543500D01*
X91835244Y-95543500D01*
X91970037Y-95528857D01*
X92088190Y-95489094D01*
X92135204Y-95473272D01*
X92135206Y-95473271D01*
X92141675Y-95471094D01*
X92147530Y-95467576D01*
X92291054Y-95381339D01*
X92291056Y-95381337D01*
X92296905Y-95377823D01*
X92297447Y-95378726D01*
X92357882Y-95355724D01*
X92427355Y-95370352D01*
X92463377Y-95399343D01*
X92551785Y-95502490D01*
X92560976Y-95511244D01*
X92704680Y-95622711D01*
X92715440Y-95629435D01*
X92878625Y-95709732D01*
X92890519Y-95714155D01*
X92948470Y-95729251D01*
X92962564Y-95728817D01*
X92966000Y-95720636D01*
X92966000Y-95719229D01*
X93474000Y-95719229D01*
X93477973Y-95732760D01*
X93484075Y-95733637D01*
X93636136Y-95677690D01*
X93647549Y-95672123D01*
X93802108Y-95576292D01*
X93812174Y-95568540D01*
X93944303Y-95443592D01*
X93952605Y-95433974D01*
X94056908Y-95285013D01*
X94063108Y-95273919D01*
X94135332Y-95107020D01*
X94139171Y-95094917D01*
X94176675Y-94915400D01*
X94177915Y-94905848D01*
X94178000Y-94902616D01*
X94178000Y-94855447D01*
X94742000Y-94855447D01*
X94742323Y-94861822D01*
X94756082Y-94997277D01*
X94758636Y-95009717D01*
X94813016Y-95183244D01*
X94818025Y-95194932D01*
X94906187Y-95353979D01*
X94913438Y-95364412D01*
X95031785Y-95502491D01*
X95040976Y-95511244D01*
X95184680Y-95622711D01*
X95195440Y-95629435D01*
X95358625Y-95709732D01*
X95370519Y-95714155D01*
X95428470Y-95729251D01*
X95442564Y-95728817D01*
X95446000Y-95720636D01*
X95446000Y-95719229D01*
X95954000Y-95719229D01*
X95957973Y-95732760D01*
X95964075Y-95733637D01*
X96116136Y-95677690D01*
X96127549Y-95672123D01*
X96282108Y-95576292D01*
X96292174Y-95568540D01*
X96424303Y-95443592D01*
X96432605Y-95433974D01*
X96452083Y-95406156D01*
X96507540Y-95361827D01*
X96578159Y-95354518D01*
X96631821Y-95378328D01*
X96695678Y-95427150D01*
X96782372Y-95467576D01*
X96853631Y-95500805D01*
X96853634Y-95500806D01*
X96859808Y-95503685D01*
X96866456Y-95505171D01*
X96866459Y-95505172D01*
X96972421Y-95528857D01*
X97036543Y-95543190D01*
X97042088Y-95543500D01*
X97175244Y-95543500D01*
X97310037Y-95528857D01*
X97428190Y-95489094D01*
X97475204Y-95473272D01*
X97475206Y-95473271D01*
X97481675Y-95471094D01*
X97636905Y-95377823D01*
X97641862Y-95373135D01*
X97641865Y-95373133D01*
X97763527Y-95258082D01*
X97763529Y-95258080D01*
X97768485Y-95253393D01*
X97772317Y-95247755D01*
X97772320Y-95247751D01*
X97866442Y-95109255D01*
X97870277Y-95103612D01*
X97937530Y-94935466D01*
X97938644Y-94928738D01*
X97938645Y-94928734D01*
X97965993Y-94763539D01*
X97965993Y-94763536D01*
X97967108Y-94756802D01*
X97962203Y-94663198D01*
X102072892Y-94663198D01*
X102073249Y-94670015D01*
X102073249Y-94670019D01*
X102078151Y-94763539D01*
X102082370Y-94844047D01*
X102084181Y-94850620D01*
X102084181Y-94850623D01*
X102107551Y-94935466D01*
X102130461Y-95018641D01*
X102214922Y-95178836D01*
X102219327Y-95184049D01*
X102219330Y-95184053D01*
X102327406Y-95311943D01*
X102327410Y-95311947D01*
X102331813Y-95317157D01*
X102337237Y-95321304D01*
X102337238Y-95321305D01*
X102470257Y-95423006D01*
X102470261Y-95423009D01*
X102475678Y-95427150D01*
X102562372Y-95467576D01*
X102633631Y-95500805D01*
X102633634Y-95500806D01*
X102639808Y-95503685D01*
X102646456Y-95505171D01*
X102646459Y-95505172D01*
X102752421Y-95528857D01*
X102816543Y-95543190D01*
X102822088Y-95543500D01*
X102955244Y-95543500D01*
X103090037Y-95528857D01*
X103208190Y-95489094D01*
X103255204Y-95473272D01*
X103255206Y-95473271D01*
X103261675Y-95471094D01*
X103267530Y-95467576D01*
X103411054Y-95381339D01*
X103411056Y-95381337D01*
X103416905Y-95377823D01*
X103417447Y-95378726D01*
X103477882Y-95355724D01*
X103547355Y-95370352D01*
X103583377Y-95399343D01*
X103671785Y-95502490D01*
X103680976Y-95511244D01*
X103824680Y-95622711D01*
X103835440Y-95629435D01*
X103998625Y-95709732D01*
X104010519Y-95714155D01*
X104068470Y-95729251D01*
X104082564Y-95728817D01*
X104086000Y-95720636D01*
X104086000Y-95719229D01*
X104594000Y-95719229D01*
X104597973Y-95732760D01*
X104604075Y-95733637D01*
X104756136Y-95677690D01*
X104767549Y-95672123D01*
X104922108Y-95576292D01*
X104932174Y-95568540D01*
X105064303Y-95443592D01*
X105072605Y-95433974D01*
X105176908Y-95285013D01*
X105183108Y-95273919D01*
X105255332Y-95107020D01*
X105259171Y-95094917D01*
X105296675Y-94915400D01*
X105297915Y-94905848D01*
X105298000Y-94902616D01*
X105298000Y-94855447D01*
X105862000Y-94855447D01*
X105862323Y-94861822D01*
X105876082Y-94997277D01*
X105878636Y-95009717D01*
X105933016Y-95183244D01*
X105938025Y-95194932D01*
X106026187Y-95353979D01*
X106033438Y-95364412D01*
X106151785Y-95502491D01*
X106160976Y-95511244D01*
X106304680Y-95622711D01*
X106315440Y-95629435D01*
X106478625Y-95709732D01*
X106490519Y-95714155D01*
X106548470Y-95729251D01*
X106562564Y-95728817D01*
X106566000Y-95720636D01*
X106566000Y-95719229D01*
X107074000Y-95719229D01*
X107077973Y-95732760D01*
X107084075Y-95733637D01*
X107236136Y-95677690D01*
X107247549Y-95672123D01*
X107402108Y-95576292D01*
X107412174Y-95568540D01*
X107544303Y-95443592D01*
X107552605Y-95433974D01*
X107572083Y-95406156D01*
X107627540Y-95361827D01*
X107698159Y-95354518D01*
X107751821Y-95378328D01*
X107815678Y-95427150D01*
X107902372Y-95467576D01*
X107973631Y-95500805D01*
X107973634Y-95500806D01*
X107979808Y-95503685D01*
X107986456Y-95505171D01*
X107986459Y-95505172D01*
X108092421Y-95528857D01*
X108156543Y-95543190D01*
X108162088Y-95543500D01*
X108295244Y-95543500D01*
X108430037Y-95528857D01*
X108548190Y-95489094D01*
X108595204Y-95473272D01*
X108595206Y-95473271D01*
X108601675Y-95471094D01*
X108756905Y-95377823D01*
X108761862Y-95373135D01*
X108761865Y-95373133D01*
X108883527Y-95258082D01*
X108883529Y-95258080D01*
X108888485Y-95253393D01*
X108892317Y-95247755D01*
X108892320Y-95247751D01*
X108986442Y-95109255D01*
X108990277Y-95103612D01*
X109057530Y-94935466D01*
X109058644Y-94928738D01*
X109058645Y-94928734D01*
X109085993Y-94763539D01*
X109085993Y-94763536D01*
X109087108Y-94756802D01*
X109082203Y-94663198D01*
X113192892Y-94663198D01*
X113193249Y-94670015D01*
X113193249Y-94670019D01*
X113198151Y-94763539D01*
X113202370Y-94844047D01*
X113204181Y-94850620D01*
X113204181Y-94850623D01*
X113227551Y-94935466D01*
X113250461Y-95018641D01*
X113334922Y-95178836D01*
X113339327Y-95184049D01*
X113339330Y-95184053D01*
X113447406Y-95311943D01*
X113447410Y-95311947D01*
X113451813Y-95317157D01*
X113457237Y-95321304D01*
X113457238Y-95321305D01*
X113590257Y-95423006D01*
X113590261Y-95423009D01*
X113595678Y-95427150D01*
X113682372Y-95467576D01*
X113753631Y-95500805D01*
X113753634Y-95500806D01*
X113759808Y-95503685D01*
X113766456Y-95505171D01*
X113766459Y-95505172D01*
X113872421Y-95528857D01*
X113936543Y-95543190D01*
X113942088Y-95543500D01*
X114075244Y-95543500D01*
X114210037Y-95528857D01*
X114328190Y-95489094D01*
X114375204Y-95473272D01*
X114375206Y-95473271D01*
X114381675Y-95471094D01*
X114387530Y-95467576D01*
X114531054Y-95381339D01*
X114531056Y-95381337D01*
X114536905Y-95377823D01*
X114537447Y-95378726D01*
X114597882Y-95355724D01*
X114667355Y-95370352D01*
X114703377Y-95399343D01*
X114791785Y-95502490D01*
X114800976Y-95511244D01*
X114944680Y-95622711D01*
X114955440Y-95629435D01*
X115118625Y-95709732D01*
X115130519Y-95714155D01*
X115188470Y-95729251D01*
X115202564Y-95728817D01*
X115206000Y-95720636D01*
X115206000Y-95719229D01*
X115714000Y-95719229D01*
X115717973Y-95732760D01*
X115724075Y-95733637D01*
X115876136Y-95677690D01*
X115887549Y-95672123D01*
X116042108Y-95576292D01*
X116052174Y-95568540D01*
X116184303Y-95443592D01*
X116192605Y-95433974D01*
X116228505Y-95382703D01*
X118540743Y-95382703D01*
X118541302Y-95386947D01*
X118541302Y-95386951D01*
X118546974Y-95430032D01*
X118578268Y-95667734D01*
X118654129Y-95945036D01*
X118766923Y-96209476D01*
X118914561Y-96456161D01*
X119094313Y-96680528D01*
X119302851Y-96878423D01*
X119536317Y-97046186D01*
X119540112Y-97048195D01*
X119540113Y-97048196D01*
X119561869Y-97059715D01*
X119790392Y-97180712D01*
X120060373Y-97279511D01*
X120341264Y-97340755D01*
X120369841Y-97343004D01*
X120564282Y-97358307D01*
X120564291Y-97358307D01*
X120566739Y-97358500D01*
X120722271Y-97358500D01*
X120724407Y-97358354D01*
X120724418Y-97358354D01*
X120932548Y-97344165D01*
X120932554Y-97344164D01*
X120936825Y-97343873D01*
X120941020Y-97343004D01*
X120941022Y-97343004D01*
X121077584Y-97314723D01*
X121218342Y-97285574D01*
X121489343Y-97189607D01*
X121627025Y-97118544D01*
X121741005Y-97059715D01*
X121741006Y-97059715D01*
X121744812Y-97057750D01*
X121748313Y-97055289D01*
X121748317Y-97055287D01*
X121862418Y-96975095D01*
X121980023Y-96892441D01*
X122190622Y-96696740D01*
X122372713Y-96474268D01*
X122522927Y-96229142D01*
X122638483Y-95965898D01*
X122717244Y-95689406D01*
X122757751Y-95404784D01*
X122757845Y-95386951D01*
X122759235Y-95121583D01*
X122759235Y-95121576D01*
X122759257Y-95117297D01*
X122758199Y-95109255D01*
X122736153Y-94941803D01*
X122721732Y-94832266D01*
X122645871Y-94554964D01*
X122583160Y-94407941D01*
X122534763Y-94294476D01*
X122534761Y-94294472D01*
X122533077Y-94290524D01*
X122385439Y-94043839D01*
X122205687Y-93819472D01*
X121997149Y-93621577D01*
X121763683Y-93453814D01*
X121741843Y-93442250D01*
X121681467Y-93410283D01*
X121509608Y-93319288D01*
X121239627Y-93220489D01*
X120958736Y-93159245D01*
X120927685Y-93156801D01*
X120735718Y-93141693D01*
X120735709Y-93141693D01*
X120733261Y-93141500D01*
X120577729Y-93141500D01*
X120575593Y-93141646D01*
X120575582Y-93141646D01*
X120367452Y-93155835D01*
X120367446Y-93155836D01*
X120363175Y-93156127D01*
X120358980Y-93156996D01*
X120358978Y-93156996D01*
X120222416Y-93185277D01*
X120081658Y-93214426D01*
X119810657Y-93310393D01*
X119555188Y-93442250D01*
X119551687Y-93444711D01*
X119551683Y-93444713D01*
X119541594Y-93451804D01*
X119319977Y-93607559D01*
X119109378Y-93803260D01*
X118927287Y-94025732D01*
X118777073Y-94270858D01*
X118661517Y-94534102D01*
X118582756Y-94810594D01*
X118542249Y-95095216D01*
X118542227Y-95099505D01*
X118542226Y-95099512D01*
X118540765Y-95378417D01*
X118540743Y-95382703D01*
X116228505Y-95382703D01*
X116296908Y-95285013D01*
X116303108Y-95273919D01*
X116375332Y-95107020D01*
X116379171Y-95094917D01*
X116416675Y-94915400D01*
X116417915Y-94905848D01*
X116418000Y-94902616D01*
X116418000Y-94482115D01*
X116413525Y-94466876D01*
X116412135Y-94465671D01*
X116404452Y-94464000D01*
X115732115Y-94464000D01*
X115716876Y-94468475D01*
X115715671Y-94469865D01*
X115714000Y-94477548D01*
X115714000Y-95719229D01*
X115206000Y-95719229D01*
X115206000Y-93937885D01*
X115714000Y-93937885D01*
X115718475Y-93953124D01*
X115719865Y-93954329D01*
X115727548Y-93956000D01*
X116399885Y-93956000D01*
X116415124Y-93951525D01*
X116416329Y-93950135D01*
X116418000Y-93942452D01*
X116418000Y-93564553D01*
X116417677Y-93558178D01*
X116403918Y-93422723D01*
X116401364Y-93410283D01*
X116346984Y-93236756D01*
X116341975Y-93225068D01*
X116253813Y-93066021D01*
X116246562Y-93055588D01*
X116128215Y-92917509D01*
X116119024Y-92908756D01*
X115975320Y-92797289D01*
X115964560Y-92790565D01*
X115801375Y-92710268D01*
X115789481Y-92705845D01*
X115731530Y-92690749D01*
X115717436Y-92691183D01*
X115714000Y-92699364D01*
X115714000Y-93937885D01*
X115206000Y-93937885D01*
X115206000Y-92700771D01*
X115202027Y-92687240D01*
X115195925Y-92686363D01*
X115043864Y-92742310D01*
X115032451Y-92747877D01*
X114877892Y-92843708D01*
X114867826Y-92851460D01*
X114735697Y-92976408D01*
X114727395Y-92986026D01*
X114623092Y-93134987D01*
X114616892Y-93146081D01*
X114544668Y-93312980D01*
X114540829Y-93325083D01*
X114503325Y-93504600D01*
X114502085Y-93514152D01*
X114502000Y-93517384D01*
X114502000Y-93812639D01*
X114481998Y-93880760D01*
X114428342Y-93927253D01*
X114358068Y-93937357D01*
X114322750Y-93926834D01*
X114306369Y-93919195D01*
X114306366Y-93919194D01*
X114300192Y-93916315D01*
X114293544Y-93914829D01*
X114293541Y-93914828D01*
X114128494Y-93877936D01*
X114128495Y-93877936D01*
X114123457Y-93876810D01*
X114117912Y-93876500D01*
X113984756Y-93876500D01*
X113849963Y-93891143D01*
X113766609Y-93919195D01*
X113684796Y-93946728D01*
X113684794Y-93946729D01*
X113678325Y-93948906D01*
X113523095Y-94042177D01*
X113518138Y-94046865D01*
X113518135Y-94046867D01*
X113463329Y-94098695D01*
X113391515Y-94166607D01*
X113387683Y-94172245D01*
X113387680Y-94172249D01*
X113293558Y-94310745D01*
X113289723Y-94316388D01*
X113222470Y-94484534D01*
X113221356Y-94491262D01*
X113221355Y-94491266D01*
X113194007Y-94656461D01*
X113192892Y-94663198D01*
X109082203Y-94663198D01*
X109077987Y-94582766D01*
X109077630Y-94575953D01*
X109070762Y-94551016D01*
X109031352Y-94407941D01*
X109029539Y-94401359D01*
X108945078Y-94241164D01*
X108940673Y-94235951D01*
X108940670Y-94235947D01*
X108832594Y-94108057D01*
X108832590Y-94108053D01*
X108828187Y-94102843D01*
X108755829Y-94047521D01*
X108689743Y-93996994D01*
X108689739Y-93996991D01*
X108684322Y-93992850D01*
X108565317Y-93937357D01*
X108526369Y-93919195D01*
X108526366Y-93919194D01*
X108520192Y-93916315D01*
X108513544Y-93914829D01*
X108513541Y-93914828D01*
X108348494Y-93877936D01*
X108348495Y-93877936D01*
X108343457Y-93876810D01*
X108337912Y-93876500D01*
X108204756Y-93876500D01*
X108069963Y-93891143D01*
X108063499Y-93893318D01*
X108063496Y-93893319D01*
X107944189Y-93933471D01*
X107873247Y-93936241D01*
X107812068Y-93900218D01*
X107780077Y-93836837D01*
X107778000Y-93814052D01*
X107778000Y-93564553D01*
X107777677Y-93558178D01*
X107763918Y-93422723D01*
X107761364Y-93410283D01*
X107706984Y-93236756D01*
X107701975Y-93225068D01*
X107613813Y-93066021D01*
X107606562Y-93055588D01*
X107488215Y-92917509D01*
X107479024Y-92908756D01*
X107335320Y-92797289D01*
X107324560Y-92790565D01*
X107161375Y-92710268D01*
X107149481Y-92705845D01*
X107091530Y-92690749D01*
X107077436Y-92691183D01*
X107074000Y-92699364D01*
X107074000Y-95719229D01*
X106566000Y-95719229D01*
X106566000Y-94482115D01*
X106561525Y-94466876D01*
X106560135Y-94465671D01*
X106552452Y-94464000D01*
X105880115Y-94464000D01*
X105864876Y-94468475D01*
X105863671Y-94469865D01*
X105862000Y-94477548D01*
X105862000Y-94855447D01*
X105298000Y-94855447D01*
X105298000Y-94482115D01*
X105293525Y-94466876D01*
X105292135Y-94465671D01*
X105284452Y-94464000D01*
X104612115Y-94464000D01*
X104596876Y-94468475D01*
X104595671Y-94469865D01*
X104594000Y-94477548D01*
X104594000Y-95719229D01*
X104086000Y-95719229D01*
X104086000Y-93937885D01*
X104594000Y-93937885D01*
X104598475Y-93953124D01*
X104599865Y-93954329D01*
X104607548Y-93956000D01*
X105279885Y-93956000D01*
X105295124Y-93951525D01*
X105296329Y-93950135D01*
X105298000Y-93942452D01*
X105298000Y-93937885D01*
X105862000Y-93937885D01*
X105866475Y-93953124D01*
X105867865Y-93954329D01*
X105875548Y-93956000D01*
X106547885Y-93956000D01*
X106563124Y-93951525D01*
X106564329Y-93950135D01*
X106566000Y-93942452D01*
X106566000Y-92700771D01*
X106562027Y-92687240D01*
X106555925Y-92686363D01*
X106403864Y-92742310D01*
X106392451Y-92747877D01*
X106237892Y-92843708D01*
X106227826Y-92851460D01*
X106095697Y-92976408D01*
X106087395Y-92986026D01*
X105983092Y-93134987D01*
X105976892Y-93146081D01*
X105904668Y-93312980D01*
X105900829Y-93325083D01*
X105863325Y-93504600D01*
X105862085Y-93514152D01*
X105862000Y-93517384D01*
X105862000Y-93937885D01*
X105298000Y-93937885D01*
X105298000Y-93564553D01*
X105297677Y-93558178D01*
X105283918Y-93422723D01*
X105281364Y-93410283D01*
X105226984Y-93236756D01*
X105221975Y-93225068D01*
X105133813Y-93066021D01*
X105126562Y-93055588D01*
X105008215Y-92917509D01*
X104999024Y-92908756D01*
X104855320Y-92797289D01*
X104844560Y-92790565D01*
X104681375Y-92710268D01*
X104669481Y-92705845D01*
X104611530Y-92690749D01*
X104597436Y-92691183D01*
X104594000Y-92699364D01*
X104594000Y-93937885D01*
X104086000Y-93937885D01*
X104086000Y-92700771D01*
X104082027Y-92687240D01*
X104075925Y-92686363D01*
X103923864Y-92742310D01*
X103912451Y-92747877D01*
X103757892Y-92843708D01*
X103747826Y-92851460D01*
X103615697Y-92976408D01*
X103607395Y-92986026D01*
X103503092Y-93134987D01*
X103496892Y-93146081D01*
X103424668Y-93312980D01*
X103420829Y-93325083D01*
X103383325Y-93504600D01*
X103382085Y-93514152D01*
X103382000Y-93517384D01*
X103382000Y-93812639D01*
X103361998Y-93880760D01*
X103308342Y-93927253D01*
X103238068Y-93937357D01*
X103202750Y-93926834D01*
X103186369Y-93919195D01*
X103186366Y-93919194D01*
X103180192Y-93916315D01*
X103173544Y-93914829D01*
X103173541Y-93914828D01*
X103008494Y-93877936D01*
X103008495Y-93877936D01*
X103003457Y-93876810D01*
X102997912Y-93876500D01*
X102864756Y-93876500D01*
X102729963Y-93891143D01*
X102646609Y-93919195D01*
X102564796Y-93946728D01*
X102564794Y-93946729D01*
X102558325Y-93948906D01*
X102403095Y-94042177D01*
X102398138Y-94046865D01*
X102398135Y-94046867D01*
X102343329Y-94098695D01*
X102271515Y-94166607D01*
X102267683Y-94172245D01*
X102267680Y-94172249D01*
X102173558Y-94310745D01*
X102169723Y-94316388D01*
X102102470Y-94484534D01*
X102101356Y-94491262D01*
X102101355Y-94491266D01*
X102074007Y-94656461D01*
X102072892Y-94663198D01*
X97962203Y-94663198D01*
X97957987Y-94582766D01*
X97957630Y-94575953D01*
X97950762Y-94551016D01*
X97911352Y-94407941D01*
X97909539Y-94401359D01*
X97825078Y-94241164D01*
X97820673Y-94235951D01*
X97820670Y-94235947D01*
X97712594Y-94108057D01*
X97712590Y-94108053D01*
X97708187Y-94102843D01*
X97635829Y-94047521D01*
X97569743Y-93996994D01*
X97569739Y-93996991D01*
X97564322Y-93992850D01*
X97445317Y-93937357D01*
X97406369Y-93919195D01*
X97406366Y-93919194D01*
X97400192Y-93916315D01*
X97393544Y-93914829D01*
X97393541Y-93914828D01*
X97228494Y-93877936D01*
X97228495Y-93877936D01*
X97223457Y-93876810D01*
X97217912Y-93876500D01*
X97084756Y-93876500D01*
X96949963Y-93891143D01*
X96943499Y-93893318D01*
X96943496Y-93893319D01*
X96824189Y-93933471D01*
X96753247Y-93936241D01*
X96692068Y-93900218D01*
X96660077Y-93836837D01*
X96658000Y-93814052D01*
X96658000Y-93564553D01*
X96657677Y-93558178D01*
X96643918Y-93422723D01*
X96641364Y-93410283D01*
X96586984Y-93236756D01*
X96581975Y-93225068D01*
X96493813Y-93066021D01*
X96486562Y-93055588D01*
X96368215Y-92917509D01*
X96359024Y-92908756D01*
X96215320Y-92797289D01*
X96204560Y-92790565D01*
X96041375Y-92710268D01*
X96029481Y-92705845D01*
X95971530Y-92690749D01*
X95957436Y-92691183D01*
X95954000Y-92699364D01*
X95954000Y-95719229D01*
X95446000Y-95719229D01*
X95446000Y-94482115D01*
X95441525Y-94466876D01*
X95440135Y-94465671D01*
X95432452Y-94464000D01*
X94760115Y-94464000D01*
X94744876Y-94468475D01*
X94743671Y-94469865D01*
X94742000Y-94477548D01*
X94742000Y-94855447D01*
X94178000Y-94855447D01*
X94178000Y-94482115D01*
X94173525Y-94466876D01*
X94172135Y-94465671D01*
X94164452Y-94464000D01*
X93492115Y-94464000D01*
X93476876Y-94468475D01*
X93475671Y-94469865D01*
X93474000Y-94477548D01*
X93474000Y-95719229D01*
X92966000Y-95719229D01*
X92966000Y-93937885D01*
X93474000Y-93937885D01*
X93478475Y-93953124D01*
X93479865Y-93954329D01*
X93487548Y-93956000D01*
X94159885Y-93956000D01*
X94175124Y-93951525D01*
X94176329Y-93950135D01*
X94178000Y-93942452D01*
X94178000Y-93937885D01*
X94742000Y-93937885D01*
X94746475Y-93953124D01*
X94747865Y-93954329D01*
X94755548Y-93956000D01*
X95427885Y-93956000D01*
X95443124Y-93951525D01*
X95444329Y-93950135D01*
X95446000Y-93942452D01*
X95446000Y-92700771D01*
X95442027Y-92687240D01*
X95435925Y-92686363D01*
X95283864Y-92742310D01*
X95272451Y-92747877D01*
X95117892Y-92843708D01*
X95107826Y-92851460D01*
X94975697Y-92976408D01*
X94967395Y-92986026D01*
X94863092Y-93134987D01*
X94856892Y-93146081D01*
X94784668Y-93312980D01*
X94780829Y-93325083D01*
X94743325Y-93504600D01*
X94742085Y-93514152D01*
X94742000Y-93517384D01*
X94742000Y-93937885D01*
X94178000Y-93937885D01*
X94178000Y-93564553D01*
X94177677Y-93558178D01*
X94163918Y-93422723D01*
X94161364Y-93410283D01*
X94106984Y-93236756D01*
X94101975Y-93225068D01*
X94013813Y-93066021D01*
X94006562Y-93055588D01*
X93888215Y-92917509D01*
X93879024Y-92908756D01*
X93735320Y-92797289D01*
X93724560Y-92790565D01*
X93561375Y-92710268D01*
X93549481Y-92705845D01*
X93491530Y-92690749D01*
X93477436Y-92691183D01*
X93474000Y-92699364D01*
X93474000Y-93937885D01*
X92966000Y-93937885D01*
X92966000Y-92700771D01*
X92962027Y-92687240D01*
X92955925Y-92686363D01*
X92803864Y-92742310D01*
X92792451Y-92747877D01*
X92637892Y-92843708D01*
X92627826Y-92851460D01*
X92495697Y-92976408D01*
X92487395Y-92986026D01*
X92383092Y-93134987D01*
X92376892Y-93146081D01*
X92304668Y-93312980D01*
X92300829Y-93325083D01*
X92263325Y-93504600D01*
X92262085Y-93514152D01*
X92262000Y-93517384D01*
X92262000Y-93812639D01*
X92241998Y-93880760D01*
X92188342Y-93927253D01*
X92118068Y-93937357D01*
X92082750Y-93926834D01*
X92066369Y-93919195D01*
X92066366Y-93919194D01*
X92060192Y-93916315D01*
X92053544Y-93914829D01*
X92053541Y-93914828D01*
X91888494Y-93877936D01*
X91888495Y-93877936D01*
X91883457Y-93876810D01*
X91877912Y-93876500D01*
X91744756Y-93876500D01*
X91609963Y-93891143D01*
X91526609Y-93919195D01*
X91444796Y-93946728D01*
X91444794Y-93946729D01*
X91438325Y-93948906D01*
X91283095Y-94042177D01*
X91278138Y-94046865D01*
X91278135Y-94046867D01*
X91223329Y-94098695D01*
X91151515Y-94166607D01*
X91147683Y-94172245D01*
X91147680Y-94172249D01*
X91053558Y-94310745D01*
X91049723Y-94316388D01*
X90982470Y-94484534D01*
X90981356Y-94491262D01*
X90981355Y-94491266D01*
X90954007Y-94656461D01*
X90952892Y-94663198D01*
X86842203Y-94663198D01*
X86837987Y-94582766D01*
X86837630Y-94575953D01*
X86830762Y-94551016D01*
X86791352Y-94407941D01*
X86789539Y-94401359D01*
X86705078Y-94241164D01*
X86700673Y-94235951D01*
X86700670Y-94235947D01*
X86592594Y-94108057D01*
X86592590Y-94108053D01*
X86588187Y-94102843D01*
X86515829Y-94047521D01*
X86449743Y-93996994D01*
X86449739Y-93996991D01*
X86444322Y-93992850D01*
X86325317Y-93937357D01*
X86286369Y-93919195D01*
X86286366Y-93919194D01*
X86280192Y-93916315D01*
X86273544Y-93914829D01*
X86273541Y-93914828D01*
X86108494Y-93877936D01*
X86108495Y-93877936D01*
X86103457Y-93876810D01*
X86097912Y-93876500D01*
X85964756Y-93876500D01*
X85829963Y-93891143D01*
X85823499Y-93893318D01*
X85823496Y-93893319D01*
X85704189Y-93933471D01*
X85633247Y-93936241D01*
X85572068Y-93900218D01*
X85540077Y-93836837D01*
X85538000Y-93814052D01*
X85538000Y-93564553D01*
X85537677Y-93558178D01*
X85523918Y-93422723D01*
X85521364Y-93410283D01*
X85466984Y-93236756D01*
X85461975Y-93225068D01*
X85373813Y-93066021D01*
X85366562Y-93055588D01*
X85248215Y-92917509D01*
X85239024Y-92908756D01*
X85095320Y-92797289D01*
X85084560Y-92790565D01*
X84921375Y-92710268D01*
X84909481Y-92705845D01*
X84851530Y-92690749D01*
X84837436Y-92691183D01*
X84834000Y-92699364D01*
X84834000Y-95719229D01*
X84326000Y-95719229D01*
X84326000Y-94482115D01*
X84321525Y-94466876D01*
X84320135Y-94465671D01*
X84312452Y-94464000D01*
X83640115Y-94464000D01*
X83624876Y-94468475D01*
X83623671Y-94469865D01*
X83622000Y-94477548D01*
X83622000Y-94855447D01*
X81449784Y-94855447D01*
X81446732Y-94832266D01*
X81370871Y-94554964D01*
X81308160Y-94407941D01*
X81259763Y-94294476D01*
X81259761Y-94294472D01*
X81258077Y-94290524D01*
X81110439Y-94043839D01*
X81025554Y-93937885D01*
X83622000Y-93937885D01*
X83626475Y-93953124D01*
X83627865Y-93954329D01*
X83635548Y-93956000D01*
X84307885Y-93956000D01*
X84323124Y-93951525D01*
X84324329Y-93950135D01*
X84326000Y-93942452D01*
X84326000Y-92700771D01*
X84322027Y-92687240D01*
X84315925Y-92686363D01*
X84163864Y-92742310D01*
X84152451Y-92747877D01*
X83997892Y-92843708D01*
X83987826Y-92851460D01*
X83855697Y-92976408D01*
X83847395Y-92986026D01*
X83743092Y-93134987D01*
X83736892Y-93146081D01*
X83664668Y-93312980D01*
X83660829Y-93325083D01*
X83623325Y-93504600D01*
X83622085Y-93514152D01*
X83622000Y-93517384D01*
X83622000Y-93937885D01*
X81025554Y-93937885D01*
X80930687Y-93819472D01*
X80722149Y-93621577D01*
X80488683Y-93453814D01*
X80466843Y-93442250D01*
X80406467Y-93410283D01*
X80234608Y-93319288D01*
X79964627Y-93220489D01*
X79683736Y-93159245D01*
X79652685Y-93156801D01*
X79460718Y-93141693D01*
X79460709Y-93141693D01*
X79458261Y-93141500D01*
X79302729Y-93141500D01*
X79300593Y-93141646D01*
X79300582Y-93141646D01*
X79092452Y-93155835D01*
X79092446Y-93155836D01*
X79088175Y-93156127D01*
X79083980Y-93156996D01*
X79083978Y-93156996D01*
X78947417Y-93185276D01*
X78806658Y-93214426D01*
X78535657Y-93310393D01*
X78280188Y-93442250D01*
X78276687Y-93444711D01*
X78276683Y-93444713D01*
X78266594Y-93451804D01*
X78044977Y-93607559D01*
X77834378Y-93803260D01*
X77652287Y-94025732D01*
X77502073Y-94270858D01*
X77386517Y-94534102D01*
X77307756Y-94810594D01*
X77267249Y-95095216D01*
X77267227Y-95099505D01*
X77267226Y-95099512D01*
X77265765Y-95378417D01*
X77265743Y-95382703D01*
X75438500Y-95382703D01*
X75438500Y-85222703D01*
X77265743Y-85222703D01*
X77266302Y-85226947D01*
X77266302Y-85226951D01*
X77268084Y-85240488D01*
X77303268Y-85507734D01*
X77379129Y-85785036D01*
X77380813Y-85788984D01*
X77444648Y-85938641D01*
X77491923Y-86049476D01*
X77639561Y-86296161D01*
X77819313Y-86520528D01*
X78027851Y-86718423D01*
X78261317Y-86886186D01*
X78265112Y-86888195D01*
X78265113Y-86888196D01*
X78286869Y-86899715D01*
X78515392Y-87020712D01*
X78785373Y-87119511D01*
X79066264Y-87180755D01*
X79094841Y-87183004D01*
X79289282Y-87198307D01*
X79289291Y-87198307D01*
X79291739Y-87198500D01*
X79447271Y-87198500D01*
X79449407Y-87198354D01*
X79449418Y-87198354D01*
X79657548Y-87184165D01*
X79657554Y-87184164D01*
X79661825Y-87183873D01*
X79666020Y-87183004D01*
X79666022Y-87183004D01*
X79802584Y-87154723D01*
X79943342Y-87125574D01*
X80214343Y-87029607D01*
X80469812Y-86897750D01*
X80473313Y-86895289D01*
X80473317Y-86895287D01*
X80634761Y-86781822D01*
X80643832Y-86775447D01*
X83622000Y-86775447D01*
X83622323Y-86781822D01*
X83636082Y-86917277D01*
X83638636Y-86929717D01*
X83693016Y-87103244D01*
X83698025Y-87114932D01*
X83786187Y-87273979D01*
X83793438Y-87284412D01*
X83911785Y-87422491D01*
X83920976Y-87431244D01*
X84064680Y-87542711D01*
X84075440Y-87549435D01*
X84238625Y-87629732D01*
X84250519Y-87634155D01*
X84308470Y-87649251D01*
X84322564Y-87648817D01*
X84326000Y-87640636D01*
X84326000Y-87639229D01*
X84834000Y-87639229D01*
X84837973Y-87652760D01*
X84844075Y-87653637D01*
X84996136Y-87597690D01*
X85007549Y-87592123D01*
X85162108Y-87496292D01*
X85172174Y-87488540D01*
X85304303Y-87363592D01*
X85312605Y-87353974D01*
X85416908Y-87205013D01*
X85423108Y-87193919D01*
X85495332Y-87027020D01*
X85499171Y-87014917D01*
X85536675Y-86835400D01*
X85537915Y-86825848D01*
X85538000Y-86822616D01*
X85538000Y-86527361D01*
X85558002Y-86459240D01*
X85611658Y-86412747D01*
X85681932Y-86402643D01*
X85717250Y-86413166D01*
X85733631Y-86420805D01*
X85733634Y-86420806D01*
X85739808Y-86423685D01*
X85746456Y-86425171D01*
X85746459Y-86425172D01*
X85842686Y-86446681D01*
X85916543Y-86463190D01*
X85922088Y-86463500D01*
X86055244Y-86463500D01*
X86190037Y-86448857D01*
X86328927Y-86402115D01*
X86355204Y-86393272D01*
X86355206Y-86393271D01*
X86361675Y-86391094D01*
X86516905Y-86297823D01*
X86521862Y-86293135D01*
X86521865Y-86293133D01*
X86643527Y-86178082D01*
X86643529Y-86178080D01*
X86648485Y-86173393D01*
X86652317Y-86167755D01*
X86652320Y-86167751D01*
X86746442Y-86029255D01*
X86750277Y-86023612D01*
X86817530Y-85855466D01*
X86818644Y-85848738D01*
X86818645Y-85848734D01*
X86845993Y-85683539D01*
X86845993Y-85683536D01*
X86847108Y-85676802D01*
X86842203Y-85583198D01*
X90952892Y-85583198D01*
X90953249Y-85590015D01*
X90953249Y-85590019D01*
X90958151Y-85683539D01*
X90962370Y-85764047D01*
X90964181Y-85770620D01*
X90964181Y-85770623D01*
X90993207Y-85876000D01*
X91010461Y-85938641D01*
X91094922Y-86098836D01*
X91099327Y-86104049D01*
X91099330Y-86104053D01*
X91207406Y-86231943D01*
X91207410Y-86231947D01*
X91211813Y-86237157D01*
X91217237Y-86241304D01*
X91217238Y-86241305D01*
X91350257Y-86343006D01*
X91350261Y-86343009D01*
X91355678Y-86347150D01*
X91438287Y-86385671D01*
X91513631Y-86420805D01*
X91513634Y-86420806D01*
X91519808Y-86423685D01*
X91526456Y-86425171D01*
X91526459Y-86425172D01*
X91622686Y-86446681D01*
X91696543Y-86463190D01*
X91702088Y-86463500D01*
X91835244Y-86463500D01*
X91970037Y-86448857D01*
X91976501Y-86446682D01*
X91976504Y-86446681D01*
X92095811Y-86406529D01*
X92166753Y-86403759D01*
X92227932Y-86439782D01*
X92259923Y-86503163D01*
X92262000Y-86525948D01*
X92262000Y-86775447D01*
X92262323Y-86781822D01*
X92276082Y-86917277D01*
X92278636Y-86929717D01*
X92333016Y-87103244D01*
X92338025Y-87114932D01*
X92426187Y-87273979D01*
X92433438Y-87284412D01*
X92551785Y-87422491D01*
X92560976Y-87431244D01*
X92704680Y-87542711D01*
X92715440Y-87549435D01*
X92878625Y-87629732D01*
X92890519Y-87634155D01*
X92948470Y-87649251D01*
X92962564Y-87648817D01*
X92966000Y-87640636D01*
X92966000Y-87639229D01*
X93474000Y-87639229D01*
X93477973Y-87652760D01*
X93484075Y-87653637D01*
X93636136Y-87597690D01*
X93647549Y-87592123D01*
X93802108Y-87496292D01*
X93812174Y-87488540D01*
X93944303Y-87363592D01*
X93952605Y-87353974D01*
X94056908Y-87205013D01*
X94063108Y-87193919D01*
X94135332Y-87027020D01*
X94139171Y-87014917D01*
X94176675Y-86835400D01*
X94177915Y-86825848D01*
X94178000Y-86822616D01*
X94178000Y-86775447D01*
X94742000Y-86775447D01*
X94742323Y-86781822D01*
X94756082Y-86917277D01*
X94758636Y-86929717D01*
X94813016Y-87103244D01*
X94818025Y-87114932D01*
X94906187Y-87273979D01*
X94913438Y-87284412D01*
X95031785Y-87422491D01*
X95040976Y-87431244D01*
X95184680Y-87542711D01*
X95195440Y-87549435D01*
X95358625Y-87629732D01*
X95370519Y-87634155D01*
X95428470Y-87649251D01*
X95442564Y-87648817D01*
X95446000Y-87640636D01*
X95446000Y-87639229D01*
X95954000Y-87639229D01*
X95957973Y-87652760D01*
X95964075Y-87653637D01*
X96116136Y-87597690D01*
X96127549Y-87592123D01*
X96282108Y-87496292D01*
X96292174Y-87488540D01*
X96424303Y-87363592D01*
X96432605Y-87353974D01*
X96536908Y-87205013D01*
X96543108Y-87193919D01*
X96615332Y-87027020D01*
X96619171Y-87014917D01*
X96656675Y-86835400D01*
X96657915Y-86825848D01*
X96658000Y-86822616D01*
X96658000Y-86527361D01*
X96678002Y-86459240D01*
X96731658Y-86412747D01*
X96801932Y-86402643D01*
X96837250Y-86413166D01*
X96853631Y-86420805D01*
X96853634Y-86420806D01*
X96859808Y-86423685D01*
X96866456Y-86425171D01*
X96866459Y-86425172D01*
X96962686Y-86446681D01*
X97036543Y-86463190D01*
X97042088Y-86463500D01*
X97175244Y-86463500D01*
X97310037Y-86448857D01*
X97448927Y-86402115D01*
X97475204Y-86393272D01*
X97475206Y-86393271D01*
X97481675Y-86391094D01*
X97636905Y-86297823D01*
X97641862Y-86293135D01*
X97641865Y-86293133D01*
X97763527Y-86178082D01*
X97763529Y-86178080D01*
X97768485Y-86173393D01*
X97772317Y-86167755D01*
X97772320Y-86167751D01*
X97866442Y-86029255D01*
X97870277Y-86023612D01*
X97937530Y-85855466D01*
X97938644Y-85848738D01*
X97938645Y-85848734D01*
X97965993Y-85683539D01*
X97965993Y-85683536D01*
X97967108Y-85676802D01*
X97962203Y-85583198D01*
X102072892Y-85583198D01*
X102073249Y-85590015D01*
X102073249Y-85590019D01*
X102078151Y-85683539D01*
X102082370Y-85764047D01*
X102084181Y-85770620D01*
X102084181Y-85770623D01*
X102113207Y-85876000D01*
X102130461Y-85938641D01*
X102214922Y-86098836D01*
X102219327Y-86104049D01*
X102219330Y-86104053D01*
X102327406Y-86231943D01*
X102327410Y-86231947D01*
X102331813Y-86237157D01*
X102337237Y-86241304D01*
X102337238Y-86241305D01*
X102470257Y-86343006D01*
X102470261Y-86343009D01*
X102475678Y-86347150D01*
X102558287Y-86385671D01*
X102633631Y-86420805D01*
X102633634Y-86420806D01*
X102639808Y-86423685D01*
X102646456Y-86425171D01*
X102646459Y-86425172D01*
X102742686Y-86446681D01*
X102816543Y-86463190D01*
X102822088Y-86463500D01*
X102955244Y-86463500D01*
X103090037Y-86448857D01*
X103096501Y-86446682D01*
X103096504Y-86446681D01*
X103215811Y-86406529D01*
X103286753Y-86403759D01*
X103347932Y-86439782D01*
X103379923Y-86503163D01*
X103382000Y-86525948D01*
X103382000Y-86775447D01*
X103382323Y-86781822D01*
X103396082Y-86917277D01*
X103398636Y-86929717D01*
X103453016Y-87103244D01*
X103458025Y-87114932D01*
X103546187Y-87273979D01*
X103553438Y-87284412D01*
X103671785Y-87422491D01*
X103680976Y-87431244D01*
X103824680Y-87542711D01*
X103835440Y-87549435D01*
X103998625Y-87629732D01*
X104010519Y-87634155D01*
X104068470Y-87649251D01*
X104082564Y-87648817D01*
X104086000Y-87640636D01*
X104086000Y-87639229D01*
X104594000Y-87639229D01*
X104597973Y-87652760D01*
X104604075Y-87653637D01*
X104756136Y-87597690D01*
X104767549Y-87592123D01*
X104922108Y-87496292D01*
X104932174Y-87488540D01*
X105064303Y-87363592D01*
X105072605Y-87353974D01*
X105176908Y-87205013D01*
X105183108Y-87193919D01*
X105255332Y-87027020D01*
X105259171Y-87014917D01*
X105296675Y-86835400D01*
X105297915Y-86825848D01*
X105298000Y-86822616D01*
X105298000Y-86775447D01*
X105862000Y-86775447D01*
X105862323Y-86781822D01*
X105876082Y-86917277D01*
X105878636Y-86929717D01*
X105933016Y-87103244D01*
X105938025Y-87114932D01*
X106026187Y-87273979D01*
X106033438Y-87284412D01*
X106151785Y-87422491D01*
X106160976Y-87431244D01*
X106304680Y-87542711D01*
X106315440Y-87549435D01*
X106478625Y-87629732D01*
X106490519Y-87634155D01*
X106548470Y-87649251D01*
X106562564Y-87648817D01*
X106566000Y-87640636D01*
X106566000Y-87639229D01*
X107074000Y-87639229D01*
X107077973Y-87652760D01*
X107084075Y-87653637D01*
X107236136Y-87597690D01*
X107247549Y-87592123D01*
X107402108Y-87496292D01*
X107412174Y-87488540D01*
X107544303Y-87363592D01*
X107552605Y-87353974D01*
X107656908Y-87205013D01*
X107663108Y-87193919D01*
X107735332Y-87027020D01*
X107739171Y-87014917D01*
X107776675Y-86835400D01*
X107777915Y-86825848D01*
X107778000Y-86822616D01*
X107778000Y-86527361D01*
X107798002Y-86459240D01*
X107851658Y-86412747D01*
X107921932Y-86402643D01*
X107957250Y-86413166D01*
X107973631Y-86420805D01*
X107973634Y-86420806D01*
X107979808Y-86423685D01*
X107986456Y-86425171D01*
X107986459Y-86425172D01*
X108082686Y-86446681D01*
X108156543Y-86463190D01*
X108162088Y-86463500D01*
X108295244Y-86463500D01*
X108430037Y-86448857D01*
X108568927Y-86402115D01*
X108595204Y-86393272D01*
X108595206Y-86393271D01*
X108601675Y-86391094D01*
X108756905Y-86297823D01*
X108761862Y-86293135D01*
X108761865Y-86293133D01*
X108883527Y-86178082D01*
X108883529Y-86178080D01*
X108888485Y-86173393D01*
X108892317Y-86167755D01*
X108892320Y-86167751D01*
X108986442Y-86029255D01*
X108990277Y-86023612D01*
X109057530Y-85855466D01*
X109058644Y-85848738D01*
X109058645Y-85848734D01*
X109085993Y-85683539D01*
X109085993Y-85683536D01*
X109087108Y-85676802D01*
X109082203Y-85583198D01*
X113192892Y-85583198D01*
X113193249Y-85590015D01*
X113193249Y-85590019D01*
X113198151Y-85683539D01*
X113202370Y-85764047D01*
X113204181Y-85770620D01*
X113204181Y-85770623D01*
X113233207Y-85876000D01*
X113250461Y-85938641D01*
X113334922Y-86098836D01*
X113339327Y-86104049D01*
X113339330Y-86104053D01*
X113447406Y-86231943D01*
X113447410Y-86231947D01*
X113451813Y-86237157D01*
X113457237Y-86241304D01*
X113457238Y-86241305D01*
X113590257Y-86343006D01*
X113590261Y-86343009D01*
X113595678Y-86347150D01*
X113678287Y-86385671D01*
X113753631Y-86420805D01*
X113753634Y-86420806D01*
X113759808Y-86423685D01*
X113766456Y-86425171D01*
X113766459Y-86425172D01*
X113862686Y-86446681D01*
X113936543Y-86463190D01*
X113942088Y-86463500D01*
X114075244Y-86463500D01*
X114210037Y-86448857D01*
X114216501Y-86446682D01*
X114216504Y-86446681D01*
X114335811Y-86406529D01*
X114406753Y-86403759D01*
X114467932Y-86439782D01*
X114499923Y-86503163D01*
X114502000Y-86525948D01*
X114502000Y-86775447D01*
X114502323Y-86781822D01*
X114516082Y-86917277D01*
X114518636Y-86929717D01*
X114573016Y-87103244D01*
X114578025Y-87114932D01*
X114666187Y-87273979D01*
X114673438Y-87284412D01*
X114791785Y-87422491D01*
X114800976Y-87431244D01*
X114944680Y-87542711D01*
X114955440Y-87549435D01*
X115118625Y-87629732D01*
X115130519Y-87634155D01*
X115188470Y-87649251D01*
X115202564Y-87648817D01*
X115206000Y-87640636D01*
X115206000Y-87639229D01*
X115714000Y-87639229D01*
X115717973Y-87652760D01*
X115724075Y-87653637D01*
X115876136Y-87597690D01*
X115887549Y-87592123D01*
X116042108Y-87496292D01*
X116052174Y-87488540D01*
X116184303Y-87363592D01*
X116192605Y-87353974D01*
X116296908Y-87205013D01*
X116303108Y-87193919D01*
X116375332Y-87027020D01*
X116379171Y-87014917D01*
X116416675Y-86835400D01*
X116417915Y-86825848D01*
X116418000Y-86822616D01*
X116418000Y-86402115D01*
X116413525Y-86386876D01*
X116412135Y-86385671D01*
X116404452Y-86384000D01*
X115732115Y-86384000D01*
X115716876Y-86388475D01*
X115715671Y-86389865D01*
X115714000Y-86397548D01*
X115714000Y-87639229D01*
X115206000Y-87639229D01*
X115206000Y-85857885D01*
X115714000Y-85857885D01*
X115718475Y-85873124D01*
X115719865Y-85874329D01*
X115727548Y-85876000D01*
X116399885Y-85876000D01*
X116415124Y-85871525D01*
X116416329Y-85870135D01*
X116418000Y-85862452D01*
X116418000Y-85484553D01*
X116417677Y-85478178D01*
X116403918Y-85342723D01*
X116401364Y-85330283D01*
X116367651Y-85222703D01*
X118540743Y-85222703D01*
X118541302Y-85226947D01*
X118541302Y-85226951D01*
X118543084Y-85240488D01*
X118578268Y-85507734D01*
X118654129Y-85785036D01*
X118655813Y-85788984D01*
X118719648Y-85938641D01*
X118766923Y-86049476D01*
X118914561Y-86296161D01*
X119094313Y-86520528D01*
X119302851Y-86718423D01*
X119536317Y-86886186D01*
X119540112Y-86888195D01*
X119540113Y-86888196D01*
X119561869Y-86899715D01*
X119790392Y-87020712D01*
X120060373Y-87119511D01*
X120341264Y-87180755D01*
X120369841Y-87183004D01*
X120564282Y-87198307D01*
X120564291Y-87198307D01*
X120566739Y-87198500D01*
X120722271Y-87198500D01*
X120724407Y-87198354D01*
X120724418Y-87198354D01*
X120932548Y-87184165D01*
X120932554Y-87184164D01*
X120936825Y-87183873D01*
X120941020Y-87183004D01*
X120941022Y-87183004D01*
X121077584Y-87154723D01*
X121218342Y-87125574D01*
X121489343Y-87029607D01*
X121744812Y-86897750D01*
X121748313Y-86895289D01*
X121748317Y-86895287D01*
X121909761Y-86781822D01*
X121980023Y-86732441D01*
X122190622Y-86536740D01*
X122372713Y-86314268D01*
X122522927Y-86069142D01*
X122638483Y-85805898D01*
X122717244Y-85529406D01*
X122757751Y-85244784D01*
X122757845Y-85226951D01*
X122759235Y-84961583D01*
X122759235Y-84961576D01*
X122759257Y-84957297D01*
X122757067Y-84940657D01*
X122738136Y-84796869D01*
X122721732Y-84672266D01*
X122645871Y-84394964D01*
X122533077Y-84130524D01*
X122385439Y-83883839D01*
X122205687Y-83659472D01*
X121997149Y-83461577D01*
X121763683Y-83293814D01*
X121741843Y-83282250D01*
X121629136Y-83222575D01*
X121509608Y-83159288D01*
X121239627Y-83060489D01*
X120958736Y-82999245D01*
X120927685Y-82996801D01*
X120735718Y-82981693D01*
X120735709Y-82981693D01*
X120733261Y-82981500D01*
X120577729Y-82981500D01*
X120575593Y-82981646D01*
X120575582Y-82981646D01*
X120367452Y-82995835D01*
X120367446Y-82995836D01*
X120363175Y-82996127D01*
X120358980Y-82996996D01*
X120358978Y-82996996D01*
X120222417Y-83025276D01*
X120081658Y-83054426D01*
X119810657Y-83150393D01*
X119806848Y-83152359D01*
X119670807Y-83222575D01*
X119555188Y-83282250D01*
X119551687Y-83284711D01*
X119551683Y-83284713D01*
X119541594Y-83291804D01*
X119319977Y-83447559D01*
X119109378Y-83643260D01*
X118927287Y-83865732D01*
X118777073Y-84110858D01*
X118661517Y-84374102D01*
X118582756Y-84650594D01*
X118542249Y-84935216D01*
X118542227Y-84939505D01*
X118542226Y-84939512D01*
X118540765Y-85218417D01*
X118540743Y-85222703D01*
X116367651Y-85222703D01*
X116346984Y-85156756D01*
X116341975Y-85145068D01*
X116253813Y-84986021D01*
X116246562Y-84975588D01*
X116128215Y-84837509D01*
X116119024Y-84828756D01*
X115975320Y-84717289D01*
X115964560Y-84710565D01*
X115801375Y-84630268D01*
X115789481Y-84625845D01*
X115731530Y-84610749D01*
X115717436Y-84611183D01*
X115714000Y-84619364D01*
X115714000Y-85857885D01*
X115206000Y-85857885D01*
X115206000Y-84620771D01*
X115202027Y-84607240D01*
X115195925Y-84606363D01*
X115043864Y-84662310D01*
X115032451Y-84667877D01*
X114877892Y-84763708D01*
X114867826Y-84771460D01*
X114735697Y-84896408D01*
X114727395Y-84906026D01*
X114707917Y-84933844D01*
X114652460Y-84978173D01*
X114581841Y-84985482D01*
X114528179Y-84961672D01*
X114464322Y-84912850D01*
X114359186Y-84863825D01*
X114306369Y-84839195D01*
X114306366Y-84839194D01*
X114300192Y-84836315D01*
X114293544Y-84834829D01*
X114293541Y-84834828D01*
X114128494Y-84797936D01*
X114128495Y-84797936D01*
X114123457Y-84796810D01*
X114117912Y-84796500D01*
X113984756Y-84796500D01*
X113849963Y-84811143D01*
X113771619Y-84837509D01*
X113684796Y-84866728D01*
X113684794Y-84866729D01*
X113678325Y-84868906D01*
X113523095Y-84962177D01*
X113518138Y-84966865D01*
X113518135Y-84966867D01*
X113413220Y-85066081D01*
X113391515Y-85086607D01*
X113387683Y-85092245D01*
X113387680Y-85092249D01*
X113336740Y-85167205D01*
X113289723Y-85236388D01*
X113222470Y-85404534D01*
X113221356Y-85411262D01*
X113221355Y-85411266D01*
X113205385Y-85507734D01*
X113192892Y-85583198D01*
X109082203Y-85583198D01*
X109077987Y-85502766D01*
X109077630Y-85495953D01*
X109061498Y-85437384D01*
X109031352Y-85327941D01*
X109029539Y-85321359D01*
X108945078Y-85161164D01*
X108940673Y-85155951D01*
X108940670Y-85155947D01*
X108832594Y-85028057D01*
X108832590Y-85028053D01*
X108828187Y-85022843D01*
X108779321Y-84985482D01*
X108689743Y-84916994D01*
X108689739Y-84916991D01*
X108684322Y-84912850D01*
X108579186Y-84863825D01*
X108526369Y-84839195D01*
X108526366Y-84839194D01*
X108520192Y-84836315D01*
X108513544Y-84834829D01*
X108513541Y-84834828D01*
X108348494Y-84797936D01*
X108348495Y-84797936D01*
X108343457Y-84796810D01*
X108337912Y-84796500D01*
X108204756Y-84796500D01*
X108069963Y-84811143D01*
X107991619Y-84837509D01*
X107904796Y-84866728D01*
X107904794Y-84866729D01*
X107898325Y-84868906D01*
X107892470Y-84872424D01*
X107748946Y-84958661D01*
X107748944Y-84958663D01*
X107743095Y-84962177D01*
X107742553Y-84961274D01*
X107682118Y-84984276D01*
X107612645Y-84969648D01*
X107576623Y-84940657D01*
X107488215Y-84837510D01*
X107479024Y-84828756D01*
X107335320Y-84717289D01*
X107324560Y-84710565D01*
X107161375Y-84630268D01*
X107149481Y-84625845D01*
X107091530Y-84610749D01*
X107077436Y-84611183D01*
X107074000Y-84619364D01*
X107074000Y-87639229D01*
X106566000Y-87639229D01*
X106566000Y-86402115D01*
X106561525Y-86386876D01*
X106560135Y-86385671D01*
X106552452Y-86384000D01*
X105880115Y-86384000D01*
X105864876Y-86388475D01*
X105863671Y-86389865D01*
X105862000Y-86397548D01*
X105862000Y-86775447D01*
X105298000Y-86775447D01*
X105298000Y-86402115D01*
X105293525Y-86386876D01*
X105292135Y-86385671D01*
X105284452Y-86384000D01*
X104612115Y-86384000D01*
X104596876Y-86388475D01*
X104595671Y-86389865D01*
X104594000Y-86397548D01*
X104594000Y-87639229D01*
X104086000Y-87639229D01*
X104086000Y-85857885D01*
X104594000Y-85857885D01*
X104598475Y-85873124D01*
X104599865Y-85874329D01*
X104607548Y-85876000D01*
X105279885Y-85876000D01*
X105295124Y-85871525D01*
X105296329Y-85870135D01*
X105298000Y-85862452D01*
X105298000Y-85857885D01*
X105862000Y-85857885D01*
X105866475Y-85873124D01*
X105867865Y-85874329D01*
X105875548Y-85876000D01*
X106547885Y-85876000D01*
X106563124Y-85871525D01*
X106564329Y-85870135D01*
X106566000Y-85862452D01*
X106566000Y-84620771D01*
X106562027Y-84607240D01*
X106555925Y-84606363D01*
X106403864Y-84662310D01*
X106392451Y-84667877D01*
X106237892Y-84763708D01*
X106227826Y-84771460D01*
X106095697Y-84896408D01*
X106087395Y-84906026D01*
X105983092Y-85054987D01*
X105976892Y-85066081D01*
X105904668Y-85232980D01*
X105900829Y-85245083D01*
X105863325Y-85424600D01*
X105862085Y-85434152D01*
X105862000Y-85437384D01*
X105862000Y-85857885D01*
X105298000Y-85857885D01*
X105298000Y-85484553D01*
X105297677Y-85478178D01*
X105283918Y-85342723D01*
X105281364Y-85330283D01*
X105226984Y-85156756D01*
X105221975Y-85145068D01*
X105133813Y-84986021D01*
X105126562Y-84975588D01*
X105008215Y-84837509D01*
X104999024Y-84828756D01*
X104855320Y-84717289D01*
X104844560Y-84710565D01*
X104681375Y-84630268D01*
X104669481Y-84625845D01*
X104611530Y-84610749D01*
X104597436Y-84611183D01*
X104594000Y-84619364D01*
X104594000Y-85857885D01*
X104086000Y-85857885D01*
X104086000Y-84620771D01*
X104082027Y-84607240D01*
X104075925Y-84606363D01*
X103923864Y-84662310D01*
X103912451Y-84667877D01*
X103757892Y-84763708D01*
X103747826Y-84771460D01*
X103615697Y-84896408D01*
X103607395Y-84906026D01*
X103587917Y-84933844D01*
X103532460Y-84978173D01*
X103461841Y-84985482D01*
X103408179Y-84961672D01*
X103344322Y-84912850D01*
X103239186Y-84863825D01*
X103186369Y-84839195D01*
X103186366Y-84839194D01*
X103180192Y-84836315D01*
X103173544Y-84834829D01*
X103173541Y-84834828D01*
X103008494Y-84797936D01*
X103008495Y-84797936D01*
X103003457Y-84796810D01*
X102997912Y-84796500D01*
X102864756Y-84796500D01*
X102729963Y-84811143D01*
X102651619Y-84837509D01*
X102564796Y-84866728D01*
X102564794Y-84866729D01*
X102558325Y-84868906D01*
X102403095Y-84962177D01*
X102398138Y-84966865D01*
X102398135Y-84966867D01*
X102293220Y-85066081D01*
X102271515Y-85086607D01*
X102267683Y-85092245D01*
X102267680Y-85092249D01*
X102216740Y-85167205D01*
X102169723Y-85236388D01*
X102102470Y-85404534D01*
X102101356Y-85411262D01*
X102101355Y-85411266D01*
X102085385Y-85507734D01*
X102072892Y-85583198D01*
X97962203Y-85583198D01*
X97957987Y-85502766D01*
X97957630Y-85495953D01*
X97941498Y-85437384D01*
X97911352Y-85327941D01*
X97909539Y-85321359D01*
X97825078Y-85161164D01*
X97820673Y-85155951D01*
X97820670Y-85155947D01*
X97712594Y-85028057D01*
X97712590Y-85028053D01*
X97708187Y-85022843D01*
X97659321Y-84985482D01*
X97569743Y-84916994D01*
X97569739Y-84916991D01*
X97564322Y-84912850D01*
X97459186Y-84863825D01*
X97406369Y-84839195D01*
X97406366Y-84839194D01*
X97400192Y-84836315D01*
X97393544Y-84834829D01*
X97393541Y-84834828D01*
X97228494Y-84797936D01*
X97228495Y-84797936D01*
X97223457Y-84796810D01*
X97217912Y-84796500D01*
X97084756Y-84796500D01*
X96949963Y-84811143D01*
X96871619Y-84837509D01*
X96784796Y-84866728D01*
X96784794Y-84866729D01*
X96778325Y-84868906D01*
X96772470Y-84872424D01*
X96628946Y-84958661D01*
X96628944Y-84958663D01*
X96623095Y-84962177D01*
X96622553Y-84961274D01*
X96562118Y-84984276D01*
X96492645Y-84969648D01*
X96456623Y-84940657D01*
X96368215Y-84837510D01*
X96359024Y-84828756D01*
X96215320Y-84717289D01*
X96204560Y-84710565D01*
X96041375Y-84630268D01*
X96029481Y-84625845D01*
X95971530Y-84610749D01*
X95957436Y-84611183D01*
X95954000Y-84619364D01*
X95954000Y-87639229D01*
X95446000Y-87639229D01*
X95446000Y-86402115D01*
X95441525Y-86386876D01*
X95440135Y-86385671D01*
X95432452Y-86384000D01*
X94760115Y-86384000D01*
X94744876Y-86388475D01*
X94743671Y-86389865D01*
X94742000Y-86397548D01*
X94742000Y-86775447D01*
X94178000Y-86775447D01*
X94178000Y-86402115D01*
X94173525Y-86386876D01*
X94172135Y-86385671D01*
X94164452Y-86384000D01*
X93492115Y-86384000D01*
X93476876Y-86388475D01*
X93475671Y-86389865D01*
X93474000Y-86397548D01*
X93474000Y-87639229D01*
X92966000Y-87639229D01*
X92966000Y-85857885D01*
X93474000Y-85857885D01*
X93478475Y-85873124D01*
X93479865Y-85874329D01*
X93487548Y-85876000D01*
X94159885Y-85876000D01*
X94175124Y-85871525D01*
X94176329Y-85870135D01*
X94178000Y-85862452D01*
X94178000Y-85857885D01*
X94742000Y-85857885D01*
X94746475Y-85873124D01*
X94747865Y-85874329D01*
X94755548Y-85876000D01*
X95427885Y-85876000D01*
X95443124Y-85871525D01*
X95444329Y-85870135D01*
X95446000Y-85862452D01*
X95446000Y-84620771D01*
X95442027Y-84607240D01*
X95435925Y-84606363D01*
X95283864Y-84662310D01*
X95272451Y-84667877D01*
X95117892Y-84763708D01*
X95107826Y-84771460D01*
X94975697Y-84896408D01*
X94967395Y-84906026D01*
X94863092Y-85054987D01*
X94856892Y-85066081D01*
X94784668Y-85232980D01*
X94780829Y-85245083D01*
X94743325Y-85424600D01*
X94742085Y-85434152D01*
X94742000Y-85437384D01*
X94742000Y-85857885D01*
X94178000Y-85857885D01*
X94178000Y-85484553D01*
X94177677Y-85478178D01*
X94163918Y-85342723D01*
X94161364Y-85330283D01*
X94106984Y-85156756D01*
X94101975Y-85145068D01*
X94013813Y-84986021D01*
X94006562Y-84975588D01*
X93888215Y-84837509D01*
X93879024Y-84828756D01*
X93735320Y-84717289D01*
X93724560Y-84710565D01*
X93561375Y-84630268D01*
X93549481Y-84625845D01*
X93491530Y-84610749D01*
X93477436Y-84611183D01*
X93474000Y-84619364D01*
X93474000Y-85857885D01*
X92966000Y-85857885D01*
X92966000Y-84620771D01*
X92962027Y-84607240D01*
X92955925Y-84606363D01*
X92803864Y-84662310D01*
X92792451Y-84667877D01*
X92637892Y-84763708D01*
X92627826Y-84771460D01*
X92495697Y-84896408D01*
X92487395Y-84906026D01*
X92467917Y-84933844D01*
X92412460Y-84978173D01*
X92341841Y-84985482D01*
X92288179Y-84961672D01*
X92224322Y-84912850D01*
X92119186Y-84863825D01*
X92066369Y-84839195D01*
X92066366Y-84839194D01*
X92060192Y-84836315D01*
X92053544Y-84834829D01*
X92053541Y-84834828D01*
X91888494Y-84797936D01*
X91888495Y-84797936D01*
X91883457Y-84796810D01*
X91877912Y-84796500D01*
X91744756Y-84796500D01*
X91609963Y-84811143D01*
X91531619Y-84837509D01*
X91444796Y-84866728D01*
X91444794Y-84866729D01*
X91438325Y-84868906D01*
X91283095Y-84962177D01*
X91278138Y-84966865D01*
X91278135Y-84966867D01*
X91173220Y-85066081D01*
X91151515Y-85086607D01*
X91147683Y-85092245D01*
X91147680Y-85092249D01*
X91096740Y-85167205D01*
X91049723Y-85236388D01*
X90982470Y-85404534D01*
X90981356Y-85411262D01*
X90981355Y-85411266D01*
X90965385Y-85507734D01*
X90952892Y-85583198D01*
X86842203Y-85583198D01*
X86837987Y-85502766D01*
X86837630Y-85495953D01*
X86821498Y-85437384D01*
X86791352Y-85327941D01*
X86789539Y-85321359D01*
X86705078Y-85161164D01*
X86700673Y-85155951D01*
X86700670Y-85155947D01*
X86592594Y-85028057D01*
X86592590Y-85028053D01*
X86588187Y-85022843D01*
X86539321Y-84985482D01*
X86449743Y-84916994D01*
X86449739Y-84916991D01*
X86444322Y-84912850D01*
X86339186Y-84863825D01*
X86286369Y-84839195D01*
X86286366Y-84839194D01*
X86280192Y-84836315D01*
X86273544Y-84834829D01*
X86273541Y-84834828D01*
X86108494Y-84797936D01*
X86108495Y-84797936D01*
X86103457Y-84796810D01*
X86097912Y-84796500D01*
X85964756Y-84796500D01*
X85829963Y-84811143D01*
X85751619Y-84837509D01*
X85664796Y-84866728D01*
X85664794Y-84866729D01*
X85658325Y-84868906D01*
X85652470Y-84872424D01*
X85508946Y-84958661D01*
X85508944Y-84958663D01*
X85503095Y-84962177D01*
X85502553Y-84961274D01*
X85442118Y-84984276D01*
X85372645Y-84969648D01*
X85336623Y-84940657D01*
X85248215Y-84837510D01*
X85239024Y-84828756D01*
X85095320Y-84717289D01*
X85084560Y-84710565D01*
X84921375Y-84630268D01*
X84909481Y-84625845D01*
X84851530Y-84610749D01*
X84837436Y-84611183D01*
X84834000Y-84619364D01*
X84834000Y-87639229D01*
X84326000Y-87639229D01*
X84326000Y-86402115D01*
X84321525Y-86386876D01*
X84320135Y-86385671D01*
X84312452Y-86384000D01*
X83640115Y-86384000D01*
X83624876Y-86388475D01*
X83623671Y-86389865D01*
X83622000Y-86397548D01*
X83622000Y-86775447D01*
X80643832Y-86775447D01*
X80705023Y-86732441D01*
X80915622Y-86536740D01*
X81097713Y-86314268D01*
X81247927Y-86069142D01*
X81340662Y-85857885D01*
X83622000Y-85857885D01*
X83626475Y-85873124D01*
X83627865Y-85874329D01*
X83635548Y-85876000D01*
X84307885Y-85876000D01*
X84323124Y-85871525D01*
X84324329Y-85870135D01*
X84326000Y-85862452D01*
X84326000Y-84620771D01*
X84322027Y-84607240D01*
X84315925Y-84606363D01*
X84163864Y-84662310D01*
X84152451Y-84667877D01*
X83997892Y-84763708D01*
X83987826Y-84771460D01*
X83855697Y-84896408D01*
X83847395Y-84906026D01*
X83743092Y-85054987D01*
X83736892Y-85066081D01*
X83664668Y-85232980D01*
X83660829Y-85245083D01*
X83623325Y-85424600D01*
X83622085Y-85434152D01*
X83622000Y-85437384D01*
X83622000Y-85857885D01*
X81340662Y-85857885D01*
X81363483Y-85805898D01*
X81442244Y-85529406D01*
X81482751Y-85244784D01*
X81482845Y-85226951D01*
X81484235Y-84961583D01*
X81484235Y-84961576D01*
X81484257Y-84957297D01*
X81482067Y-84940657D01*
X81463136Y-84796869D01*
X81446732Y-84672266D01*
X81370871Y-84394964D01*
X81258077Y-84130524D01*
X81110439Y-83883839D01*
X80930687Y-83659472D01*
X80722149Y-83461577D01*
X80488683Y-83293814D01*
X80466843Y-83282250D01*
X80354136Y-83222575D01*
X80234608Y-83159288D01*
X79964627Y-83060489D01*
X79683736Y-82999245D01*
X79652685Y-82996801D01*
X79460718Y-82981693D01*
X79460709Y-82981693D01*
X79458261Y-82981500D01*
X79302729Y-82981500D01*
X79300593Y-82981646D01*
X79300582Y-82981646D01*
X79092452Y-82995835D01*
X79092446Y-82995836D01*
X79088175Y-82996127D01*
X79083980Y-82996996D01*
X79083978Y-82996996D01*
X78947417Y-83025276D01*
X78806658Y-83054426D01*
X78535657Y-83150393D01*
X78531848Y-83152359D01*
X78395807Y-83222575D01*
X78280188Y-83282250D01*
X78276687Y-83284711D01*
X78276683Y-83284713D01*
X78266594Y-83291804D01*
X78044977Y-83447559D01*
X77834378Y-83643260D01*
X77652287Y-83865732D01*
X77502073Y-84110858D01*
X77386517Y-84374102D01*
X77307756Y-84650594D01*
X77267249Y-84935216D01*
X77267227Y-84939505D01*
X77267226Y-84939512D01*
X77265765Y-85218417D01*
X77265743Y-85222703D01*
X75438500Y-85222703D01*
X75438500Y-82296657D01*
X83572000Y-82296657D01*
X83572301Y-82302805D01*
X83585812Y-82440603D01*
X83588195Y-82452638D01*
X83641767Y-82630076D01*
X83646441Y-82641416D01*
X83733460Y-82805077D01*
X83740249Y-82815294D01*
X83857397Y-82958933D01*
X83866041Y-82967637D01*
X84008856Y-83085784D01*
X84019027Y-83092644D01*
X84182076Y-83180804D01*
X84193381Y-83185556D01*
X84308692Y-83221250D01*
X84322795Y-83221456D01*
X84326000Y-83214701D01*
X84326000Y-83207924D01*
X84834000Y-83207924D01*
X84837973Y-83221455D01*
X84845768Y-83222575D01*
X84953521Y-83190862D01*
X84964889Y-83186269D01*
X85129154Y-83100393D01*
X85139415Y-83093679D01*
X85283873Y-82977532D01*
X85292632Y-82968954D01*
X85411778Y-82826961D01*
X85418708Y-82816841D01*
X85508002Y-82654415D01*
X85512834Y-82643142D01*
X85568880Y-82466462D01*
X85571430Y-82454468D01*
X85587607Y-82310239D01*
X85588000Y-82303215D01*
X85588000Y-82296657D01*
X92212000Y-82296657D01*
X92212301Y-82302805D01*
X92225812Y-82440603D01*
X92228195Y-82452638D01*
X92281767Y-82630076D01*
X92286441Y-82641416D01*
X92373460Y-82805077D01*
X92380249Y-82815294D01*
X92497397Y-82958933D01*
X92506041Y-82967637D01*
X92648856Y-83085784D01*
X92659027Y-83092644D01*
X92822076Y-83180804D01*
X92833381Y-83185556D01*
X92948692Y-83221250D01*
X92962795Y-83221456D01*
X92966000Y-83214701D01*
X92966000Y-83207924D01*
X93474000Y-83207924D01*
X93477973Y-83221455D01*
X93485768Y-83222575D01*
X93593521Y-83190862D01*
X93604889Y-83186269D01*
X93769154Y-83100393D01*
X93779415Y-83093679D01*
X93923873Y-82977532D01*
X93932632Y-82968954D01*
X94051778Y-82826961D01*
X94058708Y-82816841D01*
X94148002Y-82654415D01*
X94152834Y-82643142D01*
X94208880Y-82466462D01*
X94211430Y-82454468D01*
X94227607Y-82310239D01*
X94228000Y-82303215D01*
X94228000Y-82296657D01*
X94692000Y-82296657D01*
X94692301Y-82302805D01*
X94705812Y-82440603D01*
X94708195Y-82452638D01*
X94761767Y-82630076D01*
X94766441Y-82641416D01*
X94853460Y-82805077D01*
X94860249Y-82815294D01*
X94977397Y-82958933D01*
X94986041Y-82967637D01*
X95128856Y-83085784D01*
X95139027Y-83092644D01*
X95302076Y-83180804D01*
X95313381Y-83185556D01*
X95428692Y-83221250D01*
X95442795Y-83221456D01*
X95446000Y-83214701D01*
X95446000Y-83207924D01*
X95954000Y-83207924D01*
X95957973Y-83221455D01*
X95965768Y-83222575D01*
X96073521Y-83190862D01*
X96084889Y-83186269D01*
X96249154Y-83100393D01*
X96259415Y-83093679D01*
X96403873Y-82977532D01*
X96412632Y-82968954D01*
X96531778Y-82826961D01*
X96538708Y-82816841D01*
X96628002Y-82654415D01*
X96632834Y-82643142D01*
X96688880Y-82466462D01*
X96691430Y-82454468D01*
X96707607Y-82310239D01*
X96708000Y-82303215D01*
X96708000Y-82296657D01*
X103332000Y-82296657D01*
X103332301Y-82302805D01*
X103345812Y-82440603D01*
X103348195Y-82452638D01*
X103401767Y-82630076D01*
X103406441Y-82641416D01*
X103493460Y-82805077D01*
X103500249Y-82815294D01*
X103617397Y-82958933D01*
X103626041Y-82967637D01*
X103768856Y-83085784D01*
X103779027Y-83092644D01*
X103942076Y-83180804D01*
X103953381Y-83185556D01*
X104068692Y-83221250D01*
X104082795Y-83221456D01*
X104086000Y-83214701D01*
X104086000Y-83207924D01*
X104594000Y-83207924D01*
X104597973Y-83221455D01*
X104605768Y-83222575D01*
X104713521Y-83190862D01*
X104724889Y-83186269D01*
X104889154Y-83100393D01*
X104899415Y-83093679D01*
X105043873Y-82977532D01*
X105052632Y-82968954D01*
X105171778Y-82826961D01*
X105178708Y-82816841D01*
X105268002Y-82654415D01*
X105272834Y-82643142D01*
X105328880Y-82466462D01*
X105331430Y-82454468D01*
X105347607Y-82310239D01*
X105348000Y-82303215D01*
X105348000Y-82296657D01*
X105812000Y-82296657D01*
X105812301Y-82302805D01*
X105825812Y-82440603D01*
X105828195Y-82452638D01*
X105881767Y-82630076D01*
X105886441Y-82641416D01*
X105973460Y-82805077D01*
X105980249Y-82815294D01*
X106097397Y-82958933D01*
X106106041Y-82967637D01*
X106248856Y-83085784D01*
X106259027Y-83092644D01*
X106422076Y-83180804D01*
X106433381Y-83185556D01*
X106548692Y-83221250D01*
X106562795Y-83221456D01*
X106566000Y-83214701D01*
X106566000Y-83207924D01*
X107074000Y-83207924D01*
X107077973Y-83221455D01*
X107085768Y-83222575D01*
X107193521Y-83190862D01*
X107204889Y-83186269D01*
X107369154Y-83100393D01*
X107379415Y-83093679D01*
X107523873Y-82977532D01*
X107532632Y-82968954D01*
X107651778Y-82826961D01*
X107658708Y-82816841D01*
X107748002Y-82654415D01*
X107752834Y-82643142D01*
X107808880Y-82466462D01*
X107811430Y-82454468D01*
X107827607Y-82310239D01*
X107828000Y-82303215D01*
X107828000Y-82296657D01*
X114452000Y-82296657D01*
X114452301Y-82302805D01*
X114465812Y-82440603D01*
X114468195Y-82452638D01*
X114521767Y-82630076D01*
X114526441Y-82641416D01*
X114613460Y-82805077D01*
X114620249Y-82815294D01*
X114737397Y-82958933D01*
X114746041Y-82967637D01*
X114888856Y-83085784D01*
X114899027Y-83092644D01*
X115062076Y-83180804D01*
X115073381Y-83185556D01*
X115188692Y-83221250D01*
X115202795Y-83221456D01*
X115206000Y-83214701D01*
X115206000Y-83207924D01*
X115714000Y-83207924D01*
X115717973Y-83221455D01*
X115725768Y-83222575D01*
X115833521Y-83190862D01*
X115844889Y-83186269D01*
X116009154Y-83100393D01*
X116019415Y-83093679D01*
X116163873Y-82977532D01*
X116172632Y-82968954D01*
X116291778Y-82826961D01*
X116298708Y-82816841D01*
X116388002Y-82654415D01*
X116392834Y-82643142D01*
X116448880Y-82466462D01*
X116451430Y-82454468D01*
X116467607Y-82310239D01*
X116468000Y-82303215D01*
X116468000Y-82222115D01*
X116463525Y-82206876D01*
X116462135Y-82205671D01*
X116454452Y-82204000D01*
X115732115Y-82204000D01*
X115716876Y-82208475D01*
X115715671Y-82209865D01*
X115714000Y-82217548D01*
X115714000Y-83207924D01*
X115206000Y-83207924D01*
X115206000Y-82222115D01*
X115201525Y-82206876D01*
X115200135Y-82205671D01*
X115192452Y-82204000D01*
X114470115Y-82204000D01*
X114454876Y-82208475D01*
X114453671Y-82209865D01*
X114452000Y-82217548D01*
X114452000Y-82296657D01*
X107828000Y-82296657D01*
X107828000Y-82222115D01*
X107823525Y-82206876D01*
X107822135Y-82205671D01*
X107814452Y-82204000D01*
X107092115Y-82204000D01*
X107076876Y-82208475D01*
X107075671Y-82209865D01*
X107074000Y-82217548D01*
X107074000Y-83207924D01*
X106566000Y-83207924D01*
X106566000Y-82222115D01*
X106561525Y-82206876D01*
X106560135Y-82205671D01*
X106552452Y-82204000D01*
X105830115Y-82204000D01*
X105814876Y-82208475D01*
X105813671Y-82209865D01*
X105812000Y-82217548D01*
X105812000Y-82296657D01*
X105348000Y-82296657D01*
X105348000Y-82222115D01*
X105343525Y-82206876D01*
X105342135Y-82205671D01*
X105334452Y-82204000D01*
X104612115Y-82204000D01*
X104596876Y-82208475D01*
X104595671Y-82209865D01*
X104594000Y-82217548D01*
X104594000Y-83207924D01*
X104086000Y-83207924D01*
X104086000Y-82222115D01*
X104081525Y-82206876D01*
X104080135Y-82205671D01*
X104072452Y-82204000D01*
X103350115Y-82204000D01*
X103334876Y-82208475D01*
X103333671Y-82209865D01*
X103332000Y-82217548D01*
X103332000Y-82296657D01*
X96708000Y-82296657D01*
X96708000Y-82222115D01*
X96703525Y-82206876D01*
X96702135Y-82205671D01*
X96694452Y-82204000D01*
X95972115Y-82204000D01*
X95956876Y-82208475D01*
X95955671Y-82209865D01*
X95954000Y-82217548D01*
X95954000Y-83207924D01*
X95446000Y-83207924D01*
X95446000Y-82222115D01*
X95441525Y-82206876D01*
X95440135Y-82205671D01*
X95432452Y-82204000D01*
X94710115Y-82204000D01*
X94694876Y-82208475D01*
X94693671Y-82209865D01*
X94692000Y-82217548D01*
X94692000Y-82296657D01*
X94228000Y-82296657D01*
X94228000Y-82222115D01*
X94223525Y-82206876D01*
X94222135Y-82205671D01*
X94214452Y-82204000D01*
X93492115Y-82204000D01*
X93476876Y-82208475D01*
X93475671Y-82209865D01*
X93474000Y-82217548D01*
X93474000Y-83207924D01*
X92966000Y-83207924D01*
X92966000Y-82222115D01*
X92961525Y-82206876D01*
X92960135Y-82205671D01*
X92952452Y-82204000D01*
X92230115Y-82204000D01*
X92214876Y-82208475D01*
X92213671Y-82209865D01*
X92212000Y-82217548D01*
X92212000Y-82296657D01*
X85588000Y-82296657D01*
X85588000Y-82222115D01*
X85583525Y-82206876D01*
X85582135Y-82205671D01*
X85574452Y-82204000D01*
X84852115Y-82204000D01*
X84836876Y-82208475D01*
X84835671Y-82209865D01*
X84834000Y-82217548D01*
X84834000Y-83207924D01*
X84326000Y-83207924D01*
X84326000Y-82222115D01*
X84321525Y-82206876D01*
X84320135Y-82205671D01*
X84312452Y-82204000D01*
X83590115Y-82204000D01*
X83574876Y-82208475D01*
X83573671Y-82209865D01*
X83572000Y-82217548D01*
X83572000Y-82296657D01*
X75438500Y-82296657D01*
X75438500Y-81333250D01*
X75440246Y-81312345D01*
X75442770Y-81297344D01*
X75442770Y-81297341D01*
X75443576Y-81292552D01*
X75443729Y-81280000D01*
X75442788Y-81273429D01*
X75442123Y-81243218D01*
X75451916Y-81143789D01*
X75456733Y-81119568D01*
X75492866Y-81000454D01*
X75502315Y-80977645D01*
X75560987Y-80867876D01*
X75574705Y-80847345D01*
X75653671Y-80751124D01*
X75671124Y-80733671D01*
X75767345Y-80654705D01*
X75787876Y-80640987D01*
X75897645Y-80582315D01*
X75920454Y-80572866D01*
X76039568Y-80536733D01*
X76063789Y-80531916D01*
X76159809Y-80522459D01*
X76175868Y-80522909D01*
X76175877Y-80522200D01*
X76184853Y-80522310D01*
X76193724Y-80523691D01*
X76202626Y-80522527D01*
X76202628Y-80522527D01*
X76219059Y-80520378D01*
X76225286Y-80519564D01*
X76241621Y-80518500D01*
X84055573Y-80518500D01*
X84123694Y-80538502D01*
G37*
%TD.AperFunction*%
%TD*%
M02*
